<?xml version="1.0" encoding="UTF-8"?>
<svg xmlns="http://www.w3.org/2000/svg" viewBox="0 0 563.68 379.06">
  <defs>
    <style>.cls-1{fill:#8faedb;}</style>
  </defs>
  <title>Asset 18</title>
  <g id="Layer_2" data-name="Layer 2">
    <g id="Layer_1-2" data-name="Layer 1">
      <path class="cls-1" d="M471,243.73c4.1-.15,8.19-.56,12.29-.8,4.67-.27,9.11.55,13.74.82,2,.12,1-1.58-.46-1.66-4.33-.25-8.38-1.1-12.74-.91-4.68.2-9.34.71-14,.89-1.95.07.05,1.71,1.19,1.67Z" transform="translate(-1.6)"></path>
      <path class="cls-1" d="M79.6,244.37c5.68,0,11.32-.69,17-1.16,6.5-.53,12.81-.84,19.34-.84,12.42,0,24.85.14,37.27-.19,26.28-.69,52.52-.81,78.8-.81h78.72c27,0,54.29-1,81.3.23,12.87.58,25.67.77,38.55.77,13.24,0,26.39-.84,39.61-1,1,0,1.57-2.93.3-2.91-12.07.16-24.07,1-36.15,1s-24.16.12-36.24-.5c-25.66-1.32-51.49-.5-77.17-.5-52.74,0-105.63-1.19-158.34.53-14.18.46-28.35.47-42.54.47-6.69,0-13.39-.23-20,.5a188.64,188.64,0,0,1-20.13,1.5c-1,0-1.59,2.91-.29,2.91Z" transform="translate(-1.6)"></path>
      <path class="cls-1" d="M187.38,241.44v1c0,.38.42.5.72.5h1c.76,0,2-.66,2-1.54q0-1,0-2l-1.33,1.4c1.68-.55,2.23-1.66,2.58-3.33.84-4.06,1.19-8.35,1.86-12.46,1.78-10.9,4.68-21.33,10.32-30.9,5.35-9.08,12.33-17.23,19.68-24.73,7.91-8.08,16.76-14.92,27.55-18.59s22.69-8.3,34.32-8.86c5.13-.25,10.35-.23,15.48-.14,6.22.11,11.85,1.33,17.91,2.41,5.37,1,10.15,1.56,15.15,4a101.37,101.37,0,0,1,12,7.27c4.09,2.75,8,5.8,11.8,8.91,4.14,3.38,7.59,7.37,11.48,11,4.68,4.42,9.39,8.64,12.74,14.21a85.12,85.12,0,0,1,6.62,14.85c4.22,11.59,8,23.52,8.16,36,0,1.16,2.75,0,2.73-1-.18-10.88-3-21.56-6.62-31.78-3.3-9.37-6.63-19-13.47-26.44a214.5,214.5,0,0,0-25.74-23.66c-7.32-5.73-16.39-12.32-25.66-14.19-11-2.22-21.7-3.72-33-3.54-5,.08-10-.06-14.91.92A161.54,161.54,0,0,0,264.32,145c-10.07,3.11-19.91,6.13-28.61,12.25s-16.33,14.22-23.2,22.46-13,17.49-16.64,27.79a111.86,111.86,0,0,0-4.62,20c0,.07-1.65,11.61-1.54,11.58-.55.18-1.33.75-1.33,1.4s0,1.33,0,2l2-1.54c-.73,0-.28.92-.28-.5,0-1.17-2.74,0-2.74,1Z" transform="translate(-1.6)"></path>
      <path class="cls-1" d="M159.51,252.7c2.25,1.58,5.3,1.46,8,1.83a131.29,131.29,0,0,0,13.89.93,152.76,152.76,0,0,0,27-1.58c1.16-.17,2.75-2.2.82-1.92a147.49,147.49,0,0,1-24.49,1.62c-3.74-.07-7.47-.3-11.21-.55-2.93-.19-9-.15-11.47-1.89-.9-.63-3.44.88-2.48,1.56Z" transform="translate(-1.6)"></path>
      <path class="cls-1" d="M183.21,254.82h1c.52,0,2-.26,2-1.06q0-.5,0-1c0-.52-.44-.73-.91-.75-3.12-.17-9.19-1.09-11.2-3.68l-.74,1.28c3.08-1.62,6.55-.87,9.86-.78s6.69-.06,10,0,6.61.85,10,1,6.68,0,10,0c1.19,0,3-1.8,1.09-1.8-8.53,0-16.87-1-25.38-1-5.34,0-11.82-1.38-16.76,1.22-.42.22-1.18.72-.74,1.28,2.44,3.15,9.07,4.1,12.8,4.32l-.91-.75q0,.5,0,1l2-1.06h-1c-1.19,0-3,1.8-1.08,1.81Z" transform="translate(-1.6)"></path>
      <path class="cls-1" d="M197.6,249.31c1.9,1.52,4,1.53,6.42,1.46,3.88-.12,7.73-.82,11.58,0l-1.31-.87c.46,3.3-10.41,6-12.19,3.86-.39-.47-2.83-1.27-2.83-.09v1c0,1.2,3,1.62,3,.54v-1l-2.83-.09c2.29,2.75,7.21,2,10.26,1.37,2.54-.55,8-2,7.56-5.51-.07-.52-.9-.79-1.31-.87a27.77,27.77,0,0,0-7.08-.41c-2.29.11-7,1.41-8.92-.16-.83-.66-3.65-.29-2.3.79Z" transform="translate(-1.6)"></path>
      <path class="cls-1" d="M165.25,252.19q-.34-1.71-1.2-1.16l-2.11.63a25.08,25.08,0,0,1-4.9,0c-3.58-.18-7.24-.82-10.81-1.3-2.88-.39-5.49-1.09-8.41-.73-3.68.46-7.1,1.81-10.83,2-1.21.07.39,2.3,1,2.46,3.36.92,6.63,2.28,10.09,2.81,4.66.72,9.63.91,14.34,1.24,5.59.39,13.3,3.7,14.52-4.52.15-1-2.1-2.91-2.31-1.44-.76,5.17-5.3,4.73-9.34,3.93-3-.58-6-.63-9-1s-6.17-.3-9.2-.76c-3.26-.5-6.36-1.8-9.52-2.67l1,2.46c3.46-.21,6.6-1.41,10-1.93,4-.61,8.12.56,12.09,1,5.47.65,10.72,1.71,15.91-.11a.56.56,0,0,0,.4-.53c-.09-1.69-.86-2.9-2.66-3-1.47-.08-.06,2.48,1,2.54Z" transform="translate(-1.6)"></path>
      <path class="cls-1" d="M160.65,248.44l.25.25,1.76-2.21c-1.56,0-4.77-.66-5.46-2.4l-.38,1.13c.06-.08,3.32,0,3.71,0a20.7,20.7,0,0,1,5.43.58c.26.05,1.65.14,1.73.49,0,.19-1.59.2-2.24.22a34.14,34.14,0,0,1-4.78.26c-1-.12-2.78,2.18-1.33,2.37a30.41,30.41,0,0,0,6.75-.38,4.47,4.47,0,0,0,3.34-1.62c2.5-3.6-2.71-4-5-4.29a27,27,0,0,0-6.33.24,3.77,3.77,0,0,0-3,1.73c-1.43,2.73,4.59,4.08,6.26,4.08.7,0,2.55-1.42,1.76-2.21l-.25-.25c-.8-.8-3,1.27-2.19,2.05Z" transform="translate(-1.6)"></path>
      <path class="cls-1" d="M406.4,246v.25l1.82-2.06c-2.28-.12-4.46-.93-6.77-.8-1.87.11-4.1,1.41-3.8,3.61.38,2.76,4.65,2.26,6.6,2.23,2.44,0,6.4,0,7.24-3,.12-.42.22-.9-.27-1.08a1.15,1.15,0,0,1-1.12-1c-.29-1.38-2.4.61-2.2,1.58.25,1.2.72,1.57,1.88,2l-.27-1.08c.31-1.09.54-.26-.41-.3a5.4,5.4,0,0,0-.87.09,27.38,27.38,0,0,1-3.61.25,20.49,20.49,0,0,1-2.36-.06,4.7,4.7,0,0,1-1.65-.39l-.35-.22q-.26-.78-.68-.18-.6.37-.17.22a2.29,2.29,0,0,1,.51-.1c.39,0,.78,0,1.17,0a19.9,19.9,0,0,1,2.24.24c1.14.17,2.29.49,3.45.55,1,0,1.82-1.19,1.82-2.06v-.25c0-1.31-2.2.61-2.2,1.58Z" transform="translate(-1.6)"></path>
      <path class="cls-1" d="M431.88,245.67c-3.82-1.17-10.25-.4-13.71,1.43a2,2,0,0,0-.71,1.79c0,.61.29,1.36.25,2l.7-1.39c-4.6,2.11-15.74-2.91-18.78,2-2.88,4.66,5.88,5.93,8.47,6.11,4,.27,7.75-.24,11.74.32,3,.43,7.35,1.79,10.4,1a3,3,0,0,0,2.58-2.36c.17-.69-.17-1.3-.1-1.92.18-1.47-2.21-.94.92-1,4.34-.09,10.66,2.54,14.77.09,2.7-1.6,2.21-5.39,0-7.32-3.06-2.66-5.71-.22-9-.17s-3.72-3.14-6.4-3.56c-3.43-.54-4.47,4.62-2.8,6.77.84,1.08,1.61-1.74,1-2.51q2.55-1.76,3.38.48a5.21,5.21,0,0,0,.81,1,6,6,0,0,0,3.73.84c1.85,0,3.49-1.17,5.32-1.14,1.22,0,4.92,1.25,3.79,2.73-.91,1.19-7.16.78-8.4.63-2.33-.29-4.68-1.28-7.09-.68-1.4.34-2.24.88-2.45,2.39-.31,2.2,1,2.58-2.47,2.8-4.37.28-8.84-1.56-13.25-1.5-3.92.05-11.56,1.44-14.19-2.64l.1,2.07c1.52-3.52,14.51.15,18-1.47a1.69,1.69,0,0,0,.7-1.39,27.12,27.12,0,0,0-.24-2.76l-.71,1.79c3.11-1.64,9.92-2.4,13.29-1.36.92.28,1.36-2.65.27-3Z" transform="translate(-1.6)"></path>
      <path class="cls-1" d="M387.46,251.78h.25c.65,0,2.11-.38,2-1.28-.63-4.25-9.61-1.66-11.93-.85-1.21.43-3.19,1-3.32,2.61-.18,2.08,2.79,2.72,4.28,2.9a24,24,0,0,0,6.91-.37c2.41-.38,4.86,1.38,7.31.47,1.62-.61,2.27-1.58,1.48-3-1.27-2.38-3.37-2.56-5.81-2.88-1-.12-3.38,1.44-1.73,1.65,1.23.16,4,.19,4.17,1.84.11,1-.3.6-1.41.44a14,14,0,0,0-2.55-.46c-1.1,0-2.14.62-3.24.74-1.83.19-8.27-.26-5.08-2.57,1.27-.91,7.67-2,8,.35l2-1.28h-.25c-1.13,0-3,1.72-1.08,1.72Z" transform="translate(-1.6)"></path>
      <path class="cls-1" d="M174.87,266.43c-.14-2.1.19-2.73,2.31-3.26l-1.67-.49a8.78,8.78,0,0,0,5.29,2.27c.49,0,3.71-.37,3.71-.35.05.75-4.4,1.52-5.12,1.67-2.56.54-4.36.82-6.89-.11-.37-.14-.73-.37-1.12-.51-1.34-.49-1.11.26-.31.26s1.27-.19,2.07-.12,1.17.31,2-.21c1-.63-1.36-2.38-2.31-1.8a11.72,11.72,0,0,0-2.14-.23,3,3,0,0,0-2.58,1.27c-.15.18,0,.58.09.73,1,1.41,2.44,1.61,3.91,2.39,1.63.87,2.84,1.51,4.76,1.26a46.53,46.53,0,0,0,8.52-1.86c1.24-.43,2.71-1.21,2.24-2.72-.39-1.24-2.05-2.08-3.22-2.28a6,6,0,0,0-2.33.22,6.17,6.17,0,0,1-4.74-.58c-1.22-.64-1.48-.95-2.9-.55-2.42.69-2.5,1.6-2.34,4,.07,1.1,2.82,2.18,2.74,1Z" transform="translate(-1.6)"></path>
      <path class="cls-1" d="M385.06,268.15h.5a.53.53,0,0,0,.56-.29c1.35-2.74,5-1.51,7.17-1.17s4.57.56,6.52-.3L398,265.06c1.41,3.08-3.32,3.29-5.29,3.38-1.16.05-2.34-.09-3.5,0a8.55,8.55,0,0,0-2.18.35q-1.71,1-2-1.4c1.15-.37-.59-2.77-1.6-2.45-2.05.65-2.76,2.36-1.73,4.35,1.27,2.45,4,2.62,6.39,2.09,3.65-.82,7.48,0,11-1.43,2.56-1,1.86-2.52.88-4.67-.21-.47-1.13-1.63-1.82-1.33-3.43,1.51-6.82-.69-10.29-.39a4.47,4.47,0,0,0-2.56,1c-.71.51-1.3,1.17-1.41,1.17-1.43,0,.11,2.47,1.12,2.47Z" transform="translate(-1.6)"></path>
      <path class="cls-1" d="M369.09,261.72c.83,0,1.66,0,2.48,0,.49,0,1-.1,1.49-.09a3.84,3.84,0,0,0,.63.07s.58-.42.39-.49-1,.2-1.24.21c-.44,0-.87,0-1.31,0s-.39.08-.56-.39-.82-.75-.61-1.19.45-1.27-.2-1.42-1.3.74-1.52,1.19c-.41.86-.9,2-.26,2.84.12.16.32.27.42.46s.07.41.19.63a1.07,1.07,0,0,0,.72.48,9.27,9.27,0,0,0,2.35,0,3.92,3.92,0,0,0,2.32-.81c.83-.65,2.39-3.11,1-4-.67-.42-1.82-.15-2.55-.1s-1.6,0-2.4,0a1.92,1.92,0,0,0-1.52,1.19c-.15.3-.49,1.42.19,1.42Z" transform="translate(-1.6)"></path>
      <path class="cls-1" d="M370.87,244.42a2.34,2.34,0,0,0,1.89,2.26c.33,0,.62-.12.62-.5v-.25l-.37.5c.43-.18.84-.39,1.27-.58a11.5,11.5,0,0,0,1.42-.46h.18q-.87-1.33-.75-.36c-.08.21-.07.47-.17.7-.33.77-.73.79-1.53.69a15,15,0,0,1-2-.52c-.14,0-.74-.15-.6-.18l-.14-.14q-.2-.25.15.34c.08,0,.75-.2.88-.21a5.44,5.44,0,0,1,1.17.07c.8.12,1.55.38,2.36.42,1.42.08,0-2.46-1-2.51-1.33-.08-6.7-1.64-5.56,1.58a5.31,5.31,0,0,0,2.23,2.6,6,6,0,0,0,1.54.55,12,12,0,0,0,2.19.53c1.27.08,2-.13,2.54-1.38a3.79,3.79,0,0,0-.33-3.26c-1.45-2.25-3.41-1.17-5.34-.36a.51.51,0,0,0-.37.5v.25l.62-.5h-.18l.85.47-.06-.06.79,1.54v-.18a2.35,2.35,0,0,0-1.08-1.77c-.35-.22-1.21-.46-1.17.26Z" transform="translate(-1.6)"></path>
      <path class="cls-1" d="M212.12,260.4v.25l1.55-1.42c-.54-1.12-1.78-1-2.8-.63-.77.25-1.43.74-2.19,1a6,6,0,0,0-2,.69,3,3,0,0,0-.77,3.54c.71,1.22,2.62,1,3.87,1.1,2.86.15,6.08-.31,7.25-3.33.4-1,.45-2.5-.67-3.11s-3.34.33-4.14-.45-1.82,2-1,2.75,2.58.49,3.46.38c.33,0,.53.22.62-.25-.07.35-1,.56-1.25.66a7.68,7.68,0,0,1-2.65.47c-.7,0-1.43,0-2.13-.1-.3,0-.9-.26-1.21-.16q-.71-.18-.37.94l.45-.1c.85,0,3.6-2.22,4.17-1s1.55-.92,1.55-1.42v-.25c0-2-1.76-1.05-1.76.46Z" transform="translate(-1.6)"></path>
      <path class="cls-1" d="M225.84,254.15c1-1.07-.4-2.44-1.48-2.72a5.55,5.55,0,0,0-2.06-.08c-.37,0-.73.14-1.1.2-.62.11-1.22.44-1.83.53s-1.37.39-1.36,1.05c0,1.08.12,2.13,1.19,2.65a10.2,10.2,0,0,0,4.17.5,7.39,7.39,0,0,0,3.3-.4c1.39-.64,1.31-1.56,1.31-2.93,0-.5-.87-.65-1.21-.65-.66,0,.58.06-.32-.14a6,6,0,0,0-1.18-.11l.94.25a3.86,3.86,0,0,1-.82-.82c-.62-.91-3.5-.17-2.8.86a4.11,4.11,0,0,0,3.62,1.68l-1.21-.65v1q.19.34-.24.2a5.89,5.89,0,0,1-1.49,0c-.58,0-1.71.14-2.13-.37-.25-.31-.16-1.11-.16-1.48l-1.36,1.05c.77-.11,1.45-.41,2.19-.59.26-.06.77-.25,1-.13s.45.52.33.65c-.49.52.25,1,.7,1.06a2.22,2.22,0,0,0,2-.6Z" transform="translate(-1.6)"></path>
      <path class="cls-1" d="M182,274.16c-1.55.17-3.07-.31-4.62-.26s-3.24.49-4.87.49,0,2.19.7,2.47a36.68,36.68,0,0,1,3.21,2.1c.82.46,2.51.74,3.25,1.25L178.8,278c-2.31,1.7-8.75,1.63-9.8,4.6a2.63,2.63,0,0,0,1.57,3.24c2,1,5,.31,7.11.15,4.61-.36,9,.51,13.56-.31,3-.55,13.24-.21,7.6-5.7a8.12,8.12,0,0,0-3.49-1.83c-1.48-.45-4.33-.38-2.35-1.72,2.22-1.5,8,1.49,9.1-2.54a1.85,1.85,0,0,0-.71-1.8c-2.83-2.24-5.31-1.42-8.68-.62-4.52,1.07-10,3.28-14.68,2.68l1.64,2v-.5c0-1-2.3-2.88-2.3-1.46v.5a2.14,2.14,0,0,0,1.64,2c3.18.41,6.17-.47,9.24-1.33,2.7-.75,9.9-3.59,12.39-1.62l-.71-1.8c-1,3.88-12.13-.52-11.3,4.84a5.08,5.08,0,0,0,2.55,2.94c1.26.62,7.72,1,5.73,2.61-1.14.91-6.79.92-8.51,1.18-3.3.48-6.46-.46-9.74-.23-1.74.12-3.47.32-5.22.36-1.11,0-4.85.5-.49-.46,2.75-.61,5.46-1.16,7.77-2.85.77-.57-.4-1.9-.86-2.21-1.48-1-2.46-.73-4.25-1.78-1.28-.76-1.54-1.35-2.79-1.87l.7,2.47a96.42,96.42,0,0,0,10-.26c1.16-.12-.38-2.64-1.48-2.52Z" transform="translate(-1.6)"></path>
      <path class="cls-1" d="M370.6,277.08l.25.25c.62.62,2.89.57,2.89-.62v-.25c0-.24-.33-.43-.51-.5-1.82-.68-4.38-1.59-6.33-1a2,2,0,0,0-.86,3.57,4,4,0,0,0,2.56.73,20.61,20.61,0,0,0,2.88.08,8.24,8.24,0,0,0,2.43-.58c.89-.39.87-.68,1.17-1.47l-.62.57.14-.08c1.7-1-.67-1.73-1.69-1.15a1.49,1.49,0,0,0-.89,1.53l.36-.62a2.61,2.61,0,0,1-1.46.19c-.62,0-1.82.07-2.29-.28s-.23-.69-.35-1.07q.28-.64-.7.09a2.07,2.07,0,0,1,.55.07,16.68,16.68,0,0,1,3.15.87l-.51-.5v.25l2.89-.62-.25-.25c-.75-.75-3.56.07-2.81.82Z" transform="translate(-1.6)"></path>
      <path class="cls-1" d="M385,246.48c1.41,0,3.27.26,4.44-.71s-1.66-1.84-2.42-1.21-1.79.29-2.56.29c-.45,0-1.34.13-1.19.78s1.24.85,1.73.85Z" transform="translate(-1.6)"></path>
      <path class="cls-1" d="M210.22,245.65c.47,0,.9-.18,1.36-.24.65-.08,1.29,0,1.94-.14,1-.17,2.07-.07,2.91-.71s.1-3.53-.86-2.8c-.72.55-2.06.49-2.94.61-.54.07-1.09,0-1.63.08a12.27,12.27,0,0,1-1.22.22c-1.1.07-.73,3,.44,3Z" transform="translate(-1.6)"></path>
      <path class="cls-1" d="M218.9,246.82c.89,1.22,2.38,1.24,3.77,1.2a9.2,9.2,0,0,0,4.27-.94c.62-.34.1-1-.3-1.22a2.22,2.22,0,0,0-2.07-.12,5,5,0,0,1-2.06.52c-.31,0-.63,0-.94,0h-.3q-.77-.06.33.21a2.19,2.19,0,0,0-2-.7c-.49.07-1.17.44-.75,1Z" transform="translate(-1.6)"></path>
      <path class="cls-1" d="M180.11,245a7.62,7.62,0,0,1,2.46-.57,5,5,0,0,0,2.5-.26c1-.51-.61-3-1.66-2.5-.69.36-1.62,0-2.36.11a8.81,8.81,0,0,0-2.17.56c-1.23.43.24,3,1.23,2.66Z" transform="translate(-1.6)"></path>
      <path class="cls-1" d="M150.4,267.59a6.84,6.84,0,0,0,2.71.32c.87,0,1.65.33,2.47,0,1-.44.93-3.41-.17-2.92-.46.2-.57.05-1,0a5.87,5.87,0,0,0-1,0,6.13,6.13,0,0,1-2.29-.18c-1.18-.48-1.68,2.44-.7,2.84Z" transform="translate(-1.6)"></path>
      <path class="cls-1" d="M221.47,249.06h2.67c.52,0,1.06,0,1.58,0s.91-.24,1.38-.29c1.08-.13.7-2.24.48-2.83-.35-1-1.07-2-2.19-1.86-.34,0-.65.17-1,.21a13.58,13.58,0,0,1-1.49,0h-2.38c-2.16,0-.9,4.79.94,4.79Z" transform="translate(-1.6)"></path>
      <path class="cls-1" d="M191.93,261.24v.25c0,1.41,1.34,3.16,2.81,3.16a17.91,17.91,0,0,0,6.87-.88c1.7-.67-.8-5-2.72-4.19s-4.11.62-6.13.62l2.81,3.16v-.25a3.67,3.67,0,0,0-1.93-3c-1-.47-1.71,0-1.71,1.11Z" transform="translate(-1.6)"></path>
      <path class="cls-1" d="M214.11,273.29l0,.29c.17,1.22,1,2.77,2.32,3l.29,0c.39.06.78-.36.88-.69,1.31-4.55,6-3.47,9.46-3,3,.44,6.1.14,9,.65l-2.32-3c0-.17.26,3.43,0,3.67.61-.55-1.56-.7-1.67-.72a53,53,0,0,1-7-.92,17.28,17.28,0,0,0-5.38-.58c-1.69.09-3.27.82-4.44-.49-2.18-2.43-2.49,1.82-1.14,3.32s2.1,2.2,3.9,2.19c1.65,0,3.3-.46,5-.36,2.07.12,3.94,1,6,1.33,1.58.29,5.69,1,7.13.12,1.77-1,1.11-4.66.91-6.31a3.32,3.32,0,0,0-2.32-3c-1.71-.3-3.57-.17-5.33-.33-2.51-.23-5.09-.83-7.59-1a7.2,7.2,0,0,0-4.39,1.09c-.2.13-3.37,3-2.32,3.15l2.32,3,0-.29c-.29-2-3.74-4.48-3.28-1.25Z" transform="translate(-1.6)"></path>
      <path class="cls-1" d="M216,287.55c1.13,0,2-.58,3.08-.72a7,7,0,0,1,.9-.07q-.92-.84-.82-.34c-.05.15.51.41.37.7-.25.51-1.86,0-2.27,0l-1.15-.15a2.92,2.92,0,0,1-.8-.08q.4.24.06-.09a3.72,3.72,0,0,0-2.93-1.83c-.72,0-2.22.38-1.6,1.44,1.52,2.63,3.92,3.57,6.83,3.84,1.89.18,4.7,1,6.17-.67s-1-4.34-2.47-5.25a6.79,6.79,0,0,0-4.23-.8c-1.22.1-2.42.76-3.58.77s-1.33,1.07-.8,1.86a3.88,3.88,0,0,0,3.24,1.4Z" transform="translate(-1.6)"></path>
      <path class="cls-1" d="M207.36,279.83a.9.9,0,0,1,1.08-.2c-.13,0,.1.22,0,0a2,2,0,0,1-.2-.58l.05-.62q.43-.6.18-.36s-.23.14-.18.12a2.34,2.34,0,0,1-1.5.07q-.19-.06.13.07l-.39-.16s.39.65.28.31a3.77,3.77,0,0,0-.85-1.17,1.09,1.09,0,0,0-2,.49,3.83,3.83,0,0,0,.85,3.43c-.18-.19.17.31.24.41a3.35,3.35,0,0,0,1,1,3.46,3.46,0,0,0,1.64.57c1.4.13,2.91-.27,3.37-1.76a6.19,6.19,0,0,0-1.65-5.84,2.85,2.85,0,0,0-4-.25c-.81.82-.65,2.25-.23,3.23.26.61,1.31,2.1,2.13,1.27Z" transform="translate(-1.6)"></path>
      <path class="cls-1" d="M234,262.75a17.53,17.53,0,0,0,3.71-.2,7,7,0,0,1,2.44-.51l-.69-.38.13.13-.45-.92.05.26c.18.91,1,1.67,1.86,1s.88-2.37.68-3.39c-.32-1.6-1.35-1.84-2.73-1.51a19.69,19.69,0,0,1-1.94.5,20.84,20.84,0,0,1-2.81,0c-1.95,0-2.15,5-.26,5Z" transform="translate(-1.6)"></path>
      <path class="cls-1" d="M241.55,249.68a9.61,9.61,0,0,0,1.6-.12l.78-.15c.14,0,.38,0,.17,0-.53-.16-1.08,0-1.57-.38a3.79,3.79,0,0,0,3.5.49c1-.41,1.07-1.29.27-2a5.43,5.43,0,0,0-4.16-.91c-.39,0-.77.14-1.16.21s-.12-.05-.07,0-.26,0-.31,0c-.77,0-2.29.39-2,1.46s2,1.39,2.91,1.39Z" transform="translate(-1.6)"></path>
      <path class="cls-1" d="M238.92,283.93c.74.48,1.43.24,2.23.16s1.7-.3,2.56-.33c1.8-.06,3.94-4.41,1.4-4.34a18.52,18.52,0,0,0-2.11.28c-.24,0-.48,0-.72.07l-.4.09q-.44,0,0,.06c-.92-.6-2.14.42-2.65,1.15s-1.27,2.25-.33,2.87Z" transform="translate(-1.6)"></path>
      <path class="cls-1" d="M246.65,274.15c.84.57,1.84.21,2.73,0,.42-.11.85-.24,1.28-.33a2.27,2.27,0,0,1,.55-.05l.29,0c.21,0-.13-.17,0,0l-.62-.82,0,.08-.35-1.23v.09l0-1.28a4.27,4.27,0,0,1,.31-.73s-.32.22-.36.23a3.47,3.47,0,0,1-1.24.13c-.87,0-1.74-.13-2.62-.15-1.08,0-1.2,2-1.09,2.66.15.94.59,2.28,1.73,2.3,1.57,0,3.48.56,4.86-.43a3.61,3.61,0,0,0,.12-5.36,3.37,3.37,0,0,0-3-.3c-.46.12-.92.25-1.38.37l-.69.14c-.05,0-.21,0-.24,0a2.2,2.2,0,0,1,.41.18c-.94-.64-1.63.23-1.82,1.14s0,2.69.94,3.33Z" transform="translate(-1.6)"></path>
      <path class="cls-1" d="M361.36,266.54a4,4,0,0,0-2.23-3.09,5.63,5.63,0,0,0-1.79-.18c-1.14,0-.93,1.64-.74,2.3a4.67,4.67,0,0,0,2.67,3.21,6.78,6.78,0,0,0,2.2.13c2,0,.33-4.67-1.47-4.65-.41,0-.83.05-1.24,0l-.29,0c.21,0,.18.11,0,0s-.07,0,.18.11l.24.23c.2.21.79,1.6.61,1l-.74,2.3c.27,0,.53,0,.8,0l.35,0-.17,0q.29.11-.19-.11l-.8-.84,0,.05-.72-1.79v.06c.22,1.08.81,2.45,1.94,2.86s1.46-.78,1.28-1.62Z" transform="translate(-1.6)"></path>
      <path class="cls-1" d="M363,253.17h.33L360.85,250c-1,0-2,.27-3,.35a3.41,3.41,0,0,0-2.71,1.22c-.42.58.56,1.49.91,1.75a3.88,3.88,0,0,0,2.61.85,24.19,24.19,0,0,1,3.39.33c1.47.06,2.87-.22,3.67-1.57.9-1.53-3.59-3.69-4.57-2-.39.66-1.21.39-1.85.29a10.58,10.58,0,0,0-3.09-.21l3.52,2.6c.09-.13,1-.07,1.17-.09.83-.05,1.62-.27,2.44-.34,1-.08,1.36-.92.77-1.74a4.07,4.07,0,0,0-3.23-1.43h-.33c-1.08,0-1.32,1-.77,1.74a4.07,4.07,0,0,0,3.23,1.43Z" transform="translate(-1.6)"></path>
      <path class="cls-1" d="M352.49,285.22l.33.33c.74.74,2.13,1.15,2.2-.4a5.67,5.67,0,0,0-3.26-5.42c-3.16-1.39-6.78.48-10,.83-2.28.25-.29,4,.84,4.62.65.32,1.45,1,2.33,1.33a17.19,17.19,0,0,0,5.42.82c3.25.26,7.57,1.06,9.68-2.26a5.71,5.71,0,0,0-1.22-6.8c-2.26-1.87-6.42-.38-9.06-.38-2.08,0-.57,4.72,1.25,4.72s3.6-.3,5.48-.42a10.9,10.9,0,0,1,1.38-.05q-.21-2.32-.93-.53c-1.3.27-2,1.26-3.57,1.39a21.36,21.36,0,0,1-11.2-2.34l.84,4.62c1.36-.15,2.69-.48,4-.73.76-.14,1.52-.35,2.29-.43a3,3,0,0,1,1.8,0q1.58.63.64-1.37l2.2-.4-.33-.33c-2.31-2.31-2.62,1.83-1.19,3.27Z" transform="translate(-1.6)"></path>
      <path class="cls-1" d="M368.34,292.86v.33c0,1.29,2.33,1.92,3.24,1.92a7.56,7.56,0,0,0,3.17-.87c.76-.32,3.54-1.39,4.28-.88l-.84-1.15c1.46,4.41-6.21,3.66-8.62,2.37-.53-.28-.87-.09-.71-.62s2-.74,2.53-.8c2.25-.27,4.58-.19,6.85-.39,3.25-.28.38-3.25-1.66-3.07-2.82.24-5.76.07-8.55.59-1.55.29-4.1,1-4.13,2.94-.05,3.49,6.53,4.57,9,5.06,3.23.65,12.37.43,10.15-5.3-.83-2.16-3.79-2.73-5.83-2.66a20.13,20.13,0,0,0-4.15.43c-1,.27-2.13,1.28-3.12,1.28l3.24,1.92v-.33c0-1.78-4.82-2.94-4.82-.77Z" transform="translate(-1.6)"></path>
      <path class="cls-1" d="M343.48,292.86c-8-4.52-15.19.28-23.56.29-.53,0-2.06.32-2,1.15.57,6.42,10.3,5.28,14.43,5.11,2.55-.11,18.38.59,12.62-5.95-1.16-1.31-6-.88-4.45.92,2.22,2.51-7.9,2.11-9.16,2.16-1.77.07-8.18,1.45-8.46-1.66l-2,1.15c6.39,0,13.95-4.33,19.77-1,1.79,1,5.64-.51,2.79-2.12Z" transform="translate(-1.6)"></path>
      <path class="cls-1" d="M332.64,284.66H335l-3-1.22c.11.2-.12.39-.28.58l.69-.57a5,5,0,0,1-1.63.05h-2.57l3.05,1.6a2.3,2.3,0,0,1,.22-1.3c1.14-1.66-3.69-2.66-4.75-1.12a3.6,3.6,0,0,0-.45,2c0,1.4,2.1,1.6,3.05,1.6a25.84,25.84,0,0,0,5.13-.19c1.31-.27,3.28-1.45,2.41-3.08-.57-1.07-1.91-1.22-3-1.22h-2.33c-.83,0-2.19.57-1.87,1.6s2.11,1.22,3,1.22Z" transform="translate(-1.6)"></path>
      <path class="cls-1" d="M346.08,271.58l.33.33c.71.71,3.69,2.21,3.48.08,0,.07-.08.12-.05.13.21,0-.22-.07-.27-.09a2.48,2.48,0,0,1-.71-.55c-.07-.08-.53-.91-.56-.93-.35-.16.73,0-.08,0a2.47,2.47,0,0,1-.39.21,3.42,3.42,0,0,1-.84,0c-1.14-.08-2.27-.31-3.41-.36l3,3v-.67l-.44.59c.3-.09.4-.34.62-.5s.15-.19,0-.05a.75.75,0,0,0,.55-.23,22.54,22.54,0,0,1,2.19-1.21c1.83-.87-1.74-4.28-3.4-3.5a10.42,10.42,0,0,0-2.63,1.57l.69-.35a1.89,1.89,0,0,0-1.13.49c-.15.14-.46.35-.27.29a.81.81,0,0,0-.44.59v.67a3.4,3.4,0,0,0,3,3c1.82.08,3.86.76,5.68.34a2.19,2.19,0,0,0,1.18-3.53,5.84,5.84,0,0,0-4.06-2.51c-1.46-.16-2.59.54-2.43,2.1l3.48.08-.33-.33c-.65-.65-2.07-1.63-3-1.08s-.17,1.87.37,2.41Z" transform="translate(-1.6)"></path>
      <path class="cls-1" d="M101.62,249.88c8.05-.35,15.79-1.3,23.8-2.35,7.5-1,15.61-.85,23.19-1,2.85,0-.6-3.33-2.38-3.31-7.57.11-15.7,0-23.19,1-8,1-15.8,2-23.82,2.38-2.85.13.65,3.33,2.41,3.26Z" transform="translate(-1.6)"></path>
      <path class="cls-1" d="M147.44,246.08a9.47,9.47,0,0,0,4.92.73c2-.06,4,0,6,0,1.2,0,.88-1.45.48-2.09a3.68,3.68,0,0,0-3-1.69h-4.33c-.7,0-2.81.36-3.42.06s-2.13-.79-2.45.32,1,2.28,1.83,2.67Z" transform="translate(-1.6)"></path>
      <path class="cls-1" d="M111.51,259.71a73.92,73.92,0,0,0,12.11-.46c3.88-.59,7.66-1.44,11.56-1.88,1.92-.21,1.15-5.15-.86-4.93-3.9.43-7.68,1.28-11.56,1.88a73.92,73.92,0,0,1-12.11.46c-1.83,0-1.19,4.9.86,4.93Z" transform="translate(-1.6)"></path>
      <path class="cls-1" d="M122.37,263.93c3.34.83,7.1.44,10.51.3,4.53-.19,9-.14,13.58-.25,9.12-.23,18.19,0,27.33,0a3.49,3.49,0,0,0,3-3.14v-.33c0-2.42-4,.36-4,2.15V263l3-3.14c-8.68,0-17.35-.55-26,0-3.91.23-7.85,0-11.76.13-4.07.16-8.83,1-12.82,0-1.82-.45-4.76,3.53-2.75,4Z" transform="translate(-1.6)"></path>
      <path class="cls-1" d="M188.82,263.72h4.66c.78,0,2.31-.3,2-1.42s-1.92-1.54-2.84-1.54H188c-.78,0-2.32.29-2,1.4s1.92,1.53,2.84,1.53Z" transform="translate(-1.6)"></path>
      <path class="cls-1" d="M138.16,277.49c6.3,0,12.55-.16,18.83-.33,5.45-.15,11.34.18,16.65-1,1.74-.39,4.33-4.4,1.54-3.78-5.37,1.2-11.62.78-17.14,1-5.79.22-11.56.33-17.38.33-1.76,0-4.87,3.8-2.51,3.8Z" transform="translate(-1.6)"></path>
      <path class="cls-1" d="M200.49,274.31a1.7,1.7,0,1,0-.27,0,13.67,13.67,0,0,0,1.38.33,23.45,23.45,0,0,0,4.63.15c3.31-.12,6.61-.1,9.92-.1,2.88,0-.37-3.44-2.16-3.44-3.11,0-6.22,0-9.33.07-2.16.07-4.23-.41-6.33-.41-2.88,0,.37,3.44,2.16,3.44Z" transform="translate(-1.6)"></path>
      <path class="cls-1" d="M400.9,263.43h-.67c-1.82,0-1.56,5,.37,5a194.08,194.08,0,0,0,25-1.33,50.74,50.74,0,0,1,11.67-.67c3.91.38,7.72,1,11.67,1,1.79,0,1.54-5-.37-5-3.94,0-7.76-.6-11.67-1s-7.75.16-11.67.67a194.07,194.07,0,0,1-25,1.33c-1.82,0-1.56,5,.37,5h.67c1.82,0,1.56-5-.37-5Z" transform="translate(-1.6)"></path>
      <path class="cls-1" d="M379.35,262.92c2.62.88,5.69.37,8.41.37,1.7,0,4.38-4.08,2-4.08h-.67c-1.7,0-4.38,4.08-2,4.08h.67c1.7,0,4.38-4.08,2-4.08s-5.28.49-7.59-.29c-1.69-.57-4.73,3.35-2.79,4Z" transform="translate(-1.6)"></path>
      <path class="cls-1" d="M375.22,262.31c10.49,0,22.58.67,33.67.67,2.08,0,.8-4.78-1-4.78-11.2,0-22.65-.67-33.66-.67-2.09,0-.82,4.78.95,4.78Z" transform="translate(-1.6)"></path>
      <path class="cls-1" d="M409.34,263.75c13.38,0,26.78-1.48,40.14-2.31,6.26-.38,12.61-.65,18.86-1.14,5.63-.44,11.92,0,17.35-1.63,1.6-.47,1.42-5.42-.55-4.84-5.63,1.67-13,1.42-18.89,1.59-6.17.18-12.21.66-18.34,1.13-6.28.48-12.53,1.07-18.81,1.42-6.5.36-13.11.79-19.62.79-1.88,0-2,5-.15,5Z" transform="translate(-1.6)"></path>
      <path class="cls-1" d="M393.27,248.21h-.33c-.78,0-2.22.33-2,1.39s2.08,1.35,2.92,1.35c3.67,0,7.33-.3,11-.33.79,0,2.22-.33,2-1.4s-2.08-1.36-2.92-1.36c-3.67,0-7.33.34-11,.34-.78,0-2.22.33-2,1.39s2.08,1.35,2.92,1.35h.33c.78,0,2.22-.33,2-1.39s-2.08-1.35-2.92-1.35Z" transform="translate(-1.6)"></path>
      <path class="cls-1" d="M375.47,245.28c.86,1.51,3.37.9,4.84.9,2,0,3.91-.33,5.88-.33a4,4,0,0,0,3.22-1.46c.55-.78.32-1.74-.79-1.74a38.65,38.65,0,0,0-4.31.27,20.24,20.24,0,0,1-2.22.06c-.29,0-2.29-.15-2.07.23-.95-1.66-5.45.5-4.55,2.06Z" transform="translate(-1.6)"></path>
      <path class="cls-1" d="M474.25,253.21c7.67,0,15.33-.48,23-.67,1.73,0,3.55-4.62,1.66-4.58-7.67.19-15.33.67-23,.66-1.75,0-3.59,4.58-1.66,4.58Z" transform="translate(-1.6)"></path>
      <path class="cls-1" d="M447.16,249.47c8.9,0,17.75-.28,26.66,0,1.63,0,5.31-3,2.51-3.1-8.91-.27-17.77,0-26.67,0-1.63,0-5.29,3.11-2.51,3.11Z" transform="translate(-1.6)"></path>
      <path class="cls-1" d="M349.77,274.77c8.78,0,17.53-1,26.33-1,1.7,0,4.92-3.7,2.63-3.7-8.8,0-17.56,1-26.33,1-1.7,0-4.92,3.7-2.63,3.7Z" transform="translate(-1.6)"></path>
      <path class="cls-1" d="M387.1,274.64c1.15,1.78,4.66.94,6.46,1,3.53.18,7,.53,10.53.59,7.25.13,14.52.74,21.78.31,7-.41,13.84-1.45,20.78-1.73,7.25-.29,14.51-.42,21.76-.58,1.44,0,3.39-4.2,1.69-4.63l0-.11c-.89-1.56-3.51,2.55-2.62,4.11a1,1,0,0,0,.62.56l1.69-4.63c-6.72.15-13.49.18-20.21.5s-13.09,1.2-19.69,1.59a212.5,212.5,0,0,1-21.43,0c-3-.12-5.95,0-8.91-.26-1.56-.12-9.17.08-9.77-.87-1-1.59-3.62,2.57-2.63,4.1Z" transform="translate(-1.6)"></path>
      <path class="cls-1" d="M361.31,284.26c1.82,1.82,6.16.81,8.56.72,4.84-.19,9.73,0,14.55-.35a254.52,254.52,0,0,1,29.51,0c9.52.48,19,.07,28.54.06,10.67,0,21.28.54,32,0,1.68-.09,4.82-3.63,2-3.49-9.8.5-19.54.15-29.34,0s-19.82.85-29.64-.06c-3.66-.34-7.44-.19-11.12-.29-4.68-.13-9.38-.52-14.07-.31s-9.12.6-13.75.63c-2.24,0-4.45.19-6.69.28-1,0-5.81.62-6.27.16-1.41-1.41-5.45,1.45-4.22,2.68Z" transform="translate(-1.6)"></path>
      <path class="cls-1" d="M350.7,293c2.63,1.08,5.16.36,7.9.33a32.66,32.66,0,0,0,9.61-1.08c3.13-1-.29-3.29-2.27-2.68a22.69,22.69,0,0,1-6.89.92c-1,0-2,0-3,0-.61,0-2.07.54-2.63.31-1.86-.77-5.77.94-2.75,2.18Z" transform="translate(-1.6)"></path>
      <path class="cls-1" d="M382.19,294.43l.17.13a1.25,1.25,0,0,0,1.22-.15c1.17-.88,5.45-.23,7-.3,3.23-.15,6.43-.57,9.67-.57,4.92,0,10.23.15,15.08-.73,1.7-.31,3.32-4.89.89-4.45-5.95,1.08-12.39.35-18.42.77-3.06.22-6.11.33-9.17.5-1.34.08-2.67.23-4,.33s-.27-.13,0,.1c-1.46-1.1-4,3.16-2.45,4.36Z" transform="translate(-1.6)"></path>
      <path class="cls-1" d="M200.1,296.24c2.65,2.65,9,1.41,12.34,1.32,6.56-.17,13.11-.79,19.65-.94,13-.3,25.94,0,38.92,0,2.15,0,.69-4.74-1.19-4.74H234.4c-5.87,0-11.71.5-17.58.67-3.1.09-6.18.3-9.29.33-1,0-6.08.12-6.14.06-2.31-2.31-2.79,1.82-1.3,3.3Z" transform="translate(-1.6)"></path>
      <path class="cls-1" d="M199.72,289c1.55.79,3.84.24,5.52.08a70.92,70.92,0,0,1,8.22-.29,3.63,3.63,0,0,0,3-1.64c.39-.63.78-2.09-.46-2.11a59.06,59.06,0,0,0-7-.05c-1.06.11-2.1.3-3.17.38-.62,0-2.22.4-2.77.13-1.67-.85-5.29,2.55-3.4,3.5Z" transform="translate(-1.6)"></path>
      <path class="cls-1" d="M222.51,288.69c1.06,1.06,2.83.61,4.22.61,3.09,0,6.19.12,9.28.08,6.17-.08,12.34-1.08,18.54-1.08,1.84,0,3.22-4.77,1.05-4.77-5.44,0-10.86.49-16.26,1-2.58.24-5.21,0-7.79,0-1,0-5.94.58-6.57-.05-1.51-1.51-3.79,2.89-2.47,4.21Z" transform="translate(-1.6)"></path>
      <path class="cls-1" d="M257.84,304.73c2.89,0,5.78.07,8.67,0s5.62-1,8.34-.39c3,.64,3.44-2.2.49-2.84s-5.19-.1-8,.17c-3.4.33-6.92.1-10.34.1s-1.69,3,.84,3Z" transform="translate(-1.6)"></path>
      <path class="cls-1" d="M219.57,267.08c2.39,0,2.71-5,.36-5s-2.71,5-.36,5Z" transform="translate(-1.6)"></path>
      <path class="cls-1" d="M342.41,260.19l.67.67,1.27-1.86H341c-.9,0-1.94.37-1.54,1.46s2,1.7,3,1.72c2.46,0,4.87.63,7.33.67.91,0,1.94-.38,1.54-1.46s-2-1.7-3-1.72c-2.46,0-4.87-.63-7.33-.67l1.46,3.18h3.34c1,0,2.39-.74,1.27-1.86l-.67-.67a4,4,0,0,0-3.29-1.29c-.93.16-1.52,1-.72,1.84Z" transform="translate(-1.6)"></path>
      <path class="cls-1" d="M344.64,248.37h2.67c.75,0,2.28-.13,2.41-1.13s-1.4-1.13-2.06-1.12h-2.13c-.77,0-2.07.1-2.39,1s.89,1.27,1.5,1.27Z" transform="translate(-1.6)"></path>
      <path class="cls-1" d="M327.67,272.42h4a3,3,0,0,0,2.56-1.05c.46-.76-.37-1.28-1.06-1.28h-4a3,3,0,0,0-2.56,1.05c-.46.76.37,1.28,1.06,1.28Z" transform="translate(-1.6)"></path>
      <path class="cls-1" d="M250,257c0,.16.07.09,0,.1l2.83,2.33v-.67l-.65.57a23.46,23.46,0,0,0,7-.76c.88-.27,0-1.59-.36-1.91a2.54,2.54,0,0,0-2.45-.8,21.83,21.83,0,0,1-6.35.57c-.26,0-.65.28-.65.57v.67c0,1.31,1.59,2.41,2.83,2.33a1.38,1.38,0,0,0,1.32-1.24c.25-1.41-3.2-3.37-3.48-1.76Z" transform="translate(-1.6)"></path>
      <path class="cls-1" d="M259.08,279.61c.42.42.79.93,1.41,1,.81.06,1.65,0,2.46,0s1.19-1.24,1.23-1.92-.1-2.07-1-2.07h-2.67l.54.31-.67-.67c-.63-.63-1.28-.06-1.56.62a2.89,2.89,0,0,0,.22,2.76Z" transform="translate(-1.6)"></path>
      <path class="cls-1" d="M385.59,189.64c2.79.18,5.53-3.29,7.71-4.71,4.05-2.64,8.1-5.29,12.24-7.8,8.69-5.28,17.55-10.28,26.41-15.29,17.4-9.84,34.78-19.72,51.36-30.91,1.6-1.08-.41-5.59-1.77-4.68-16.05,10.84-32.86,20.45-49.71,30-8.29,4.69-16.59,9.36-24.76,14.24-4,2.38-8,4.77-11.84,7.33-2.11,1.4-4.26,2.74-6.35,4.17-.92.63-3.14,3-4.29,2.9-2.06-.13-.81,4.66,1,4.77Z" transform="translate(-1.6)"></path>
      <path class="cls-1" d="M340.58,153.62a2.36,2.36,0,0,0,2.05.94,3.61,3.61,0,0,0,3.17-2.93c.28-3.32,3.67-8.09,5.31-11,2.5-4.37,5.43-8.53,8.17-12.76,5.7-8.83,11.36-17.69,16.82-26.68,9.79-16.13,19.69-32.75,26.23-50.51,1-2.63-3.26-.45-3.83,1.07-7,18.89-17.8,36.57-28.35,53.65-5.54,9-11.25,17.82-17,26.65a128.85,128.85,0,0,0-7.38,12.16c-1.42,2.82-3.82,6.12-4.08,9.3l3.17-2.93c-.47,0-.21,0-.61-.39-1.35-1.35-5,2.07-3.67,3.39Z" transform="translate(-1.6)"></path>
      <path class="cls-1" d="M286.38,141.78h.5c2.28,0-.88-3.72-2.6-3.72h-.5l3.45,2.6c0-2.48-1-4.56-1.25-7-.32-2.74-.16-5.5-.51-8.25-.72-5.73-1.29-11.46-1.85-17.21-1.16-12-1.89-24-2.28-36.08-.37-11.56-.35-23.22-1.44-34.74a128.17,128.17,0,0,0-2.71-18.68c-1.26-5.07-3.19-10.17-.79-15.27.8-1.71-3.3-4.47-4-3-1.78,3.8-1.66,7.79-.81,11.84,1.2,5.72,2.55,11.26,3.32,17.09,1.63,12.44,1.7,25.1,2.06,37.64.35,12.31,1,24.62,2.11,36.89.57,6.4,1.12,12.82,2,19.18.38,2.8.42,5.56.59,8.38.16,2.65,1.24,5.1,1.29,7.75,0,1.49,2.19,2.6,3.45,2.6h.5c2.28,0-.88-3.72-2.6-3.72h-.5c-2.28,0,.88,3.72,2.6,3.72Z" transform="translate(-1.6)"></path>
      <path class="cls-1" d="M234.34,161H235c1.88,0,.77-3.3,0-4-3.87-3.73-8.77-6.06-12.62-10a111.72,111.72,0,0,1-12.34-15.56c-6.62-9.65-13-19.36-21.37-27.58S169.78,89,160.35,81.8c-5-3.83-10.23-7.32-15.08-11.36C141.13,67,133.12,61.76,132.64,56c-.16-2-3.39-4.68-3.13-1.42.79,9.67,11.22,16.7,18.15,22.2,11,8.73,22.72,16.63,33.87,25.19s18.75,20.34,26.59,31.77a132.63,132.63,0,0,0,11.23,14.63,63.16,63.16,0,0,0,6.58,6.32c2.44,2,5.59,3.4,7.85,5.58l0-4h-.67c-2.11,0-.66,4.73,1.18,4.73Z" transform="translate(-1.6)"></path>
      <path class="cls-1" d="M200.6,192.92v.67l2-1.11c-5.58-.25-11.09-1.53-16.59-2.43-6.59-1.08-13.11-1.86-19.74-2.61-13.62-1.55-26.66-5.18-39.81-8.91s-26.24-6.13-39.43-9.07c-6.34-1.41-12.66-2.92-19-4.36-4.68-1.07-13.25-2.54-16.71-6.27-1.19-1.28-6.08-.89-4.47.85,2.83,3.06,6.93,4.09,10.73,5.51,6.56,2.46,13.78,3.65,20.6,5.19,14.59,3.29,29.39,5.86,43.8,9.88,13.93,3.89,27.69,8,42.09,9.76,6.95.85,13.81,1.56,20.72,2.69,6.26,1,12.42,2.36,18.77,2.65.57,0,2-.29,2-1.11v-.67c0-2-5-2.52-5-.66Z" transform="translate(-1.6)"></path>
      <path class="cls-1" d="M522.65,228.27h41.52c2.84,0-.5-3.35-2.19-3.35H520.47c-2.85,0,.48,3.37,2.18,3.37Z" transform="translate(-1.6)"></path>
      <path class="cls-1" d="M470.17,224.66c17.51.26,35,.61,52.49.61,2.85,0-.48-3.37-2.18-3.37-17.52,0-35-.36-52.48-.62-2.85,0,.46,3.36,2.17,3.38Z" transform="translate(-1.6)"></path>
      <path class="cls-1" d="M396.86,222.81c.29,1.17,1.24,1.73,2.23,2.3l-1.63-2v.67c0,1.47,2.11,2.54,3.37,2.54,23.14,0,46.21,1.12,69.34,1.38,2.85,0-.46-3.36-2.17-3.38-23.12-.26-46.19-1.39-69.33-1.39l3.37,2.54v-.67c0-.9-.93-1.64-1.63-2l.9,1c-.41-1.65-5-3.22-4.45-.88Z" transform="translate(-1.6)"></path>
      <path class="cls-1" d="M189.06,227.32h.67l-2.47-1.45v1.33l2.53-1.36c-30.56,0-61,1.34-91.56,2.42-29.11,1-58.14-2.81-87.11.94l2.78,2.13.67-.67c1.73-1.72-3-2.76-4.29-1.51l-.67.67c-1.55,1.54,1.83,2.25,2.78,2.13,29.1-3.77,58.31.15,87.54-.93,29.94-1.11,59.83-2.38,89.8-2.38.78,0,2.53-.25,2.53-1.36V226c0-1.09-1.68-1.45-2.47-1.45h-.67c-3,0-3.1,2.81-.05,2.81Z" transform="translate(-1.6)"></path>
      <path class="cls-1" d="M361.28,166.34v1c0,1.58,2.75-.06,3.15-.47a4.1,4.1,0,0,0,1.45-3l-1.71,1.92c2.33-1,3.24-3,5.11-4.65,2.59-2.33,5.5-4.34,8.13-6.62,5.07-4.4,10.26-8.9,15-13.63,1.84-1.83-1.61-1.63-2.69-.55-2.12,2.1-4.49,3.68-6.67,5.67-2.82,2.57-5.39,5.39-8.31,7.86-2.06,1.74-4.17,3.4-6.27,5.09-1.12.9-3.28,4-4.49,4.5-.78.34-1.67,1-1.71,1.92l-.55,1,3.15-.47v-1c0-1.53-3.6.05-3.6,1.5Z" transform="translate(-1.6)"></path>
      <path class="cls-1" d="M393.58,207.57v1c0,1.05,1.43,3.41,2.74,2.59,7.52-4.73,16.16-6.22,24.54-8.72,8.94-2.66,17.9-5.12,27.19-6.16,1.53-.17-.47-3.56-1.92-3.39-10,1.12-19.44,4-29.06,6.72-8,2.26-16.08,3.92-23.21,8.41l2.74,2.59v-1c0-1.36-3-3.87-3-2Z" transform="translate(-1.6)"></path>
      <path class="cls-1" d="M312.56,144.47c4.19-2.1,4.44-5.63,4.68-10,.46-8.41,2.83-16.61,3.86-25,.19-1.5-1.73-4.39-2.05-1.82-.8,6.49-2.33,12.86-3.27,19.33-.68,4.66.58,11.31-4.18,13.69-1.25.62-.52,4.52,1,3.78Z" transform="translate(-1.6)"></path>
      <path class="cls-1" d="M255.57,148.64l1,1-.43-2.76h-1l2.29,1.95c-4.22-10.26-12.43-19-19.6-27.33-3.14-3.62-6.23-7.54-10.52-9.87-2-1.06-3.92-2.75-6.16-2.75-1.43,0,.43,3.42,1.88,3.42.94,0-.82-.68.55.35a16.93,16.93,0,0,0,2.76,1.53c4.63,2.35,7.63,6.14,11,10,6.26,7.25,13.76,15.24,17.43,24.17a2.77,2.77,0,0,0,2.29,1.95h1c1.39,0-.12-2.45-.43-2.76l-1-1c-1.9-1.9-2.39.73-1,2.11Z" transform="translate(-1.6)"></path>
      <path class="cls-1" d="M212.79,176.08l1,1,.72-1.75h-1l2.18,1.08c-7.92-9-22.32-11.16-33.27-14.52-6.54-2-12.35-5.55-18.82-7.59a57.22,57.22,0,0,0-18.08-3c-2.61,0-.47,2.52,1.14,2.52a48.81,48.81,0,0,1,20.23,4.08,138.25,138.25,0,0,0,16.54,6.59c6.82,2.09,13.64,4.06,20.31,6.61a28.56,28.56,0,0,1,4.74,2.14c1.62,1,2.63,2.65,4.16,3.67a4.56,4.56,0,0,0,3,.93c1.32,0,1.65-.82.72-1.75l-1-1c-1.14-1.14-4.44-.87-2.59,1Z" transform="translate(-1.6)"></path>
      <path class="cls-1" d="M192.41,216.74h1c2.67,0,1.34-2.31-.66-2.31a139.86,139.86,0,0,1-20-1.45c-6.51-.91-13.06.56-19.47-.5-12.58-2.07-25.75-1.06-38.53-1.06-2.67,0-1.34,2.31.66,2.31h21A153.75,153.75,0,0,1,155,215c6.73.8,13.26-.68,20.06.58,6.2,1.15,12.08,1.13,18.4,1.13,2.67,0,1.34-2.31-.66-2.31h-1c-2.67,0-1.34,2.31.66,2.31Z" transform="translate(-1.6)"></path>
      <path class="cls-1" d="M324.22,84.37c.27-1.55.86-2.92,1-4.49.36-3.2,0-6.45.4-9.66.8-5.93,2.85-11.81,4.29-17.63,2.68-10.86,2.31-21.6,2.31-32.71l-1.45,2.63h1c1.34,0,2.24-3.86.57-3.86h-1c-1,0-1.45,2-1.45,2.63,0,5.66.13,11.34,0,17-.16,6.47-1.73,12.6-3.34,18.83-1.22,4.73-2.74,9.48-3.29,14.35-.5,4.5-.57,8.87-1.34,13.33-.46,2.64,2,1.49,2.29-.43Z" transform="translate(-1.6)"></path>
      <path class="cls-1" d="M222.85,95.51c1-1.6.46-2.88-.54-4.33-1.57-2.28-3.55-4.53-5.24-6.76-2.39-3.14-5.15-5.78-7.38-9.08-2.4-3.55-4.57-7.27-7-10.79a285.36,285.36,0,0,0-29.28-36.33c-1.09-1.13-4.46-1.17-2.65.71,9.88,10.26,18.13,21.41,26.57,32.83,4.07,5.5,7.21,11.81,11.43,17.18,2.06,2.62,4.67,4.66,6.49,7.52.84,1.32,4.94,5.78,4.07,7.19-.76,1.24,2.74,3.16,3.54,1.85Z" transform="translate(-1.6)"></path>
      <path class="cls-1" d="M460.27,192.32v1c0,.52.59.66,1,.66h1c1,0,2.63-1,2.63-2.12v-1L462.26,193c2.59,0,5.09-1.09,7.64-1.57,5-.94,9.45-.63,14.48-.48,8.49.26,16.32-1.83,24.49-3.79,8.66-2.07,17.54-2.17,26.38-2.17a38.45,38.45,0,0,0,5.44-.06c2.15-.31,4.07-1.32,6.33-1.32s3.23,1.27,5.23,1.38c1.4.07,4-2.64,1.65-2.77l0-.35a.71.71,0,0,0-.6-.62,23.21,23.21,0,0,0-9,.22c-4.8,1-9.47.69-14.36.75a91.94,91.94,0,0,0-21.07,2.52c-8.22,2.07-16.14,3.78-24.68,3.34-3.92-.2-7.8-.57-11.69.2-2.72.54-5.82,1.94-8.57,1.94-1,0-2.63,1-2.63,2.12v1l2.63-2.12c-.82,0,0,.42,0-.34,0-1.56-3.62,0-3.62,1.46Z" transform="translate(-1.6)"></path>
      <path class="cls-1" d="M127.9,140.89c-2.37-3.28-7.05-3.56-10.7-4.39a170.46,170.46,0,0,1-18-5.36,101.88,101.88,0,0,1-16.56-7.61,90.71,90.71,0,0,0-16.36-7l-1.51,2.22h2c2,0,3.26-2.29.6-2.29h-2c-1,0-3.49,1.56-1.51,2.22a96.15,96.15,0,0,1,16.42,7.13,100,100,0,0,0,13.29,6.34c4.93,1.84,10,3.48,15,4.91,4.18,1.18,13,1.53,15.66,5.25.85,1.17,4.63,0,3.65-1.39Z" transform="translate(-1.6)"></path>
      <path class="cls-1" d="M82.36,214.26h1l-.46-2c-.51.86-5.39-1-6.26-1.13a31.4,31.4,0,0,0-6.24-.2,200.36,200.36,0,0,0-22.87,1.77,122.08,122.08,0,0,1-21.77,1c-7.58-.42-15-.9-22.35,1.3-1.37.41-3,3.8-.68,3.18a6.69,6.69,0,0,0,2.8-1.47c1.49-1.3,1.08-4-.93-2.25l-1.2.53-.68,3.18c9.1-2.71,18.33-.93,27.62-.92,8.2,0,16.3-1.39,24.43-2.3,6.77-.76,14.41-1.48,21.07-.14,3.44.69,7.26,1.72,9.39-1.9.4-.67.76-2-.46-2h-1c-1.42,0-3.43,3.35-1.44,3.35Z" transform="translate(-1.6)"></path>
      <path class="cls-1" d="M415.14,122.79c5.67-.45,10.61-3.89,15.35-6.76,5.43-3.29,10.4-7.21,16-10.19,5.2-2.75,10.62-5,15.44-8.37,2.5-1.73,5.21-3.12,7.66-4.92s5.21-4.34,8.52-4.78l-2.78-2.12a5.57,5.57,0,0,1-2.72,1.83c-1.69.5,1.61,2.57,2.87,2.19a7.46,7.46,0,0,0,3.28-2.17c1.21-1.17-2.07-2.21-2.78-2.12-5.17.68-9.07,5-13.37,7.59-5.33,3.2-10.42,6.33-16,9.13a132.28,132.28,0,0,0-15,9.11c-5.28,3.58-12.08,8.66-18.61,9.16-2.24.17.78,2.52,2.13,2.41Z" transform="translate(-1.6)"></path>
      <path class="cls-1" d="M497.38,299.33c9.18-1.34,18.54-1.77,27.79-2.25,10.42-.53,20.66-1.67,31.1-1.61,1.68,0,3.71-4.46,1.92-4.47-11.1-.07-22,1.11-33.07,1.7-8.89.48-17.83,1-26.65,2.25-1.62.24-3.46,4.73-1.09,4.38Z" transform="translate(-1.6)"></path>
      <path class="cls-1" d="M92.17,303.65c5.06.6,10,2.59,15.13,3.12a148.33,148.33,0,0,0,17.08.29c13.58-.19,26.94-1.64,40.55-1.21q20,.62,40,.86c13.15.14,26.14,2,39.27,2.6,6.5.28,12.75,1,19.21,1.73s12.78.45,19.15.62a310.83,310.83,0,0,0,39.14-1.84,298.33,298.33,0,0,1,38-1.79c13,.38,26,.71,39,.33a128.87,128.87,0,0,0,21.78-2.29c6.65-1.33,13.14-3.15,19.89-3.93s13-2.06,20-1.78c7.52.3,15,.46,22.56.68,1.57,0,4.39-3.91,2.1-4-12.35-.36-24.92-1.78-37.11.38-5.67,1-11.28,1.44-16.88,2.8a149.07,149.07,0,0,1-19.29,3.6c-25.71,2.75-51.65-1.21-77.4,1-12.67,1.09-25.6,3.31-38.33,3.16-6.28-.07-12.55-.41-18.83-.51-6.81-.11-13.29-1.06-20-1.74-5.47-.55-11-.41-16.54-.75-7-.43-14-1.41-21.07-1.89-13.14-.9-26.4-.54-39.56-.91-15.08-.43-29.77-.45-44.82.5-6.71.42-13.53.56-20.26.37-6.9-.19-13.1-2.57-19.78-3.36-1.74-.21-4.59,3.74-2.85,4Z" transform="translate(-1.6)"></path>
      <path class="cls-1" d="M484.5,316.84c-5.1,2-10.81,2.51-16.21,3.2-4.59.59-9.38.67-13.12,3.76-2.94,2.42-5.37,6.88-3.69,10.71,2.21,5,9.95,6.25,14.69,6.63,7.11.56,14.33.15,21.45.16,7.33,0,14.49-1.17,21.82-1.55,8-.41,22.26-3,21.35-13.93-1.12-13.43-23.77-6.55-31.31-9.14-1.64-.56-4.68,3.35-2.79,4,5.51,1.9,10.84.61,16.51.58,4.15,0,10.69.44,13,4.62,4.41,8-9.15,9.46-13.91,9.78-3.39.22-6.81.1-10.18.56a65.48,65.48,0,0,1-8.5,1c-7.06.06-14.15.11-21.21,0-5-.08-15.9-.46-17.29-6.76s12.14-6.48,15.83-7c4.2-.61,8.55-1.23,12.52-2.78,1.53-.6,3.67-4.88,1.06-3.85Z" transform="translate(-1.6)"></path>
      <path class="cls-1" d="M480.49,323c-1.17,7.3,15.58,8.5,18.33,2.73,1.52-3.18.58-7.88.56-11.3,0-5.26-.41-10.65-.14-15.9.25-4.65,1.23-9.15,1.25-13.83,0-6,0-12,0-18,0-1.74-4.71-3.27-4.71-1.25,0,6.84.23,13.72,0,20.56-.25,6.42-1.2,12.55-1.15,19,0,3.3.06,6.61.07,9.91,0,2.53.75,6.45-.45,8.78-1.08,2.08-9.53,3.63-9.14,1.22.31-1.91-4.34-3.58-4.59-2Z" transform="translate(-1.6)"></path>
      <path class="cls-1" d="M486.46,322.57c-.05-5.68.23-10.62,1.9-16.11A39.11,39.11,0,0,0,490,294.82c0-9.78,2.5-19.11,2.36-29,0-1.79-5-1.49-5,.39.13,9.83-2.41,19.15-2.36,29a43.76,43.76,0,0,1-2.3,13.24c-1.46,4.79-1.29,9.55-1.25,14.5,0,1.78,5,1.5,5-.39Z" transform="translate(-1.6)"></path>
      <path class="cls-1" d="M466.61,214.07l1,.2L466,213.15c.8,4,.08,8.33.18,12.43a108.9,108.9,0,0,0,1.3,11.6c.75,5.76,2.25,12.14,5.48,17s7.74,10.43,12.69,13.57c4.07,2.58,9.22,2.68,13.86,2.07,11.39-1.49,18.4-12.58,23.28-21.95,3-5.67,3.47-10.34,4-16.61.27-3.17.9-6.19.42-9.39-.69-4.56-2.53-8.8-3-13.43-.18-1.9-5.11-2.26-5-.65.59,6.2,3.54,12.1,3.07,18.36-.35,4.7-.18,10.06-1.62,14.55-2.86,8.91-10.18,21.1-18.84,25.25a16.91,16.91,0,0,1-8.56,1.42c-4-.32-6.5-2.82-9.12-5.66-4-4.29-8-8.75-9.54-14.52a103.62,103.62,0,0,1-3.4-17.59c-.46-5.49.66-11.15-.41-16.55-.12-.59-1.11-1-1.61-1.13l-1-.2c-2.3-.47-4.95,1.65-1.65,2.33Z" transform="translate(-1.6)"></path>
      <path class="cls-1" d="M462.7,205.27l.21,1c.24,1.09,1.57,1.72,2.54,2,10.32,2.46,20.81,3.42,31.23,5.29a30.33,30.33,0,0,0,12.38.13c2.61-.52,5.27-.33,7.87-.87,2.36-.49,4.44-1.7,6.9-1.81,1.57-.07,1-1.42.27-2.09l.05-.1c-.45-1.69-5.2-2.81-4.75-1.1a4.11,4.11,0,0,0,1.52,2.38l.27-2.09c-3.92.18-7.53,2-11.52,2.24-2.28.15-4.33.94-6.58,1.21-3,.35-6.11-.62-9-1.13-9.66-1.67-19.39-2.6-28.95-4.88l2.54,2-.21-1c-.37-1.7-5.13-2.87-4.74-1.1Z" transform="translate(-1.6)"></path>
      <path class="cls-1" d="M468.64,233.72c9.8.17,19-1.58,28.76-2.47,3.82-.35,7.66.19,11.48,0,1,0,8.28-.76,8.54-.11l.73-1.45c-8.9,1.31-17.48,1.24-26.44,1.38-4.06.06-8,.45-12-.21a73.8,73.8,0,0,0-11.88-1l2.42,3.81H471c2.26,0-.77-3.81-2.42-3.81h-.78c-2.26,0,.77,3.81,2.42,3.81a108.14,108.14,0,0,1,12.89,1.19c3.66.44,7.34,0,11,0,9-.13,17.55-.07,26.44-1.38.81-.12,1-.72.73-1.45-2.49-6.38-11.09-4.63-16.37-4.53-3,.05-6.06-.36-9.09-.18-3.25.2-6.43,1-9.69,1.32-6.75.57-13.13,1.35-19.93,1.23-2.24,0,.78,3.78,2.42,3.81Z" transform="translate(-1.6)"></path>
      <path class="cls-1" d="M465.94,208.37c4-.93,7.7-2.85,11.68-3.45,5.26-.8,10.41-.5,15.68-1a69.47,69.47,0,0,1,15.86.4c2.42.29,4.78,1,7.17,1.38,2.22.36,5.13-.12,6.87,1.72,2.07,2.2,3.8.33,1.75-1.85-3.15-3.34-7.8-3.5-12.06-4.26-6-1.08-12.21-2.15-18.35-1.73s-12.2.42-18.24,1.32c-4.74.71-8.75,2.61-13.39,3.7-1.72.4,1.34,4.2,3,3.81Z" transform="translate(-1.6)"></path>
      <path class="cls-1" d="M161.48,364.15c11.19-.06,22-.33,33.14,1a106,106,0,0,0,15.45.31,158.79,158.79,0,0,1,18.29.84c10.53.94,20.34-.12,30.77-1.41a59.21,59.21,0,0,1,17.76.1,57.69,57.69,0,0,0,14,.46c5.18-.29,10.38.28,15.56.17,5.79-.12,11.65-.81,17.34.58,5.25,1.28,10.21.94,15.6.94,5,0,10,.2,14.92-.17,6-.45,11.8-1.5,17.83-1.26,5.43.22,10.81,1.12,16.25,1.35,11.58.5,23.29-.05,34.88,0q39.66.08,79.32.06c2,0,1-4.83-.64-4.83-23.18,0-46.37,0-69.55,0-11.71,0-23.42-.07-35.14,0-10.55.08-21.11-1.88-31.62-1.39-6,.28-11.84,1.41-17.84,1.46-5,0-9.95-.07-14.92,0-5.69.12-10.65-1.66-16.26-1.81-5.45-.15-10.9.38-16.35.23a131.16,131.16,0,0,0-14.06.2c-5.82.46-11.26-1.5-17-1.65-11-.27-21.66,2.9-32.66,2.68-6-.12-12-1.07-18-1.37-6.29-.31-12.59.33-18.88.13-6.5-.21-12.85-1.57-19.37-1.7s-12.94.22-19.41.26c-2.07,0-1,4.84.62,4.83Z" transform="translate(-1.6)"></path>
      <path class="cls-1" d="M151.88,376.09c3.94-.16,7.61-1.39,11.58-1.46,5.56-.1,11.13,0,16.69,0,10.81,0,21.62,0,32.44,0,4.91,0,9.83-.22,14.73,0,5.25.2,10.41,1.32,15.66,1.49,9.09.29,17.88,2.06,27,1.67a65.18,65.18,0,0,1,12.7.71c4.88.73,9.73.57,14.65.58q15.67,0,31.34,0h65.28c23.54,0,47.08.05,70.62,0,1.58,0,4.8-3.67,2.62-3.67-42.72.08-85.44,0-128.16,0-10.6,0-21.2,0-31.8,0l-13.67,0c-5,0-9.72-1.14-14.67-1.41-4.27-.24-8.54.38-12.81.29s-8.45-1.34-12.75-1.65c-10.19-.73-20.53-1.8-30.74-1.71-11.63.1-23.26.06-34.89.06l-17.68,0a72.1,72.1,0,0,0-7.9.09c-2.59.29-5,1.27-7.61,1.37-1.61.06-4.78,3.79-2.59,3.7Z" transform="translate(-1.6)"></path>
    </g>
  </g>
</svg>
