<?xml version="1.0" encoding="UTF-8"?>
<svg xmlns="http://www.w3.org/2000/svg" viewBox="0 0 522.72 594.98">
  <defs>
    <style>.cls-1{fill:#8faedb;}</style>
  </defs>
  <title>Asset 8</title>
  <g id="Layer_2" data-name="Layer 2">
    <g id="Layer_1-2" data-name="Layer 1">
      <path class="cls-1" d="M234.28,423c-2-.12-3.41-2.28-5.33-2.83-2.11-.61-4.63-.54-6.81-.89a85.41,85.41,0,0,0-10.47-1.15c-1.23,0-.83,3.65.61,3.7a106.1,106.1,0,0,1,11.86,1.42c2.55.37,4.73.27,6.94,1.72,1.43.94,2.07,1.62,3.81,1.72,1.19.07.82-3.62-.61-3.7Z"></path>
      <path class="cls-1" d="M128.18,451.34c.11,7.62-1.1,15-1.41,22.56-.29,7.15,1,9.91,6.61,14.14,1.07.81,3.38-2.14,2.31-3-2.19-1.67-4.75-3.18-5.76-5.88-1.17-3.13-.41-7.59-.24-10.83.32-6.44,1.36-12.47,1.26-19,0-1.66-2.78.73-2.76,1.95Z"></path>
      <path class="cls-1" d="M148.58,471.81c0,4.59-.43,9.41,0,14,.22,2.28.6,5.88,2.46,7.45s5.9,1.69,8.08,1.92c1.91.2,3.86,0,5.75.25,3.09.35,4.06,1.85,6.52,3.31,6.44,3.82,14.18,3.83,21.44,4,8.9.21,17.8-.05,26.67-.42,7.64-.31,15.3-.41,22.89-1.54,2.57-.38,5.3-.78,7.34-2.56,2.66-2.33,2.16-5.27,6.37-6,4.76-.78,11,.81,15.13-2.26,1.79-1.34,3.25-3.63,2.33-5.84-.67-1.62-2.67-2.17-3.32-4s.09-3.67.69-5.39c.41-1.17-3.16-.55-3.59.67-.76,2.16-1.42,4.23-.41,6.4a17.69,17.69,0,0,0,1.77,2.25c2.29,3.4,1,5-3,5.42s-9.22-.34-13.07,1.39A10.9,10.9,0,0,0,249,494c-2,2.28,1.32,2.71-4.88,4.52a30,30,0,0,1-4.41.6c-7.22.86-14.51.73-21.74,1.22s-14.76.29-22.09.21c-7.75-.09-16.23,0-22.75-4.64-5-3.53-9.83-2.27-15.77-3.44-7.77-1.53-5.17-15.37-5.17-21.31,0-1.49-3.59-.57-3.59.67Z"></path>
      <path class="cls-1" d="M276.89,471a37.69,37.69,0,0,0,4,5.35c1.27,1.47,4,3.75,2,5.85-1.68,1.77-5,1.07-7.08,1.22-1.9.14-3,1.2-4.78,1.79-2.3.78.79,1.84,2.07,1.41a14.94,14.94,0,0,1,4.17-1.25,25.26,25.26,0,0,0,3.61-.26c1.92-.4,4.27-1,5.55-2.6s.81-3.71-.42-5.32c-1.85-2.41-4.1-4.44-5.67-7.09-.64-1.07-4.27-.32-3.53.91Z"></path>
      <path class="cls-1" d="M269.95,450.47c1.26,0,1.07-3.74-.29-3.74s-1.07,3.74.29,3.74Z"></path>
      <path class="cls-1" d="M254.28,489c-.94-3.37.54-7.89-2.26-10.55-1-1-4.15-.87-2.38.81.7.67.63,3,.63,3.83a18.23,18.23,0,0,0,.46,5c.35,1.24,3.88,2.12,3.54.9Z"></path>
      <path class="cls-1" d="M168.13,481.42a34,34,0,0,0,1.53,6.12,35.46,35.46,0,0,1,1.51,8.75c0,1.3,3.52,2.59,3.46,1.16a29.65,29.65,0,0,0-1.12-8c-.66-2-1.76-4.81-1.93-6.91-.1-1.29-3.57-2.54-3.46-1.16Z"></path>
      <path class="cls-1" d="M132.19,490.63c2.93-.18,6,.67,9.07.62,3.76-.06,7.29.37,11,.6,1.27.08,2.56-3.41,1-3.5-3.73-.23-7.25-.66-11-.6-3.14,0-6-.81-9.07-.62-1.3.08-2.48,3.59-1.05,3.5Z"></path>
      <path class="cls-1" d="M201,503c.2,7.61-1.14,15.3-1.05,23,0,3.16-.69,8.21.54,11.19.36.89,3.07,2.46,3.4.88.55-2.66,0-6-.08-8.67s-.89-6.76-.1-9.36l-3.17-.82c.68,1.07.5,4.57.62,5.88.16,1.71.21,3.41.44,5.11a96.89,96.89,0,0,1,1.25,10.88c.09,3.61-1.09,10,2,12.83.38.35,2.61,1.63,2.91.51a2,2,0,0,1,.66-1.36c.77-1-2.47-2.86-3.34-1.7a2,2,0,0,0-.66,1.36l2.91.51c-1.37-1.28-1-5.41-1-7a90.67,90.67,0,0,0-.62-10.53c-.38-3.4-.83-6.79-1.21-10.2-.2-1.83.08-4.69-1-6.31-.35-.55-2.81-2-3.17-.82-1.75,5.76,1.28,12.68.06,18.56l3.4.88c-1.19-2.9-.39-8-.42-11.1-.08-7.53,1.25-15,1.05-22.5,0-1.28-3.49-2.59-3.45-1.18Z"></path>
      <path class="cls-1" d="M208.49,504.77c0,2.32,2.23,15.83,1.22,16.36l3.37.66c-.23-.48-.24-1-.47-1.53-.54-1.12-2.42-1.16-3.37-.66-1.17.61-.56,4.89-.58,5.81a47.37,47.37,0,0,0,.66,10c.67,3.35,1.45,6.54,1.88,10,.4,3.22.43,6.43.87,9.62.17,1.21,2.65,1.09,3.37.66a11.34,11.34,0,0,0,2-1.36c1.4-1.05-2.07-2.17-3.09-1.41a11.34,11.34,0,0,1-2,1.36l3.37.66c-.77-5.58-.72-11.23-1.86-16.78a76.88,76.88,0,0,1-1.53-8.78c-.08-.94,0-8.43,0-8.42l-3.37-.66c.23.48.24,1,.47,1.53.54,1.12,2.42,1.16,3.37.66,2.34-1.23-.58-15.1-.59-17.27,0-1.39-3.72-1.74-3.72-.47Z"></path>
      <path class="cls-1" d="M205.9,551.54c-.62-.26-.67-.43-.09.14a6.69,6.69,0,0,0,.93.75,8.33,8.33,0,0,0,1.94,1,10.89,10.89,0,0,0,3.07.5c1.41.07,4.37.17,4-2-.24-1.22-3.55-2.8-3.21-1.08.11.55-2.57.37-2.94.33a3.72,3.72,0,0,1-1.93-.55,10.78,10.78,0,0,0-2.24-1.55c-.65-.28-1.4-.08-1.34.71s1.2,1.51,1.87,1.79Z"></path>
      <path class="cls-1" d="M211.07,155.79c4.61,1,9.19,3.54,13.46,5.47,4.6,2.08,9.24,4.16,13.71,6.51,7.57,4,14.43,9.14,21.8,13.45,4.65,2.72,8.76,4.66,12.73,8.45a50.29,50.29,0,0,0,8.35,6.35c7.2,4.47,14.39,9,21.82,13.06s13.56,10.35,21.35,13.75c9,3.92,16.67,10.05,25.56,14.31,3.43,1.64,6.85,2.8,10.12,4.8a11.27,11.27,0,0,0,6,2.07c.4,0,1.48-.07,1.51-.68.11-2.11-.59-3.08-2.29-4.3-1-.7-4.55-.33-2.84.89l1.44,2.78,1.51-.68c-2.72,0-6.13-3.41-8.84-4.43a89.73,89.73,0,0,1-12.34-6.1c-4-2.25-7.54-5.23-11.53-7.48a51.24,51.24,0,0,0-5.36-2.2,55.92,55.92,0,0,1-8.26-4.89c-3.66-2.34-7.06-5-10.69-7.33-3.19-2.07-6.74-3.45-9.91-5.56-7.89-5.23-16.49-9.36-23.36-15.92a34.52,34.52,0,0,0-8.52-5.92c-4.66-2.39-9-5.23-13.43-8a155.79,155.79,0,0,0-15.18-8.92c-8.3-4.07-17.39-9.38-26.51-11.32-2.21-.47-2.52,1.41-.32,1.88Z"></path>
      <path class="cls-1" d="M211.05,153c-2.93-.08-6.08-.65-9-.19-3.34.52-6.12,2.55-8.87,4.39-7.26,4.85-15.8,7.88-23.51,12-7.4,3.93-14.9,8-22,12.44-6.65,4.11-12.54,9.45-19,13.88-6.76,4.64-14.36,7.71-21,12.49-3.25,2.34-6.16,4.47-10.11,5.36a17.83,17.83,0,0,0-8.39,4.12c-6.44,5.17-13.55,9.32-20.55,13.67-3.86,2.39-7.53,5.18-11.59,7.22-3.56,1.79-7.36,3.09-10.87,5-7.94,4.27-15.71,8.9-23.66,13.18-3.92,2.11-8.07,3.81-11.87,6.15-3.29,2-7.47,3.63-10.22,6.35-.73.72-.39,2.51.31,3.15,1.36,1.24,3.32,3.75,5.11,4,2.62.29,5.69-2.11,7.4-3.71,1-.91-.31-4.38-1.37-3.39-4,3.74-6.54,3.74-10.4.23l.31,3.15c2.19-2.17,5.78-3.51,8.42-5.2,3.54-2.26,7.33-3.94,11-5.89,6.78-3.54,13.73-7,20.29-10.93,6.8-4.1,14.37-6.74,21-11s13.66-8.44,20.33-12.88c3.28-2.18,6.21-4.77,9.41-7S98.7,217.52,102,216c3-1.38,5.65-3.67,8.35-5.56,3.38-2.38,7.11-4,10.72-6a143.87,143.87,0,0,0,19.21-13.07c6.64-5.18,13.69-9,20.92-13.24,8.72-5.14,17.71-9.55,26.84-13.89a101,101,0,0,0,9.12-5.41c4.84-2.95,8.79-2.37,14.25-2.21,1.53,0,.87-3.6-.36-3.64Z"></path>
      <path class="cls-1" d="M208.22,153.52l-1.48.31a3,3,0,0,0-2.27,1.89c-2,9-7.92,15.64-13.13,22.94a219.71,219.71,0,0,1-16.69,20.06c-11.42,12.54-24.32,23.48-36.58,35.16-6.24,5.95-13,11.28-19.34,17.15-6.09,5.68-11.65,11.94-17.47,17.9-5.42,5.54-11.77,9.77-17,15.58-6,6.7-11.81,13.58-18.37,19.76-1.83,1.72.62,2.26,2,1,7-6.6,13.1-14,19.56-21.11,5.57-6.14,12.45-10.84,18.25-16.8,12.45-12.81,25.57-24.64,38.71-36.73,13-11.91,25.76-23.66,37.45-36.86,5.72-6.46,10.72-13.25,15.84-20.19,4.39-6,8.33-11.62,10-19l-2.27,1.89,1.48-.31c1.18-.25,3.38-3.1,1.34-2.67Z"></path>
      <path class="cls-1" d="M207.3,156.88a30.47,30.47,0,0,1,4.72,3.61,16.48,16.48,0,0,1,2.58,2c.74.93,1,2.43,1.45,3.6,2.29,5.43,6.53,9.63,10.92,13.42,5.39,4.64,11.13,8.78,15.9,14.12,6,6.72,12.76,12.6,19.07,19,6.14,6.24,12.55,12.14,18,19,5.19,6.49,12,11.62,17.4,17.85,2.92,3.34,5.15,7.19,8.17,10.49,2.61,2.85,5.46,5.47,8.33,8.05,6.54,5.87,13.55,11.21,20,17.11,1,.89,4.44-.25,3.47-1.13-6.49-5.9-13.5-11.23-20-17.1-2.87-2.58-5.72-5.2-8.33-8.05-3-3.29-5.25-7.14-8.17-10.49-5.44-6.23-12.21-11.37-17.4-17.85-5.63-7-12.27-13.19-18.64-19.6-11-11.05-21.87-22-33.75-32a52.37,52.37,0,0,1-8.15-8.19,27.44,27.44,0,0,1-2.1-3.18c-1-1.71-1.2-4.16-2.23-5.72-1.45-2.2-5.84-5.22-8.21-6.42-1.08-.54-4.5.78-3,1.52Z"></path>
      <path class="cls-1" d="M203.76,154.87c-6.58,2.38-12.12,6.65-18.08,10.21s-11.24,7.69-16.88,11.72c-2.68,1.91-5.49,3.41-7.74,5.84a34.1,34.1,0,0,1-9.24,7C145,193.41,138.07,196.79,131,200c-13.61,6.24-25.35,15.88-38,23.82-6.41,4-13.5,5.85-20.28,9a130.37,130.37,0,0,0-17.38,9.88c-13.94,9.44-23,24.37-37.4,33.11-1.16.7-.94,4.37.26,3.65,12-7.29,19.87-18.81,30.43-27.8a105.15,105.15,0,0,1,18.92-12.42c6.5-3.47,13.5-5.45,20.09-8.65,13.51-6.55,24.76-17.17,38-24.26,6.75-3.62,13.89-6.5,20.7-10,3.25-1.69,6.55-3.37,9.68-5.28,2.55-1.55,4.14-3.62,6.22-5.68,2.88-2.86,6.8-4.88,10-7.38a99.4,99.4,0,0,1,10.83-7.67c6.86-4,13.35-9.1,20.87-11.82,1.22-.44,1.17-4.15-.24-3.65Z"></path>
      <path class="cls-1" d="M9.47,270.5c7,1.29,8.52,12.43,16.87,11,1.47-.24-.45-3.41-1.8-3.18-4.12.69-6.27-3.34-8.61-6-2.09-2.39-4.43-4.44-7.64-5-1.72-.31-.08,3,1.18,3.19Z"></path>
      <path class="cls-1" d="M28.76,276.31a20.26,20.26,0,0,1-5.37-.4l1.38,3.14c1.18-3.81,21.71,11.45,23.57,12.55a152.23,152.23,0,0,0,15.84,8c4.91,2.18,9.65,2.42,15,2.4,1.56,0,.6-3.59-.71-3.59a40.4,40.4,0,0,1-19.18-4.5A127.16,127.16,0,0,1,40,282.69c-2.18-1.55-15.45-12.31-17.29-6.35-.32,1,.17,2.86,1.38,3.14a20.26,20.26,0,0,0,5.37.4c1.56,0,.58-3.62-.71-3.59Z"></path>
      <path class="cls-1" d="M78.37,294.12l.35-1.53-2,2.14c8.54-1.86,16.38,1.85,24.46,4s15.88,2.48,24.1,3c4.32.27,8.55,1.5,12.9,1.81,4,.29,8.05.28,12.08.22,8.07-.13,16.73-1.29,24.73-.29a191.66,191.66,0,0,0,24.25,2h56.1a130,130,0,0,0,25.57-2.74c8.46-1.64,16.26-4.31,24.54-6.63a45.36,45.36,0,0,0,10.16-4.19c3.84-2.13,8.21-2.81,12-5.11,1.31-.81,1.86-3.92-.23-2.64-3.14,1.94-6.82,2.46-10.1,4.09-3.52,1.74-6.64,3.52-10.47,4.62-8,2.28-15.63,5-23.82,6.52s-15.9,2.89-24.42,2.9H231.91c-18.08,0-36.31,1-54.22-1.78-7.09-1.09-14.57-.13-21.72,0a141.66,141.66,0,0,1-26.41-1.66c-4.4-.72-8.86,0-13.27-.66a103.62,103.62,0,0,1-14.19-2.82c-8-2.29-15.8-5.67-24.22-3.83a2.79,2.79,0,0,0-2,2.14l-.35,1.53c-.48,2.1,2.56.23,2.86-1.09Z"></path>
      <path class="cls-1" d="M324.25,280.94c1.33-3.93,12.68-4.47,16.28-5.63a144.93,144.93,0,0,0,19.8-8.14A47.65,47.65,0,0,0,373.1,258c2.52-2.49,5.92-5.59,5.69-9.46,0-.57-.31-1.32-.95-1.43L376,246.8c-1.38-.24-1.7,3.49-.22,3.74l1.83.31-.95-1.43c.09,1.54-4.25,5.09-5.3,6.1-1.32,1.26-2.66,2.54-4.09,3.68-5.22,4.16-12.62,7.39-18.86,9.7a101.06,101.06,0,0,1-16.49,4.82c-3.57.67-8.09,1.3-9.41,5.22-.48,1.43,1,4.31,1.73,2Z"></path>
      <path class="cls-1" d="M367.27,244.89c9.6.25,16.95,7.58,26.26,9.2,1.32.23,2.75-3.2,1.12-3.48-9.34-1.62-16.57-8.95-26.26-9.2-1.38,0-2.7,3.44-1.12,3.48Z"></path>
      <path class="cls-1" d="M204.61,155.07c0-3.74-.56-7.24-.82-10.94a22.08,22.08,0,0,1-.19-5.23c.46-2.47,1.52-1.91,3.44-2.36L204,135c.3,2.12-.08,4.22.21,6.34a58.83,58.83,0,0,1,.62,6.35c.09,3.06.43,6.2,2.51,8.58.83,1,4.39,1.3,3-.3-2.18-2.5-1.88-6.15-2-9.25-.05-1.77-.51-3.42-.69-5.16-.19-1.9.14-3.76-.13-5.66-.18-1.24-2-1.79-3.07-1.54a29,29,0,0,0-3.22.54c-.23,0-.72.14-.78.45-1.28,6.16.6,12.64.61,18.84,0,1.31,3.55,2.43,3.54.9Z"></path>
      <path class="cls-1" d="M199.81,303c.34,5.93,2.52,11.54,2.58,17.49,0,2.48,0,5,0,7.45q0,13.26,0,26.52,0,14.9-.17,29.79c-.05,5.07.28,11.62-.38,16.11-.58,3.92-2,7.39-2,11.42-.06,5.42,0,10.84,0,16.25,0,4.25.2,8.54.08,12.78-.1,3.46-1.87,5.94-1.12,9.43a1.17,1.17,0,0,0,.84,1,3.72,3.72,0,0,0,2.43.13c1.46-.17,1.52-3.89.2-3.74-2.47.28-.32-3.92-.22-5.84.24-4.48-.16-9.12-.15-13.62s0-8.92,0-13.39c0-4.77,1.14-8.68,1.88-13.3.8-5,.43-10.36.49-15.4.22-18.87.19-37.74.18-56.61,0-2.95,0-5.89,0-8.84,0-6.33-2.24-12.22-2.6-18.49-.14-2.51-2.11-.93-2,.89Z"></path>
      <path class="cls-1" d="M210.63,300.65c-1.61,1.77-1.7,3.89-1.65,6.18.08,3.77.2,7.53.2,11.31s-.53,7.76-.25,11.56,1.51,6.92,1.5,10.65c0,3.36-.37,6.62.28,10,.37,1.86,1.15,3.69,1.11,5.63,0,2.19-1.17,4.11-1.41,6.27-.39,3.63,0,7-.77,10.65-.63,3.11-.49,6.29-.67,9.45a62.44,62.44,0,0,0-.08,10.61c.35,3,1.26,5.89,1.65,8.89,1.11,8.53-1,16.42-2.2,24.8-.77,5.2-1.66,10.12-1.72,15.37-.06,4.86-.5,10-6.69,7.32l1.55,2.08-.19-1.07c-.26-1.46-2.89-3.23-2.46-.82.59,3.29,4.73,5.62,7.82,3.56,2.75-1.83,2.49-6.61,2.52-9.43.15-14.36,5.94-28,3.61-42.46-1.34-8.32-2.18-16.83-.83-25.28a78.14,78.14,0,0,0,1-10.48c.13-4.08,1.78-7.09,1-11.27a55.8,55.8,0,0,1-1-12.13c.08-4.2-1.48-8-1.54-12.16-.07-4.63.28-9.31.28-14,0-3.41-1.29-9.63,1.14-12.31.87-1-1.14-4.08-2.19-2.93Z"></path>
      <path class="cls-1" d="M178.81,423.65c3.18-.07,6.34-.77,9.51-1.06,3.58-.32,7.23-.15,10.83-.15,1.44,0,.24-3.5-1-3.5-3.59,0-7.24-.17-10.82.15-3.17.29-6.33,1-9.51,1.06-1.48,0-.26,3.53,1,3.5Z"></path>
      <path class="cls-1" d="M26,378.28c3.45-3.48,10.67.7,14.5,1.81,6.81,2,13.94,3.22,20.84,4.85s13.57,3.13,20.2,5.65c6.79,2.58,14.26,3.46,21.23,5.51,14.31,4.21,28.56,8.65,42.91,12.76,6.89,2,13.66,4.06,20.44,6.38,3.28,1.12,6.65,2,10,2.9,2,.5,6.11.8,7.23,2.76s1.84-1.66,1.23-2.72c-2.1-3.64-9.52-4-13.16-5.06-7.37-2.09-14.5-4.88-21.9-6.93-8.38-2.32-16.6-5.18-25.05-7.24-7.85-1.92-15.32-4.83-23.09-7-15.33-4.24-30.5-8.48-46-12.17-6.4-1.53-12.77-2.8-19-4.87-3.64-1.2-8.45-3-11.54.17-.86.86-.09,4.43,1.15,3.18Z"></path>
      <path class="cls-1" d="M274.67,447.14c5.87,2.69,12.31,4.49,18.41,6.63,7,2.45,14.05,4.73,21.1,7,6.67,2.15,13.41,4.28,20.23,5.91,7.24,1.73,13.71,4.89,20.58,7.67,1.09.44,4.45-1,3-1.62-6-2.42-11.76-5.54-18-7.17-6.72-1.75-13.38-3.54-20-5.59-7-2.18-14-4.57-21-6.89s-14.56-4.49-21.28-7.57c-1.09-.5-4.45.95-3,1.63Z"></path>
      <path class="cls-1" d="M291.55,364.55c5,.17,9.29,1.77,14.08,2.76,4,.82,8,1,12,1.92s7.88,1.86,11.77,2.94,7.89,1.56,12,2.36c3.59.71,7.08,1.66,10.69,2.35,4.11.78,8.29,1.76,12.34,2.81s7.84,2.59,11.89,3.49c3,.66,6.72,2.16,9.74,1.49.6-.13.48-1.24.4-1.63l-.16-.72c-.15-.7-.65-1.78-1.47-1.91l-.86-.13c-1.4-.22-.51,3.36.8,3.57l.86.13-1.47-1.91.16.72.4-1.63c-3,.67-7.95-1.19-10.93-2-4-1-7.87-2.54-11.92-3.49s-8-2.08-12-2.66c-3.74-.55-7.26-1.88-11-2.32-7.75-.92-15.21-3.58-22.85-5.25-4-.87-8-1-12-1.92-4.55-1.05-8.49-2.4-13.24-2.57-1.49-.05-.5,3.52.8,3.57Z"></path>
      <path class="cls-1" d="M283.23,370.25l.18.89a.55.55,0,0,0,.36.38c2.2.3,4.33,0,6.51.47,1.91.44,3.8,1.23,5.7,1.74,4.45,1.2,8.79,2.57,13.13,4.13s8.65,2.59,12.94,4,8.41,3.58,12.72,5.11,8.47,3.11,12.71,4.6,8.47,1.81,12.71,2.7c8.66,1.82,17.33,3.18,26,4.61,1.24.2,2.41-1.07,2.64-2.2,1-5.17,3.15-13.72-1-18.11-.94-1-3.66,1.6-2.71,2.59,3.82,4,1.68,12.28.72,17l2.64-2.2c-8.71-1.44-17.39-2.79-26-4.61-4.24-.89-8.6-1.26-12.71-2.7s-8.47-3.09-12.71-4.6-8.38-3.66-12.72-5.11-8.68-2.5-12.94-4-8.68-2.93-13.13-4.13c-.81-.22-12.08-2.94-12-2.72-.28-1.37-3.25.81-3,2.12Z"></path>
      <path class="cls-1" d="M386.1,370.81q0-22.12.13-44.25c0-6.53-1.19-12.9-1.22-19.39,0-7.14-.06-14.29.06-21.42.25-14.49,2.65-29,4.22-43.36.7-6.43.12-12.89,0-19.33-.11-7.4,0-14.81,0-22.2,0-1.28-3.5-2.51-3.5-1,0,7.12-.07,14.24,0,21.36.07,6.72.73,13.48,0,20.18-1.61,14.38-4,28.87-4.22,43.36-.12,6.83-.07,13.68-.06,20.51s1.24,13.47,1.21,20.3q-.12,22.12-.13,44.25c0,1.3,3.51,2.53,3.51,1Z"></path>
      <path class="cls-1" d="M380.69,252.1c3.18.65-3.13,29.55-3.53,32.25a111.82,111.82,0,0,0-1.34,14.06c-.06,3,.15,6,.06,9-.11,3.77-1.09,7.08-1.94,10.7-2.49,10.67-1.49,22-1.36,32.81a93,93,0,0,0,1.56,17.25c1,5.09.18,11,1.94,15.89.11.3.38.9.83.7a25.15,25.15,0,0,0,5.39-3.15c1-.75,1.14-4.42-.21-3.39s-2.94,2.95-4.37.61c-.27-.45.08-1.41-.1-1.95-1-3-.49-6-1-9a115.22,115.22,0,0,1-1.93-18.42c-.08-6.5-.41-13-.18-19.52s2.07-12.11,3-18.32c.89-5.72-.13-11.5.52-17.22.61-5.42,1.28-10.8,2.24-16.18s1.69-10.86,2.54-16.32c.66-4.24,1.12-8.35.14-12.58-.06-.26-.23-.63-.53-.7l-.89-.18c-1.33-.27-2.19,3.37-.89,3.64Z"></path>
      <path class="cls-1" d="M392.06,200.81a108.85,108.85,0,0,1,19,2.48c3.18.63,5.86.4,9,1.49,2.62.91,5.82.54,8.55,1,6.05,1.09,11.71,2.63,17.85,3,4.25.25,8.13,1.45,12.19,2.61,2.12.6,6.59,1,7.35,3.47s2.29.55,1.76-1.2c-1.5-5-6.37-5.17-10.78-6.46A48.21,48.21,0,0,0,446,205.07c-4.66-.27-8.63-1.33-13.15-2.2a85.2,85.2,0,0,0-9.67-1.41c-3.3-.25-6.11-1.5-9.48-1.71s-6.88-1.23-10.41-1.6c-3.89-.41-7.73-1-11.65-1.07-1.26,0-1,3.7.42,3.73Z"></path>
      <path class="cls-1" d="M471.86,215.16a6.26,6.26,0,0,0-.18-1.16c-.16-.41-.74-.62-1.13-.75a4.65,4.65,0,0,0-2.9.08c-.53.18-1.76.65-1.55,1.43s1.56.6,2.07.43c.21-.07.14,0,0,0H468s.33.15.47.24l-.38-.4.18,1.16c0,.3.48.46.71.51a2.87,2.87,0,0,0,1.35-.08c.6-.18,1.67-.63,1.55-1.43Z"></path>
      <path class="cls-1" d="M468.61,214.77c.11,20.26,2.14,40.38,2.14,60.6,0,20.52.41,41.16-2.31,61.54-2.87,21.51-6.6,42.89-9.78,64.35-.72,4.85-1.57,9.72-2,14.61-.17,2.06.22,8.66-2.41,7.72-.65-.23-1.91-1.65-2.58-2.08a52.75,52.75,0,0,0-5.48-2.86c-4.64-2.33-8.83-5.51-13.55-7.64-9.76-4.4-20.73-7.09-30.92-10.35a68,68,0,0,1-7.15-2.71c-3.49-1.58-4.47-2.79-5-6.42-.8-5.27-1.28-11.11,1.53-15.88.65-1.11-2-3.71-2.8-2.35-3.35,5.71-3.24,16.59-.29,22.55,1.14,2.31,3.38,3.61,5.7,4.52,5.31,2.09,10.77,3.62,16.14,5.52q7.46,2.63,15,5.07a83.48,83.48,0,0,1,16.72,7.81c4.19,2.43,8.44,4.29,12.29,7.21,1.51,1.14,2.72,2.1,4.26.38s1.27-5.67,1.41-7.77c.39-5.53,1.37-11,2.18-16.52,1.86-12.51,3.95-25,5.84-37.5,3.47-22.89,6.52-45.88,6.13-69.07-.11-6.72-.06-13.45,0-20.18,0-5.86.52-11.75-.28-17.58-.95-6.91-.8-13.82-1.12-20.78-.31-6.8-.7-13.6-.74-20.41,0-1.21-2.88-3.48-2.88-1.78Z"></path>
      <path class="cls-1" d="M387.53,210c4.66.19,8.48,2.66,12.73,4.27a55.65,55.65,0,0,0,10.62,2.38c1.93.31,4-.16,5.86.24s3.44,1.58,5.51,1.68,4-.31,6.23.25a26.8,26.8,0,0,0,5.42,1,86.25,86.25,0,0,1,14.95,2.63c3.77.89,8.21,3.12,12.16,2.64,4.36-.53,10.83-5.8,8.47-10.47-.58-1.15-3.79.77-3.16,2,2.35,4.64-4.77,5.62-7.76,5.23a51.23,51.23,0,0,1-5.61-1.54c-3.65-.92-7.36-1.74-11.06-2.49-3-.61-6.09-.3-9.06-.95-1.47-.32-2.81-1.07-4.33-1.24-1.67-.18-3.21.19-4.9,0-2.55-.36-4.57-1.34-7.21-1.45a84.48,84.48,0,0,1-9.46-1.3c-6.06-.94-11-5.24-17.21-5.48-1.2,0-3.82,2.51-2.2,2.58Z"></path>
      <path class="cls-1" d="M457.59,225.94c0,8.87-.67,17.94.31,26.77s3.74,17.19,4.8,25.93c2,16.84.24,34.81-2.78,51.41s-4.32,33.08-5.59,49.81c-.63,8.3-3.55,17.39-5.72,25.41-1.73,6.4-3.27,13.33.29,19.39.77,1.31,3.22-.29,3.45-1.31.35-1.55,0-2-1.41-2.65-1.13-.53-4.15,1.51-2.51,2.28l.41,1.41,3.45-1.31c-4.24-7.22-1-15.34.9-22.77,1.9-7.63,4.16-15.44,4.7-23.3a463.09,463.09,0,0,1,5.86-49.9,159.43,159.43,0,0,0,2.69-25.95c.12-8.46.75-17-.5-25.36s-3.84-16.57-4.65-25-.24-17.3-.21-25.88c0-1.46-3.49-.25-3.5,1.05Z"></path>
      <path class="cls-1" d="M449,413.13c-4.2.14-8.31-1.23-12.34-2.2-3.37-.81-6.63-1-10-2.07a61.6,61.6,0,0,0-7.37-1.95c-6.11-1.13-12.26-2-18.34-3.32-2.77-.6-5.48-1.49-8.27-2-3.48-.63-7.16-.24-10.56-1.35l1,1.5c1.21-1,3.46-.86,4.87-1.71s-1.83-2.38-2.92-1.72c-1.89,1.14-3.63.71-5.35,2.1-.66.53.65,1.39,1,1.5a30.41,30.41,0,0,0,7.21,1.26,70.11,70.11,0,0,1,10.93,2c7.12,1.67,14.42,2.43,21.55,4,10,2.18,19.7,6.41,30.07,6.07,2.44-.08,0-2.15-1.45-2.11Z"></path>
      <path class="cls-1" d="M392.4,223.45l.21,1.12a3,3,0,0,0,2.24,1.93c4.17,1,7.92,3.75,12,5a95.2,95.2,0,0,0,13,3.46c10.08,1.61,20.55,4,30.76,4.32,1.62.05-.78-2.69-2-2.73a106.89,106.89,0,0,1-16.82-2.4c-4.9-.95-10-1.16-14.82-2.21a79.36,79.36,0,0,1-13.75-4c-3.27-1.38-6.27-3.36-9.75-4.21l2.24,1.93-.21-1.12c-.22-1.2-3.5-2.85-3.18-1.15Z"></path>
      <path class="cls-1" d="M393.32,246.62c1.66,0,1.82.79,3.08,1,1.11.23,2.25.06,3.34.27,2.25.43,4.09,1.23,6.37,1.47a92,92,0,0,1,15.55,2.78A110.27,110.27,0,0,0,437,254.9c3.07.41,5.83.35,8.83,1.33,2.22.72,4,1.53,6.39,1.54,1.32,0,2.78-3.4,1.34-3.4-2.79,0-5.14-1.33-7.78-2a44.08,44.08,0,0,0-6.67-.76c-2.58-.27-5-1.09-7.61-1.41a44.53,44.53,0,0,1-10-2,13,13,0,0,0-5.56-.8c-2.6,0-5.05-1.07-7.63-1.34a66.06,66.06,0,0,1-6.54-1.35c-2.24-.46-4.82-1.45-7.09-1.49-1.31,0-2.78,3.37-1.34,3.4Z"></path>
      <path class="cls-1" d="M392.22,260.54c4,2.48,8.67,3.89,13.14,5.32,2.36.75,4.8.79,7.21,1.48,2.87.82,5.84.37,8.75,1.27,5.38,1.68,10.26,3.88,15.87,4.75,2.63.41,5.21,1.05,7.86,1.27,1.32.11,2.94-.16,4.23.27,1.12.37,1.59,1,2.8,1.12l.92-3.64-.71,0c-1.44-.07-2.17,3.58-.92,3.64l.71,0c1.38.06,2.26-3.45.92-3.64-1.6-.22-2.93-1.14-4.55-1.4-3.12-.49-6.33-.62-9.48-1.15a90.28,90.28,0,0,1-15.17-4.34,22.5,22.5,0,0,0-5.92-1.4c-3.12-.21-5.59-.94-8.6-1.4a44.92,44.92,0,0,1-15.67-5.55c-1.32-.81-2.48,2.71-1.4,3.38Z"></path>
      <path class="cls-1" d="M393,315.31c2.73.74,5.11,2.08,8,2.32,2.28.19,4.47.1,6.76.48,2.14.35,4.29.25,6.43.52,2.66.34,5.19,1.34,7.8,1.92,5.1,1.13,10.36,1.28,15.46,2.4,2.8.61,5.53,1.5,8.39,1.88s6-.29,8.71,1.13v-3.51l-.7-.06c-1.55-.13-1,3.54.26,3.65l.7.06c1.54.13.92-3,0-3.51-4.26-2.25-9.68-1.33-14.37-2.45-5.64-1.34-11.33-1.83-17-2.88-5-.92-9.59-2-14.62-2.59-2-.24-4-.67-6-.76-4-.16-6.22-1.19-10-2.22-1.41-.38-1,3.29.26,3.65Z"></path>
      <path class="cls-1" d="M390,330.33c2.48-.05,5.12,1.64,7.61,2,3.17.47,6.13,1.48,9.25,2a64.76,64.76,0,0,1,6.56,1c2.65.72,5.37.2,8.1.56,5.71.76,11.16,2.54,16.94,2.94a54.68,54.68,0,0,1,8.86,1.31c1.79.42,7,.51,8.24,1.52l-.1-3.53-1.57.26c-1.56-.18-1.18,3.51.09,3.65a2.66,2.66,0,0,0,2.12-.22c1.26-.51.73-2.85-.1-3.53-2-1.62-3.71-.77-6.14-1.13-2.94-.44-5.76-1.43-8.75-1.78-6.66-.78-13.07-2.18-19.69-3.16-5.43-.8-10.91-.7-16.27-2-3.31-.8-7-1.07-10.18-2-2-.59-3.51-1.67-5.62-1.63-1.29,0-.81,3.73.64,3.69Z"></path>
      <path class="cls-1" d="M393.58,342.1c5,.12,9.64,1.73,14.5,2.76,5.15,1.09,10.43,1.47,15.58,2.57,4.34.93,8.56,2.21,13,2.23,2.06,0,9.48-.46,11.09,1.73,1.07,1.45,2.45-1.92,1.7-2.94-1.36-1.84-4.71-2-6.78-2.32-5.07-.74-10-.43-15-1.61-5.36-1.25-10.77-1.9-16.19-2.83-5.72-1-11.21-3.09-17.06-3.24-1.45,0-2.09,3.63-.82,3.66Z"></path>
      <path class="cls-1" d="M392.92,350.12l-.08-.62L391.72,351c3.3,2.3,7.48,3,11.31,4a147.3,147.3,0,0,0,15.39,3.15c2.4.33,4.8.67,7.2,1,3,.39,5.93-.09,8.91.24,4.54.51,9.44,2.19,14,2,1.58-.05.8-3.63-.48-3.62h-.71c-1.58,0-.81,3.63.48,3.62h.71l-.48-3.62c-3.93.12-8.56-1.12-12.49-1.76-3.06-.5-5.68-.09-8.78-.32-2.38-.18-4.74-.75-7.1-1-4.95-.56-9.93-1.82-14.83-2.78-4.2-.83-9.48-1.79-13-4.26-1-.67-1.19.94-1.12,1.48l.08.62c.23,1.81,2.47,2.93,2.14.43Z"></path>
      <path class="cls-1" d="M390.08,364.45c2.63.72,4.61,2.63,7.3,3.14,3.27.62,6.45.77,9.74,1.61a79.19,79.19,0,0,0,17.7,2.54c2.49.06,4.65,1.14,7.08,1.33s5,.7,7.58.91c3.83.31,7.29,2.48,10.48-.31,1.11-1,1.31-4.14-.53-2.53-1.35,1.18-5.42-.45-7.15-.57-2-.13-3.76-.59-5.75-.86-4.81-.65-9.58-.89-14.47-1.39a108.21,108.21,0,0,1-15.32-3c-3.12-.79-7-.47-9.88-1.73-1.89-.82-3.37-2-5.39-2.54-1.23-.33-2.94,3-1.4,3.38Z"></path>
      <path class="cls-1" d="M393.73,378c9.06.58,17.81,3.42,27,3.29,8.49-.12,16.79,2.26,25.18,3.17l-1.62-2.55-1.85,0c-2.14,0,.35,2.52,1.62,2.54l1.84,0c2.23,0-.48-2.42-1.62-2.55-8.13-.88-16.09-3.28-24.36-3.2-9.39.09-18.51-2.65-27.83-3.25-2.11-.13.35,2.47,1.62,2.55Z"></path>
      <path class="cls-1" d="M394,390.56a123.6,123.6,0,0,1,15.24,1.63c2.4.38,4.61.11,7,.37,1.68.19,3.24,1.09,4.93,1.33,2.64.37,5.26.3,7.9.8,3.21.6,6.35,1.47,9.5,2.3,3.54.94,7.54,2.1,11.17,2.15,2.26,0,2.29-2,0-2-1.34,0-3-.81-4.38-1-3.27-.5-6.23-1.23-9.41-2-5.32-1.36-10.82-1.55-16.09-2.83-3.94-1-8.11-.92-12.17-1.46a131.34,131.34,0,0,0-13.66-1.2c-2.26-.06-2.28,2,0,2Z"></path>
      <path class="cls-1" d="M407,397.67c6.24,2.61,13,2.73,19.55,3.82,5.85,1,11.47,3.2,16.59-.73,1-.77-.6-4.12-1.87-3.14-4.9,3.76-11.8.91-17.3,0-5.87-.94-11.68-1-17.26-3.37-1.63-.68-.89,2.89.28,3.38Z"></path>
      <path class="cls-1" d="M310.44,366.9a5.67,5.67,0,0,0,9.89,4.2c1.77-2,1.55-4.95,1.47-7.41-.19-5.94-2.71-11.58-2-17.52.55-4.85,1.52-9.12,1.27-14-.31-6-.31-11.89-.31-17.86,0-6.57-.19-13.17,0-19.73a11.61,11.61,0,0,0-.09-4c-.46-1.43-1.48-1.65-2.18-2.9-1-1.9-2.25,1.39-1.64,2.53.37.68,1.13,1.51,1.41,2.21a9.69,9.69,0,0,1,.43,4.15c0,3.64,0,7.28,0,10.92,0,8-.25,16,.2,23.9.4,7.08-2.18,14-1.22,21.05.48,3.54,1.82,6.8,2,10.39.12,1.91-.37,5.18-2.18,6.28-1.15.7-5.17-.22-5-2,.22-2.26-1.84-2.42-2.06-.16Z"></path>
      <path class="cls-1" d="M315.13,293.55a3.62,3.62,0,0,0-1.12-2.43c-.4-.47-2.6-2.16-2.88-.74-.59,3,.67,5.73.81,8.73a54.32,54.32,0,0,1-.44,10.5c-1,6.66-.35,13.28-1.53,19.89-1,5.59-.24,12.06-.06,17.75.1,3.42.78,6.7,1,10.1s.24,6.23,1.34,9.4a2.84,2.84,0,0,0,2.48,1.59,13.21,13.21,0,0,0,5.18-1.08c1.33-.54-1.32-3.1-2.58-2.59a8.51,8.51,0,0,1-4.58.92l2.48,1.59c-1.27-3.62-.91-7.44-1.4-11.19a80.08,80.08,0,0,1-.79-9.94c0-5.82-.3-11.48.76-17.15,1.12-6,.09-12.24,1-18.3a45,45,0,0,0,.39-8.17c-.1-3-1.45-7.44-.88-10.3l-2.88-.74.47,1.06c.19,1.23,3.47,2.87,3.2,1.13Z"></path>
      <path class="cls-1" d="M278.12,361.6c3.68.77,7.1,2.14,10.85,2.64,3,.4,6,1.7,9,1.48,1.35-.1,2-3.77.36-3.64-3,.23-6.64-1.18-9.62-1.63-3.3-.5-6.36-1.78-9.61-2.47-1.44-.3-2.35,3.33-.94,3.63Z"></path>
      <path class="cls-1" d="M277.65,358c-2.26-1.18-4.37-3.32-6.81-4.1-2.2-.71-5.2-.07-6-2.67-.65-2.1.59-6.37.58-8.73a72.83,72.83,0,0,0-.49-8.45c-.68-5.76-1.57-11.74-2.64-17.42-.75-4,.13-10.34-2.56-13.6-.83-1-4.52-1-3.39.38,1.92,2.34,1.55,7.3,1.85,10.17.41,3.89.9,8,1.56,11.81,1.53,9,2.68,17.44,1.18,26.53a1.17,1.17,0,0,0,.71,1.11c1.94,1,3.51,2.24,5.66,2.74,1.4.33,2.27.1,3.61.83,1.56.85,2.92,2,4.5,2.82,1.35.7,4.41-.3,2.24-1.43Z"></path>
      <path class="cls-1" d="M260.13,351.06a24.75,24.75,0,0,0-5.08,2.4c-1.64,1.23-2.51,3.43-4.77,3.85a2.48,2.48,0,0,0-1.57,3.06c1.66,3.57,10.08,3.55,13.4,4.54,4.13,1.23,8.23,2.52,12.4,3.63s8.29,3,12.64,3.21c1.41.07,3-3.31,1.4-3.38-3.77-.18-7.29-1.78-10.92-2.76s-7.31-2-10.94-3.11a76.79,76.79,0,0,0-8.64-2.37c-2.15-.4-5.89-.27-7-2.54l-1.57,3.06a7.19,7.19,0,0,0,3.88-2,24.66,24.66,0,0,1,6.65-4.48c1.27-.56,2.11-3.94.08-3.06Z"></path>
      <path class="cls-1" d="M250.16,356a96.55,96.55,0,0,1,1-14.21c.64-4.37-.24-8.61,0-13,.1-2.08.69-4.08.9-6.15.25-2.41-.11-4.78,0-7.18.12-2.82,1.39-5.12,1.94-7.81.44-2.15-.25-4.8,1.53-6.53,1.36-1.33.63-3.74-1.17-2-2.69,2.61-2.44,4.87-2.9,8.37-.34,2.58-1.74,4.87-2.06,7.46-.43,3.44.19,6.87-.31,10.33-.76,5.21,0,10.1-.37,15.31-.39,5.66-1.32,11-1.32,16.73,0,2.2,2.75.06,2.76-1.34Z"></path>
      <path class="cls-1" d="M242.83,354.88c-4,.09-8-2.32-11.9-3-4.5-.72-9-1.3-13.4-2.38l.35,2.56q.42-.95.93-1.85c.89-1.67-.54-3.71-1.71-1.51q-.51.9-.93,1.85c-.27.57-.62,2.32.35,2.56,4.91,1.2,9.92,1.56,14.84,2.63,3.69.8,7.19,2.81,11,2.72,1.35,0,2.07-3.67.42-3.64Z"></path>
      <path class="cls-1" d="M189.23,350.53c-.06-4.39,1.71-8,2.08-12.3a53.24,53.24,0,0,0,.06-11.54,85,85,0,0,1-1.08-12.63c0-1.78-.21-3.41-.3-5.16-.11-2-.89-.67.77-2,1-.82.4-4.4-1.09-3.23-1.73,1.35-2.34,2.23-2.25,4.4s.77,4.42.72,6.75a59.37,59.37,0,0,0-.05,7c.17,1.76.83,3.34,1.13,5.07a38,38,0,0,1,.07,8.87c-.37,5.15-2.27,9.56-2.2,14.78,0,2.27,2.19,2.28,2.16,0Z"></path>
      <path class="cls-1" d="M189.82,349.16a14.63,14.63,0,0,1,4.88.27,15,15,0,0,0,2.59.79,52.16,52.16,0,0,0,7.94,0c1.55,0,.14-3.45-1.29-3.43-3.11,0-6.22.48-9.23-.39a18.4,18.4,0,0,0-6.19-.63c-1.56,0-.13,3.47,1.29,3.43Z"></path>
      <path class="cls-1" d="M191.55,342.59c2-1.44,5.1-2.21,6.14-4.67,1.14-2.7,0-6.47.45-9.34.52-3.43,2.82-5.74,3.64-9s.25-7.13.23-10.47c0-1.33-3.09-3.32-3.07-1.48,0,3.55.68,7.69-.56,11.05-.93,2.53-2.62,4.35-3.19,7.11-.53,2.59-.06,5.19-.35,7.78-.43,3.86-3.28,4.39-6,6.38-1.11.81,1.46,3.52,2.69,2.61Z"></path>
      <path class="cls-1" d="M195,343c1.54-.19,3.38,1,4.88,1.35A26.92,26.92,0,0,0,206,345c1.4,0,2.86-3.38,1.32-3.41a24.5,24.5,0,0,1-6.94-1c-1.58-.5-3-1.25-4.67-1-1.32.16-2.57,3.57-.69,3.34Z"></path>
      <path class="cls-1" d="M212.81,343.38c7.78,0,15.5,1.12,23.23,1a47.33,47.33,0,0,1,11.47,1.11c3.25.73,6.11,2.09,9.48,2,2.26-.05,2.31-2.19,0-2.13-3.53.08-7.8-1.87-11.36-2.53a47.46,47.46,0,0,0-9.59-.6c-3.86.07-7.54-.65-11.36-.91s-7.94-.07-11.87-.07c-2.27,0-2.3,2.13,0,2.13Z"></path>
      <path class="cls-1" d="M216,332.44c1.56,0,2.84.57,4.33.87,1.8.36,3.61.17,5.42.51,2.87.53,5.83,1.8,8.75,1.71,1.3,0,3.6-2.92,1.86-2.86-2.78.09-6-1.2-8.75-1.71-1.76-.33-3.52-.14-5.25-.53a17.09,17.09,0,0,0-4.49-.85c-1.3,0-3.6,2.91-1.86,2.86Z"></path>
      <path class="cls-1" d="M213,319l.18.85a1.16,1.16,0,0,0,1.07.76,47.36,47.36,0,0,1,7.39.8,36.64,36.64,0,0,0,5,1.19c3.77.42,7.76,1.35,11.54,1.3,1.87,0,3.16-2.22.65-2.19-2.19,0-4.09-.77-6.22-1-1.81-.22-3.57-.16-5.38-.46-.47-.08-10.61-2.31-10.51-1.83-.3-1.45-4-.81-3.7.61Z"></path>
      <path class="cls-1" d="M217.69,314.36c5.61,0,11.36-.35,17,.11,4.65.38,9.21,1.75,13.87,1.95,1.5.06,2-3.65.54-3.71-4.66-.19-9.23-1.56-13.87-1.95-5.59-.46-11.35-.11-17-.11-1.5,0-1.92,3.71-.54,3.71Z"></path>
      <path class="cls-1" d="M387.46,196.63c-4.72-.57-9.39-1.5-14.13-2-5.62-.64-11.36-.45-17-.82-5.23-.35-10.45-.78-15.68-1.19-2.7-.21-5.23-.79-7.93-1.05-2.2-.22-5-.22-7.08-.94l-1.71,3.08,1.3-.11c1.27-.1,3.17-3.24,1.4-3.1l-1.3.11c-.93.08-3.26,2.55-1.71,3.08,4.25,1.44,9.38,1.36,13.82,1.94s8.89.78,13.32,1.18c6.6.59,13.21.2,19.79.79,5,.45,9.92,1.53,14.89,2.13,1.33.16,3.39-2.88,2-3Z"></path>
      <path class="cls-1" d="M383.52,196.58c-1.43,2.32-4.52,1.25-5.94,3.77-1.67,2.95-.15,8.83-.38,12-.33,4.57-.87,8.45-.41,13a69.14,69.14,0,0,1,0,16.45c-.58,4.14-1.52,7.85-.85,12,.72,4.51.35,9.25.35,13.83,0,4-2.16,15.45,4.14,15.6,2.2.05.17-2.78-1.24-2.81q1.26,1.79.77-.4l-.43-3c-.18-2.53,0-5.2,0-7.74,0-3.86.21-7.79,0-11.64-.16-3.25-.9-6.14-.41-9.51s1.2-6.48,1.4-9.83a71.34,71.34,0,0,0-.54-12c-.48-4.36.11-8.11.41-12.4.22-3.1-.69-6.82-.11-9.84.62-3.26,4.57-2.67,6.21-5.35.76-1.24-2.31-3.39-3-2.2Z"></path>
      <path class="cls-1" d="M379,203.24c-5.4,0-10.74,0-16.12-.39-4.1-.32-8.11-1.12-12.2-1.49-7.8-.71-15.43-2.63-23.25-3.43s-15.84-1.94-23.78-2.86c-4.76-.55-9.43-1.65-14.15-2.43-2.92-.48-8.4-.37-11-1.88l.72,1.29.31-.51c.82-1.34-2.8-2.16-3.53-1l-.31.51c-.36.59.29,1,.72,1.29,2.79,1.59,7,1.46,10.14,2,5.1.82,10.16,2,15.28,2.66,8.49,1.12,16.92,2,25.41,3,9.07,1,18.27,2.37,27.23,4,8.38,1.55,16.81,1.3,25.33,1.3,2.51,0,1.08-2.11-.76-2.11Z"></path>
      <path class="cls-1" d="M269.49,186.12c1.74-1,5.44.25,7.23.55,2.36.4,4.53.48,6.89.68,4.78.41,9.67,1.17,14.41,1.91s9.3,1.17,13.93,1.82,9.13,1.64,13.72,1.84c1.48.06,1.94-3.65.54-3.71-9.82-.43-19.89-2.6-29.63-4-5-.69-10-1.39-15-1.66-3.79-.2-9.22-2.86-12.7-.83-1.14.66-1,4.31.59,3.36Z"></path>
      <path class="cls-1" d="M319.95,198.24c-.15,5.33,1.44,10.29,1.78,15.61.18,2.84-.66,5.9,1.14,8.37,1.47,2,2.5-.28,1.39-1.8-.48-.65.09-2.8.09-3.62,0-1.59-.31-3.14-.42-4.72-.27-4.08-1.59-8.05-1.48-12.12,0-1.32-2.45-3.87-2.51-1.72Z"></path>
      <path class="cls-1" d="M313.14,197.73c-2.25,1.42-1.45,6.06-1.42,8.26a22.4,22.4,0,0,0,1.24,6.2c.39,1.32.41,3.45,1.16,4.59a2.75,2.75,0,0,0,2.4,1l.66,0c2.44-.16.11-2.33-1.41-2.23l-.66,0,2.4,1c-.48-.73-.5-2.56-.75-3.43a32.93,32.93,0,0,1-1.32-5.06c-.13-1.1-.61-7.73.59-8.48,1.54-1-1.77-2.5-2.9-1.8Z"></path>
      <path class="cls-1" d="M395.2,280.54c10.82-.17,22.44,2.56,33,5A119.3,119.3,0,0,0,443.81,288c2.1.2,4.44.78,6.48.83,1.24,0,1.22.42,2.16-.56s-.19-4.45-1.5-3.07c-.42.44-9.69-1.18-10.49-1.24-6-.46-11.66-2.15-17.53-3.26-9.27-1.76-18.77-4-28.21-3.86-1.43,0-1.05,3.74.48,3.72Z"></path>
      <path class="cls-1" d="M392.85,290.84h-.3c-1.08,0-3.33,2.71-1.77,3.06,9.26,2.07,18.83,2.8,28.29,3.5,5.08.38,10.12,1,15.15,1.81,4.85.74,9.55,2.6,14.35,3.18,1,.12,2.7-1.63,2.19-2.65l-.44-.87c-.74-1.49-3.56.94-2.93,2.2l.44.87,2.19-2.65c-2.46-.29-4.85-1.42-7.27-2-2.58-.59-5.25-1-7.86-1.36-4.21-.65-8.41-1.15-12.65-1.49-9.8-.79-19.75-1.44-29.38-3.59l-1.77,3.06h.3c1.37,0,3.34-3,1.45-3.1Z"></path>
      <path class="cls-1" d="M348.21,220.36l.19.81c.1.4.42,1.1.88,1.2,2.22.48,3.8,2.78,5.4,4.3,1.86,1.76,3.78,3.42,5.77,5,3.36,2.71,5.78,7.08,9.69,8.92,1.29.61,1.3-3.07.06-3.66-2.49-1.17-3.77-3.72-5.67-5.6-1.74-1.72-3.73-3.15-5.6-4.72-2.77-2.33-5.94-7.13-9.6-7.93l.88,1.2-.19-.81c-.59-2.45-2.25-.52-1.83,1.25Z"></path>
      <path class="cls-1" d="M353.16,271a17.61,17.61,0,0,0,3.36,5.4c1.52,1.6,3.37,2.35,4.69,4.19a51.37,51.37,0,0,0,10.36,11c1.2.94,2.34-2.59,1.26-3.43a42.67,42.67,0,0,1-10-10.56,10.86,10.86,0,0,0-3.35-3.19,13.6,13.6,0,0,1-4.4-5.74c-.82-2-2.47,1.07-2,2.3Z"></path>
      <path class="cls-1" d="M273.32,325c2.28,2.27,4.5,4.66,6.88,6.82,2.84,2.57,5.71,4.48,8.11,7.55s5.11,7.44,8.56,9.23c.51.27,1.12.15,1.24-.47a8.43,8.43,0,0,0,.22-3.37c-.08-1.35-2.86-3.55-2.72-1.38l-.19,2.64,1.24-.47c-1.8-.94-3.3-3.47-4.62-5-1.7-2-3.16-4.17-5-6-4-4-8.55-7.48-12.58-11.5-1.77-1.76-2.5.62-1.16,2Z"></path>
      <path class="cls-1" d="M276.54,302.81c3.47,1.36,5.56,5.12,8.45,7.34,3.73,2.86,7.28,5.21,10.72,8.47,3.22,3.05,6.33,6.3,9.59,9.29,2.16,2,4.49,2.85,6.91.83,1-.82,1-4.5-.39-3.38-3.64,3-8.15-4-10.5-6.17-3-2.74-5.81-5.84-9-8.33-2.78-2.18-5.91-3.7-8.43-6.23-2.07-2.06-3.83-4.39-6.62-5.49-1.25-.49-2.15,3.13-.75,3.67Z"></path>
      <path class="cls-1" d="M327.86,300.42a7.75,7.75,0,0,0,2.8,6.64c2.09,1.9,4.39,3.31,6.24,5.5,1.68,2,3.23,4,5.09,5.77,4.24,4.15,8.06,8.68,12.06,13.07,2.11,2.32,3.75,4.91,5.77,7.26s4.51,3.76,5.89,6.47c.44.86,2.63,2.35,2.47.4l-.08-1.83c0-1.26-2.8-3.64-2.8-1.93,0,.92,0,1.64.11,2.55l2.47.4c-1.85-3.62-5.25-5.66-7.64-8.86-3.21-4.29-6.8-8.13-10.37-12.15-3.21-3.63-6.84-6.9-10-10.59-1.24-1.47-2.33-3.11-3.7-4.47-1.78-1.77-5.58-3.35-5.58-6.28,0-1.24-2.78-3.64-2.78-1.94Z"></path>
      <path class="cls-1" d="M330,323.17c-.13,2.86,1.91,4.46,3.93,6.17,3.85,3.24,6.63,7,9.77,10.92a122.53,122.53,0,0,0,9.71,11.1c2.92,2.84,8,8.11,8.92,12.13.29,1.28,4,1.36,3.65-.2-.76-3.35-3.82-6.14-5.85-8.81-3-3.89-6.72-7.07-9.79-10.9-2.75-3.43-5.39-7-8.25-10.34-2.15-2.51-8.53-6.22-8.37-9.72.07-1.42-3.67-1.74-3.73-.36Z"></path>
      <path class="cls-1" d="M452.57,504.92a16.59,16.59,0,0,0,6.52,3.4c4.15,1.41,8.21,3.08,12.38,4.44,8,2.61,16.61,8.58,25.24,8.41,1.75,0-.39-3-1.65-3-7.46.14-14.4-4.94-21.28-7.27-3.93-1.34-7.81-2.71-11.71-4.14-2.58-.95-6.13-1.4-8.13-3.32-1.63-1.56-3-.14-1.37,1.44Z"></path>
      <path class="cls-1" d="M352.29,539.49l-1.69-.17.22,2.13c1.06-3.07.85-5.85,1-9.05.05-.9.75-9.8,1.91-10.18s2-3.95.31-3.39c-2.5.81-3.14,3.4-3.38,5.75-.22,2.15-.62,4.19-1,6.32-.53,3.2.28,6.65-.78,9.75-.16.48-.58,1.89.22,2.13a4.08,4.08,0,0,0,2.25.25c1.34-.09,2.41-3.65.9-3.54Z"></path>
      <path class="cls-1" d="M381.06,429.41l.94-.34-1.26-3.3-.1.07c-1.21.81.45,2.9,1.26,3.3a10.77,10.77,0,0,0,2.54.8c1.7.34.57-2.39-.06-2.91l-.09-.07.06,2.91c7.74,3.07,16.26,4.84,24.23,7.33a117,117,0,0,0,11.95,3.19c4.82,1,9.63,1.28,13.91,4,1.84,1.16.9-2.11.26-2.75l.25.49c-.37-1.36-3.07-3.16-2.42-.81a5.5,5.5,0,0,0,1.59,2.82l.26-2.75c-6.92-4.38-16.24-4.41-24-6.73-8.8-2.63-18.22-4.72-26.74-8.1-1.61-.64-.49,2.46.06,2.91l.09.07-.06-2.91a10.77,10.77,0,0,1-2.54-.8l1.26,3.3.1-.07c1.05-.7-.28-3.13-1.26-3.3a7.18,7.18,0,0,0-1.78-.17c-.33,0-.48.26-.58.54l-.34.95c-.42,1.18,1.85,4,2.46,2.34Z"></path>
      <path class="cls-1" d="M370.12,449.92c-1.14,5.74-3.27,11.4-4.19,17.14A103.11,103.11,0,0,1,361.75,485c-2.2,6.29-4.52,12.29-6,18.83-1.23,5.6-1.66,11.44-4.28,16.63-.65,1.28,2.28,2.53,3.17,1.89,1.7-1.2,3.29-2.49,4.87-3.85,1.17-1-2-3-3-2.1-1.57,1.36-3.17,2.65-4.87,3.85l3.17,1.89c2.64-5.23,3.1-11.12,4.32-16.76,1.54-7.12,4.26-13.59,6.5-20.48a90.33,90.33,0,0,0,3.6-15.47c.87-6.13,3.09-12.21,4.3-18.33.24-1.23-3.16-2.69-3.47-1.14Z"></path>
      <path class="cls-1" d="M376,427.8c-.21,4.34-2.18,8.25-3.42,12.35a106.58,106.58,0,0,0-2.48,10.93c-.25,1.29,3.2.14,3.46-1.19a94.73,94.73,0,0,1,3.37-13.4c1.14-3.28,2.36-6.38,2.53-9.88.07-1.42-3.39-.14-3.46,1.19Z"></path>
      <path class="cls-1" d="M437.53,442.1c-2-.32-3.24.73-3.84,2.64a35.49,35.49,0,0,0-1.27,9.8c-.11,6.13-2.62,12-4.15,18s-4,11.53-5.31,17.42c-1.28,5.63-1.29,11.41-2.68,17-1.6,6.47-3.61,12.84-5.73,19.16a313.28,313.28,0,0,1-13,33.45l2.37-1.07c-1.43-4.49-7.6-6.58-11.4-8.7-2.82-1.57-5.25-3.52-7.95-5.26-2.51-1.62-5.41-2.53-7.89-4.21s-4.53-4-7.11-5.72-5.23-3-7.74-4.67c-2.29-1.52-4.19-3.42-6.33-5.12-.78-.62-4.92-3.87-6.11-3.67,1.26-.21,2.55-3.63.73-3.32-3.38.57-5,4.49-2.14,6.81,2.22,1.82,5,2.87,7.24,4.8a58.57,58.57,0,0,0,8.58,6.08,58.13,58.13,0,0,1,8.6,6.07c2.83,2.42,5.85,3.63,9,5.45s6,4.19,9.2,6c3,1.7,9.6,4.11,10.76,7.74.5,1.56,2.07-.43,2.37-1.07a286.75,286.75,0,0,0,11.5-29c3.46-10.17,7.44-20.7,8.89-31.38.77-5.68,1.41-10.73,3.28-16.19,1.55-4.56,2.7-9.23,3.94-13.88s3.17-9.17,3.59-13.94c.23-2.63.42-5.2.82-7.79a5.48,5.48,0,0,1,.19-.84c.4-1.14-.3-1.22.2-1.14,1.28.21,2.88-3.14,1.36-3.39Z"></path>
      <path class="cls-1" d="M435.59,444c0,7.46.61,14.35,3,21.44,3,8.78,6.82,17.94,8.71,27a217.38,217.38,0,0,0,6.32,23.66c1.37,4.16,3.29,8.12,3.93,12.49.48,3.23.65,6.28,2.07,9.28.33.7,2.44,2.82,2.38.75q-.08-1.92-.05-3.83c0-1.29-2.56-3.74-2.56-1.59q0,1.92.05,3.83l2.38.75c-1.68-3.54-1.38-7.45-2.32-11.18-.71-2.82-1.91-5.49-2.89-8.22a188.84,188.84,0,0,1-6.87-25.13c-1.67-8-5.15-15.32-7.44-23.11-1.09-3.71-2.6-7.29-3.32-11.11a73.06,73.06,0,0,1-.89-13.39c0-1.26-2.54-3.74-2.53-1.61Z"></path>
      <path class="cls-1" d="M456.67,527.57c-6.83-1.56-13.06-6-19.67-8.29a100.63,100.63,0,0,1-10.22-3.86c-2.48-1.18-4.59-2.3-7.4-2.35l.71,1.24.65-1.09c1.09-1.84-2.36-1-3,.08l-.65,1.09c-.4.68-.08,1.23.71,1.24,3.34,0,6.13,2.25,9.1,3.49s6.33,2.07,9.44,3.25c6,2.28,11.77,6.25,18,7.69,1.21.28,4-2.1,2.31-2.49Z"></path>
      <path class="cls-1" d="M401.16,576.29a23.66,23.66,0,0,1,2.24-10.15c1.51-3.16,2.82-6,2.94-9.55,0-1.34-3.22-3.05-3.27-1.63-.14,4-2,7.05-3.52,10.67a24.36,24.36,0,0,0-1.66,9c0,1.35,3.26,3,3.27,1.63Z"></path>
      <path class="cls-1" d="M95.14,405.92c0,11.43-.27,23.28,2.91,34.38a122.85,122.85,0,0,1,3.7,17.61c.43,3.33.7,6.39,2.9,9.07.34.41,1.69,1.37,1.83.2a17.37,17.37,0,0,0,.17-3.12c0-1.27-2.61-3.68-2.58-1.54l-.13,2.41,1.83.2c-2.33-2.83-2-9.51-2.79-13.05-1-4.48-2.06-8.91-3.1-13.4-2.36-10.15-2.16-20.84-2.17-31.2,0-1.25-2.56-3.69-2.56-1.55Z"></path>
      <path class="cls-1" d="M95.19,407.49l.47-.06-2.24-2.94A32.87,32.87,0,0,0,89.76,408,19.66,19.66,0,0,1,84.52,412c-3.74,2.28-7.64,3.63-11.48,5.66-3.3,1.74-6.74,3.29-10,5.15-4.36,2.49-8,6-12.27,8.65-1.25.76,1.3,3.05,2.24,2.94,1.16-.14,1.09-.17,1.65-1.17s-2-3.72-2.79-2.36l-.85.46,2.24,2.94c4.09-2.48,7.48-5.79,11.55-8.26,2.36-1.43,4.88-2.15,7.32-3.31,2-1,3.73-2.34,5.83-3.22a87.29,87.29,0,0,0,9.67-5c3.39-1.92,5.36-4.75,8.29-7.17,1.15-1-1.26-3.05-2.24-2.94l-.47.06c-1.35.16.66,3.22,2,3.06Z"></path>
      <path class="cls-1" d="M47.59,429.3c1.53,8.09,3.18,16.08,6,23.86,1.61,4.37,4,8.34,5.57,12.73a117.11,117.11,0,0,1,3.73,13.56,149.47,149.47,0,0,0,7.9,24.83A100.29,100.29,0,0,1,75.14,517c.46,1.74,1,3.33,2.51,4.39.59.41,1.34.19,1.32-.63-.07-3-1.67-4.49-4-6.13-1.78-1.22-1.27,2.28-.18,3A12.2,12.2,0,0,1,76.5,519l1.32-.63c-.77-.54-1.8-6.38-2.14-7.32-1.36-3.81-2.94-7.54-4.53-11.26-3.39-7.93-4.9-16.09-7-24.42-2-7.91-5.56-14.63-8.37-22.15S51.44,438,50,430.26c-.27-1.41-2.83-3.36-2.38-1Z"></path>
      <path class="cls-1" d="M56.65,460.73a15.2,15.2,0,0,0,.2,4.16c.13.6.67,2.12,1.59,1.56,3.63-2.23,7-4.83,10.89-6.75,3.42-1.71,7.07-3.09,10.55-4.7s7.31-2.72,10.68-4.55c3-1.65,5.46-4.84,9.17-4.67,1.26.06.84-3.63-.63-3.7-3.08-.14-5.32,1.93-7.72,3.59-3.38,2.34-7.42,3.53-11.16,5.2A193.88,193.88,0,0,0,57.28,463l1.59,1.56a11.92,11.92,0,0,1-.1-3.17c.09-1.87-2-3.14-2.12-.65Z"></path>
      <path class="cls-1" d="M47.81,433l.84-.43-.18-2.91c-2.28,2.12-5.22,4.35-7.7,6.25a2.84,2.84,0,0,0-1,2.76c2.9,7.66,3.94,15.75,6.7,23.42a78.1,78.1,0,0,0,5.07,10.35A67.06,67.06,0,0,1,56.3,485c1.2,3.84,3.51,7.32,4.92,11.12s2.41,7.79,4,11.56c1.7,4,3.8,7.87,5.29,12,.85,2.33,1.26,4.36,3.53,5.67,1.19.69,2.84-2.67,1.57-3.4-2.69-1.55-3.79-7.08-5-9.82C69,508.56,67.3,505,66,501.39s-2.23-7.3-3.73-10.83c-1.62-3.82-3.46-7.18-4.45-11.24-1.79-7.36-7-13.39-9.41-20.54-2.51-7.5-3.62-15.21-6.44-22.65l-1,2.76c2.81-2.17,5.73-4.41,8.3-6.81.53-.49,1.36-3.7-.18-2.91l-.84.43c-1.11.57-1.95,4.14-.43,3.37Z"></path>
      <path class="cls-1" d="M90.13,447.77a55,55,0,0,0,.82,9.15c.51,3.8.62,7.92,1.88,11.57,1.4,4.07,2.92,8.13,4.35,12.2.78,2.24,1.71,4.94,3.58,6.5.71.59,3.18.12,3.3-1l.15-1.47c.16-1.58-3.51-1.08-3.65.23l-.15,1.47,3.3-1c-2.3-1.92-3-6.13-4-8.83-1.18-3.39-2.71-6.87-3.66-10.33-.84-3.06-.95-6.39-1.35-9.52-.37-2.89-1.06-6.4-1-9.28.06-1.6-3.6-1-3.65.24Z"></path>
      <path class="cls-1" d="M91.41,408.6l-.62.13c-.71.15-1.84.49-2,1.33a27.57,27.57,0,0,0,.11,9.49c.5,3.27,1.75,6.43,2.16,9.69.46,3.74-.48,7.53-.07,11.27.28,2.58.66,6.57,2.3,8.65.81,1,4.27-.32,3.31-1.55-1.61-2-2-8.12-2.06-10.39,0-3,.48-6,.11-9.05-.79-6.38-3.56-12-2.24-18.63l-2,1.33.62-.13c1.76-.36,2.88-2.66.4-2.15Z"></path>
      <path class="cls-1" d="M99.94,461.87c-.5-.1,1.54,6.39,1.84,7.07,1.12,2.64,2.39,5,3.67,7.57,3.14,6.32,3.3,13.68,6.47,19.87l1.66-2.7c-2.72,1-3.58,1.65-6-.72A44.07,44.07,0,0,1,102,486.1c-1.65-2.45-3.7-5.93-6.81-6.52-1.33-.25-3.36,2.85-1.9,3.13,3.14.59,5.14,4.66,6.73,7,2.23,3.34,5.21,6,8,8.85.21.22.67.14.91,0,1.44-.56,2.68-1.46,4.13-2,.81-.31,2.16-1.72,1.66-2.7-2.92-5.69-3.34-12.53-5.86-18.44-1.08-2.54-2.73-4.76-3.76-7.34a31.87,31.87,0,0,1-2.09-8.65.68.68,0,0,0-.49-.65l-.62-.13c-1.32-.27-3.37,2.82-1.9,3.13Z"></path>
      <path class="cls-1" d="M102.22,490.65a52,52,0,0,0-15.08,8.71c-5.78,4.67-9.43,11.1-15.83,15l3.09,1.14,1-.83c1.93-.94-1.41-2.14-2.59-1.57a3.57,3.57,0,0,0-2,1.7c-.86,1.28,2.47,1.51,3.09,1.14,5.38-3.3,8.36-7.6,12.73-12A48,48,0,0,1,104,492.5c2.31-.83-.39-2.36-1.81-1.85Z"></path>
      <path class="cls-1" d="M108.63,489.67c3.15,1.36,5.76,3.45,9.1,4.67a93.35,93.35,0,0,0,11.07,3.18c9,2.08,18.12,4.33,27.25,5.65l-.17-2.95c-6.16,8.54-11.46,18.07-18.38,26-3.11,3.58-5,8-8.08,11.48-2.05,2.31-4.19,7.94-6.85,8.87-1.61.56-4.75-1.75-6.33-2.35a59.58,59.58,0,0,1-7.82-3.35,94.18,94.18,0,0,0-13.14-5.48c-4.72-1.71-9.61-5.14-13.86-7.86-3.06-2-8.76-3.61-11.09-6.27l-.87,3.51a12.75,12.75,0,0,1,3.43-.15c1.49.07,2.21-3.58.9-3.64a17.38,17.38,0,0,0-4,.15c-1.29.23-1.6,2.68-.87,3.51,1.26,1.44,2.93,1.88,4.64,2.65a50.82,50.82,0,0,1,7.7,4.4c4,2.78,8.49,5.85,13.12,7.34,5.35,1.71,10.28,4.31,15.3,6.75,2.52,1.22,5.29,1.9,7.87,3,1.34.57,3.64,2.12,5.25,1.59.82-.27,1.13-1,1.65-1.59a44.4,44.4,0,0,0,3.89-5.39c1.3-2.11,3-3.68,4.33-5.78,1.87-3,3.23-5.76,5.59-8.48,7.1-8.23,12.52-17.91,18.86-26.7.38-.52.94-2.79-.17-2.95-9.13-1.32-18.26-3.57-27.25-5.65a92.16,92.16,0,0,1-11.07-3.18c-3.3-1.22-6-3.32-9.1-4.67-1.2-.52-2.26,3.05-.9,3.64Z"></path>
      <path class="cls-1" d="M70.85,527.83c1.18,2.54,4,4,6.17,5.55,3.06,2.11,5.52,4.78,8.36,7.15,6.22,5.21,13.53,7.22,21.07,9.82,3.66,1.26,7.08,2.22,10.8,3.25,1.77.49,3.43,1.32,5.28.66a3.48,3.48,0,0,0,2.53-3,6.57,6.57,0,0,0-.09-3.25c-.28-.69-1.16-.86-1.36-1.65-.35-1.38-4-.75-3.71.54s1.25,1.49,1.5,2.63c.68,3-1.84,2.23-3.62,1.78-5.6-1.41-10.92-3.61-16.45-5.36a40.27,40.27,0,0,1-16.13-9.9c-3.15-3-9-5.31-10.83-9.3-.53-1.15-4.16-.38-3.5,1Z"></path>
      <path class="cls-1" d="M156.63,501.84c-.13,2.54.38,5.17-.45,7.35-1,2.49-2.73,4.63-4.1,6.89-1.55,2.56-2.53,5.49-4.4,7.87a68.48,68.48,0,0,1-5.49,5.59c-4.1,4.12-8.65,8.56-11.71,13.5a38.7,38.7,0,0,1-4.67,6.31c-1.27,1.36-3,4.08-4.6,4.95-1.31.72,1.38,3.26,2.53,2.64s2.16-2.23,3.2-3.29a41.64,41.64,0,0,0,5.38-6.43,95.18,95.18,0,0,1,12.84-15.38,55.53,55.53,0,0,0,5.91-6.18c1.77-2.45,2.79-5.39,4.42-7.93,1.34-2.09,3.66-4.87,4.54-7.12,1-2.49-.36-3.93-.21-7,.06-1.31-3.11-3.15-3.18-1.81Z"></path>
      <path class="cls-1" d="M117.34,549.31c-5.41.85-10.94.91-16.37,2.05-6.71,1.4-13.13,3.86-19.83,5.29-3.18.68-6.4,1.17-9.57,1.89s-6.13,2.08-9.27,2.7-7.09-.08-9.33,2.55c-.53.63-.92,2.21-.34,2.93,3.11,3.89,6.29,4.61,11,3.76,6.58-1.18,13.22-2.15,19.79-3.42,7.53-1.45,15-3.44,22.47-5,3.4-.72,6.81-1.4,10.16-2.32,2.64-.73,5.36-.51,7.76-1.87.76-.43,1.38-2.92.39-3.41l-1.17-.58c-1.42-.7-2.34,2.89-1.19,3.46l1.17.58.39-3.41c-1.79,1-6,1.3-8,1.83-3.09.8-6.23,1.41-9.35,2.07-6.42,1.36-12.8,2.93-19.21,4.34-5.35,1.17-10.84,2.1-16.27,2.83-5.92.8-11.9,3.74-16.36-1.84l-.34,2.93c1.22-1.43,4.12-1.29,5.81-1.48a32.89,32.89,0,0,0,6.63-1.58c5.94-1.9,12.14-2.55,18.17-4.11,5.75-1.48,11.34-3.59,17.2-4.66,5.16-.95,10.37-1.06,15.5-1.87,1.27-.2,1.68-3.89.14-3.65Z"></path>
      <path class="cls-1" d="M71.89,530.91c0,2.29,1.32,4,2.46,5.92A117.92,117.92,0,0,0,81,546.61c2.68,3.56,4.93,11.39,9.79,12.69,2.09.56.58-2.6-.69-2.94-2.8-.75-4.6-7.46-6.32-9.65-1.57-2-3.18-3.94-4.61-6.05-1.18-1.75-4.36-5.88-4.39-8,0-1.25-2.93-3.48-2.91-1.75Z"></path>
      <path class="cls-1" d="M88.35,539.1l-.43-.06c-1.06-.14-2.81,1.89-2.15,2.91.95,1.45,1.35,3.15,2.27,4.64q1.65,2.67,3.24,5.38c1.07,1.82,1.8,5.66,4.29,6,1.33.18,3.18-3,1.71-3.23-1.31-.17-1.69-1.87-2.14-2.89a42.7,42.7,0,0,0-2.45-4.36c-.77-1.3-1.56-2.6-2.33-3.9s-1.14-2.91-2-4.23l-2.15,2.91.43.06c1.32.17,3.17-3,1.71-3.23Z"></path>
      <path class="cls-1" d="M90.79,565.49c.63,5.77,6.18,10.45,9.71,14.63a90.47,90.47,0,0,1,6.4,8c1.39,2.11,1.94,4.37,4.28,5.63.89.48,1.67-1.3,1.83-1.81a37,37,0,0,0,.91-3.68c.47-2.45-1.86-1.68-2.21.16a37,37,0,0,1-.91,3.68l1.83-1.81c-2-1.11-2.6-3.5-3.82-5.3-1.58-2.32-3.56-4.52-5.32-6.72-3.3-4.12-9.73-9.17-10.34-14.7-.23-2.13-2.48.62-2.34,1.9Z"></path>
      <path class="cls-1" d="M96.94,562.81c1.45,6.07,5.56,9.84,8.46,15,3.61,6.37,10.5,11.33,15.63,16.56l.47-3.5a13.36,13.36,0,0,1-4.22.18c-.86-.07-4.93-1.13-5-.69.22-1.82-1.7-3.47-2-1-.66,5.56,7.28,6.22,11.24,5.23,1.3-.32,1.26-2.69.47-3.5-5.22-5.33-11.56-10.27-15.44-16.61-2.56-4.17-6.5-7.64-7.7-12.69-.58-2.42-2.38-.8-1.95,1Z"></path>
      <path class="cls-1" d="M159,509.4a95.39,95.39,0,0,1-10.63,11.09,21.06,21.06,0,0,0-3.59,3.87c-.87,1.29-2.16,2.31-2.91,3.65-.6,1.07.63,4.53,1.45,3.07a37.31,37.31,0,0,1,2.65-3.16,38.07,38.07,0,0,1,5.39-5.68,85.31,85.31,0,0,0,9.09-9.77c.78-1-.33-4.45-1.44-3.07Z"></path>
      <path class="cls-1" d="M139.23,535c.76,3.79,5.25,7.9,7.6,10.79a50.67,50.67,0,0,0,5.4,6.08c1.56,1.39,3.79,2.25,4.92,4.07l1.15-1.39a23.47,23.47,0,0,0-2.47.91c-.85-.18-2.06-2.39-2.55-3a24.62,24.62,0,0,0-4.79-4.58,70.16,70.16,0,0,1-5.67-5.48c-1.79-1.72-3.92-2.87-5.16-5.11-.64-1.15-4.27-.38-3.53,1,1.58,2.84,4.67,4.77,6.92,7,2.46,2.49,5.56,4.41,7.83,7,1.55,1.78,2.9,4.67,5.39,5.28,2,.49,3.41-.71,5.25-1.23.53-.15,1.59-.67,1.15-1.39a10,10,0,0,0-3-2.75,33.06,33.06,0,0,1-6.27-6.08c-1.69-2-3.29-4.15-4.92-6.24-1.28-1.65-3.12-3.22-3.54-5.35-.28-1.4-4-.88-3.72.45Z"></path>
      <path class="cls-1" d="M211.93,536.27c.24-1.13,9.48.38,10.7.65a32.51,32.51,0,0,1,9.15,3.41c5.56,3.19,10.48,8.69,11.8,15.11,1.08,5.27-1.86,12.85-4.87,17.1A29.7,29.7,0,0,1,224,583.61c-12.13,4.42-27,2.15-38.32-3.34-5.14-2.48-9.48-8.69-9.78-14.54a24.29,24.29,0,0,1,1.6-8.54c.41-1.27,1-2,0-3-.84-.84-4.5-.68-3.35.47.59.59-1,3.62-1.19,4.29a22.79,22.79,0,0,0-.75,6.19,20,20,0,0,0,3.16,9c3.34,5.51,8.52,7.74,14.29,10,13.05,5.14,30.22,5.3,42.89-1.18,5.36-2.74,10.53-9.4,12.52-15,2.6-7.28,3.49-13.38-1.09-20.06-7.17-10.46-22.68-16.21-35-13.23a.87.87,0,0,0-.64.58l-.08.35c-.26,1.25,3.43,1.89,3.71.57Z"></path>
      <path class="cls-1" d="M174.94,552.49l-.31.55.7,3.09c1.89-2.37,3.19-5.15,5.32-7.33a82.39,82.39,0,0,1,6.52-5.83c4.54-3.73,11.63-4.65,17.34-4.69,1.4,0,1.82-3.71.58-3.7-5.66,0-12.47.77-17.24,4.11a63.65,63.65,0,0,0-7.89,6.8c-2.26,2.27-3.59,5.33-5.57,7.81-.57.71-.52,4.27.7,3.09a4.39,4.39,0,0,0,1.54-2.62c.41-1.71-1.09-3.74-1.69-1.28Z"></path>
      <path class="cls-1" d="M244,553.14c0,4.72.32,9.11-1.32,13.62a52.35,52.35,0,0,1-4.14,8.86c-4.28,7.19-13.22,11.84-21.27,12.63-8.4.82-17.28,1.51-25.32-1.58a46,46,0,0,1-12.38-7.1c-4-3.3-4.05-7.16-3.92-11.94,0-1.24-2.38-3.85-2.44-1.73-.11,3.74-.6,7.48,1,11,1.44,3.1,5,6,7.78,7.8a47.9,47.9,0,0,0,30.83,7.51c5.11-.42,10.19-1,15-2.83,4.2-1.58,7.94-5.23,10.91-8.57,6.57-7.39,7.71-16.46,7.61-25.91,0-1.2-2.43-3.84-2.41-1.74Z"></path>
      <path class="cls-1" d="M184.7,419.8c-7-2.57-15.82.65-22.53,2.85-9.34,3.07-19.62,7.63-27.19,14-15.77,13.34,2.46,28.51,16,33a210.42,210.42,0,0,0,31.38,7.93c11.28,1.88,22.35,1.13,33.72,1,16.79-.14,40.77-1.11,51.7-16.34,6.06-8.45,4-18-2.7-25.23A53,53,0,0,0,251,426.25c-1.87-.95-3.33-.93-5.33-1.18-3.16-.4-5.81-2.21-8.9-2.94-1.24-.29-3.4,2.71-2,3,3.61.85,6.55,2.6,10.27,3,4,.46,7.73,3.58,11,5.92,6.64,4.72,13.19,11.55,12.47,20.24-.91,11-12.44,15.37-21.53,18-8.8,2.5-17.61,3.23-26.73,3.29s-18.58.93-27.78.1a118.2,118.2,0,0,1-25.42-5.09c-7.39-2.39-15.09-3.57-22-7.3-6.12-3.3-15.33-10.88-13.27-18.82,1.53-5.91,8.69-9.22,13.64-12A90.86,90.86,0,0,1,159.83,426c6.69-2.31,15.8-5.8,22.82-3.21,1.17.43,3.43-2.52,2-3Z"></path>
      <path class="cls-1" d="M278.64,471.28c-.76-2.61-2.81-4.81-4.1-7.18a34.33,34.33,0,0,1-1.88-4.72c-.49-1.31-1.28-2.42-1.24-3.86,0-1.19-3-3.21-3-1.46-.06,2.37,1.53,5.43,2.42,7.58,1.26,3.06,4.07,5.71,5,8.86.34,1.17,3.46,2.82,2.87.78Z"></path>
      <path class="cls-1" d="M319.46,489.17c2.85-.73,6.82-5.64,7.14-8.56.1-.94-1.43-1.39-2.11-1.43-2-.11-3.81-2.1-5.92-2.64-4.82-1.23-9.45-3-14.21-4.43-9.29-2.83-19.42-3.13-28.53-6.68-1.66-.65-3.74.64-1.38,1.56,9.91,3.86,20.94,4.11,31,7.49,4,1.36,8.34,2.4,12.29,3.87,2.9,1.08,4,2.65,7.35,2.84l-2.11-1.43c-.22,2-3.69,7-5.77,7.49s1.11,2.21,2.28,1.91Z"></path>
      <path class="cls-1" d="M233.72,505.84c4.36,1.18,7.17,7.58,10.27,10.51a45.43,45.43,0,0,0,14.44,9.16c5.31,2,10.83,3.82,16.23,5.56,3.65,1.18,8.65,3.93,12.41,2.15,4.66-2.21,8.74-6.95,12.7-10.27a57.82,57.82,0,0,0,9.91-10.21,49.5,49.5,0,0,0,6.73-12c2.36-6.49,6.1-11.07,10.07-16.55,1-1.43.39-3.85-1.1-1.8-2.86,3.94-5.63,7.06-8,11.44s-3.65,8.91-6.26,13a56.55,56.55,0,0,1-11.58,13.25c-2.12,1.77-4.21,3.56-6.37,5.3s-4.63,4.95-7.44,5.07c-2.54.11-6-1.7-8.39-2.46s-4.93-1.72-7.37-2.7c-5-2-10.16-3-14.89-5.75a43.79,43.79,0,0,1-12.93-10.7c-2-2.49-3.83-5.59-7.08-6.48-1.17-.32-2.87,3-1.38,3.38Z"></path>
      <path class="cls-1" d="M271.88,403.92c9.61,0,19.23,1.57,28.81,2.39a181.22,181.22,0,0,1,28.24,5.11l-.06-1.46c-2.2,2.26-2.29,5.54-3.05,8.5-1.12,4.36-1.65,8.71-2.66,13.07a17.88,17.88,0,0,0-.69,3c0,.3.24,2.32.26,2.26-.28.78.37.26-1.14.48a27.91,27.91,0,0,1-2.86,0,90.67,90.67,0,0,1-14.54-1.18c-4.65-.61-9.37-.1-14-.79-3.64-.55-10.3-1.36-13.18-3.74-1.69-1.4-.95-4.71-1-6.9,0-2.9-.06-5.8-.07-8.7,0-4.49.85-9.57-.14-14a.6.6,0,0,0-.53-.54l-.68-.08c-1.17-.13-3.94,2.25-2.34,2.43,2,.23-1.33,27.19,1.31,29.85.93.93,3.3,1.27,4.47,1.65a71.57,71.57,0,0,0,8.93,2.25,33.46,33.46,0,0,0,7.14.41,77.79,77.79,0,0,1,9.84.82,111.4,111.4,0,0,0,13.83.92c2.25,0,5.34.55,7-1.48.85-1,.73-2.08.88-3.34.32-2.62,1.15-5,1.57-7.62.49-3,.86-5.95,1.62-8.91.54-2.1.93-6.49,2.4-8,.42-.43.77-1.26-.06-1.46-9.49-2.35-18.84-4.49-28.61-5.19s-19.38-2.34-29.14-2.35c-1.2,0-3.75,2.47-1.64,2.47Z"></path>
      <path class="cls-1" d="M329.09,410.3c-.2-4.32,1.73-5.62,5.4-4.86l-1-3.3a19.58,19.58,0,0,0-2.81,7.89c-.58,3.52-1.67,7.1-2,10.66-.62,7.14-2.14,14.19-2.85,21.33-.72,7.32-1,14.89-2.42,22.09-1.14,5.86-2.36,11.93-3,17.82-.09.74.81,3.6,1.83,2.22l.12-.17c.71-1-.6-4.36-1.65-3l-.12.17,1.83,2.22c.71-6.14,2-12.63,3.32-18.7,1.39-6.32,1.25-13.06,1.9-19.49s1.83-12.94,2.8-19.39,1.15-15.29,4.68-20.75c.5-.78.1-3.07-1-3.3-6.44-1.34-7.36,2.54-7.1,7.92.08,1.78,2.11,3.1,2,.58Z"></path>
      <path class="cls-1" d="M329.14,408.07c-1.66,5.22-3.88,10-5.07,15.44a124,124,0,0,0-3,18.29c-.39,5.95-.63,11.95-1.26,17.87-.4,3.66-1.2,7.24-1.8,10.87-.34,2,0,7.12-1.61,8.53-1.33,1.16-1.24,3.67.66,2,2.88-2.53,3.07-6.42,3.53-10,.48-3.78,1.42-7.48,1.91-11.25s.43-7.59.88-11.38c.9-7.51,1.37-14.92,2.79-22.38,1.27-6.68,3.77-12.6,5.8-19,.63-2-2.43-.12-2.79,1Z"></path>
      <path class="cls-1" d="M277.59,403.5c3.81-.53,2.22-6.16.1-7.88s-9.91-2.79-11.55.12c-.93,1.65.22,4.17.63,5.78,1.19,4.73-.25,9-.27,13.77,0,3.93-.58,7.69-.93,11.59s-2.09,7.51-1.37,11.61a3,3,0,0,0,1.83,2.31l.68.14c1.66.34.14-3-1-3.21l-.68-.14,1.83,2.31c-.55-3.09.59-5.39,1.1-8.36.39-2.22.09-4.48.49-6.7.79-4.34.43-8.64,1.18-13a21.79,21.79,0,0,0-.4-9.71c-.62-2.37-.69-3.93,2-4.64a11.25,11.25,0,0,1,3,0,10,10,0,0,1,1.36.11q2.09-.16.42,2.61c-1.38.19.38,3.44,1.64,3.26Z"></path>
      <path class="cls-1" d="M272.65,433a29.85,29.85,0,0,0-2.54,11.89c-.13,3.83-.73,7.63.23,11.4.11.42.86.46,1.18.4l.54-.1c.81-.15,2.17-.6,2.32-1.59l.1-.65c.2-1.34-3.34-.35-3.53.93l-.1.65,2.32-1.59-.54.1,1.18.4c-.92-3.59-.28-7.24-.16-10.88A28.42,28.42,0,0,1,276,432.64c.7-1.53-2.86-.72-3.36.37Z"></path>
      <path class="cls-1" d="M290.5,532.71l-1.37.06v1.78c.93-1,5.53-.17,6.85-.17a35.37,35.37,0,0,0,5.95-.4c4.69-.79,9.38-1.53,14.07-2.35,3.63-.63,5.58-1.81,8.4-4.06,4.29-3.42,9.56-5.53,14-8.6.57-.39,2.32-2.14.78-2.41a7.79,7.79,0,0,0-3.11-.22c-1.18,0-3.55,2.82-1.93,2.77a7.79,7.79,0,0,1,3.11.22l.78-2.41c-4.13,2.84-8.9,5-13.08,7.8-2.07,1.41-3.54,3.15-6,3.9a76.22,76.22,0,0,1-8.36,1.51,85.66,85.66,0,0,1-15.43,1.48c-3.35,0-5.61-.47-8,2.13-.32.35-1.18,1.83,0,1.78l1.37-.06c1.17,0,3.54-2.84,1.93-2.77Z"></path>
      <path class="cls-1" d="M322.08,484.68a139.25,139.25,0,0,1-2.8,15.45c-.48,1.8-1.31,3.5-1.76,5.31-.26,1-.29,5.07-1.42,5.55s-2,4-.45,3.35c3.21-1.36,3.18-5.37,3.78-8.28.81-4,2.25-7.62,2.94-11.65.62-3.61,1.44-7.17,2-10.79.35-2.41-2.06-.3-2.26,1.06Z"></path>
      <path class="cls-1" d="M314.13,529c-2.52.82-3.73,5-4.53,7.18-2,5.41-4.59,10-7.1,15.1-2.21,4.52-3.65,9-6.23,13.36-1.14,1.93-3,6.67-5,7.69-1.73.87-2.88-1.23-3.9-2.52l.08,3.24c2-2.1,2.8-4.82,3.66-7.51,1.32-4.12,2.43-8.37,5-11.73,1.82-2.42,2.06-5.52,3-8.34,1-3.14,2.22-6.22,3.19-9.37.41-1.34-1-4.19-1.69-1.85-.82,2.66-1.73,5.29-2.67,7.91-.46,1.28-.89,2.54-1.24,3.85-.66,2.51-2.14,4.22-3.31,6.35-2.89,5.28-2.73,13-6.94,17.48a2.85,2.85,0,0,0,.08,3.24c1.29,1.62,2.48,3.78,4.62,4.25.28.06.57-.39.66-.57,2-4.17,5.29-7.84,7.53-11.92,1.79-3.26,2.75-6.83,4.31-10.19,1.82-3.93,4.42-7.45,6-11.48,1-2.56,1.9-9.5,5.12-10.55,1.14-.37.84-4.07-.59-3.6Z"></path>
      <path class="cls-1" d="M244.62,516.26a190.7,190.7,0,0,0-7.12,20.4c-1,3.32,1.1,6.93,4.49,8.23,3.63,1.38,5.18-2.91,6.71-5.22a66.12,66.12,0,0,0,7.09-15.82c.52-1.67-3-.8-3.36.36-1.22,3.91-3.13,7.69-4.68,11.47a33.47,33.47,0,0,1-2.9,5,13.58,13.58,0,0,1-1.12,1.94c-.29.31.3.31-.39-1.07-1.1-2.22-3.19-1.9-2.48-5.25a48.58,48.58,0,0,1,1.81-5.37c1.72-5,3.16-10.17,5.31-15,.69-1.55-2.87-.75-3.36.36Z"></path>
      <path class="cls-1" d="M238.78,502.52a7.08,7.08,0,0,0,3,2.54,53,53,0,0,1,7.25,4.31c3.89,2.88,7.24,6.26,11.52,8.59a52.9,52.9,0,0,0,14,4.79c4.45,1,10.21,3.28,14.55,1.08s6.05-6.27,9.41-9.28c4-3.55,8.58-5.87,12.15-9.92,3.43-3.89,7.22-7.27,10-11.69,2.15-3.43,5.54-6.36,6.6-10.35.3-1.12-1.55-4.27-2-2.75-1,3.74-4.28,6.6-6.31,9.84-2.34,3.75-5.36,6.55-8.31,9.79a63.47,63.47,0,0,1-10.08,9.05,28.27,28.27,0,0,0-5.53,4.67c-1.41,1.7-2.5,3.55-4.21,5-4.88,4.12-9.49,2.61-15.22,1.36-5.05-1.1-9.93-2.21-14.55-4.63-4-2.1-7.14-5.19-10.74-7.86a50,50,0,0,0-4.67-3.53c-1.81-1-4.75-1.5-6-3.35-1.35-2-1.7,1.18-.93,2.33Z"></path>
      <path class="cls-1" d="M332.35,515.31l.42.09-.81-.92a10.14,10.14,0,0,0,1.11,3.35,10,10,0,0,0,2.38,2.34l0-3.62-.33.11c-1.13.39-.86,4.09.53,3.61l.33-.11c.56-.19.67-1.36.66-1.82a2.25,2.25,0,0,0-.7-1.8,4.5,4.5,0,0,1-2.37-4,1.13,1.13,0,0,0-.81-.92l-.42-.09c-1.12-.23-1.32,3.47,0,3.75Z"></path>
      <path class="cls-1" d="M329.45,513c0,.1-3.86,1.8-4.44,2.08a34.29,34.29,0,0,1-8.87,2.83,57.75,57.75,0,0,1-8.31.58c-2.89.11-5.69.87-8.58,1-2.25.12-2.16,1.87.08,1.87h.33c2.26,0,2.16-1.87-.08-1.87h-.33l.08,1.87c3.12-.17,6.15-1,9.27-1.06a50.85,50.85,0,0,0,8.84-.61,52.76,52.76,0,0,0,6.66-1.81c2.82-1,5.28-3,8.12-3.84a1.15,1.15,0,0,0,.89-.85l.09-.41c.23-1.09-3.46-1.2-3.75.17Z"></path>
      <path class="cls-1" d="M317.4,511.91,317,512c-.73.15-1.75.61-1.94,1.4a12.6,12.6,0,0,1-1,2.7,11.05,11.05,0,0,0-1.14,2.75c-.26,1.3,3.32.49,3.57-.76a14.33,14.33,0,0,1,1.26-2.87,15.48,15.48,0,0,0,.84-2.58l-1.94,1.4.42-.09c.64-.13,1.88-.61,1.94-1.4s-1.14-.74-1.62-.64Z"></path>
      <path class="cls-1" d="M379,433.76c8.71,1.36,17.35,4,25.84,6.33,4.16,1.13,8,2.9,12.06,4.23,3.22,1,6.61,3.28,10,3.66,2.21.25,2.62-1.66.34-1.92-3.22-.37-7.38-2.8-10.55-3.93-4.58-1.63-8.45-3.21-13.16-4.48-8-2.13-16-4.52-24.14-5.8-2.21-.35-2.59,1.55-.34,1.9Z"></path>
      <path class="cls-1" d="M377.85,433.88c-.35,3.77-1.56,7.51-2.29,11.23-.69,3.49-1.09,6.65-2.11,10.09-.9,3.06-.72,6-1.26,9.11-.6,3.43-1.63,7.06-2.51,10.45-2.49,9.57-4.93,19.1-8.49,28.34a66.26,66.26,0,0,0-2.77,8.51c-.41,1.74-.46,3.49-.74,5.25-.36,2.28-1.42,4.19-2,6.35-.47,1.63,2.89,1.84,3.59.73l.33-.53-2.34.63c3.16.42,6,3.55,8.67,5.2s5.53,3.45,8.17,5.34c3.8,2.71,7.09,5.88,10.63,8.88,2.57,2.18,5.42,3.61,8.26,5.39s7,4.29,10,1.79c2-1.67,2.45-5.37,3.46-7.68a54.65,54.65,0,0,1,5.28-9c4.22-6.27,4.18-12.62,5.7-19.75.77-3.61,2.48-6.89,3.31-10.48.88-3.83,1.44-7.69,2.53-11.47,2.39-8.32,5.09-16.33,6.35-25,.58-4,1.22-8,1.95-12,.58-3.21,1.87-6.64,1.89-9.89,0-1.34-2.79-1.18-3.47-.64l-.24.19c-1.31,1,2.24,1.86,3.19,1.11l.24-.19-3.47-.64c0,2.92-1.18,6.11-1.72,9-.68,3.67-1.35,7.33-1.87,11a138.66,138.66,0,0,1-5.5,23.29c-2.19,6.8-3.1,13.88-5.51,20.59s-1.61,14.09-4.87,20.29c-2.89,5.48-6.43,10.07-8.6,16-1.46,4-2.25,4.09-6,2a54.83,54.83,0,0,1-9.73-6.8,134.54,134.54,0,0,0-15.06-11.35c-3.65-2.46-8.06-6.66-12.58-7.25-.76-.1-1.87-.12-2.34.63l-.33.53,3.59.73c.48-1.67,1.42-3.21,1.85-4.91.54-2.15.51-4.4,1-6.57a76.44,76.44,0,0,1,3.36-10.17c3.31-8.6,5.46-17.62,7.78-26.52.88-3.39,1.68-6.79,2.51-10.17s.43-6.65,1.41-10,1.39-6.34,2-9.69c.78-3.93,2-7.9,2.4-11.89.12-1.32-3.62-1.55-3.75-.17Z"></path>
      <path class="cls-1" d="M381.11,449.56c1.68,3.65,5.14,6,9.19,4.76,2.72-.87,8.55-6.68,5-9.4-2.28-1.75-8.66.62-10.29,2.52-5.18,6,10.05,6,7,11.43-.66,1.19,1.33,1.14,2,1,3.47-1,5.48-5.13,9.26-5.69l-1.59-.79a11.23,11.23,0,0,1-3.67,6.88l3.27,0,3.49-1.75,0,1.68c.23.32-.07,1,.19,1.38.44.63,1.54.79,2.23.92a12,12,0,0,0,6.88-.52c2.26-1.09.16-2.32-1.47-1.53-4.16,2-3.58-5.27-7.14-5.57-3.37-.29-7.25,2.7-7.83,5.88-.29,1.58,2.8.42,3.27,0a12.83,12.83,0,0,0,4.36-8c.08-.81-1-.87-1.59-.79a14.11,14.11,0,0,0-5.27,2.14c-1.33.81-3.67,3.4-5,3.76l2,1c1.36-2.46,2-3.73-.75-5.36-1-.61-6.5-2.31-6.5-3.33,0,.82,4.74-4.92,4-1.23q-3.74,4.63-6,1.87a5.74,5.74,0,0,1-1.52-2.34c-.58-1.27-4.13-.11-3.61,1Z"></path>
      <path class="cls-1" d="M382.85,462c-1.66.65-6.15,3.45-4,5.63.85.85,2.64.51,3.65.41,1.63-.16,8.79-2.17,6.24.75-.49.57-.29,1.22.49,1.31,2.37.27,4.78-.23,7.15.1l-.49-1.31c-1,1.23-2,1.69-2.14,3.32a.65.65,0,0,0,.45.65c1.51.75,3.23.25,4.72.76s-.24.38,1.11,1.16,2.88.85,4.48,1.2c2.92.64,5.46,2.16,8.42,2.58,1.24.18,4.1-2,2-2.25-2.53-.36-4.76-1.73-7.23-2.32-1.13-.27-2.51-.22-3.52-.81-.07,0-1.12-1-1.08-1-.46-.22-.85-.61-1.38-.82-1.82-.72-5,.65-2.84-2.08.46-.59.32-1.2-.49-1.31-2.36-.32-4.78.18-7.15-.1l.49,1.31c1-1.12,2-2,1.59-3.52a.68.68,0,0,0-.42-.38,12.39,12.39,0,0,0-4.33-.22c-.86.05-1.72.13-2.58.25l-1.44.24q-1.5.67-1-1.69c2.09-.82,1.42-2.69-.7-1.86Z"></path>
      <path class="cls-1" d="M377,478.7a8.94,8.94,0,0,0-2.78,3.3c-.09.21-.26.69,0,.9,1,1,2.13.91,3.55.88a31.21,31.21,0,0,0,3.86-.53c1.26-.18,8.83.15,4.31,2.61h1.69l.53,2.71c-1.57,1.54.1,2.24,1.56,1.34,2.78-1.71,6.45.91,8.65,2,1.53.77,4,.53,5.28,1.51l2-2.61-.85.06c-1.29.09-3.49,2.85-1.34,2.7l.85-.06c.87-.06,3.2-1.68,2-2.61-1.38-1.06-3.27-.48-4.83-1.19s-2.6-2-4.43-2.43a11.18,11.18,0,0,0-8.49.95l1.56,1.34c1.67-1.65,2.7-5.26-.47-6.22-2.14-.65-4.53,1.59-5.35,3.28a.93.93,0,0,0,0,.9l.32.46c.35.5,1.27.24,1.69,0,2.32-1.27,6.21-4.08,3.3-6.86-1.34-1.29-3.07-1.06-4.84-.89-1.13.11-8.78,2.05-5.74-.58,1.91-1.65-.57-2.18-1.94-1Z"></path>
      <path class="cls-1" d="M388.4,514.34c.6-2.19,6.28-1.59,7.41-1a5.11,5.11,0,0,1,2.68,4.9c-.2,4.3-5.16,6.3-8,2.93-1.92-2.27.18-3.65,2.69-3.29,6.82,1,3.17,8.62-1.82,8.61-1.61,0-2.84-.41-4.46,0-.45.12-1.85.92-1.44,1.6,2.23,3.67,10.06,7.13,14.33,6.23,1.81-.38,2.75-2.79.29-2.26s-9.65-2.83-11.06-5.16l-1.44,1.6c1.56-.43,3.54.67,5.25.25a11.68,11.68,0,0,0,3.66-1.93c2.64-1.84,5.94-5.52,3.5-8.87-3.89-5.33-19.53-2.76-12.55,5.2,5.07,5.78,16.36-.45,14.41-7.81-1.13-4.26-5.14-5-9-4.74-3.21.23-7.05.78-8,4.34-.38,1.39,3.24.72,3.61-.62Z"></path>
      <path class="cls-1" d="M374.08,502.13q4.06-1.34,3.25,1.51a2.83,2.83,0,0,1-.5,2.1,20.65,20.65,0,0,1-1.75,3.19c-.73,1.19-1,3.32-2.94,3.07-1.67-.22,1.34-2.86,2.65-2.72,5,.54-2,8.68-3.3,10.51-4.07,5.79,3.51,6.92,7.71,5.26,1.18-.47,2.79-3.68.83-2.91s-4,1.25-5-.93c-1-2-.4-1.36.7-2.82a11.59,11.59,0,0,0,1.06-1.88c1-1.94,5-7.27,3.17-9.58-1.28-1.61-6.31-.81-8-.15a6.92,6.92,0,0,0-4.34,7.43.68.68,0,0,0,.73.72c3.36.29,6,.19,7.84-2.8,1.64-2.61,4.57-7.43,4.31-10.74-.52-6.58-9.29-2.74-9.39,2.35,0,1.74,3-.33,3-1.59Z"></path>
      <path class="cls-1" d="M216.48,94.13l-1.34.11,2,2.86c6-3.68,13.79-3,20.51-2.57,8,.48,15.8.24,23.78.07,19.31-.43,38,5.8,57.31,6.48,10.08.36,20,.49,30,1.73,9.24,1.14,18.47,2.93,27.8,3,9.58.12,19.15-.65,28.73-.65h64.18c5.43,0,10.9-.35,16.33-.12,5.28.22,10.19,2.25,15.47,2.31,1.8,0-.43-2.46-1-2.72L497.65,103c-1.71-1.44-3.07,0-1.32,1.48a17.72,17.72,0,0,0,4.25,2.72l-1-2.72c-4.41-.05-8.49-1.69-12.84-2.14-5-.52-10.07-.07-15.07,0-10.06.06-20.13,0-30.19,0-20.39,0-40.73.08-61.11.6-19.33.49-38.31-4.62-57.67-4.66a191,191,0,0,1-31.43-3c-9-1.51-17.76-3.51-26.89-3.57-9.29-.06-18.47.6-27.75,0-7.07-.44-15.47-1.26-21.79,2.63-1.35.83,1,2.94,2,2.86l1.34-.11c1.77-.15-.49-3-1.74-2.91Z"></path>
      <path class="cls-1" d="M230.67,95c12-5.74,25.77-5,37.88-10.65C280.23,78.91,290.79,71,300.9,63c10.66-8.34,19.67-17.62,28.52-27.8S349,17.2,359.5,9.16c1-.79-1.48-3.56-2.61-2.69C346.58,14.35,336,22.16,327.38,31.91S310,51,299.66,59.26s-21.24,16.55-33.25,22.15-25.9,4.91-37.88,10.65c-1.4.67,1,3.52,2.14,3Z"></path>
      <path class="cls-1" d="M288.8,97.28c12.65-6.09,26.78-8.82,39.89-13.76,5.45-2.05,11.47-3.69,16.45-6.78,5.64-3.5,10.9-8.22,16.05-12.38,5.71-4.61,10.85-9.83,16.74-14.23,5.56-4.15,11.38-7.94,16.81-12.26a92.31,92.31,0,0,0,13.79-13.58c3.13-3.81,5.58-11.15,10.6-12.62,1.27-.37,1.89-4,.56-3.61-4,1.19-6.23,4.89-8.33,8.28A70.34,70.34,0,0,1,398.8,31c-6,5.47-12.84,9.87-19.37,14.65-5.27,3.85-10,8.16-14.92,12.48a198.89,198.89,0,0,1-18,14.36c-5.56,3.85-12.57,5.71-18.86,8.05-12.8,4.76-26.49,7.42-38.82,13.36-1.13.54-1.6,4.17,0,3.39Z"></path>
      <path class="cls-1" d="M368.19,104.13c1.49-4.49,7.86-4.4,11.67-5.54,5.47-1.64,10.71-4.58,16-6.8,5.76-2.43,11.62-5,16.7-8.71,4.87-3.54,9-7.92,13.78-11.63,9.24-7.23,16.66-15.85,24.25-24.73S466,29.27,470.25,18.4c.46-1.19-3.15-2.11-3.67-.75C462,29.36,453,38.6,445,48c-3.79,4.47-7.57,9-11.7,13.13-4.34,4.38-9.29,7.93-13.92,12s-9.25,8.4-14.79,11.48c-5.88,3.27-12.17,5.53-18.3,8.26a109.46,109.46,0,0,1-14.84,5.25c-3,.86-5.85,2.1-6.9,5.26-.41,1.24,3.22,2.12,3.67.75Z"></path>
      <path class="cls-1" d="M431,104.72c3.46-1.57,7.09-1.83,10.34-3.93,3.73-2.41,7.54-4,11.36-6.22C459,91,464.35,85.25,468.48,79.32c4.8-6.87,8.07-14.61,12.67-21.59,4-6.13,6.18-13.15,11.35-18.5,1-1.06-2.36-2.56-3.28-1.61-4.91,5.07-6.74,11.34-10.47,17.18-4.5,7-8,14.61-12.63,21.55-4.28,6.44-9.92,12.87-16.8,16.6-3,1.6-6,2.58-8.84,4.47a22.7,22.7,0,0,1-7.35,3.71,32,32,0,0,0-4.88,1.64c-1.58.72,1.63,2.47,2.78,1.95Z"></path>
      <path class="cls-1" d="M213.77,92.35c-6.88.49-13.66-2.06-20.59-2-6.64,0-13.3.1-19.94-.17-11.21-.47-22.68-1.5-33.35,2.73l.85,1.87a20.74,20.74,0,0,0,4.37-2.82c1.88-1.56-1.33-1.77-2.46-.83l-2.76,1.78c-2,1-1.25,2.71.85,1.87,11.62-4.61,24.77-2.12,36.92-2,6,0,12.15-.38,18.14.05,5.78.42,11.12,2.39,17,2,1.49-.11,3.44-2.57,1-2.39Z"></path>
      <path class="cls-1" d="M178.53,91.29c4.47.6,9.53-3.07,13.59-4.6,5.85-2.19,11.26-5.52,17-8,12.78-5.64,24.83-11.38,36-19.94,5.38-4.12,10.4-8.68,15.41-13.23,4.76-4.32,9.88-8.37,14.38-12.94a48.16,48.16,0,0,0,9.43-13.64c1.75-3.78,3.86-10.93,8.8-11.27,1.38-.1,1-3.82-.47-3.72-7.48.52-10.48,14.36-14,19.38-4.15,5.92-9.88,10.31-15.2,15.11-5,4.54-10,9.18-15.24,13.51a137.72,137.72,0,0,1-33.94,20.57c-6.3,2.68-12.38,5.67-18.53,8.66-2.76,1.34-5.67,2.17-8.49,3.34s-5.44,3.58-8.62,3.15c-1.6-.22-1.38,3.48-.09,3.66Z"></path>
      <path class="cls-1" d="M140.85,93.22c0-2.69,9.79-5.17,11.77-5.82,4.2-1.37,8.7-2.32,12.7-4.23,5.71-2.72,10.55-7.28,16-10.51,6.16-3.67,13.48-4.74,19.61-8.41,2.89-1.73,4.51-4.1,6.68-6.62a74.32,74.32,0,0,1,9.71-8.76,96.56,96.56,0,0,0,13.8-13.41c4.69-5.69,11-11,14.36-17.65,1.72-3.41,2.55-6.75,4.81-9.94a13.21,13.21,0,0,0,2.79-6c.33-2.23-1.69-2.61-2-.35-.45,3.08-3.91,6-5.14,9-1.84,4.45-3.49,8-6.64,11.63-5.14,6-10.14,12.4-15.88,17.81C218,45,211.45,49.06,206.62,54.77c-2.83,3.34-5.12,5.8-9.25,7.61-3.31,1.45-6.78,2.48-10.13,3.81-6.66,2.63-12.24,7.08-18.16,11-4.16,2.77-8.45,4-13.19,5.53-5.17,1.61-17.15,3.85-17.16,11.12,0,2.51,2.12,1.22,2.13-.64Z"></path>
      <path class="cls-1" d="M144.8,91.25c-3.68-2.86-10-1.34-14.32-1.29-4.9.06-9.72.92-14.62,1.12s-10,.11-14.92.08l1.43,2.15a13.72,13.72,0,0,0,3.26-.67c2.06-.64-1-2.4-2.24-2l-2.44.54c-2.54.3.09,2.14,1.43,2.15,7.44,0,14.9.19,22.31-.66,3.67-.42,7.2-.43,10.89-.56,1.51-.06,5.21-.94,6.32-.08s4.57.53,2.91-.76Z"></path>
      <path class="cls-1" d="M114.69,109.22c2.14.24,4.31,1.41,6.47,1.28,2.61-.16,6.07-2,8.41-3.13a20.42,20.42,0,0,0,7.31-6.1c2.19-2.95,1.11-6.22,2.72-9.12l-3.45-1.33c.24,4.83,2,11.44,5.58,14.91s8.68,4.3,13.4,5c5,.77,10.21-.16,13.59-4.28a31.27,31.27,0,0,0,6.7-17l-3.5-1.06a61.79,61.79,0,0,0,2.54,11.47c.74,2.41,1.71,4.92,3.57,6.67,4.38,4.11,9,5.74,14.81,6.8,6.67,1.22,10.31,1.52,15.61-3,2.36-2,4.72-4.23,5.57-7.33a29.94,29.94,0,0,0,1.33-8.2c-.07-1.23-2.64-2.43-3.44-1.33-2.9,4,.54,12.09,2.56,15.6,2.77,4.81,7.63,6.93,12.89,7.9,5.55,1,12.71,2.91,17.58-1.05,2.54-2.06,3.66-5.22,4.2-8.36.73-4.26.62-7.79,3.29-11.45.74-1-2.53-2.78-3.39-1.6-2.7,3.69-2.67,6.92-3.26,11.21-1.12,8.2-6.61,10.85-14.3,9.61-6.24-1-11.45-1.39-14.6-7.73-1.4-2.82-3.84-9.45-1.58-12.52l-3.44-1.33c.18,3.34-1.42,9.1-3.37,11.52-3.56,4.43-8,7.28-13.77,6.27-4.92-.85-10-1.77-13.71-5.39s-5.08-11.72-5.59-16.66c-.12-1.22-3.43-2.67-3.5-1.06-.32,7.37-5.39,19.13-13.6,20.16-3.93.49-11.19-.65-14.13-3.59s-4.35-9.3-4.54-13.07c-.06-1.14-2.76-2.57-3.45-1.33-1.38,2.5-.5,5.62-2,8.18-1.91,3.19-5.26,5.41-8.5,6.92-1.94.9-4.53,2.2-6.63,2.28-1.63.06-3.63-.93-5.31-1.12-2.43-.27-.53,2.24,1,2.41Z"></path>
      <path class="cls-1" d="M252.93,93.43c-4.86.23-.61,8.33.19,10.44,2,5.29,5.52,7.83,10.9,9.36,12.86,3.64,28.7-2.95,28.51-18,0-1.32-3.47-2.66-3.45-1.19.13,9.75-8.22,17.49-17.83,17.72-5.17.12-11.74-.69-14.27-5.87-.46-.94-4.07-9.93-2.33-10,2.13-.1-.44-2.53-1.71-2.47Z"></path>
      <path class="cls-1" d="M287.14,98.67c-.11,2.3-.43,4.21.68,6.28a19.8,19.8,0,0,0,5.1,5.68c3.74,3,8.38,3.69,13,4,4.26.24,9.26.21,13-2.16,4.67-3,7.31-7.89,9.23-12.93.57-1.5-2.81-.67-3.26-.34l.18-.06c-1.81.1-3.13,2.21-.61,2.07a5.22,5.22,0,0,0,3.3-1.15l-3.26-.34c-1.46,3.85-3.35,8-6.76,10.59-3.84,2.86-9.35,2.53-13.83,1.78s-7.59-2-10.56-5.5c-2.37-2.76-2.71-5-2.55-8.6.06-1.21-3.61-.73-3.68.72Z"></path>
      <path class="cls-1" d="M322.9,98.74c-.18,5,0,8.55,3.6,12.38,3.42,3.66,9.47,6.65,14.1,8.48,5,2,11.52,2.73,15.95-.74a17.7,17.7,0,0,0,4.75-5,20.51,20.51,0,0,0,1.64-3.5c.43-1.28.55-3.42,1.24-4.57s-1.55-4.08-2.31-2.83-.52,2-.83,3.45a17.34,17.34,0,0,1-3.13,6.24,13.47,13.47,0,0,1-10.8,5.27c-4.94-.07-8.9-2.49-13.07-4.73-2.81-1.51-6.28-2.75-7.89-5.8-1.22-2.3-.77-4.63-.68-7.09,0-1.26-2.48-3.71-2.55-1.56Z"></path>
      <path class="cls-1" d="M361.88,103.32l-.5.1a2.39,2.39,0,0,0-1.84,1.55c-1.1,5.58,0,12.73,4.74,16.33,3.95,3,9.24,5.16,14.23,4.86,12.39-.75,16.75-13.32,17.83-23.88l-3.52,1v.4c-.05,1.45,3.47.32,3.52-1v-.4c.05-1.49-3.39-.27-3.52,1-1.06,10.32-5.54,24.08-18.82,19.6-8.44-2.85-12.71-9.93-10.95-18.87l-1.84,1.55.5-.1c1.78-.37,2.61-2.62.16-2.11Z"></path>
      <path class="cls-1" d="M391,105.16c.49,4.74,4.18,10.7,7.67,13.91a21.25,21.25,0,0,0,11.45,5.24c4.73.57,9.19-2.26,12.67-5.15a32.81,32.81,0,0,0,5.39-5.94,24.38,24.38,0,0,0,2.48-3.62c.69-1.44.64-3.15,1.47-4.52.65-1.06-2.74-2.61-3.48-1.39-.88,1.45-.74,3-1.47,4.52a27.55,27.55,0,0,1-3.3,4.7,27.35,27.35,0,0,1-9.16,7.7,11.91,11.91,0,0,1-14.46-3.25c-2.4-2.8-5.35-7.68-5.72-11.33-.13-1.28-3.7-2.29-3.55-.86Z"></path>
      <path class="cls-1" d="M430.18,104c.15,5.18.6,9.77,4.72,13.21,3.77,3.15,8.92,5.41,13.85,5.29,6-.15,13.18-1.31,17.87-5.45,2.34-2.06,2.85-4.43,3.93-7.26.38-1,1.17-5.48,1.67-5.82,1.06-.72-1.24-3.68-2.37-2.9-1,.67-.66,1-.86,2.14a29.81,29.81,0,0,1-1.31,4.76c-1.94,5.5-5.06,8.19-10.75,9.88-4.43,1.32-10,2.4-14.43.87a24.35,24.35,0,0,1-6-2.89c-3.31-2.33-3.38-6.2-3.49-9.94,0-1.19-2.85-3.54-2.8-1.89Z"></path>
      <path class="cls-1" d="M466.3,104.4c-.12,4.14-.15,6.82,2.08,10.29,2.44,3.81,4.21,6.45,8.42,8.45a29.69,29.69,0,0,0,11.42,3.12c2.53.15,7.28.84,9.44-.79.94-.71,1.4-4.34.12-3.38-1.62,1.22-6.5.66-8.45.51a27,27,0,0,1-8.72-1.78c-7.58-3.38-12.4-9-12.15-17.7.07-2.44-2.13-.13-2.17,1.26Z"></path>
      <path class="cls-1" d="M474.37,130.84c.19-13-28.57-14.91-26.83.89,0,.38.24,1,.68,1,3,.47,5.67,2,8.66,2.51s6.1-.34,9.15-.19c6.58.34,12.38,4.11,19,4.27,1.32,0,1.8-3.58.5-3.72-4.13-.43-8.21,2.05-11.7,4s-7.24,3.53-10.91,5.32c-4.57,2.23-10.48,7.16-6.86,12.85,3,4.78,11.41,2.65,15.8,1.58a77.39,77.39,0,0,0,18.14-6.7l-.49-3.23c-2.73,3.74-4,8.37-6.72,12.08-1.83,2.46-4.29,3.88-7.43,3.16s-2.74-3.31-.55-5c.35-.26,2.09-1.36,2.72-1.23,1.7.37.76.3,1.47,1.93,1.42,3.27,3.38,7.62,1.93,11.15-3.17,7.72-15.36,2.57-20.74,1.55l-.5,3.72c8.26,1.2,3.22,15.06,10.19,18.51,6.55,3.23,18.18-.8,22.71-6a3,3,0,0,0,.59-2.89c-4.71-10.86-28.88,10.85-17.44,19.87,4.93,3.88,19.85-1.64,18.59,7.72a7.13,7.13,0,0,0,.4,4.31c.76,1.51,1.25,1.1,2,2.18,2.22,3,.78,3.69,2.1,6.16,1.48,2.76,17,7.4,10.05,11.53-1.1.66-1.06,4.29,0,3.65,6.67-4,4.73-11.11-1.75-14.26-3.38-1.64-5.75-1.81-6.75-5.65a14.8,14.8,0,0,0-1.83-4.14,12,12,0,0,1-1.76-5.84,10.94,10.94,0,0,0-1.06-4.24c-4-6.57-13.91-.68-19.06-4.93-7.5-6.2,11.79-20.79,14.77-13.9l.59-2.89c-4.24,4.91-20.4,11.13-23.92,2.84-2.15-5.05-.66-14.63-8-15.69-1.28-.19-1.81,3.47-.5,3.72,7.39,1.41,16,5.45,21.7-1.83,5-6.45-.08-12.56-1.17-19.33,0-.31-.23-1-.68-1-5.16.14-12.48,7.72-7.27,12.55,3,2.76,7.85,1.24,10.28-1.34,3.64-3.85,4.85-9.38,7.93-13.6.34-.47.8-3.92-.49-3.23-7.76,4.17-19.41,9.09-28.34,7.78-2.49-.36-5.2-1.47-3.93-4.27,1.43-3.15,6.43-4.5,9.38-5.79,5.47-2.39,11.68-8,17.92-7.37l.5-3.72c-7.65-.19-14.31-4.59-22.06-4.18a24.78,24.78,0,0,1-10.4-1.26c-1.35-.46-3.68-.58-3.46-2.11.15-1,1.49-1.86,2.3-2.32,4.55-2.61,20.62-1.78,20.51,5.82,0,2.52,1.91,1,1.93-.74Z"></path>
      <path class="cls-1" d="M451.9,121.12c-9.37-.21-18.65-1.81-28-2.16-6.83-.26-13.24-.82-17.91,5-.56.7.22,2.23.73,2.71a75.56,75.56,0,0,0,11.38,8.93c2.89,1.82,5.87,3.35,6.38,7.07.54,4-1,5.69-3.74,8.19-4.9,4.47-1.84,9.83,4.66,9.3,1.47-.12,0-3.44-1.17-3.46-5-.06-11.84.31-15.71,3.88-3.7,3.41-1.92,8.95.93,12.35,8.29,9.91,26.16,2.79,36.76,2l-1.62-3.23c-1.75,3.21-3.07,7.12.25,9.86,1.6,1.32,3.85,1.53,5.83,1.68,4.05.3,6.19,3.12,9.74,4.44L459,184.49c-6.7,10.76,7.22,13.18,14.94,13.28,1.4,0,.11-3.44-1.17-3.46a48.92,48.92,0,0,1-7.23-.48c-4.06-.66-7.27-1.83-4.47-6.34.58-.94-.36-2.8-1.33-3.17-2.89-1.07-4.44-3.71-7.53-4.38-4-.86-8.75.45-5.63-5.27.49-.89-.4-3.33-1.62-3.23-9.44.72-19.07,4.29-28.59,2.38-5.89-1.18-11-7.63-4.08-11.36,3.84-2.08,8.75-2.37,13-2.31l-1.17-3.46a5.34,5.34,0,0,1-4.83-1.47l.85,2.45c.74-3.81,5.29-4.76,6.43-8.47.86-2.78.22-6.43-.76-9.09a12,12,0,0,0-5.56-6.24,78.52,78.52,0,0,1-13-9.64L408,127c5-6.25,12.77-4.68,19.83-4.49,8.45.22,16.76,1.9,25.2,2.09,1.38,0,.1-3.43-1.17-3.46Z"></path>
      <path class="cls-1" d="M506.86,127.29c-4.26-.51-7.7,3.21-10.58,5.88-3.13,2.91-6,6.6-5.8,11.1.14,3.9,2.25,6.43,5.74,7.93,2.41,1,5.85,1.63,7.74,3.6,2.56,2.66.67,6.57-.38,9.5-2.41,6.72-7.31,12.51-9.46,19.3-.93,2.92.13,4.91,2.36,6.93,1.23,1.12,3.13,1.5,4.24,2.48,2.48,2.21.76,8.13,1,11.14.26,2.86,1,4.5,3.55,5.8,5.09,2.58,15.9,7.57,14.54,14.4-.63,3.16-1.64,2.93-4.41,4a18.56,18.56,0,0,0-3,1.38,23.26,23.26,0,0,0-7.64,7.35c-.49.75-.4,3.07.71,3.36l1.38.36c1.41.37,1.22-3.33,0-3.65l-1.38-.36.71,3.36a21.41,21.41,0,0,1,10.88-8.44c2.24-.86,4.09-1.65,5.05-4,1.79-4.4-.79-9.21-3.71-12.39a36.63,36.63,0,0,0-8.05-6.36c-1.61-1-4.57-1.64-5.78-2.94-3.62-3.9,2-12.67-3.17-16.3a13.52,13.52,0,0,0-1.91-.71A8.8,8.8,0,0,1,497,188.2q-1.82-1-.56-2.31c.08-1.93,2.1-4.43,3-6.14,1.13-2.16,2.36-4.26,3.45-6.43,2.1-4.19,4.82-9.89,4.66-14.7-.19-5.73-5.55-7.84-10.15-9.61-7.39-2.84-3.76-9,.28-12.63,2.4-2.18,5.65-5.85,9.22-5.42,1.5.18,1.18-3.51,0-3.65Z"></path>
      <path class="cls-1" d="M437.58,121.56c-5.8.21-11,1.84-15.11,6.11-2.91,3-5.73,7.79-3.83,12.06,1.12,2.51,3.67,3.94,6.26,4.52,2.85.63,8.18-1,10.44.41,4.07,2.59-5.16,9.36-6.42,12.14-.15.34-.26.84.17,1,3.8,1.75,18.46,3.21,13.27,10-.2.27-.66,1.22,0,1.38a14.57,14.57,0,0,0,8.1-.12c1.72-.57,3.05-1.58,4.67-.31,2.43,1.91.84,5.09-.22,7.26-.26.54-.13,1,.46,1.1,6.54,1.39,13.12,2.53,19.72,3.59,1.19.19,3.72-2.44,2-2.71-6.6-1.05-13.18-2.19-19.72-3.59l.46,1.1c.71-1.46,1.85-2.83,2-4.5.18-2.47-1.62-4.26-2.76-6.24-.15-.27-.61-.24-.84-.21-4.05.47-6.75,3.21-11.26,2l0,1.38c3.59-4.68,1.37-7.84-3.68-9.75-2.36-.89-6-1-8-2.39-1.2-.81-1.15,0,.57-1.9,1-1.1,2.05-2.15,3-3.3,3.54-4.32,4.31-9.22-2.79-9-4.64.17-12.14.41-12.65-5.94-.62-7.62,8.16-11.24,14.29-11.46,1.17,0,3.61-2.76,2-2.71Z"></path>
      <path class="cls-1" d="M416.84,140.32c-1-.21-1.45-3.08-1.76-3.74a15.12,15.12,0,0,0-2.33-3.53,16.63,16.63,0,0,0-8.07-4.89c-7.31-1.95-13.84,2.64-19.6,6.55-3.26,2.21-6.42,4-10.41,4.36-2.84.28-8.43,1.11-11-.14-2.36-1.15-2-3-2.86-5s-2.2-3.74-3.16-5.66a23.66,23.66,0,0,0-1.75-3.58c-1-1.29-2.67-2-2.89-3.76l-1.37,2.85c1.37-.29,5.52-1.23,6.11.55.51,1.51,2.28-1.66,1.91-2.78-.9-2.7-5.27-1.81-7.36-1.36-1.06.23-1.49,2-1.37,2.85.35,2.75,3,4.5,4.31,6.89,1,1.77,2,3.56,2.93,5.37.76,1.54,1,3.43,1.78,4.89,2.39,4.29,10,2.89,14.06,2.49,7.26-.71,12.09-6.09,18.35-9.2,8.89-4.42,19.78-.89,22,9.5,0,.23.16.66.45.73l.91.19c1.32.28,2.38-3.31,1.17-3.56Z"></path>
      <path class="cls-1" d="M364.3,131.75c3.58.19,7.1,1.28,10.71,1.12,3.39-.15,6.21-1.55,9.25-2.93,4.73-2.14,9.81-4.94,15.07-5,4.5,0,9,1,13.48,1.12,2.23.08,2.38-1.79.11-1.87-7.68-.27-15.23-2.47-22.63.49-3.82,1.53-7.47,3.53-11.3,5-5.08,2-9.5.41-14.6.14-2.24-.12-2.37,1.75-.11,1.87Z"></path>
      <path class="cls-1" d="M368,127.75c2.46.88,4.26,2.69,6.79,3.47,2.71.83,5.59,1.16,8.36,1.76,4.09.88,9.21,2.19,12.79-.69,1-.82-1.29-3.78-2.3-3-3.56,2.86-8.79,1.12-12.82.27-1.9-.4-3.85-.63-5.73-1.13-2.94-.78-4.93-2.65-7.67-3.63-2-.71-.56,2.5.58,2.91Z"></path>
      <path class="cls-1" d="M359.42,121.42c-.23-2.87,1.1-5.12,2.24-7.64.52-1.15-3.11-1-3.64.22-1.22,2.72-2.52,5.08-2.27,8.16.1,1.22,3.79.63,3.68-.74Z"></path>
      <path class="cls-1" d="M407.16,130.07c-5.54,0-12.79.18-13.34,7.22-.72,9.23,11.35,9.13,17.58,10.18l-.79-3.17c-1,3-3.06,7-1.08,10,2.89,4.45,12.61,4.21,17,4.33,1.27,0,1.2-3.71-.15-3.75a54.45,54.45,0,0,1-11.71-1.42c-4.28-1.08-3.91-2.83-2.6-6.58.3-.86.47-3-.79-3.17-2.69-.45-19-1.5-14.44-7.81,1.94-2.66,7.62-2.1,10.5-2.09,1.28,0,1.18-3.74-.15-3.75Z"></path>
      <path class="cls-1" d="M354.87,113.16c0,4.16,0,7.86,2.9,11.15a17.46,17.46,0,0,0,9,5.37l-1.21-.83.19.88c.26,1.21,4,1.43,3.65,0l-.19-.88c-.1-.45-.84-.74-1.21-.83a13.21,13.21,0,0,1-7.54-5c-2.05-2.82-1.92-6-1.89-9.36,0-1.38-3.71-1.74-3.72-.48Z"></path>
    </g>
  </g>
</svg>
