<?xml version="1.0" encoding="UTF-8"?>
<svg xmlns="http://www.w3.org/2000/svg" viewBox="0 0 584.64 686.66">
  <defs>
    <style>.cls-1{fill:#8faedb;}</style>
  </defs>
  <title>Asset 1</title>
  <g id="Layer_2" data-name="Layer 2">
    <g id="Layer_1-2" data-name="Layer 1">
      <path class="cls-1" d="M140.74,192.62c.27-7,6-14.89,11.29-19.15,5.6-4.48,11.13-8.13,18.44-8.69,6-.46,11.84-.28,16.51-4.58,3.73-3.44,4.21-9.8,8.28-12.44l-2-2.85a14.09,14.09,0,0,0,1,5.57,1.51,1.51,0,0,0,1.26,1.09c4.82.16,8.07-3.51,12.4-5,4.57-1.62,9.34-2.49,13.86-4.29,7.1-2.83,14.15-5.43,16.5-13.34C241.23,119,242.76,107,251,100c7.47-6.3,17.7-7.24,25.86-12.41,1.19-.76.6-5.37-1-4.83-11.73,4.06-23.64,15.59-25.59,28.3-.72,4.69-.93,11.45,3.31,14.61,1.42,1.06,3,1.53,4.35,2.76s2.3,2.7,3.69,3.84c2.67,2.19,5.17,2.64,8.51,2.76,6.34.23,11.49.16,13.51-7,1.23-4.38-1.36-8.15-4.47-11-3.29-3-8.66-6.94-13.06-3.89-3.76,2.61-6.11,8.34-6,12.83s2.27,11.32,6.95,12.94,7.64-.86,6.35-5.71c-.86-3.25-2.88-.67-2.26,1.63-.19-.7-3.32-.5-4-.78-2.29-.94-3.55-3.32-4.06-5.72-.83-3.9,2-11.06,6.7-11.42,3.46-.26,9.11,3.79,10.69,6.75,1.14,2.13-.24,4.63-2.38,6s-5,.67-7.33.56c-2.87-.14-5.33,0-7.8-1.79-2.09-1.48-3.4-3.77-5.45-5.3-2.64-2-4.73-3.66-4.89-7.35a15.65,15.65,0,0,1,1.36-6.36,39.09,39.09,0,0,1,22.53-21.59l-1-4.83c-7.76,4.93-17.38,5.92-24.75,11.53-7.2,5.48-9.63,13.48-12.2,21.81-1.42,4.62-1.94,11.17-5.47,14.69-2.77,2.76-6.71,4.17-10.25,5.61-5.12,2.09-10.39,3.3-15.63,5-4.27,1.41-7.75,5.2-12.4,5l1.26,1.09-.23-1.78c0-.75-.58-3.75-2-2.85-5,3.27-4.75,10.15-9.83,13.73-6.6,4.66-15.54,1.58-22.68,4.86-11.27,5.17-22.87,17-23.37,30-.09,2.41,2.54,4.36,2.67,1Z"></path>
      <path class="cls-1" d="M146.34,181.73c-4.87,2.63-9.76,5.61-14.51,8.46a15.2,15.2,0,0,0-4.18,3.83,45,45,0,0,1-6.38,6.14c-9.32,8-14.71,19.93-23.33,28.55-6.85,6.86-15.27,13.63-19.49,22.56-1,2.16-2.88,5.27-2.67,7.77.12,1.48,1.5,3.93,3.29,3.55,2-.42-.24-3.79-1.23-4.2a15.81,15.81,0,0,0-9-.51c-4.37.79-6.47,3.26-9.64,6.09s-6.72,4.76-9.52,8.32C46,277,41.4,281.09,38.07,286.1c-1.4,2.11-2.39,4.47-4,6.43-1.26,1.53-2.52,2.49-3.29,4.37-.89,2.17-1.17,4.44-2.35,6.52a85.59,85.59,0,0,0-4,8.21c-2.19,5.05-4.3,10.15-6.39,15.24a36,36,0,0,0-1.63,4.5c-.78,3-.33,3.65-3.41,4.45s-7,1.3-9.44,3.78-3,6-3.24,9.12c-.6,7.58-.34,16.5,2.09,23.72C3.89,377,5.77,381.33,7.07,386a32.84,32.84,0,0,0,5.64,11.94c2.81,3.59,6.24,6.3,9.74,9.16,4.12,3.36,7.23,7.5,11.78,10.37s8,6.21,12.12,9.29,8.86,4.94,13.25,7.38a119.81,119.81,0,0,0,27.68,11.56c10.61,2.89,21.59,5.73,32.63,6.22,9.85.43,21.35-.2,30.49-4.08,10.32-4.38,20.8-8.41,30.74-13.62,4.64-2.43,9.41-4.66,13.7-7.69s8.53-6.13,13.08-8.88a133,133,0,0,0,23.73-17.81c3.3-3.16,5.38-7.41,8.5-10.8,3.31-3.59,4.66-8.32,8.1-11.69,3.95-3.87,7.48-7.33,10.62-12s5.89-9.91,9-14.77c3.21-5,7.76-8.94,10.91-14s5.18-10.39,7.93-15.45a129.29,129.29,0,0,1,24.45-31.42c3.87-3.66,7.18-8.27,11.31-11.57,2.25-1.8,4.9-3.22,3.73-6.46-.34-.94-1.15-2.43-2.28-2.59-13-1.88-26.72-3.44-37.7,5.59-5.2,4.28-9,10.09-12.66,15.64-4,6-8.54,11.54-12.69,17.42-4.31,6.11-7.93,12.77-12,19s-8.35,12.73-12.33,19.15c-3.45,5.56-3.62,11.36-3.41,17.73.11,3.4-.06,6.78,0,10.17,0,2.62,2.39,8.52,1.17,10.65l1.88.13-2.29-1.72c-2.61-2-2.08,2.2-.52,3.37l2.29,1.71c.49.37,1.45.88,1.88.13a6.06,6.06,0,0,0,.63-4.68,52.48,52.48,0,0,1-1.43-11.75c.11-6.63-1.32-13.77,1.76-19.94,3.18-6.35,8-12.21,11.67-18.32s7.57-11.86,11.22-17.88c3.47-5.7,7.9-10.73,11.76-16.15s7.14-11.2,11.5-16.21a31.35,31.35,0,0,1,18.17-10.57c7.72-1.52,14.76-.29,22.42.82l-2.28-2.59c.34.94-6.07,5.79-6.71,6.52-3.5,4-7.26,7.53-11,11.25A135,135,0,0,0,287,311.48c-5.19,8.1-8.1,17.91-14.32,25.28a97.22,97.22,0,0,0-8.56,11c-2.62,4.17-4.93,8.53-7.62,12.65a54.43,54.43,0,0,1-9.32,11.26c-3.27,2.91-4.6,5.66-6.76,9.36s-5.77,6.38-8.11,10c-2.91,4.55-6.81,7-10.76,10.55-3.11,2.76-5.87,5.69-9.43,7.91-4,2.48-8.17,4.57-12.1,7.12s-7.37,5.62-11.35,8c-4.36,2.6-9,4.83-13.56,7.14-8.87,4.52-18.29,8.11-27.48,11.92s-21.28,4.53-31,3.73c-10.38-.86-20.54-3.35-30.55-6.08s-18.49-6.65-27.56-11.65c-4.51-2.48-9.34-4.45-13.32-7.76a92.33,92.33,0,0,0-9.87-7.62c-4.48-2.82-7.61-6.74-11.63-10.08-4.24-3.51-8.81-6.73-11.36-11.8-2-4.07-2.69-8.84-4.31-13.1-1.87-4.92-3.73-9.51-3.93-14.83-.23-6.28-2.51-17.16,3.25-21.61,3-2.34,8.06-1.25,10.85-3.47a4.15,4.15,0,0,0,1-2.2c.82-2.54,1.33-5,2.38-7.51,2.25-5.36,4.42-10.76,6.76-16.07A72.55,72.55,0,0,1,31.68,307c1.23-2.18,1.5-4.43,2.52-6.65.93-2,2.63-3.34,3.89-5.18,1.54-2.23,2.64-4.71,4.25-6.9,3.39-4.59,7.49-8.68,11.1-13.1,3.09-3.79,7.59-6.45,11.2-9.78,3.14-2.89,9.35-4.8,13.57-3L77,258.18l.86.44,1.5,2.64c-.28-1.9,1.72-5.06,2.54-6.76a38.75,38.75,0,0,1,5.91-8.41c6.69-7.75,14.61-14.09,20.5-22.51,2.88-4.12,6.13-7.94,9.3-11.84a104.84,104.84,0,0,1,10.44-10.61c1.41-1.31,2.32-3,3.6-4.37a17.4,17.4,0,0,1,5.47-3.73c4.17-2.12,7.87-4.92,12-7.13,1.53-.82-1.12-5.05-2.77-4.17Z"></path>
      <path class="cls-1" d="M238.76,375.62l-.24-1.15c-.13-.64-1-.72-1.5-.77-5.2-.53-7.63-4.77-12.64-6-4.25-1-9.41-2.69-13.8-2.57-9.56.26-18.13,18-27.55,12.57-3.81-2.2-.35-7.69-4.35-9.39-2.12-.9-4.86.43-6.62,1.55-2.85,1.8-5.07,4.39-7.6,6.57a29.83,29.83,0,0,1-8.62,5.28,14.09,14.09,0,0,0-4,2.24c-2,1.65,1.92,2,3,1.51,4-2.07,4.58-6.13,3.19-10.22-1.56-4.59-5.23-6.75-10.08-6.24-3.3.34-6.07,2.1-9.21,3s-6,.79-8.84,2.16c-4.33,2-6.9,3.87-11.54,1.89-2.71-1.16-6.36-2.88-7.7-5.68l-2,2c6.15-2.21,12.33-2.85,17.23-7.55,1.88-1.81-1.88-2.09-3-1.52-3.28,1.73-9-.4-12.39-1s-7.25-.72-10.68-1.5l.52,1.85c5-4,13.22-1.43,18.2-5.68a4.22,4.22,0,0,0,1.17-4.82c-.46-1.54-1.34-2.17-2.24-3.43a12.67,12.67,0,0,1-2.08-6.11c-.06-.4-.64-.65-1-.73-8-1.84-17.53-2.14-24.88-6-6.08-3.21-10.17-9.17-15-13.87s-10.8-9-13.78-15.48A74.39,74.39,0,0,1,56.6,295.3c-1.08-4-.69-8-.63-12.09,0-2.12-4.81-1.12-4.84.62-.09,5.74-.18,10.59,1.76,16.08,1.86,5.25,3.62,10.29,7.29,14.58s8.12,7.62,12,11.64c3.53,3.69,6.8,7.7,11,10.63,4.74,3.28,10.35,4.33,15.92,5.42,2.87.56,6,.8,8.82,1.69,3.48,1.11,2.51,3,4.27,5.79,1,1.54,4.21,4.25,2.38,6.14-1.39,1.43-5.68,1.4-7.56,1.75-3.9.72-7.55,1.63-10.67,4.16-.83.67-.42,1.64.52,1.85,5.44,1.22,11.14,1.54,16.66,2.71,3.93.83,7.64,1.1,11.28-.82l-3-1.52c-3.84,3.68-9.23,4.1-14,5.82-.59.21-2.51,1-2,2,3,6.28,13.59,10.14,20,7.74,3.55-1.34,6.38-3.46,10.19-4.18a38.18,38.18,0,0,0,6.69-1.85c3.9-1.49,8.16-2.11,10.13,2.24.69,1.53,2.21,6.57,0,7.7l3,1.51c1.43-1.17,3.8-1.35,5.47-2.23a35.16,35.16,0,0,0,5-3.47c2.63-2.06,4.87-4.53,7.47-6.61,3.14-2.51,1.62.24,2.1,2.89a5.51,5.51,0,0,0,2,3.8,11.82,11.82,0,0,0,8.76,2.37c3.53-.43,6.83-2.2,9.76-4.12,4.73-3.09,8.79-9.5,14.89-9.22,2.15.1,4.44,1.18,6.58,1.56,2.67.47,5.75.73,7.91,2.56,1.27,1.08,2,2.7,3.54,3.48,1.77.9,4.14.54,6,.73l-1.5-.77.24,1.15c.36,1.74,5.19.49,4.81-1.36Z"></path>
      <path class="cls-1" d="M115.48,347.58c6.93-.29,12.13-4.87,18.68-6.52,5.14-1.29,10.23-6.09,12.67-10.84,3.32-6.48,5.45-14.41,6.7-21.55.74-4.17,0-8.29.59-12.44.24-1.69,1-3.19,1.28-4.85.36-2-.21-4.08.2-6.1.67-3.27,2.59-6.32,3.39-9.62a84.72,84.72,0,0,0,2.09-12.1c.38-4.11,1.18-8.2,1.38-12.33s0-8.11,1-12.2c.95-3.86,2.33-7.61,3.15-11.5s1-7.77,2-11.6a107.84,107.84,0,0,1,3.05-11.48c1.2-3.31,3.38-5.85,3.21-9.51-.08-1.69-4.48-3.84-4.47-1.93v.91c0,1.76,4.48,3.8,4.47,1.93v-.91L170.41,193c.16,3.49-2.06,6-3.18,9.19s-1.77,6.77-2.63,10.13c-1.83,7.14-2.68,14.36-4.68,21.49-4.12,14.71-1.1,30.89-7.18,45.27a22.74,22.74,0,0,0-1.63,7.93c-.31,3.73-1.59,7-1.59,10.86A68.32,68.32,0,0,1,145,321.32c-1.05,2.95-2,6.08-3.88,8.63-1.69,2.33-5.9,6.47-8.57,7.41-2.46.87-4.85,1.05-7.27,2.21-3.9,1.87-7.35,4.33-11.84,4.51-2.89.12.25,3.56,2,3.49Z"></path>
      <path class="cls-1" d="M169.16,321.86c-.1-3.83,2.3-9,3.46-12.66,1.45-4.47,3.15-8.47,3.77-13.18a99.4,99.4,0,0,1,8.36-28.34c7.92-17.78,12.45-36.88,20.31-54.71.67-1.53-3.21-4.6-4-2.72-8.09,18.36-12.88,38-21,56.29A110.25,110.25,0,0,0,174.76,280c-1.47,5-1.85,10-2.66,15.15-.75,4.75-2.91,9-4.19,13.6-1,3.62-3,7.41-2.86,11.19,0,1.68,4.17,4.28,4.11,1.9Z"></path>
      <path class="cls-1" d="M172.07,322.84c2.49-3.07,6.91-2.88,10.26-4.62a28.43,28.43,0,0,0,9-7.57c1.36-1.83,2.11-4,3.34-6a60.49,60.49,0,0,1,4-5.06c3-3.7,4.06-7.83,5.81-12.16,3.66-9,8.39-17.69,11.3-27,3.07-9.85,5.59-19.87,8.71-29.7.61-1.91-4.34-2-4.86-.39-2.95,9.28-5.5,18.75-8.24,28.1s-7.09,18.23-11.1,27.05c-2,4.47-2.93,9.1-6,13a68.91,68.91,0,0,0-6.41,9.32,21.22,21.22,0,0,1-12.34,9.64c-3.1.93-5.77,1.64-7.88,4.24-1.51,1.86,3.32,2.42,4.39,1.09Z"></path>
      <path class="cls-1" d="M180.43,195.78c1.65-1.4,3.67-2,5.5-3.12,2-1.19,3.56-2.93,5.5-4.19,4.32-2.81,9.78-3.62,14.7-4.84a273.66,273.66,0,0,0,35.49-11.24c5.27-2.09,10.46-2.44,16.07-2.68s11.47-1.66,17.14-2.52c6.41-1,12.48-2.92,18.68-4.78,5.32-1.6,10.68-2.53,16-4l-1.07-4.88c-1.6.49-3.17,1-4.78,1.49s-.62,5.36,1.07,4.88,3.18-1,4.78-1.49.64-5.34-1.07-4.88c-5.35,1.43-10.7,2.35-16,4-6.19,1.86-12.27,3.81-18.68,4.78-6,.91-12,2.36-18,2.55a45.64,45.64,0,0,0-16.87,3.36c-11.3,4.7-23.18,8-35.07,10.83-4.39,1.06-9,2-13,4.2-2,1.12-3.53,2.75-5.38,4-2.15,1.51-4.72,2.22-6.74,3.93-1.33,1.13.24,5.81,1.72,4.56Z"></path>
      <path class="cls-1" d="M180.55,195.7l.2-1.15-1.88,1.78c5.26-1.7,12.37-.09,17.85.13,5.67.23,11.19.82,16.81-.27,3.16-.61,6.27-1.48,9.44-2,3.84-.67,7.45-.25,11.29-.38a27,27,0,0,0,5.68-1.13c3.31-.8,7.15-.38,10.57-.93,13.32-2.18,25.89-7,38.95-10.32,6.37-1.63,12.58-3.66,19-5.21,4.07-1,8.8-1.3,12.18-4,.53-.42,1.35-1.68.18-2-2.79-.68-6.75.52-8.92-1.51-1.24-1.16-5.64,1.1-4.23,2.42,2.93,2.72,6.11,1,9.62,1.89l.18-2c-1.66,1.31-4.38,1.17-6.38,1.65-2.77.67-5.61,1.18-8.34,2-6.62,1.93-13.24,3.83-19.87,5.74-6.33,1.83-12.61,3.8-18.93,5.67-6.74,2-13.2,2.53-20.14,3-3.17.21-5.82,1.53-9.11,1.6-2.46.05-4.82-.26-7.29,0-6.77.71-13.19,3.25-20,3.14-9.38-.15-20.3-2.9-29.41,0A2.77,2.77,0,0,0,176,195.7l-.2,1.15c-.32,1.81,4.43.6,4.74-1.14Z"></path>
      <path class="cls-1" d="M308.85,160.81c2.25-2.26,7.32-1.34,10-.6,4.45,1.21,8.49,3.87,12.72,5.67,4.46,1.89,9,3.64,13.5,5.47s9.05,1.63,13.62,2.64,8.88,2.57,13.3,4,9,2.14,13.44,3.58,8.48,3.1,12.92,4c3.58.75,7.21,1,10.61,2.47l.78-4.86-3.59-.26c-1.77-1-3.17,3.76-1.75,4.54,1.9,1,2.9,1.43,4.92.56,1.36-.58,2.52-4.11.78-4.86-3.65-1.57-7.61-1.79-11.44-2.67-5-1.14-9.67-3.23-14.59-4.61-4.76-1.34-9.53-2.38-14.24-3.93a78.61,78.61,0,0,0-15.27-3.72c-9.73-1.15-19.43-6-28.23-10.24-5.09-2.45-13.62-5.91-18.47-1.05-1.16,1.16-1,5.86,1,3.85Z"></path>
      <path class="cls-1" d="M312,163.73l1.12.24-2.69-2.87c4,17.09,27,15,39.61,19.8,10,3.79,19.65,8.76,29.74,12.33,2.41.85,4.73,1.41,7.2,2s4.8,2,7.32,2.69,5.21.8,7.75,1.45c2.31.6,4.41,1.45,6.82,1.62.86.06,1.06-.54,1-1.29-.49-3.35-5.22-12.58,2.51-10,4.55,1.52,8.69,7.64,9.31,12.29.11.86.43,2.25,0,3.1-.95,2-1.6.84-3.34-.38s-3.4-1.88-5-3c-3-2.11-3.53-5.22-7.93-4.79-1.77.17.79,4.33,2.53,4.16s2.64,2.16,3.7,3.19a10.45,10.45,0,0,0,3.29,2c2,1,5.83,5.32,8.63,4.3,4.14-1.49,1.31-10.08,0-12.64-2.65-5-8.53-12.52-14.78-12.77-8.29-.34-3.17,8.81-2.56,12.94l1-1.29c-4-.28-8.29-1.82-12.28-2.6s-8.19-2.63-12.26-3.72c-8.59-2.29-16.51-6.86-24.79-10-7.79-3-15-6.26-23.37-7-6.58-.59-18.62-3.27-20.37-10.8a4,4,0,0,0-2.69-2.87l-1.12-.24c-2.15-.46.15,3.82,1.74,4.16Z"></path>
      <path class="cls-1" d="M153.16,328.56a7.33,7.33,0,0,0,0-3.85c-.17-.56-.45-1.5-1-1.79a6.25,6.25,0,0,0-1.51-.34c-.4-.08-.83.42-1,.69a3.67,3.67,0,0,0-.48,1.75c0,.93.16,2.33,1.26,2.56l1.15.24-.93-.77c.17.35,0-.12.05.1s0-.55,0,0c0-.17,0-.44,0-.12.05-.65,0-.05-.06.09-.24.9-.12,2.62.82,3.11s1.58-1,1.75-1.67Z"></path>
      <path class="cls-1" d="M147.38,327.26c4.87.21,11.42-1.26,15-4.72s5.44-7.76,7-12.52c4-12.32,11.67-24.82,12-38,.08-3.56.07-6.5,1-9.95.88-3.2,2.13-6.29,3.11-9.46,1.12-3.6,1.67-7.31,2.82-10.91a27.19,27.19,0,0,0,1.53-7.5c.26-7.24-1-14.55-.33-21.76.54-5.46,2.36-14.6,6.76-18.21,1.48-1.21-1.41-5.29-2.8-4.14-3.77,3.09-4.44,7.53-5.82,12-1.91,6.26-1.93,12.15-1.65,18.63.15,3.32.31,6.67.27,10,0,3.74-1.26,6.74-2.22,10.31-1.78,6.64-4.17,13.26-5.7,20a42.12,42.12,0,0,0-.6,8.44,40.35,40.35,0,0,1-1.75,9.94c-2.13,7.3-5.12,14.27-8,21.3-2,4.86-2.75,10.37-5.82,14.72-3.76,5.32-10.41,7.79-16.87,7.5-1.83-.08.28,4.32,2.1,4.4Z"></path>
      <path class="cls-1" d="M203.21,213.77c.34-3.52,3.19-6,4.42-9.21a10.85,10.85,0,0,0-.65-8.77c-.23-.5-1.41-2.13-2.1-1.2a1.07,1.07,0,0,1-1.1.67c-1.77.35-.47,5.16,1.43,4.79a2.5,2.5,0,0,0,1.74-1.05l-2.1-1.2c1.28,2.74-.9,5.18-2.27,7.44a15.41,15.41,0,0,0-2.33,6.77c-.19,2,2.66,5,3,1.75Z"></path>
      <path class="cls-1" d="M223.92,231.87c0-6.38,3-11.5,4-17.65,1-6.43.24-13.26.2-19.74,0-3.33-2.85-1.67-2.84.82,0,7.52,1.07,15.41-1.18,22.69-1.59,5.17-3,9.22-3,14.7,0,3.34,2.84,1.66,2.84-.82Z"></path>
      <path class="cls-1" d="M220.78,175.59c3-6.12,11.34-8.8,17.39-10.65,7.47-2.29,15.11-4,22.48-6.57,3.16-1.12,6.2-2.53,9.33-3.71s6.68-1.2,9.92-2.34c7.88-2.78,15.64-5.69,23.83-7.61,7.2-1.69,15-2.88,22-5.29,3.12-1.08,5.81-2.88,8.77-4.3,3.85-1.85,8.09-2.58,12.14-3.9,8-2.62,15.82-5.4,24.16-7a98.39,98.39,0,0,0,10.2-2.84c3.4-1,6.91-1.52,10.19-2.93l-3.86-.69a17.31,17.31,0,0,1,.28,4c0,1.67,4.92,1.32,5-.55a17.31,17.31,0,0,0-.28-4c-.29-1.47-2.94-1.09-3.86-.69-3.82,1.64-8.19,2.31-12.18,3.56s-7.83,1.84-11.78,2.74c-8.32,1.9-16.16,5.17-24.36,7.45-7.59,2.11-14.07,6.68-21.78,8.23-8.37,1.69-16.78,3.7-25,6.18-3.85,1.16-7.79,2.23-11.59,3.57-3.6,1.27-7.1,2-10.75,3.06-7.86,2.21-15.24,5.87-23.17,8-10.08,2.77-26.76,5.42-31.94,16.06-.83,1.7,4.08,1.81,4.87.18Z"></path>
      <path class="cls-1" d="M290.89,159.3c4.27-.76,8.06-2.93,12.3-3.87,4.86-1.09,9.79-2.16,14.72-2.91,8.38-1.28,15.42-2.52,23.19-5.88,3.79-1.64,7.74-2.23,11.43-4.22,4.19-2.26,7.82-5.17,12.35-6.79,7.06-2.53,14.82-3.18,21.7-6.24a11.3,11.3,0,0,0,5.18-4c.66-1.06.63-2,1.5-2.38.68-.27,5.92,1.38,5.84,1.36,4.5,1.26,9,2.42,13.53,3.69,4.26,1.2,8.21,3.33,12.38,4.78,8.52,3,17.44,5.28,26.1,7.81,4.42,1.29,8.83,2.31,13.15,3.93,3.24,1.22,6.42,2.43,9.93,2.3,1.45-.05,5-3.57,2.68-3.63s-4.34-.07-6.51,0c-1.59,0-4.85,3.66-2.68,3.63s4.34,0,6.51,0l2.68-3.63c-4.16.15-7.81-1.71-11.63-3.05-4.65-1.63-9.51-2.57-14.18-4.12-8.58-2.84-17.55-4.6-26-7.95a189.71,189.71,0,0,0-24.29-7.69c-5.08-1.27-8.6-1.76-11.82,2.65-2.59,3.56-5,4.16-9.11,5.36s-8.56,2-12.76,3.34a41.23,41.23,0,0,0-9.4,4.34,53.74,53.74,0,0,1-13.07,6c-4.42,1.36-8.21,3.87-12.81,4.88-4,.88-8.14,1.22-12.21,1.84-4.93.75-9.84,1.86-14.72,2.91-4.23.91-8.06,3.12-12.3,3.87-1.62.29-4.49,4.1-1.72,3.61Z"></path>
      <path class="cls-1" d="M474.28,152.77a63.76,63.76,0,0,1-6-6.22c-1.49-1.78-3.32-3.41-5.73-3.56s.26,4,1.89,4.09,2.76,2.29,3.85,3.47c1.58,1.72,3.32,3.28,5,4.86.56.51,1.87,1.22,2.34.26s-.77-2.35-1.37-2.9Z"></path>
      <path class="cls-1" d="M388.24,130.46c6.71.21,13,1.91,19.52,3.5,7.06,1.73,14,3.53,20.94,5.73,6.7,2.12,13.41,4.21,20.18,6.08,2.77.77,5.55,1.52,8.35,2.15,2.38.53,7.5-.06,9.37,1.45,2.61,2.1,2.86-1.13,1-2.64a8.4,8.4,0,0,0-5.81-2.24,41,41,0,0,1-9.49-1.4c-8-2-15.86-4.5-23.71-7-6.67-2.11-13.32-4-20.13-5.62-7.35-1.7-14.49-3.88-22.08-4.12-2.31-.07.26,4,1.89,4.09Z"></path>
      <path class="cls-1" d="M474.43,146.31l1.12.16-2.32-1.14a25.07,25.07,0,0,0,3.66,8.45c2.68,3.84,4.42,7,3.3,11.78l1.94-1.07c-1.66.08-4-5.88-4.86-7.07a9,9,0,0,0-6.77-4c-3-.34-3.21,2.22-.22,2.56,2.82.32,4.48,6.09,6,8a7.83,7.83,0,0,0,6.93,3c.72,0,1.75-.26,1.94-1.07a12.92,12.92,0,0,0-2-10.52c-2.37-3.5-4-6.28-5.11-10.4-.21-.82-1.67-1.05-2.32-1.14l-1.12-.16c-3-.43-3.18,2.12-.22,2.54Z"></path>
      <path class="cls-1" d="M206.71,282.11A10.92,10.92,0,0,0,212,284.3c2.11.47,4,1.61,6.21,1.32,4.37-.58,7.48-5.07,9.76-8.41,3.45-5.06,6.07-10.46,9-15.81s6.61-10.15,9.29-15.71c2.61-5.41,6.1-10.08,9.41-15,3.65-5.46,5.93-11.75,9.29-17.4,3-5,5.23-10.7,9-15.13,3.12-3.65,8.87-7.84,9.94-12.73.38-1.74-3.31-4.94-3.7-3.18-1,4.58-6.53,8.73-9.52,12.13s-4.81,7.65-7,11.66c-2.7,4.91-5.52,9.67-8,14.71s-6,9.18-8.82,14c-2.59,4.49-4.62,9.33-7.29,13.75-2.91,4.81-6.08,9.25-8.67,14.28a77.72,77.72,0,0,1-8.57,13.87c-1.35,1.65-3,3.51-5,4.29-1.27.49-8-.38-9.5-1.54-2.62-2.06-3.06,1.19-1.11,2.72Z"></path>
      <path class="cls-1" d="M219.39,247.67c1.4-3,3.76-5,6.13-7.26s2.55-3.58,3.8-6.22c2.48-5.24,7.75-8.72,10-14.18,1.08-2.59.53-5.31,1.54-7.83,1.08-2.71,2.74-5.4,4-8,1.23-2.46,2.11-5.17,3.69-7.43.41-.59,4.44-6.12,5.17-6,2.45.29,4.43-2.31,1.11-2.7-5-.6-8.31,4.27-10.9,7.91-1.71,2.41-2.63,5.32-3.94,7.94-1.43,2.85-3.65,6.12-4.49,9.19-.92,3.36-.47,6-2.41,9.21s-4.74,5.89-6.94,8.95c-2,2.74-2.61,5.87-5.11,8.21s-5.07,4.7-6.58,7.94c-.82,1.76,4.1,2,4.86.32Z"></path>
      <path class="cls-1" d="M336.84,146.44c2.71,2.66,5.6,5.13,8.33,7.77,2.54,2.46,4.54,5.4,7.08,7.82,2.26,2.16,4.7,4,6.91,6.21a5.54,5.54,0,0,0,5.37,1.91c1.93-.18,4.48-3.44,1.23-3.16-1.8.16-4.57-3.75-5.88-4.82a57.49,57.49,0,0,1-7.12-7c-3.64-4.18-8-7.66-11.94-11.53-1.21-1.18-5.45,1.37-4,2.81Z"></path>
      <path class="cls-1" d="M364.82,190.63c6,1.14,10.61,9.21,13.09,14.15,1.29,2.57,2.74,4.91,4.27,7.34a18.4,18.4,0,0,0,1.76,2.7c.63.71,2,1,2.33,2,.67,1.63,5.53,2.15,4.85.5-1.08-2.63-3.64-4.11-5.15-6.59-2.19-3.6-4-7.47-6.24-11-3.11-4.83-8.35-10.51-14.26-11.63-2.91-.55-3.65,2-.65,2.56Z"></path>
      <path class="cls-1" d="M327.07,153.51c1.68-.29,3.69,2.81,4.6,3.86A36,36,0,0,0,336,161.1c2.57,2.19,2,5.6,6.32,4.88.91-.16,2.71-.76,2.92-1.84s-.56-1.44-1.56-1.27c-1.22.21-2-2.85-2.71-3.65-1.33-1.43-3.17-2.28-4.52-3.71-2.25-2.38-4.24-5.76-8-5.1-.91.16-2.71.76-2.92,1.84s.55,1.43,1.55,1.26Z"></path>
      <path class="cls-1" d="M350.29,182.91c2,4.89,6.67,8,9.49,12.38s5,9.15,9,12.72c4.37,3.88,9.34,6.74,13.36,11.05,3.17,3.41,6.21,6.43,10.87,7.49,1.86.42,5.56-1.7,2.39-2.42-4.81-1.09-7.55-5.33-10.85-8.59-4-4-9.29-6.54-13.14-10.71-3.39-3.68-5.16-8.42-8.14-12.38-2.7-3.58-6.48-6.28-8.22-10.52-.64-1.57-5.56-.93-4.77,1Z"></path>
      <path class="cls-1" d="M378.77,217.24c0,4.19,0,8.39,0,12.58,0,3.76-.94,7.1-1.29,10.78-.1,1.09.79,3.09,1.95,3.42,3.73,1.08,8.14.36,9.32-3.85.73-2.59.52-5.4,1.23-8.06a43,43,0,0,0,1.69-9.74c.06-1.66-3.11-5.2-3.22-2.37-.17,4.62-2,8.67-2.58,13.18s-1.84,7.89-7.12,6.36L380.7,243c.36-3.76,1.33-6.93,1.29-10.78,0-4.19,0-8.39,0-12.58,0-1.65-3.22-5.18-3.22-2.37Z"></path>
      <path class="cls-1" d="M287.63,143.59a6,6,0,0,0,.31,3.13c.23.8,1.31.66,1.87.37,3.32-1.71,5.13-5.47,7.29-8.36,3.76-5,6.46-10.77,10-16,4.2-6.24,9.7-11.45,13.87-17.75,1.84-2.78,3.67-4.56,7.13-5.52a34.16,34.16,0,0,0,3.55-.71c2.14-.83,3.65-2.57,5.49-3.87,5.29-3.76,7.59-9.18,12-13.92,2.61-2.82,5.34-5.44,7.79-8.4,2.94-3.58,5.49-7,9.67-9.24C372.81,60,378,55.36,384,51.66c6.82-4.19,14.27-7.37,21.68-10.36,8.11-3.27,16.14-6.6,24-10.51A62.73,62.73,0,0,1,442,25.94c3.65-.94,8.45-3,12.13-3.3l-.76-1.43c-.78,2.89-.92,5.37-4,6.69-1.6.7-3.1.93-4.57,2a28.21,28.21,0,0,1-5.93,3.58,40.92,40.92,0,0,0-7.13,4.07A57.65,57.65,0,0,0,420.43,49c-1.51,2-2.77,4.53-4.47,6.3-2,2.07-5.39,3.05-8,4.14-3.82,1.57-9.28,3.34-12.34,6.11-1.29,1.17-1.62,2.49-2.31,4-1.39,3-3.86,5.13-6.26,7.29-3.12,2.8-6.39,5.37-10.81,4.62-2.88-.49-5.84-1.23-8.68-1.92-5.24-1.28-9.77-4.2-15.31-4.1-1.54,0-4.71,3.77-2.33,3.87q1.24.08,2.48,0c1.63,0,4.61-3.89,2.33-3.87q-1.24,0-2.48,0l-2.33,3.87c10.74-.21,23.48,11.37,33.78,3.8,4.41-3.24,9.34-7.44,12.38-12,.43-.64.71-1.44,1.11-2q-.44-1.17.39-1.34A11.62,11.62,0,0,0,399,67c2.71-2.11,6.23-3.27,9.35-4.56,4.12-1.71,8-3.16,10.74-6.82,4.73-6.42,9.27-13.67,16.63-17.42,2.72-1.38,5.77-1.75,8.15-3.8,1.31-1.12,1.75-1.9,3.46-2.63.92-.4,2-.44,2.94-.85,4.57-2,5.69-6.24,6.89-10.71.16-.61.13-1.51-.76-1.43-2.71.24-4.94,1.34-7.51,2.15-3.51,1.12-7.11,1.66-10.6,2.93-7.64,2.78-14.73,6.87-22.24,10-14.45,6-28.43,11.45-41.05,20.92-5.08,3.81-11.39,6-15.79,10.67-2.74,2.91-5,6.22-7.74,9.16-2.86,3.11-5.94,6-8.56,9.31-2,2.61-3.23,5.69-5.89,7.73-.94.72-2,1.43-2.94,2.12-2.19,1.56-4.09,1.53-6.58,2.13-5.42,1.32-7.82,5.9-10.76,10.2-5,7.28-11.12,13.57-16.07,20.91-2.33,3.46-3.88,7.27-6.33,10.67-1.15,1.6-2.72,5.2-4.24,6L292,144l-.25-2.32c.16-2.35-4,.17-4.12,1.87Z"></path>
      <path class="cls-1" d="M385,89c2.54-2.76,7-4.07,10.22-5.93a94.5,94.5,0,0,1,11.91-5.19c7.93-3.18,16.05-5.38,24-8.34,5-1.87,7.48-5.35,11.06-9,3.26-3.36,7.86-4.32,11.84-6.5,3.37-1.84,6.47-4.11,9.87-5.9L462.53,46c-4.82,4.79-8.6,10.46-13.69,15-2.57,2.29-4.81,5-7.49,7.17s-5.83,4-8.51,6.33c-11.74,10.37-22.89,21.64-39.5,22.61l.72,2c3.62-4.81,1.8-14.3-5-15-1.62-.15-5.09,3.28-2.85,3.5,4.29.41,7.15,7.51,4.54,11-.71.94-.72,2.07.72,2,15.44-.89,28-10.08,39-20.24,5.89-5.45,12.44-9.86,18.13-15.51,2.5-2.48,5.26-4.63,7.62-7.27,3-3.37,5.62-7.06,8.83-10.25,1.52-1.51.7-3.18-1.39-2.08-3.87,2-7.4,4.7-11.31,6.67-3,1.51-6.26,2.4-9.1,4.23s-4.62,4.46-6.91,6.87c-3.6,3.78-8.45,4.32-13.23,5.8a211.64,211.64,0,0,0-24.7,9.54c-3.24,1.48-6.25,3.44-9.47,5a22.06,22.06,0,0,0-7.26,5.17c-2.2,2.39,2.09,1.84,3.35.47Z"></path>
      <path class="cls-1" d="M390.83,95.24a65.37,65.37,0,0,0-6.27,9.4,9.54,9.54,0,0,1-3.12,4,4.44,4.44,0,0,0-2.17,2.67c-.51,1.58,1.57,5.85,2.44,3.16.35-1.07,1.94-1.56,2.69-2.34a16.61,16.61,0,0,0,2.6-4.24,59.83,59.83,0,0,1,5.86-8.59c1-1.31-.64-5.91-2-4Z"></path>
      <path class="cls-1" d="M384.32,78.85l-.86-.1c-.77-.09-4.54.94-3.25,2.25A39.61,39.61,0,0,1,384,85.6c1,1.43,2.51,3.26,2.6,5.11.08,1.66,5,.8,4.88-1.11s-1.6-3.85-2.64-5.35a39.77,39.77,0,0,0-4.06-5L381.5,81.5l.86.1c1,.11,2.73-.26,3.23-1.22s-.37-1.44-1.27-1.54Z"></path>
      <path class="cls-1" d="M367.31,131.12c-4,3.1-7,7.2-9.8,11.36-1.93,2.88-3.26,8.61-6.84,9.79-2.3.76,1.28,4,2.9,3.48,3.76-1.23,5-4.94,6.7-8.16A43.21,43.21,0,0,1,371,134.32c1.63-1.27-2.3-4.27-3.67-3.2Z"></path>
      <path class="cls-1" d="M329.12,179.6c-.12-.57-.78.15-2.06.6a27.77,27.77,0,0,1-2.92.79c-2,.48-4.08.77-6.1,1.2a75.89,75.89,0,0,0-15.5,5.2c-3.45,1.59-6.14,3.81-9.31,5.84a90,90,0,0,1-9.39,4.85c-3.66,1.77-7.28,4-11.33,4.68-3,.5-5.07.27-7.73,1.9l.66,3.27c.82-1,1.58-2,2.34-3,1.43-1.93.46-5.23-1.54-2.52-.76,1-1.51,2-2.34,3s-1.64,4.69.66,3.27c3.37-2.07,8.36-1.65,12.13-3.23,4-1.66,7.86-3.7,11.7-5.65,4.16-2.11,7.67-5.09,11.73-7.32s8.36-3.43,12.65-4.75c5.26-1.63,21.72-2.13,19.82-11.09-.49-2.31-3.8,1.26-3.45,2.94Z"></path>
      <path class="cls-1" d="M378.84,109c-.61,3-2.34,5.7-2.77,8.81a1,1,0,0,0,.74,1.25l1.25.24c1.71.33,4-4,2-4.43l-1.25-.24.74,1.25c.37-2.69,2-5.06,2.57-7.73.17-.86.09-1.94-1.05-1.75s-2.07,1.65-2.27,2.61Z"></path>
      <path class="cls-1" d="M282,131.85c2.14-1,3.44-2.83,5.48-4s4.6-1.34,6.75-2.12c3.61-1.31,8.5-1.45,11.44-4.06,1.82-1.62,1.41-5-1.11-2.74-1.25,1.11-3.36.8-4.93,1.19-2.5.63-4.82,1.85-7.31,2.54a22.11,22.11,0,0,0-4.5,1.51c-1.83,1-3.14,2.85-4.94,3.71-1.51.72-3.42,5.13-.88,3.93Z"></path>
      <path class="cls-1" d="M19.26,339.63l1.08.25-1.72-2,.34,1.51c.22,1,.7,2.36,1.87,2.64C33,345,43.34,353.35,55.65,356.16c5.9,1.35,11.85.28,17.8.81,5.15.46,9.27,3.43,14.42,1.36,1.86-.75.31-5.49-1.48-4.78-5.08,2-10.25-1.3-15.47-1.47-6-.2-11.88.44-17.75-1.22-11.5-3.25-21.44-10.88-33-13.65L22,339.86c-.2-.94-.41-1.87-.63-2.81a2.69,2.69,0,0,0-1.72-2l-1.08-.25c-2-.47-1.15,4.4.7,4.83Z"></path>
      <path class="cls-1" d="M13.24,397.64c3.5,1.39,6.4,1.22,10.07.66s7.4-.55,11.07-1.24c7.66-1.44,14.27-5.47,21.76-7.33a73.1,73.1,0,0,0,11.46-3.37c3.44-1.48,6.78-3.47,10.39-4.47s8.66-1.75,8.82-6.53c.07-2.11-4.64-.58-4.7,1.31-.05,1.57-10.55,4.7-11.8,5.26-6,2.74-12.15,3.82-18.37,5.89-5.21,1.74-9.9,4.43-15.31,5.67-3.25.75-6.43.72-9.71,1.1-3.68.43-6.67,1.37-10.35-.09-1.68-.67-5.63,2.22-3.31,3.14Z"></path>
      <path class="cls-1" d="M49.36,424.6c2.11.2,4,1.52,6.16,1.32s4.33-1.74,6.46-2.53c2.61-1,5.52-1.18,8.06-2.22s4.18-3.32,6.47-4.73c5.42-3.32,11-6.21,16.46-9.34,2.48-1.41,4.67-3.2,7.2-4.53,2.06-1.09,4.07-1.74,5.18-3.92.91-1.8-3.45-4.24-4.34-2.49-1,2.06-3.28,2.58-5.17,3.58-2.35,1.23-4.36,3-6.67,4.29-2.08,1.18-4.34,2-6.44,3.14-2.66,1.47-5,3.4-7.69,4.9a53,53,0,0,0-6.14,4.34c-2.18,1.64-4.45,1.86-7,2.58-2.31.66-4.49,2-6.77,2.59-2.6.69-5.19-.29-7.84-.53-2.84-.26.24,3.38,2,3.55Z"></path>
      <path class="cls-1" d="M96.27,447.39l.23-1.08-1.46,1c4.66-.77,6.66-4.17,10.12-7a59.83,59.83,0,0,0,12-12.6c3.27-4.74,6.61-9.72,8.62-15.15,1.35-3.63,1.43-9.67,4.66-12.2L126,398.73l-.18.71,1.46-1-1,.15c-3.23.5-.08,3.27,2,2.95l1-.15c.59-.09,1.29-.33,1.46-1l.18-.71c.46-1.82-3.42-2.42-4.42-1.63-2.54,2-3.34,5.38-4.16,8.37a51.77,51.77,0,0,1-6,13.84,73.19,73.19,0,0,1-9.64,13.06c-2.07,2.11-4.44,3.67-6.61,5.62s-3.87,4.85-7,5.37c-.58.09-1.32.33-1.46,1l-.23,1.08c-.41,2,4.49,3,4.9,1Z"></path>
      <path class="cls-1" d="M139.62,452.11c3.71-1.4,6.49-5.34,8.79-8.42a24,24,0,0,0,4-6.84,39.77,39.77,0,0,1,4.73-9.92c3.95-6.1,11.21-19.18,2.8-25-1.5-1-6.11,0-3.72,1.7,3.34,2.32,2.6,7.9,1.71,11.33-1.31,5-4.61,9.21-7.32,13.54-2.42,3.88-2.94,8.33-5.52,12.08-2.14,3.11-5.06,7.77-8.74,9.16-2.69,1,1.62,3,3.32,2.39Z"></path>
      <path class="cls-1" d="M182.83,429.9c0-7.62.51-15.45-.1-23A19.1,19.1,0,0,0,175.9,393c-1.55-1.31-5.1,2.19-3.65,3.42,4.81,4.07,6.36,9.11,6.44,15.29.09,6.68,0,13.38,0,20.06,0,2.48,4.15-.08,4.15-1.89Z"></path>
      <path class="cls-1" d="M214.46,412c.64-5.75-3.3-11-6.87-15.16s-9.62-7.7-15.34-7.21c-2.19.19-.72,4.91,1.1,4.76,4.09-.35,8.88,1.68,11.82,4.51,2.49,2.4,6.51,6.92,6.1,10.58-.2,1.79,2.88,5.4,3.2,2.52Z"></path>
      <path class="cls-1" d="M155.76,373.37l.22,1.13a1,1,0,0,0,1.15.85c4.77-.6,11.09-4.79,14.63-7.92,2.65-2.34,4.27-5.48,7.16-7.62,2.72-2,6.17-2.58,9.22-4A65.94,65.94,0,0,1,199.37,352c2.24-.62,5.79-2.08,8.2-1.89,3.3.26,2.21,3.42,2.79,6a18.06,18.06,0,0,1,.89,4.58c-.07,2.41-1.51,4.2-2.12,6.4-.14.49-.3,1.87.6,1.87a24.36,24.36,0,0,0,8.16-1.33c1.72-.58,3.27-5,.5-4a15.68,15.68,0,0,1-6.39,1l.6,1.87c1-3.49,2.64-5.27,2.33-9.19-.16-2-1.12-3.94-1.25-5.94-.07-1.13.38-2.38.11-3.5-1.16-4.84-10.74-.83-13.8,0a67.63,67.63,0,0,0-11.36,3.82c-3.57,1.71-7,2.1-10.18,4.59-6.22,4.85-11.32,13.62-19.9,14.7l1.15.85-.22-1.13c-.47-2.42-4.06.87-3.72,2.62Z"></path>
      <path class="cls-1" d="M290.05,124.91c1-2.53,5-4.57,6.94-6.42,2.35-2.24,4.09-4.85,6.17-7.32,4.68-5.55,9.78-10.9,14.69-16.25C328.1,83.75,338,70.8,354.46,70.71c1.9,0,2.12-5,.3-5-17.1.09-27.34,13.18-38,24.81-5.38,5.86-11.11,11.73-16.09,17.94a50.34,50.34,0,0,1-7.3,7.81c-2.23,1.84-4.39,3.23-5.52,6-.76,1.84,1,5.68,2.22,2.66Z"></path>
      <path class="cls-1" d="M353.2,65.2c-.17-1.5,2-2.62,2.81-3.55a42.64,42.64,0,0,0,3-4.48c2.58-3.75,5.37-8.23,8.63-11.4,2.89-2.81,4.5-6.29,7.21-9.22A52.91,52.91,0,0,1,388.29,26c3.6-2,7.71-3.2,11.14-5.44,3.81-2.49,7.58-4.84,11.57-7.07a81,81,0,0,1,15.19-6.14c5.22-1.66,10.5-3.67,15.87-4.72l-2.47-1.6c-2.51,3.57-6.44,5.69-9.63,8.59s-6.24,5.25-9.52,7.76a49.7,49.7,0,0,0-7.51,6.84c-3,3.45-5.14,7.69-9.54,9.57-3,1.27,1.15,2.57,2.89,1.83,3.32-1.42,5.73-3.88,7.92-6.68a55.28,55.28,0,0,1,10.06-10.31c3.68-2.82,7.11-5.73,10.6-8.77,3.17-2.76,6.78-4.74,9.23-8.24,1-1.49-1.6-1.77-2.47-1.6-5.31,1-10.39,3-15.55,4.54a99.35,99.35,0,0,0-14.93,5.47,97.77,97.77,0,0,0-13,7.41c-4.6,3.25-10.11,5.13-15,8A51.35,51.35,0,0,0,372,34.28c-3.5,3.68-6,7.84-9.48,11.54a88.7,88.7,0,0,0-8.67,11.88,34.68,34.68,0,0,1-4.41,5,3.33,3.33,0,0,0-1.12,3.37c.2,1.8,5.14,1,4.92-.87Z"></path>
      <path class="cls-1" d="M403.43,33.88c0,1.32.32-1,.46-.93a5.18,5.18,0,0,0-.67.27,4.88,4.88,0,0,0-1.46,1,13.07,13.07,0,0,0-2.5,4.42c-.36.84-1,4.3.86,3.88l.78-.17c1.71-.38,2.15-5.32.14-4.87l-.78.17.86,3.88a16.57,16.57,0,0,1,1.17-2.66,3.06,3.06,0,0,1,1.57-1.08c1.81-.84,2.4-2.87,2.36-4.75,0-.78-.21-2.24-1.32-2s-1.48,2-1.46,2.86Z"></path>
      <path class="cls-1" d="M299.48,190.44c0,5.19.45,10.66-.17,15.82-.66,5.51-3.08,11-4.3,16.37-1,4.43-1.79,8.88-2.58,13.36a71.36,71.36,0,0,1-1.47,7.74c-.65,2.21-1.56,3.59-1.21,5.95.28,1.84,3.68,1.53,4.67.59,3.11-2.93,6.88-5.77,9.37-9.25s3.21-7.58,5.74-11c1.93-2.61,3.85-5,4.57-8.27.51-2.33.21-4.68.44-7,.26-2.67,1.37-4.95,2.14-7.47,1.1-3.58.82-7.34,2.09-10.88,1.12-3.12,2.7-6,3.63-9.25.56-1.91,1.43-4.68.06-6.44-1.5-1.93-5.05-2-7.11-2.92-1.56-.68-6.08.89-3.49,2s5.83,1.12,6.27,4.17c.33,2.33-1.84,6.25-2.74,8.4-2.46,5.86-2.81,11.89-4.83,17.89-1.12,3.31-.74,6.46-1.16,9.85-.52,4.2-3,6.84-5.31,10.14-1.94,2.81-2.58,6.07-4.32,9-2.29,3.8-6.48,6.79-9.66,9.79l4.67.59c-.36-2.38.9-4.47,1.45-6.76.48-2,.72-4.07,1.08-6.08,1-5.69,2-11.36,3.39-17,1.06-4.27,2.86-8.4,3.54-12.76.84-5.4.27-11.2.28-16.66,0-1.86-5-1.79-5,.11Z"></path>
      <path class="cls-1" d="M238.27,256.65c5.19-.44,10.74-1.78,14.72-5.3,2.45-2.17,4.73-4.18,7.38-6.13a14.22,14.22,0,0,0,4.44-5.33c3.6-6.92,5.14-14.5,7.51-21.85,2.18-6.75,5.72-13,7.15-20,.38-1.86-4.36-.64-4.74,1.17-1.19,5.78-4,10.95-6,16.45s-3.24,11.55-5.28,17.2a49,49,0,0,1-2.8,6.63c-1.61,3-3.66,4.22-6.22,6.15-1.74,1.31-3,3-4.68,4.41-2.76,2.29-6.57,3.05-10.06,3.35-2,.17-4.66,3.48-1.4,3.2Z"></path>
      <path class="cls-1" d="M270.6,118.11c-5.2-5.26-11.62,9.72-5.5,13.3,3.55,2.08,8.19-1.68,10.14-4.43,1-1.34,2.35-3.61,1.4-5.28s-3.52-1.7-5.11-1.62c-3.18.16-7,2.84-5.56,6.37,1.28,3.19,5.27,5.95,8.69,5.81,4.43-.18,9.48-4,9.94-8.6.2-2-.22-3.93-1.94-5.06a24.19,24.19,0,0,0-3.18-1.32c-1-.49-1.94-1.26-3-1.81-3.94-2.13-8.32,1.06-7.78,5.61.32,2.68,2.9,3.84,5.32,4.26a6.79,6.79,0,0,0,1.89.15c.87-.11,3.12-.9,1.14-.32-.4.12-2.48,1.06-2.29.13.46-2.21-3.83.12-4.17,1.77-1,4.93,11,.74,11.36-4.07,0-.32-.08-.87-.48-1-2.4-.5-6.31.16-8-2A2.24,2.24,0,0,1,273,118q-1.57.52-.24.81a11.51,11.51,0,0,0,2.45,1.49c1.92,1.15,4.65,1.25,5.23,3.75,1,4.17-4,5.15-6.7,3.43a12.17,12.17,0,0,1-2.27-1.92c-.37-.4-1.17-2-1.54-2.2q-.16-1.31-.43.54A11.19,11.19,0,0,1,271,124c2,.61,1.85,2.19.2,3.38-2.62,1.89-4.28-.74-4.36-3.23a10.54,10.54,0,0,1,.29-2.49,7.73,7.73,0,0,1,.39-1.41q-2.25.21-.73,1.09c1.32,1.34,5.06-2,3.8-3.25Z"></path>
      <path class="cls-1" d="M335.26,353.2c3.94-1.32,7.2-4.41,10.61-6.69a32.22,32.22,0,0,0,9.94-10.26,36.15,36.15,0,0,0,4.58-12.82,68.75,68.75,0,0,0,.48-9.36c.07-4,.77-7.89,1.24-11.89,1.45-12.32,15.52-18,22.7-26.83,1.8-2.22,3.36-4.89,5.87-6.39,2.69-1.61,6.19-1.61,9.22-1.79a96.92,96.92,0,0,1,20.29.75,47,47,0,0,1,16.35,5.31c4.25,2.43,9.72,5.81,12,10.29,2.21,4.31,1.23,9.43,1.64,14.07.61,6.85,2.38,13.22.91,20.13A88.75,88.75,0,0,1,445.44,334c-1.44,3.35-3,6.67-5.8,9.11-2.25,2-4.86,3.44-7.16,5.31-2.12,1.73-3.93,3.76-5.91,5.64a62.26,62.26,0,0,1-9,6.52c-6.09,4-12.22,7.91-18.59,11.44s-13.57,8.76-21,9.2c-4,.24-8,1.41-12,.89a50.81,50.81,0,0,1-9.56-2.64c-3.94-1.34-5.81-3.07-8.69-5.9-2.56-2.52-5.61-4.33-8.37-6.61s-4.63-4.28-5.32-7.7c-.78-3.86,0-4.79,3.48-6.23,1.62-.67,3-5.11.35-4-3.43,1.41-6.6,3.32-7.49,7.17a14.14,14.14,0,0,0,3.05,12c2.24,2.54,5.1,4.38,7.79,6.4,2.84,2.13,5,5.08,7.85,7.13,2.45,1.76,5.67,2.33,8.51,3.21,3.25,1,6.53,2,10,1.78a113,113,0,0,0,12.4-1.35c3.55-.62,6.24-2.7,9.31-4.43,7.05-4,14.22-7.55,21.08-11.89,5.91-3.74,12.44-7.28,17.48-12.19a70.34,70.34,0,0,1,8.21-7.23,36.12,36.12,0,0,0,7.07-6c3.68-4.41,5.73-10.13,7.7-15.44,2.25-6.06,4.44-12.08,4.56-18.62.13-7-1.57-14-1.77-21.1-.13-4.54-1-8.46-4.21-11.84-8.95-9.46-22-13.1-34.63-13.84-6.53-.39-14.52-.95-20.87,1-5.26,1.62-8,6.17-11.33,10.12-2.81,3.28-6.29,5.65-9.61,8.36a63.89,63.89,0,0,0-7.39,7.54c-2,2.3-4.29,4.56-5.58,7.39-1.2,2.64-1.11,5.41-1.52,8.24-1.33,9.26.07,19.52-4.22,28.1-2.12,4.24-5.36,7.2-9.25,9.8-2.71,1.81-5.33,4.5-8.44,5.54-1.59.53-3.41,5.08-1.24,4.36Z"></path>
      <path class="cls-1" d="M352.34,367.65c1.83-2.28,3.92-4.38,5.56-6.8,2-2.92,3-6.37,4.35-9.59,2.93-6.77,8.48-12.3,8.39-20.08,0-3.86-1-7.48.5-11.21a65.1,65.1,0,0,1,4.48-8c3.54-5.93,13.67-8.82,20.3-8.08,7.39.82,12.41,6.86,13.69,13.92.52,2.83.37,5.56,1.22,8.33,1.33,4.33,1.1,7.15-.47,11.32-1,2.6-1.81,5.35-3.38,7.67-2.11,3.12-5.6,5-8.74,7-6.52,4-14.26,7.38-21.28,10.51-3.82,1.7-18.29,7.14-19.81.45-.41-1.8,0-3.59-1.35-5.07s-3.76-1.55-5.68-1.54l2.49,1.61a2.41,2.41,0,0,1,1.82-2.23c3.21-.86,1-3.22-1.45-2.57s-4.51,1.6-5.22,4.3c-.36,1.37,1.57,1.61,2.49,1.61,2.58,0,1.64,4.45,2.28,6,.84,2.09,2.43,2.77,4.56,3.19,6.25,1.26,13.49,0,19.35-2.25a118.07,118.07,0,0,0,11.44-5.38c4.17-2.1,8.58-3.73,12.61-6.08,6.73-3.93,11.21-7.46,14-14.81,1.11-2.93,2.49-5.84,2.43-9a16.12,16.12,0,0,0-.88-4.5,38.21,38.21,0,0,1-1.22-7.27c-.78-6.58-4.25-12.72-10.27-15.79-10.72-5.46-28.5-1.2-34.42,9.33-1.73,3.07-4.13,6.18-4.74,9.72-1,5.81,1.17,10.81-1.44,16.54-2.23,4.91-5.48,9.12-7.51,14.16-2.13,5.3-5,9-8.49,13.39-1.52,1.89,3.3,2.52,4.38,1.17Z"></path>
      <path class="cls-1" d="M357.84,354.71c8.73.1,18.48,1.4,25-5.69a58.56,58.56,0,0,0,8.38-12.68c1.86-3.61,3.33-8.2.82-11.89-4.94-7.26-13.47-3.3-17.35,2.39a52,52,0,0,0-3.19,5.55,37,37,0,0,1-5.76,7.84,12.47,12.47,0,0,0-3.45,10.25c.18,1.88,4.36-.67,4.19-2.5-.57-5.89,5.53-9.81,8.16-14.7,1.15-2.15,2.54-6.08,4.6-7.7,3.49-2.75,8.62-.06,9.71,3.78,1.44,5.07-5.21,15-8.82,18.45-5,4.84-13.57,3.15-19.86,3.08-1.7,0-4.79,3.79-2.45,3.81Z"></path>
      <path class="cls-1" d="M370.7,290.23c2.72-.53,4.11-2.28,6.38-3.67,3.18-1.94,6.39-3,9.37-5.38s5.95-6.05,9.72-7.43c3.55-1.3,9.34-1.1,12.6.62,3.09,1.63,5.46,3.16,8.84,4.29a36.52,36.52,0,0,1,9.49,4.9c2.57,1.79,4.81,4,7.41,5.74,3.93,2.67,5.28,5,3.79,9.88-1.19,3.88-3.15,7.48-4.3,11.4s-1.92,7.88-2.66,11.86c-.7,3.76-1.09,7.52-1.64,11.29-.61,4.22-3.31,8.21-5.85,11.58-2.66,3.53-6.41,5.11-9.55,8-2.53,2.35-4.31,5.33-6.91,7.63s-5.21,4.23-7.55,6.69c-4.22,4.44-7.8,8.7-14.47,9-1.67.06-4.82,3.81-2.58,3.72a23,23,0,0,0,15.41-6.74c2.69-2.63,5-5.58,7.84-8a56.31,56.31,0,0,0,7.14-6.59c4.61-5.51,10.91-8.71,15-14.72a48.1,48.1,0,0,0,4.71-8c1.29-3,1-6.35,1.58-9.55,1.42-8.31,2.88-16.71,6.26-24.47,2-4.67,4.45-10.58-.08-14.54a90,90,0,0,0-14.77-10.62c-2.88-1.59-6.16-2.08-9.13-3.44s-5-3.58-8.24-4.14a22,22,0,0,0-17.27,4.06c-3.87,2.87-7,6.62-11.5,8.54a26.32,26.32,0,0,0-4.21,1.79c-1,.63-2.09,2.43-3.2,2.65-1.65.32-4.43,4.2-1.65,3.66Z"></path>
      <path class="cls-1" d="M275.85,399.44c3.88-.19,7.13-2.23,10.92-2.78,5.32-.77,11.88-.3,17.2.47,9.89,1.44,19.86,5.36,29.14,8.93,9.67,3.71,19.55,6.38,29.5,9.23,9.62,2.75,19.84,4,28.62,9.13,4,2.37,5.79,7.56,8.06,11.53,2,3.52,5,5.62,7.37,8.8a15.55,15.55,0,0,1,1.83,12.72c-1.69,4.81-8.21,8.46-12.51,10.68-9.18,4.75-18.93,8.46-28.28,12.87A32.3,32.3,0,0,1,355,484.08c-5,.33-10.13,2.42-15.16,1-7-2-11.31-8.8-15.85-14a31.44,31.44,0,0,0-7-6.35c-4-2.43-8.9-2-13.34-3-8.77-2-20.6-6.73-24.69-15.51-3.55-7.62-4.44-16.38-6.73-24.44-1.56-5.49-2.29-10.26,1-15.38s8.44-4.91,14.07-3.88a41.76,41.76,0,0,1,12.43,3.85c3.69,2,6.9,4,11,5.14,3.76,1.07,7.38,2.61,11.13,3.77,5.23,1.61,8.34,4.79,11,9.42,4.15,7.21,14.05,10.11,13.9,19.54-.07,4.46-1.53,6.42-5.1,8.43-1.64.92-3.37,1.75-5.08,2.53a35.89,35.89,0,0,1-12.88,3.27c-10.65.59-18.71-6.75-24.32-15.21-2.61-3.94-5-8.07-7.86-11.87-2.56-3.43-5.6-5-9.35-6.83-2-1-4.47-1.92-5.76-3.87A27.68,27.68,0,0,1,273,412c-.48-4.47,7.18-6,10.63-5.79,2,.1,3-4.74,1.3-4.83-5.79-.3-13.93,2.58-15.09,9-.73,4.09,1.76,8.82,3.37,12.43,1.83,4.1,5,5.25,8.92,7.14,5.77,2.77,8.6,7.7,12.07,12.83A76.33,76.33,0,0,0,304.6,455.9c3.36,3.23,6.21,5.78,10.87,6.87a30.65,30.65,0,0,0,14.27-.5c6.6-1.68,16.62-5.39,19.17-12.35,3.17-8.64-.52-17-7.39-22.32-2.18-1.68-4-3-5.55-5.37-1.09-1.72-1.91-3.56-3.16-5.19-3.61-4.72-8-5.84-13.35-7.59-5.17-1.68-10.62-3.48-15.36-6.15a47.43,47.43,0,0,0-14.73-5.46c-4.13-.81-9.5-1.69-13.34.57-3.3,1.94-5.85,6.46-7.16,9.91-3.43,9,1.64,19.55,3.27,28.48,1.91,10.52,6.64,18.79,16,24.33a50.29,50.29,0,0,0,14.23,5.43c6.16,1.45,11.34.86,16.32,5.48,6.19,5.73,10.46,14.34,18.75,17.45,4.67,1.75,9,.45,13.73-.24,6.19-.9,11-.94,16.77-3.69,11.31-5.42,24.56-9.26,34.63-16.84,7.54-5.68,10.48-12,9-21.41-.78-5-3.39-7.31-6.73-10.81-4.07-4.27-5.25-10.69-9.32-14.88-2-2-4.68-2.84-7.21-4A58.16,58.16,0,0,0,378.22,414c-7.19-1.74-14.29-3.53-21.4-5.57-13.92-4-27.31-9.25-41.14-13.55-7.08-2.2-13.68-2.88-21-3.14-3.17-.12-6.38-.28-9.47.57s-5.59,2.16-8.77,2.31c-1.73.08-2.67,4.95-.55,4.84Z"></path>
      <path class="cls-1" d="M318.74,413.23c2.41,6.26,9.51,10.3,10.66,17.06,1,6-2.82,22.7-11.73,16.11-3.82-2.83-2-6.55-3.5-10.32-.88-2.27-1.83-4-2-6.44a56.45,56.45,0,0,1-.16-6.8,30.86,30.86,0,0,1,.39-4.48c.35-1.93,1.18-1.93-.63-2,1.74,0,4.91-3.46,2-3.49-6.64-.07-6.35,10-6.31,14.38a26.28,26.28,0,0,0,1.84,10.12c2,5.27.23,10.26,6.35,13.12,8.33,3.89,14.83-4.29,17.34-11.36,1.58-4.45,1.79-10.34-.37-14.63-2.57-5.11-7.5-8.46-9.59-13.89-.62-1.62-5,.75-4.27,2.59Z"></path>
      <path class="cls-1" d="M334.53,408.95c7.8,3,13.64,9.43,21.84,11.84,4.14,1.22,8,2.69,12.06,4.13s8,1.95,11.38,4.81a34.56,34.56,0,0,0,4.24,3.44c3,1.83,4.21,1.41,5.45,5.71.82,2.83,1.09,5.51,2.45,8.2,1.89,3.74,5,7.38,3.28,11.81-.91,2.4-3,4.11-5.13,5.4-8.85,5.36-21,5.81-30.86,8.72-6.63,2-13.19,5.55-20.09,6-2.55.17-14.87.91-14.16-3.67.31-2-2.33-5.27-2.83-2-1.62,10.56,10.39,11.11,17.91,10.62a23.35,23.35,0,0,0,7.73-1.67,119.79,119.79,0,0,1,12.35-4.33c5.37-1.58,10.61-2.83,16.09-3.95,8.26-1.68,20.36-4.22,22.11-14.15,1.3-7.37-3.83-12-5.64-18.61-.77-2.81-.83-5.76-2.41-8.31-1.86-3-5.26-3.61-7.89-5.72-3.44-2.77-5.66-4.63-10-5.9s-8.12-3.25-12.32-4.47c-5-1.44-9.45-2.84-13.89-5.62-4-2.47-7.42-5.44-11.84-7.12-1.8-.68-1.52,4.22.18,4.87Z"></path>
      <path class="cls-1" d="M169.88,477.19l-.12,1.09c-.12,1.07.52,2.25,1.65,1.29,8.13-6.85,21.16-7,31-5.3a62.84,62.84,0,0,1,16.48,5.24c4.87,2.27,10.13,3.5,14.51,6.72A57.08,57.08,0,0,1,246.32,499c3.69,5.16,6.93,10.4,11.31,15,4,4.21,7.61,8.66,11.5,12.94,4.15,4.56,8.9,8.52,13.4,12.72a99.12,99.12,0,0,1,21.59,28.83c5.56,11.6,4.89,23.77.47,35.56-1.75,4.67-2.57,9.62-4.17,14.34-2.11,6.25-6.43,11-10.17,16.29-3.3,4.67-5.22,10.61-9.66,14.35-3.67,3.1-8.34,4.56-12.8,6.13-4,1.4-7.7,2.64-10.82,5.6-3.93,3.74-6.48,8.62-10.59,12.23s-8.32,3.4-13.5,3.39c-6.06,0-12.52-.63-18.51.41-5,.87-9,4.29-14,5-5.4.81-11.19-1.06-16.54-1.92-5.69-.92-10-2.92-13.58-7.53-2.79-3.53-5-7.63-8.68-10.38-4.46-3.36-9.91-2.15-15.09-3.27-5.46-1.18-10.7-1.86-15.69-4.59-4.75-2.6-9-6.06-13.24-9.38-4.62-3.61-9.51-6.77-14.29-10.16-4.57-3.23-8.88-6.79-13.34-10.16-5-3.8-8.52-7.24-10-13.59-2.72-11.77-1.55-25.21-.94-37.19C79.31,566.64,82,561,85.54,555c3.32-5.71,3.55-13,8.42-17.63,10.09-9.63,21.79-17,34.09-23.4,9-4.69,18.45-9.14,25.63-16.44,5.73-5.82,10.95-13.31,17.73-17.94,1.38-.94,2.12-5.58-.24-4-6.48,4.42-11.57,11.48-17,17.1-7.59,7.91-17.52,12.66-27.22,17.61a159,159,0,0,0-32.4,22.23,24,24,0,0,0-7.47,10.74c-1.28,3.86-2.16,7.3-4.22,10.89A70.55,70.55,0,0,0,79,561.63c-4.48,10.48-3.45,22.78-3.59,33.94-.13,10.94-.06,23.31,9,30.86,9.33,7.8,19.66,14.16,29.27,21.55,4.5,3.46,8.87,7.17,13.77,10.06,5.46,3.22,11,4,17,5.34a53.71,53.71,0,0,0,8.49.92c3.94.27,6.53,1.91,9.1,4.82,3.27,3.7,5.5,8.32,9.39,11.46,4.06,3.27,9,3.76,14,4.51,5.83.89,11.26,2.63,17.09.68,2.94-1,5.48-2.84,8.47-3.72,3.15-.93,6.39-.87,9.64-.88,6.28,0,13.53,1.06,19.65-.47,10-2.5,12.65-14.8,21.42-18.92s18-5.21,23.94-13.89c3.5-5.1,6.17-10.54,9.91-15.55a49,49,0,0,0,7.78-14c2.09-6.31,3.75-12.66,6-18.93,1.77-5,1.94-10.13,2-15.37.15-12.14-5.29-22.42-12.16-32.12a104.42,104.42,0,0,0-13.95-16.25c-5.77-5.39-11.63-10.48-16.66-16.6-4.8-5.83-10.48-10.84-14.79-17.08s-8.09-12-13.86-16.79c-5.19-4.33-10-6.43-16.2-9-3.45-1.43-6.69-3.36-10.22-4.6-3.19-1.11-6.51-1.43-9.82-2-10.41-1.88-23.89-1.12-32.4,6.05l1.65,1.29.12-1.09c.36-3.24-2.87-.5-3.08,1.39Z"></path>
      <path class="cls-1" d="M213.87,534.41l-.29-1.43c-.26-1.3-2.1-2.08-3.22-2.26-4.58-.74-8.72-2.91-13.36-3.46-5.31-.62-10.88-.42-16.22-.42-9.59,0-16.82,6.49-23.29,13C151.32,546,147,552.89,145,561.49c-1,4.16-1.56,8.87-.64,13.1a46.67,46.67,0,0,0,1.92,5.16c.82,2.41.69,4.86,1.37,7.29a41.35,41.35,0,0,0,13.59,20.28c6.12,4.68,13.61,6.59,21.18,7.17,9.09.7,16.53-.1,24.33-5,6.49-4.1,14.51-7.89,16.83-15.81,3-10.24,2.91-20.9,2.34-31.46-.25-4.65-1-9.26-3.71-13.15s-7.57-8.07-8.31-12.91c-.25-1.62-4.74-3.47-4.38-1.11,1.06,6.83,8.37,11.13,10.62,17.38,1.46,4.08,1.33,8.57,1.39,12.84s.67,8.67.17,13c-.88,7.59-2,16.1-8.15,21.21-5.37,4.44-13.11,9.71-19.9,11.33-7.4,1.77-17.77.82-24.81-2-8.11-3.29-13.88-11.69-16.62-19.82-1.08-3.2-.92-6.29-2.23-9.48a23.65,23.65,0,0,1-1.14-12.87,40.53,40.53,0,0,1,9.75-20.77,75.94,75.94,0,0,1,11.6-10.6c4.86-3.56,9-5,15.08-4.86,4.58.12,9.26-.22,13.82.36s8.78,2.72,13.36,3.45l-3.22-2.26.29,1.43c.32,1.59,4.83,3.42,4.37,1.12Z"></path>
      <path class="cls-1" d="M204.18,532.06c5.05.09,8.28,1.4,12.39,4.17,3,2,6.36,3.34,9,6,6.24,6.41,4.81,14.35,3.47,22.33s-2.58,15.52-2.42,23.53c.13,6.28-1,12.39-5.37,17.16-4,4.35-9.71,6.56-15.43,7.6a131.79,131.79,0,0,1-25.42,2c-3.67-.06-6.27-.19-8.89-2.69-1.84-1.76-3.57-3.63-5.42-5.38-2.18-2.07-5-5-8.22-5-2.84,0,.52,3.36,2.2,3.33,0,0,3,2.66,3.88,3.57,1.66,1.63,3.26,3.33,5,4.92a14.34,14.34,0,0,0,9.44,4.34c7.38.77,15,0,22.37-.8,5.85-.64,11.69-1.3,17.09-3.79,10.49-4.84,13.66-14.43,13.32-25.31-.24-7.55,1.31-15.17,2.63-22.6,1.14-6.38,2.17-12.76-1-18.74-3-5.62-7.85-8.48-13.09-11.64-2.66-1.61-4.94-3.64-7.86-4.8a27.23,27.23,0,0,0-9.79-1.54c-2.82,0,.56,3.29,2.21,3.32Z"></path>
      <path class="cls-1" d="M281.09,544.43c2.28,5,6.38,9,8.27,14.33,2.54,7.2,3.28,15.82.5,23-3.94,10.13-7.85,22.13-6.05,33.14.39,2.37,2,5.35,1.3,7.73.32-1-2.58,1.62-2.71,1.71-.91.62-1.87,1.19-2.74,1.87-1.88,1.48-3.47,3.29-5.3,4.83-3.33,2.81-7.09,4.95-10.66,7.39-4.21,2.88-7.31,6.63-11,10-5.2,4.66-11.15,3-17.2,5.09-5.17,1.82-6.26,7.73-11.91,8.76-6.91,1.26-14.55.93-21.55,1.14-13.13.4-21.88-9-32.56-15-4.5-2.53-10.05-3-15.11-2.84-6.58.27-15.1,1.15-20.27-4-4.27-4.2-5.92-10.14-9.61-14.73a32.3,32.3,0,0,0-13.6-9.82c-3.51-1.22-6.12-2.14-8.48-5.18a21.52,21.52,0,0,1-4.94-12.43c-.12-2.12-.07-3.7-1.19-5.59-2-3.43-5.12-5.56-6.43-9.58-1.16-3.56-.21-7.1-.81-10.7s-1.41-6.52-1.44-10.25c0-2.83.38-5.55.51-8.36.15-3.28-1.23-6,.43-9.13,1.13-2.12-.31-5.15-1.89-2.18-1.08,2-2.3,4.16-2.49,6.49-.23,2.79.83,5.35.63,8.24-.35,5.11-.79,10.47.45,15.48,1.59,6.45.18,12.49,3.94,18.44A43.43,43.43,0,0,0,92,595.79c1.66,2.12,2,4.33,2.37,6.89a25.19,25.19,0,0,0,2.17,8.18,30.21,30.21,0,0,0,4.84,6.83c2.26,2.36,4.68,3,7.69,4,6.89,2.33,12.37,7.85,15.87,14,3.06,5.42,5.92,11.42,12.31,13.13,2.6.7,5,1.74,7.7,1.88,4.29.23,8.43-.63,12.7-.22,3.34.32,6.38.64,9.4,2.21,2.75,1.43,5.25,3.56,7.93,5.15,6.08,3.62,10.84,7.73,17.87,9.37,6.82,1.59,13.65.4,20.58.27,6-.11,12.21.26,16.41-4.65,1.51-1.77,2.52-3.67,4.78-4.63a15.13,15.13,0,0,1,4.33-.85c2.75-.3,5.83-.19,8.44-1.24,5-2,9-7.06,13-10.52,4.86-4.25,10.78-7.19,15.67-11.45a89.12,89.12,0,0,1,7.39-6.26c1.59-1.11,3.22-2.2,4.06-4,1-2,.75-4.75.46-6.9-.25-1.88-1-3.66-1.29-5.55a38.1,38.1,0,0,1,.28-8.42c.72-7.94,3.72-15,6.11-22.47,2.07-6.51,2-13,.6-19.62a36.28,36.28,0,0,0-3.27-9.72c-1.85-3.56-4.85-6.73-6.48-10.33-.94-2.06-3.41,2.11-2.75,3.55Z"></path>
      <path class="cls-1" d="M170.82,498c5-.6,6.51-5.67,10.92-7.72a66.38,66.38,0,0,1,10-4c2.13-.59,5.65-2.28,7.64-2.05,5.52.63,11.45,6,15.87,9.11A89.73,89.73,0,0,1,230.09,507c1.15,1.28,5.89.21,4.75-1a101.52,101.52,0,0,0-16.07-14.66c-5.12-3.72-10.68-7.54-16.79-9.46a8.69,8.69,0,0,0-6,.18c-3.2,1.1-6.5,2-9.67,3.15a84.08,84.08,0,0,0-9,4,16,16,0,0,0-3.79,2.54c-.74.71-2.33,3.74-2.9,3.81-3,.35-2.82,2.92.2,2.56Z"></path>
      <path class="cls-1" d="M261.57,574.91c.21.05,2.62,3.2,3.08,3.58,2.25,1.88,4.76,3.35,7.15,5s5.52,2.61,7.41,5a21.53,21.53,0,0,0,5,4.71c1.36,1,4-3.24,2.51-4.33a24.86,24.86,0,0,1-4.86-4.65c-1.44-1.72-3.32-2.41-5.23-3.47-2.07-1.15-4-2.69-6-4s-5.32-3.23-5.82-5.49a.82.82,0,0,0-.72-.71l-.74-.18c-1.57-.38-3.8,4-1.83,4.51Z"></path>
      <path class="cls-1" d="M248,603.08c2.69,2.87,5.77,5.13,8.25,8.26,2.8,3.51,4.25,7.77,6.81,11.43,2.33,3.33,4.25,7.07,7.2,9.91,2.14,2.07,3.57,5.66,6.58,6.42,1.65.42,4.45-3.65,2.58-4.13s-2.27-2.18-3.31-3.53c-1.21-1.57-2.91-2.66-4.18-4.18a72.42,72.42,0,0,1-7.24-10.87c-1.67-3.06-3-6.13-5.22-8.89-2.49-3.12-5.56-5.39-8.25-8.26-1.15-1.23-4.49,2.47-3.22,3.83Z"></path>
      <path class="cls-1" d="M220.88,626.9a65.88,65.88,0,0,0,4.39,22.71c2.05,5.09,4,10.74,9.85,12.24,1.68.43,4.94-3.21,3.23-3.65-5.68-1.44-7.55-7.35-9.44-12.31a64.56,64.56,0,0,1-3.9-20.8c0-2.35-4.15.19-4.13,1.81Z"></path>
      <path class="cls-1" d="M172.39,627.92c-3.33,1.56-4.62,6.54-6.46,9.52a23.83,23.83,0,0,0-2.56,5.26c-.42,1.29-.67,4.83-1.48,5.73-1.55,1.73,3.27,2.37,4.37,1.13,2-2.24,1.49-5.94,2.77-8.71.76-1.63,1.86-3.09,2.77-4.63,1-1.73,2.32-5.73,4.19-6.61,1.08-.5.61-1.33-.08-1.84-.91-.67-2.62-.27-3.53.16Z"></path>
      <path class="cls-1" d="M113.83,621.53c3.12-3.4,8.09-5.19,11.66-8.2,4.41-3.72,8.15-8,12.25-12,1.18-1.16,1.34-5.91-.67-3.94-4.09,4-7.84,8.33-12.25,12-3.62,3-8.47,4.72-11.66,8.2-1.1,1.2-1.21,6,.67,3.94Z"></path>
      <path class="cls-1" d="M87.25,586.14a12.43,12.43,0,0,0,3-.76,23.76,23.76,0,0,1,5.16-.19,36.76,36.76,0,0,0,8.74-1.6c7.33-2,12.95-7.25,20.79-7.57,1.92-.08,2.61-5,1-4.9-7.27.3-11.69,4.06-18.24,6.57a43.44,43.44,0,0,1-9.29,2.4c-2,.28-3.72-.05-5.63.08-1.58.11-3,1-4.54,1.06-1.92.09-2.6,5-1,4.9Z"></path>
      <path class="cls-1" d="M88.64,555.27l.11-.74-2.62,2.94c9.18-1.93,18.79-2.15,27.54-5.93,4.33-1.87,8.44-4.24,12.72-6.22,5.43-2.51,10.36-2.77,16.26-2.74,1.74,0,4.14-4.22,2.42-4.23-4.24,0-8.57-.22-12.69,1-4.61,1.32-8.94,3.83-13.21,6-10.15,5.09-20.53,5.68-31.42,8a3.87,3.87,0,0,0-2.62,2.94l-.11.74c-.4,2.81,3.4,0,3.63-1.65Z"></path>
      <path class="cls-1" d="M51.06,132.68c-.06-2.59-.45-5.49.28-8,.6-2.09,2-3.92,2.91-5.88,1.84-3.94,3-8.22,4.5-12.32,3.16-8.95,6.88-18.3,12-26.34a101.73,101.73,0,0,1,18-20.39c6.06-5.36,13.13-8.32,19.89-12.62A74.37,74.37,0,0,1,120.1,41c4.25-1.76,8.66-2.42,13-3.66,9-2.56,18.12-5.32,27.62-4.78,4.18.24,8.27,1,12.43,1.47,5.31.55,9.78.83,14.75,3,4,1.73,8.32,2,12.23,4.11,3.6,2,7.05,4.12,10.73,6a66.51,66.51,0,0,1,13.32,9c3.53,3,6.88,4.53,11,6.46s7.64,5.49,8,10.09a11.19,11.19,0,0,0,3.13,7.28c.62.67,1.53,1,2,0,2.42-5.73-4.63-9.94-8.63-12.29-3.36-2-6.35-4.5-9.69-6.52-4.69-2.84-10.05-4.4-15-6.61a84.81,84.81,0,0,0-14.43-4.8c-5.29-1.3-10.78-1.52-16-2.87-5.62-1.45-10.87-3.79-16.58-5.14a127.08,127.08,0,0,0-15.62-3.16c-10.26-1.1-20.86.69-30.52,4.16a71,71,0,0,0-13.23,5.81c-4.79,2.93-9,6.49-13.92,9.24-4.32,2.43-7.9,6.36-11.67,9.54a38.48,38.48,0,0,0-8,9.85A138,138,0,0,1,66.6,89c-3.12,4.13-4.89,8.9-8,13-6.65,8.91-7.42,19.8-9.71,30.32s-4,19.09,1.05,29.06c.31.61,1.11,1.78,2,1.71a171.46,171.46,0,0,0,21-3.27c6.94-1.54,13.13-5.25,19.51-8.24,12.45-5.82,26.19-7.5,39.2-11.59,13.73-4.32,25.39-13.21,38.5-19.07,6.42-2.86,13.11-5.22,19.2-8.76,6.57-3.82,12-9.27,18.6-13.05s13.88-6.05,20.77-9.09c6.14-2.7,12.89-4.14,17.48-9.37,1.09-1.24-1.51-5.45-2.8-4-5.06,5.77-14.42,7.95-21.34,10.81-8.45,3.51-16.38,6.65-23.75,12.2a104.73,104.73,0,0,1-23,13.59,213.72,213.72,0,0,0-24.64,11.9c-7.49,4.35-14.44,8.32-22.81,10.83s-16.76,4-25,6.45c-8.56,2.49-16.08,6.75-24.22,10.23-8.52,3.65-19,4.94-28.18,5.79l2,1.71c-4.83-9.54-1.34-18.46.49-28.25,1.59-8.47,2.65-17.5,7.74-24.73a105.55,105.55,0,0,0,6.09-10.13c2.26-4.09,5.65-7.47,8.25-11.34C77,82.53,78.71,79,81.09,76c2.61-3.35,6.12-5.79,9.25-8.63C94,64,97.67,62.09,101.7,59.42c3.77-2.5,7.13-5.54,11.15-7.66a79.44,79.44,0,0,1,27.32-8.48c9.89-1.17,19,.53,28.55,2.81a113.86,113.86,0,0,1,13.34,4.06c4.37,1.62,8.74,1.86,13.3,2.6,10.76,1.74,20.89,6.06,30.82,10.38,4.46,1.94,8,5.07,12.09,7.63,1.77,1.11,7.91,3.48,6.9,5.88h2c-1.63-1.76-.68-5.66-1.87-7.92a35.22,35.22,0,0,0-4.94-7c-2.75-2.92-6.76-3.62-10.19-5.41-4.46-2.32-7.77-6.21-11.89-9-3.47-2.38-7.32-4.09-11-6-4-2.1-7.78-5.14-12.15-6.49-2.13-.65-4.41-.75-6.51-1.5s-4-1.94-6.2-2.53c-4.59-1.2-9.5-1-14.19-1.69a76.54,76.54,0,0,0-27.65.89C135.63,31,131,32.84,126.11,34a56.64,56.64,0,0,0-13,4.82c-4.17,2.13-7.91,4.94-12,7.14s-8,3.8-11.51,6.71C82.68,58.34,77,64.89,71.32,71.69c-6.68,7.94-11,18.6-14.53,28.27-2,5.52-3.57,11.33-6.25,16.59-2.5,4.91-2.86,8.31-2.72,13.83,0,1.62,3.32,5.1,3.25,2.3Z"></path>
      <path class="cls-1" d="M144.45,134.43c.1-4.63.34-9.38,5.2-11.4,2.42-1,4.18-1.93,6.71-1.28a14.69,14.69,0,0,0,4.69.79c3-.14,3-2.72,0-2.58-2.7.12-4.87-1.71-7.74-1.25a29.86,29.86,0,0,0-8.22,3c-5,2.56-5.51,7.77-5.62,12.81,0,1.75,5,1.75,5-.07Z"></path>
      <path class="cls-1" d="M148.14,123.19c4.38.25,7.5-4,10.38-6.63,6.25-5.73,13.06-10.92,19.53-16.4,2.3-1.95.57-3.81-1.72-1.87-4.66,3.94-9.37,7.83-14,11.75-1.95,1.63-4,3.2-5.81,4.94-1.56,1.47-3.6,4.48-6,4.34-1.6-.09-4.61,3.74-2.31,3.87Z"></path>
      <path class="cls-1" d="M150.24,125c-.32-3.11,2.36-5.32,3.66-7.88a11.18,11.18,0,0,0,1-5.23c.22-6.83,3.46-12.29,6.29-18.41a24.65,24.65,0,0,0,2.31-6.28c.43-2.7-.18-5.44.12-8.16.32-2.91.9-6.78,2.41-9.3,1.26-2.09,2.9-3.57,3.33-6.06.33-1.89-4.53-1.09-4.83.6-.49,2.77-2.78,4.38-3.86,6.87a32.48,32.48,0,0,0-1.89,8.5c-.35,3,.35,6-.24,8.88-.64,3.18-2.55,6.29-3.92,9.21-2.3,4.9-4.67,9.21-4.62,14.72,0,3.88-1.31,5.4-3.16,8.51a8.14,8.14,0,0,0-1.41,5.34c.17,1.64,5,.57,4.83-1.3Z"></path>
      <path class="cls-1" d="M141.28,123.5l-1.22-.25,2.42,3.1a86,86,0,0,0-4.82-16.28,31.53,31.53,0,0,0-3.12-5.94,25.18,25.18,0,0,1-4-9.7c-1.35-6.58-4.39-16-10.88-19.22-2.54-1.25-1,3.22.46,4,6.64,3.28,6.27,14.35,8.58,20.3,1.32,3.4,3.93,6,5.44,9.3a68.37,68.37,0,0,1,4.8,15.68c.21,1.16,1.13,2.84,2.42,3.1l1.22.25c2.25.46.28-4-1.34-4.31Z"></path>
      <path class="cls-1" d="M147.55,125c-3.34,0-5.44-1.17-8.5-2.36-2.85-1.11-5.9-1.42-8.66-2.8-5.61-2.81-10.27-7.06-16-9.74a114.58,114.58,0,0,0-18.41-6.31c-3.52-1-7-2.43-10.56-3.21-1.52-.33-2.94-.27-4.47-.46a34.82,34.82,0,0,1-5.32-1.55c-1.63-.47-4.32,3.69-2.38,4.25,1.24.36,3,1.34,4.41,1.55,1.89.28,3.48,0,5.38.46,3.56.84,7,2.24,10.56,3.21,7.24,2,14.27,4.12,21,7.6,5,2.59,9.19,6.78,14.41,8.92,3.21,1.32,6.6,2,9.83,3.35a16.25,16.25,0,0,0,6.4,1.34c1.76,0,4.13-4.23,2.38-4.25Z"></path>
      <path class="cls-1" d="M140.13,127.9a60.25,60.25,0,0,0-8.51-.13c-3.48.4-6.68,1.5-10.22,1.6-6.84.2-13.68-.31-20.49.55-7.4.93-14.65,3.15-22.09,3.73-8.36.65-16.95.13-25.33.13-1.76,0-4,4.33-2.22,4.33,7.95,0,16,.3,23.91,0,7.06-.3,13.92-2.26,20.87-3.37,7.71-1.23,15.36-.84,23.12-1a39.79,39.79,0,0,0,7.44-1c3.86-.81,7.37-.6,11.29-.49,1.75,0,4-4.28,2.23-4.33Z"></path>
      <path class="cls-1" d="M153.75,116.68c12.49-.31,20.1-11.55,27.47-20.11,5-5.83,11.43-10.13,16.49-15.92,4.8-5.48,11.51-8.39,16.9-13.18,1.66-1.47-3.15-2.19-4.37-1.12-4.68,4.14-10.62,6.7-15.06,11.11-2.21,2.19-4,4.71-6.31,6.84-2.6,2.4-5.44,4.52-8,6.93-7.86,7.32-15.06,22.55-27.21,22.84-3,.07-2.91,2.69.11,2.61Z"></path>
      <path class="cls-1" d="M459.56,395.21c.31-2.15,4.75-4,6.25-5.65a20.75,20.75,0,0,1,6.62-5.3c2.38-1.13,4.76-2.17,7.09-3.39,9.07-4.75,18.21-9.64,27.53-13.9,4.3-2,10.54-4.92,15.35-4.33,3.7.46,8.36,3.64,11.65,5.54,1.94,1.12,4.19,2.53,4.89,4.82.47,1.52.13,3.51.38,5.1.9,5.78,1.37,10.74.21,16.57-1.86,9.34-6.21,18.06-9.85,26.81a103.79,103.79,0,0,1-14.36,24.11c-5.12,6.59-13.75,12.27-22.06,13.33-9.2,1.17-19.41.41-25.67-7.23a45.46,45.46,0,0,1-7.49-14.37c-1.63-4.78-4.3-9.44-5.56-14.28-2.56-9.83,2.82-20.47,7.52-28.78,1.13-2-3.7-1.48-4.51,0-4.81,8.49-9.89,18.79-8.1,28.83.92,5.13,3.91,9.93,5.59,14.88a51.82,51.82,0,0,0,7.17,14.55c6.28,8.44,16.22,10.18,26.21,9.6A47.36,47.36,0,0,0,500.83,460c3.78-1.29,7.48-4.15,10.84-6.2,4.15-2.53,7.23-6.9,10.05-10.75a95.19,95.19,0,0,0,9.58-15c4.9-10.19,10.11-21.33,12.67-32.37a41.08,41.08,0,0,0,.48-17.43c-.88-4.76-.06-8-4.34-11.11a59.43,59.43,0,0,0-11.86-6.56c-4-1.6-8.47-.76-12.47.42-13.38,3.95-25.92,11.46-38.23,17.87-4.89,2.55-10.43,4.2-14.33,8.24-1.09,1.12-1.57,2.32-2.93,3.31-.93.68-2.11,1-3.05,1.7a5.24,5.24,0,0,0-2.5,3.8c-.27,1.91,4.58,1,4.82-.7Z"></path>
      <path class="cls-1" d="M463.56,428.51c7.67.84,12.8-5.7,16.4-11.64,5.13-8.45,5.72-19.15,6-28.85.06-1.86-4.89-2.45-4.95-.72-.15,4.56-.94,9-1.38,13.57-.38,3.92-.65,7.43-2.4,11-2.06,4.24-7.56,14.66-13.34,14-3-.32-3.4,2.25-.38,2.58Z"></path>
      <path class="cls-1" d="M483.5,439.07c4.41.36,8.08-2.62,11.35-5.21,5.34-4.22,8.81-9.84,12.47-15.48,7.45-11.51,14.06-23.21,14.32-37.27,0-1.8-5-1.9-5-.1-.2,11.45-4.68,21.5-10.61,31.09-2.71,4.39-5.46,8.82-8.48,13-2.23,3.09-9.32,11.74-14,11.36-3-.25-3,2.36-.05,2.6Z"></path>
      <path class="cls-1" d="M539.69,392.77c6.87,2.75,5.62,14.26,3.08,19.47-1.65,3.38-2.28,5.74-4.74,8.69a70.83,70.83,0,0,0-5.16,7.19c-1.75,2.74-3.38,5.49-5.24,8.15-2,2.83-2.62,6.18-4.55,9s-5,5.34-7.32,8a44,44,0,0,1-6.7,6.64c-11.95,8.82-28.79,5.59-42.07,1.77-4.46-1.28-5.38-5.52-6.83-9.34-1.16-3.05-2.66-6-3.8-9-1.43-3.83-1.49-7.66-2.4-11.58-.83-3.58-2.65-6.58-2.39-10.38.12-1.71-4.51-3.48-4.65-1.45-.2,2.84.64,5.15,1.52,7.82,1.24,3.76,1.39,7.62,2.35,11.44a66,66,0,0,0,3.67,9.5c1.37,3.24,2.24,6.79,4.1,9.8,2.92,4.73,6.82,5.49,11.83,6.76,6.18,1.57,12.14,3,18.59,3.17,6.65.17,12.44.39,18.57-2.55,6.3-3,10-7.72,14.78-12.61,2-2,4.21-4,5.7-6.39,1.8-2.92,2.48-6.14,4.55-9s3.81-6.1,5.81-9.1c1.85-2.78,4.24-5.09,6.12-7.79,1.09-1.56,1.46-3.35,2.16-5.09.63-1.58,1.76-3,2.27-4.6.84-2.71.4-6.49.15-9.3-.49-5.45-3.14-9.48-8.27-11.53-2.74-1.1-3.95,1.18-1.11,2.32Z"></path>
      <path class="cls-1" d="M493.28,327c.2-3.67,2.22-6.44,4.48-9.19,1.94-2.37,3.2-5,5-7.52,3.8-5.3,6.74-11,11.6-15.39,5.08-4.62,9.94-9.76,15.37-14,2.93-2.27,5.65-2.95,9.21-3.57s6.84-2,10.37-2.34c6.55-.67,14.78,4.3,20.09,7.78,7.89,5.16,11.93,12.91,11.41,22.27-.43,7.68,0,15.41,0,23.1,0,7.39-.21,13.63-4.92,19.66-4,5.18-9.63,9.64-15.06,13.29-6.77,4.55-15.33,3.4-23.05,3.34-1.69,0,.65,4.22,2.4,4.24,7.48.06,15.58,1.07,22.37-2.78A59.78,59.78,0,0,0,579,351.63c4.86-6.18,5.35-12.28,5.39-19.9,0-9.34.32-18.77.19-28.1-.22-15.33-13.79-24.18-26-30-2.9-1.38-5.66-2.75-8.92-2.93-4-.21-7.7,1.23-11.51,2.08-3.46.77-6.52.88-9.58,2.81-3.49,2.2-6.36,5.35-9.38,8.13-3.64,3.35-7.6,6.51-11,10.1-2.63,2.77-4,6.26-6.15,9.38-2.68,4-5.38,8-8.3,11.74-2.23,2.87-3.91,5.75-4.11,9.43-.09,1.62,3.55,4.88,3.68,2.61Z"></path>
      <path class="cls-1" d="M513.3,361.32c-.4-9.16-7-13.33-12.31-20-2.91-3.64-4.44-8.09-6.82-12.06-1.26-2.1-2.24-3.79-1.83-6.32.36-2.22,1.95-6.58,4.12-7.53,1.73-.75,3.49-4.65.51-3.34-7,3.06-11.23,13.21-7,19.78,3.6,5.67,5.68,11.31,10.46,16.24s8.46,8.72,8.76,15.73c.07,1.72,4.23-.79,4.15-2.55Z"></path>
      <path class="cls-1" d="M514.25,312.86c.37,5.93,1.62,11.41,1.31,17.44-.3,5.85-1.89,11.09-3.85,16.51-.64,1.78,3.74,4.09,4.3,2.54,1.88-5.2,3.44-9.94,4-15.55.64-6.69-.84-12.53-1.25-19.08-.11-1.74-4.61-3.66-4.5-1.86Z"></path>
      <path class="cls-1" d="M540.65,300.41a68.31,68.31,0,0,1,1,24.36,38.14,38.14,0,0,1-4.56,12.63,23.1,23.1,0,0,0-3.08,7.51c-.28,1.7,4.32.16,4.61-1.57.64-3.86,3.31-7,4.86-10.46a38.42,38.42,0,0,0,3-11.38,74.28,74.28,0,0,0-1.34-23.35c-.33-1.51-4.87.4-4.46,2.26Z"></path>
      <path class="cls-1" d="M539.5,378.17c4.07,2,8.69,3.58,13.28,3.15,4.41-.41,6.61-2.56,9.06-5.91,1.32-1.8,3.21-2.92,4.6-4.61a31.32,31.32,0,0,0,3.19-5.31c1.72-3.27,2.88-6.64.89-10-1.18-2-3.35,2.33-2.52,3.74,1.86,3.18-2.37,7.54-4.41,9.47-1.81,1.71-3.51,5.09-5.37,6.4-4.93,3.47-12.44.63-17.24-1.67-1.5-.72-3.17,4-1.48,4.78Z"></path>
      <path class="cls-1" d="M430.2,500.28c-5.86,5-7.64,12.32-11.17,18.88-2.18,4.05-5.34,7.51-7.27,11.7-1.56,3.39-2.23,7.11-3.43,10.63-1.51,4.44-3.89,8.39-5.8,12.64-1.35,3-3.6,5.59-4.62,8.71A127.92,127.92,0,0,1,393.25,576c-1.44,3.18-3,5.76-3,9.35,0,1.11.85,3,2.05,3.36,4.71,1.3,9.64-5.41,12.72-8.17,5.94-5.33,13-9,17.69-15.65s10.68-12.73,14.93-19.73c3.66-6,4.5-13.27,4.61-20.18.14-8.37,3.2-15.78,4.73-23.9.87-4.59,1.87-11.3-1.67-15.11-4.68-5-9.3,2.08-12.78,4.78-6.59,5.12-14.39,7.85-21.23,12.42-5.63,3.76-9.48,9.61-14.16,14.39-2.83,2.89-5.84,5.67-8.13,9-2.64,3.88-4.2,8.35-6.91,12.21-2.21,3.15-4.87,6-6.68,9.42-2,3.68-3.35,7.78-5,11.6-2.92,6.83-.48,12.74,1.58,19.44,1.82,5.9.24,12,5.82,16,4.21,3.06,9.78,4.57,14.83,5.44,6.42,1.11,12.46-.89,18.2-3.71,3.18-1.56,5.27-4,8.13-6s5.95-3.08,8.18-5.64c2.6-3,4-7.23,5.51-10.84a102.19,102.19,0,0,1,6.72-13.72c2.69-4.37,5.06-8.89,7.5-13.4,1.9-3.51,4-6.88,4.61-10.87.75-4.67.29-9.53.1-14.22s.23-9.23-.27-13.77a32.86,32.86,0,0,1-.25-6.74,10.9,10.9,0,0,0,.2-3.5,4.24,4.24,0,0,0-4.9-3.39c-2,.28,0,4.83,1.62,4.59l1.71.19-1.64-3.13c0,2.34-.71,4.41-.53,6.77.25,3.32.69,6.45.67,9.8,0,7.15,1.55,15.08-.24,22.1-1.6,6.26-6.24,13-9.52,18.53a149.56,149.56,0,0,0-9,17.56c-1.42,3.32-2.71,7.36-5.18,10.1-1.77,2-4.17,3-6.38,4.36-2.51,1.55-4.38,3.8-6.82,5.41a38,38,0,0,1-8.27,3.78,24.57,24.57,0,0,1-15.45.31,37.75,37.75,0,0,1-7.1-2.56c-3.71-1.86-3.46-4.36-4-7.91-1.13-7.7-6.06-14-2.7-21.83,2.69-6.3,5.21-12.1,9.35-17.59,3.87-5.13,6.05-11.2,9.92-16.28s8.95-9.51,13.2-14.4A41.78,41.78,0,0,1,420,504.26c5.9-2.95,12.15-6.4,17-10.88,1.73-1.58,5.4-7.38,7.34-2.25.92,2.44-.56,6.77-1.1,9.13-1.38,5.94-3.61,11.68-4.18,17.78-.7,7.51,0,14.88-3.59,21.85-3.42,6.58-9.2,11.85-13.48,17.85a59.37,59.37,0,0,1-5.56,7.44c-3.09,3.15-7.15,5.16-10.51,8-2.44,2.05-4.83,4.19-7.2,6.31-1.87,1.67-4.43,5.61-7.33,4.81l2.05,3.36c0-4,2.77-7.83,4.16-11.56.71-1.92,1.67-3.75,2.35-5.68.76-2.15.82-4.38,2-6.39a115,115,0,0,0,9-17.79c1.26-3.4,1.93-7,3.24-10.37,1.61-4.14,4.56-7.46,6.81-11.23,3.92-6.58,5.48-14.74,11.52-19.92,1.44-1.23-1.11-5.47-2.32-4.43Z"></path>
      <path class="cls-1" d="M386,563.11c3.75-4.89,3-11.32,6.61-16.44,3.37-4.78,6.53-8.24,6.68-14.24,0-1.74-4.46-3.75-4.51-1.84-.15,6.21-4.14,9.91-7.41,14.88-3.09,4.7-2.26,10.65-5.67,15.11-1,1.37,3.15,4,4.31,2.53Z"></path>
      <path class="cls-1" d="M426.61,506.26c3.12-1.27,4.65-4.69,7.08-6.85s5.35-4.26,5.62-7.78c.07-.93-.19-2.79-1.17-3.25s-1.46.28-1.54,1.25c-.19,2.43-3.86,4.4-5.42,6-1.79,1.79-3.18,4.78-5.62,5.78-1.75.71-.48,5.52,1.05,4.89Z"></path>
      <path class="cls-1" d="M392,580.46c-6.11.15-11.32,2.92-16.12,6.53-1.18.89-1.24,3.63-.14,4.58,3,2.54,7.46,2.48,10.88.79,2.23-1.1,3.94-2.95,6.18-4.07a13.68,13.68,0,0,0,4.67-3.13c1.08-1.2.57-6.07-.89-4.43-2.13,2.39-5.75,3.58-8.37,5.51-3.28,2.43-7.94,3.47-11.3.6l-.14,4.58c4.36-3.29,9.17-5.84,14.73-6,1.88,0,2.22-5,.49-5Z"></path>
      <path class="cls-1" d="M415.92,527.74c5.18-.1,13.08-3.74,15.1,3.19.93,3.18.63,6.42,3.07,9,2.25,2.37,2.28-1.84,1-3.22-1.15-1.21-1-4.91-1.54-6.6a13,13,0,0,0-2.87-5.25c-4.66-4.78-10.43-1.89-16.11-1.78-1.95,0-.32,4.7,1.38,4.67Z"></path>
    </g>
  </g>
</svg>
