<?xml version="1.0" encoding="UTF-8"?>
<svg xmlns="http://www.w3.org/2000/svg" viewBox="0 0 284.16 328.93">
  <defs>
    <style>.cls-1{fill:none;}.cls-2{fill:#8faedb;}</style>
  </defs>
  <title>Asset 52</title>
  <g id="Layer_2" data-name="Layer 2">
    <g id="Map">
      <rect class="cls-1" width="284.16" height="328.93"></rect>
      <path class="cls-2" d="M92.15,250.91c13.67,0,27.42.7,41-.93,12-1.44,23.13-7.26,33.91-12.11,3.55-1.6,8.28-3.08,10.66-6.37s2.52-9.44,2.51-13.39c0-5.88-1.27-11.63-2.45-17.35-.94-4.59-.61-10.4-5.54-12.07-1.79-.61-4.18,3.71-2.69,4.22,4.23,1.43,4.29,8.53,5.16,12.34,1.15,5.06,2.22,10.53,2.07,15.75a29.38,29.38,0,0,1-.86,7c-.88,3-2.87,3.25-5.42,4.4-3.87,1.75-7.57,3.75-11.38,5.6-20.52,10-42.8,8.56-64.94,8.53-1.75,0-3.85,4.44-2,4.44Z"></path>
      <path class="cls-2" d="M171.41,189.5a15.74,15.74,0,0,0-6.58,1.79,55.09,55.09,0,0,1-12.65,3.83c-8.64,1.65-17.11,4.16-25.76,5.82a256.65,256.65,0,0,1-52.54,4.53c-2.38,0-4.47,2.56-1.1,2.62,8.19.14,16.16-.31,24.31-.64,4.13-.16,8.15-1.35,12.27-1.63a101.21,101.21,0,0,0,12.19-1.35c9-1.68,18-3.52,26.81-5.76,4.17-1.05,8.52-1.53,12.63-2.77,2.75-.83,6.48-3.84,9.31-3.88,2.33,0,4.48-2.63,1.1-2.58Z"></path>
      <path class="cls-2" d="M69.06,208.35c3.66,4.63,2.07,12.36,3,17.81.85,5.07,1.2,10.75,3.1,15.61,3.55,9.09,15.89,10.39,24.21,8.5,2.21-.5-1.62-3.52-3.24-3.15-5.8,1.31-14,1.17-16.7-5.16-1.62-3.84-1.49-8.28-2.19-12.31-1.12-6.52.2-15.87-4.16-21.38-1-1.29-5.74-2.13-4,.07Z"></path>
      <path class="cls-2" d="M170,188.81l-.46,0,3.41,3.25c2.45-2.51.74-5.46-.32-8.24-2.07-5.42-1.46-11.76-1.49-17.49,0-5.22.88-10.41.88-15.68,0-6,.09-12,.11-18a61.77,61.77,0,0,0-1.73-14.57c-1-4.22-1.55-8.8-3.31-12.79-3.21-7.27-12.12-11.06-19.48-12.46-2.74-.52.21,3.25,1.81,3.55,5,1,11.48,3.41,13.71,8.37,1.53,3.4,1.93,7.45,2.77,11.06,2.17,9.31,1.78,18.3,1.78,27.79,0,8-.92,16-.78,23.94.06,3.72-.27,7.48.36,11.17.53,3.09,4.08,8,1.61,10.49-1.32,1.35,2.42,3.33,3.41,3.25l.46,0c2.27-.19-1.06-3.74-2.74-3.6Z"></path>
      <path class="cls-2" d="M164.65,191.56c2.14-3,.57-7.16-.13-10.56a70.35,70.35,0,0,1-.9-15.39,82.77,82.77,0,0,0-1-16.21c-1-5.53-.33-11.23-.87-16.9-.52-5.44-.59-11.09-1.41-16.48-.43-2.82-1.84-5.22-2.72-7.91a58.28,58.28,0,0,0-1.88-5.92c-1.47-3.28-3.54-8.71-6.5-10.88-2-1.46-4.54-1.64-6.68-2.74s-3.27-2.57-5.72-2.62c-1.62,0-4.94,3.56-2.72,3.61s3.7,1.81,5.61,2.68c2.18,1,4.85,1.24,6.61,3,1.4,1.43,2,3.63,2.91,5.37a41.08,41.08,0,0,1,3.24,6.88c1.33,4.31,3.46,8.58,3.67,13.1.26,5.33,1,10.64,1.45,16,.37,4.84-.45,9.75.48,14.47a71.49,71.49,0,0,1,1.29,13.2c0,5.34.25,10.46.53,15.75.1,1.87.62,3.44.86,5.27.11.88-.16,1.81,0,2.68s1.15,2.28.48,3.23c-1.89,2.66,2.27,2,3.39.38Z"></path>
      <path class="cls-2" d="M152.45,195.62c-.11-6.1-1.49-11.52-3-17.38-1.61-6.11-2.23-12.42-3.66-18.56s-.81-12.13-1.46-18.28,1.4-12.29.52-18.44c-.84-5.84,0-12-1.57-17.73a77.81,77.81,0,0,0-5.29-15c-2.43-4.86-4.75-6.89-9.86-8.68-3-1-7.36-1.72-10.06.41-1.27,1-2.27,5.7-.09,4,3.19-2.52,10.89.53,13.4,2.65,3.44,2.9,6,9.46,7.07,13.64a65.87,65.87,0,0,1,2.23,17c0,5.47,1.2,10.59.6,16.16-.51,4.77.12,8.9.2,13.66.09,5.17,0,9.49,1.22,14.57,1.23,5.31,1.84,10.75,3.06,16.07,1.42,6.17,3.22,11.66,3.34,18.1,0,2.86,3.41-.45,3.38-2.17Z"></path>
      <path class="cls-2" d="M104.44,85.48l-.69-.17.56,1.21q-.69.45-.09.22a5.4,5.4,0,0,1,.82-.18c.37-.07.74-.11,1.11-.16a13.85,13.85,0,0,1,2.11-.1c1.45,0,4.61.06,5.18,1.74s5.15-.31,4.54-2.1C117,83,111.6,83,109.1,83.13c-2.79.13-8.31.7-9.26,4-.15.53-.06,1.06.56,1.21l.69.17a3.78,3.78,0,0,0,3.3-1c.51-.52,1.23-1.73.05-2Z"></path>
      <path class="cls-2" d="M99.23,85.64C89.84,85.47,87,95,87.3,102.72c.22,5.69-.22,11.36.5,17,.78,6.17,1.92,12.45,3.07,18.55,1,5.37,1.59,10.73,3.18,15.95A138.71,138.71,0,0,0,99.95,170a82.15,82.15,0,0,1,5.92,18.74c1.06,5.69,1.55,11.76,4.43,16.88.59,1.05,5,2.33,4.91.3a20.48,20.48,0,0,1-.06-2.05c0-1.95-5-2.46-5-.67a20.48,20.48,0,0,0,.06,2.05l4.91.3c-5-8.84-4.07-20.18-7.63-29.64-3.66-9.73-9.09-18.69-10.36-29.18-1.25-10.31-4.4-20.57-4.85-31-.22-5.06-.14-10.18-.24-15.24-.09-4.49,2.43-12.3,8.12-12.21,3.36.06,1.43-2.66-1-2.7Z"></path>
      <path class="cls-2" d="M112.57,89.69c0,1.43.4,1.47.94,2.6,1,2.06,1.89,4.19,2.69,6.35,1.88,5.1,2.22,10.48,3.08,15.82s.61,10.48,1.32,15.76a120.38,120.38,0,0,1,1.1,15.22c0,4.42,1.15,8.79,1.54,13.16a148.41,148.41,0,0,1,.76,15.63c-.15,10,2.07,18.93,3.88,28.68.41,2.2,3.43-1.62,3.13-3.27-.86-4.61-1.9-9.12-2.7-13.73a83.69,83.69,0,0,1-1-15.9c.13-10-2.33-19.66-2.26-29.56,0-4.69-.82-9.42-1.37-14.07-.53-4.48-.18-8.84-.95-13.33-.88-5.12-1-10.52-2.62-15.5-.7-2.2-1.56-4.37-2.44-6.5-.42-1-1.83-2.74-1.82-3.71,0-2.8-3.22.68-3.25,2.34Z"></path>
      <path class="cls-2" d="M92.71,89.2c-3.79-.09-9,3.79-12.15,5.6-4.17,2.43-7.8,5.34-9.5,10-1.88,5.15-1.2,11.24-.95,16.61a146.67,146.67,0,0,0,2.74,21c2.51,13,7.65,25.32,10.7,38.25,1.42,6,2.27,12,4.77,17.69,1.25,2.85,2.5,8.76,5,10.71,1.07.85,2.32-.48,2.66-1.49a13.94,13.94,0,0,0,.86-4c.23-3.27-3.16-.75-3.31,1.33l-.25,1.48L95.9,205c-1.94-1.54-2.74-6.18-3.82-8.45-2.51-5.28-3.66-10.8-4.86-16.48-1-4.79-2.46-9.49-3.84-14.18-1.47-5-2.61-10.2-4.4-15.05-3.7-10-5.11-21.23-5.62-31.86-.33-7-1.25-14.34,5.38-18.69,2.45-1.6,5.09-2.78,7.66-4.16,1.63-.87,3.15-2.23,5.09-2.19s3.34-4.68,1.21-4.73Z"></path>
      <path class="cls-2" d="M72.38,102.48c-8.54,4-16.4,7.29-18.88,17.36-1.19,4.84-2.9,10.2-3.06,15.21-.17,5.46,3,9.9,4.64,14.89a30.65,30.65,0,0,0,2.27,5.53c1.93,3.46,2.29,6.53,2.79,10.39a190.19,190.19,0,0,0,4.11,20c.63,2.63.79,5.25,1.25,7.91.49,2.84,1.61,5.51,2.3,8.3.81,3.23,1.66,8.19,5.8,8.35,1.92.07,4-4.42,1.92-4.49-3.93-.14-4.61-8.42-5.52-11.35-1.34-4.26-1.53-8.82-2.61-13.17-1.28-5.16-2.33-10.4-3.25-15.63-.77-4.37-.65-8.74-2.83-12.72-1.88-3.43-3-7-4.57-10.62-2.47-5.65-3.08-9.66-1.51-15.68,1.06-4.07,1.55-9.06,4-12.6,2.85-4.15,8.65-5.53,13-7.57,1.66-.78,2.83-5.32.18-4.07Z"></path>
      <path class="cls-2" d="M81.59,220.94c8.47,0,16.94,0,25.42.06,7.29,0,13.49-1.77,20.55-3.12,14-2.68,26.05-12,39.82-15.51,1.8-.46,3-5.22,1.14-4.75-6.52,1.66-12.76,4.44-18.9,7.16-6.7,3-13.7,6.89-20.93,8.34-7,1.41-13.32,3.17-20.55,3.12q-12.71-.07-25.42-.06c-1.85,0-3.29,4.75-1.13,4.75Z"></path>
    </g>
  </g>
</svg>
