<?xml version="1.0" encoding="UTF-8"?>
<svg xmlns="http://www.w3.org/2000/svg" viewBox="0 0 284.16 256.49">
  <defs>
    <style>.cls-1{fill:#fff;}.cls-2{fill:#8faedb;}</style>
  </defs>
  <title>Asset 59</title>
  <g id="Layer_2" data-name="Layer 2">
    <g id="Map">
      <rect class="cls-1" width="284.16" height="256.49"></rect>
      <path class="cls-2" d="M58.44,103.81c-2.89.22-24.7,5-19.64,10.94.81.95,2.26.94,3.33,1.33a55.76,55.76,0,0,0,7.68,2.64c5.72,1.21,11.49,2.18,17.21,3.36,11.7,2.41,24.22,3.15,36.13,3.12,5.66,0,11.47.39,17.11-.24,5.36-.59,10.61-2,16-2.19l-1.46-2.12c-1.83.24-3.64.64-5.47.88-2.43.32,0,2.31,1.46,2.12,1.83-.24,3.64-.64,5.47-.88,2.5-.33-.09-2.17-1.46-2.12-8.32.3-16.28,2.41-24.67,2.41-10.44,0-20.56-.55-30.94-1.45a228.75,228.75,0,0,1-28.31-4.73,49.2,49.2,0,0,1-6.1-2.08,16.67,16.67,0,0,1-2.22-.69c-.85-1.28,1.28-3.09,2.09-3.63,4-2.67,10.47-4.23,15.24-4.59,2.44-.18,0-2.21-1.47-2.1Z"></path>
      <path class="cls-2" d="M122.86,95.15c7.8.16,13.84,4.28,19.51,9.37,2.55,2.29,5.67,4.18,7.64,7a59.65,59.65,0,0,1,5.49,10.16c3.19,7.25,4.1,14.8,6.2,22.32,2.18,7.81,4.05,14.85,7.77,22.15,1.61,3.15,3.69,6,5.42,9.11,1.56,2.77,2.73,5.59,4.66,8.13,4.65,6.09,8,12.84,11.95,19.35a33.22,33.22,0,0,1,3.31,7.1c.83,2.54,1.45,2.35-1.12,2.77-1.64.27-3.22-.25-4.89.12-6.46,1.41-11.25,6.67-16.06,10.75-1,.87-.25,4.46.8,3.57,3.13-2.66,5.94-5.8,9.53-7.85a30.13,30.13,0,0,1,5-2.39c2.41-.81,4.43-.3,6.85-.46,5.42-.36,3.48-4.69,1.8-8-3.35-6.67-6.71-13.23-10.49-19.72-2.11-3.63-5-6.7-7.14-10.28-2.25-3.81-4.27-7.8-6.53-11.63-5.16-8.76-8.18-18.58-10.14-28.5-1.51-7.67-3.42-14.94-7-22-3.7-7.34-8.05-11.82-14.5-16.77-5.81-4.47-10.84-7.87-18.38-8-1.33,0-1.16,3.71.27,3.74Z"></path>
      <path class="cls-2" d="M119.74,122a100,100,0,0,1,15.1.77c2.79.42,4.48,1.88,6.73,3.47,1.48,1,4.94,2.42,6.08,3.87.81,1,4.32-.18,3.39-1.36-1.26-1.59-3.5-2.18-5.17-3.27-2.23-1.45-4.37-3.77-6.94-4.55-5.39-1.63-12.2-1-17.75-1.05-1.42,0-3.87,2.12-1.43,2.12Z"></path>
      <path class="cls-2" d="M159.19,223c-2.3-.08-7.36.56-8.27-1.64-.4-1,.14-2.93,0-4-.3-2.42-1.52-4.62-1.85-7a73.15,73.15,0,0,1-.53-8.09c-.24-9.51-1.13-18.93-1.33-28.46s-1-19-1.61-28.52c-.46-7.07.34-15.36-3.91-21.5-1.28-1.84-3-.81-1.71,1.07s2.39,7,2.48,9.54c.08,2.07.46,4,.55,6.12.21,4.89.56,9.82.74,14.73.08,2.18-.35,4.41-.11,6.58.32,2.9.84,5.69.9,8.65.11,5.63.1,11.3.35,16.9.22,5,.73,10.24,1.11,15.28a63.63,63.63,0,0,0,.68,7.82c.49,2.42,1.66,4.57,1.72,7.1s-.9,5.15,1.11,7.17c2.47,2.48,8.11,1.54,11.14,1.65,1.41,0-.09-3.3-1.46-3.35Z"></path>
      <path class="cls-2" d="M36.64,115.62c.14,2.43,1.64,4.77,2.71,6.92,2.56,5.16,5.14,9.64,6.06,15.37.78,4.84.54,9.33.81,14.21.13,2.35.9,4.55,1,6.93.11,2.89-.17,5.79-.11,8.67,0,1.8,3.09-.18,3.07-1.46-.1-4.66.15-9-.6-13.57s.33-9.34-.56-14a56,56,0,0,0-3.95-13.24c-1-2.29-2.61-4.36-3.57-6.66-.25-.6-1.81-4.81-1.8-4.64-.1-1.79-3.13.22-3.06,1.47Z"></path>
      <path class="cls-2" d="M45.93,161.78c.11,2.48,1.12,4.74,1.76,7.12a30.18,30.18,0,0,1,.88,7,47.4,47.4,0,0,0,3.18,14.73,43.7,43.7,0,0,1,3.15,8.85,26.58,26.58,0,0,0,2,7c2.18,4.3,6.1,7.47,10.22,9.79,9.85,5.55,21.1,4.9,32,6.09a91.4,91.4,0,0,0,17,.53,78.19,78.19,0,0,0,8.61-1.59c1.95-.4,4.34-.23,6.07-1.29l-3.16-.13.12.13,2.17-1.46h-.32c-1.81-.06-3.32,1.92-.8,2h.32c.43,0,3-.5,2.17-1.46l-.12-.13c-.77-.86-2.27-.66-3.16-.13s-4.19.54-5.29.78A38.46,38.46,0,0,1,113,220.9c-5.53-.24-11.06-.77-16.59-.93-10.51-.31-22.28-1.18-30.73-8.12-4.17-3.42-6.12-7.52-7-12.74-.8-4.56-3.52-8.27-4.43-12.76a117,117,0,0,1-1.9-13.68c-.32-3.84-2.48-7.46-2.65-11.27-.06-1.33-3.79-1-3.73.38Z"></path>
      <path class="cls-2" d="M128.73,220.76c2.21-1.94,5.44-2.9,7.86-4.64a23.6,23.6,0,0,0,6-5.88c3.75-5.54,2.53-11.34,2.53-17.72,0-3.46.29-7.06-.22-10.49-.39-2.63-1.17-5.22-1.47-7.85a21.27,21.27,0,0,1,.26-6.53c.44-2.09,1.86-3.4,2.61-5.24a8.43,8.43,0,0,0,.51-4.33c-.21-2.51-2.12-.95-2,.86.11,1.36-1.76,3.67-2.24,5a22.22,22.22,0,0,0-1.19,6c-.42,5.62,1.32,10.42,1.69,16s1.33,16.78-1.75,21.55c-3.31,5.13-9.14,6.22-13.39,10-.94.83-.54,4.47.79,3.3Z"></path>
      <path class="cls-2" d="M69.69,218.1c-.24,5.83,2.27,12.3,8.32,13.63,10,2.18,21.54,3.45,31.68,2.18,4.33-.54,8.72-1,13-1.66,3.59-.58,7.34-1.21,10.24-3.57,4-3.22,3.38-9.32,4.26-14,.33-1.77-3.08-.51-3.31.73-.75,4-.38,10.89-4.68,13.14-3.44,1.8-8.16,1.37-11.89,1.75s-7.23,1.29-11,1.32A139.34,139.34,0,0,1,82,229.53c-3.84-.64-5.91-1.72-7.44-5.37a17.52,17.52,0,0,1-1.43-7.4c.06-1.4-3.35,0-3.4,1.33Z"></path>
      <path class="cls-2" d="M47.82,141.3l-.15-.64c-.07-.32-.49-.43-.75-.5a11.42,11.42,0,0,0-5,0,2.4,2.4,0,0,0-2,1.4c-.58,2,0,4.56,1.82,5.67a9.76,9.76,0,0,0,5.81,1.19c.65-.08,1.92-.62,2-1.41s-1.07-.84-1.64-.76a7.25,7.25,0,0,1-3.28-.94c-1.35-.9-1.48-3-1.07-4.39l-2,1.4a7.23,7.23,0,0,1,3.23.07l-.75-.5.15.64c.3,1.3,3.88.2,3.55-1.2Z"></path>
      <path class="cls-2" d="M30.71,145.62c1.2-.66,1.91-1.87,2,1a12.91,12.91,0,0,1-.34,1.87c-.32,1.9-1.1,3.9-1.18,5.84-.14,3.14,2.64,8.29,6.15,8.48,3.35.18,5.36-3.05,6.21-5.83.78-2.53,2.5-8.32.67-10.84a.78.78,0,0,0-1.06-.23l-.3.12c-1.17.48-2.53,3.76-.55,3l.3-.12-1.06-.23c.78,1.07.39,3.37.28,4.45-.21,2.09-.39,5-2.39,5.83-2.51,1.06-3.24-1-4.27-3-1.34-2.57-.74-4.13-.21-6.81.33-1.64,1.14-4.58.55-6.22-.88-2.44-2.63-1.09-4.2-.23-1.07.59-2.37,4-.55,3Z"></path>
      <path class="cls-2" d="M31,142.68c-3.07,2.72-2,8.21-2,11.78s.84,8.85,4.24,10.93,8.48.49,11.06-2.33c3.26-3.56,3.64-8.93,3.94-13.5.16-2.45-2.2-.34-2.31,1.11-.17,2.29-.31,5.72-1.22,7.82-1.53,3.53-6.51,5.56-9.9,3.4-2.43-1.55-3.09-4.7-3.38-7.37-.12-1.08-.88-8.23-.17-8.86.93-.83,1.27-4.39-.31-3Z"></path>
      <path class="cls-2" d="M45.66,147.55c-1.84,3.3-8.18,2.78-10.92,1.22-1.15-.66-4.13,1.52-2.89,2.24,4.9,2.8,13.83,1.82,16.81-3.53,1-1.87-2.38-1-3,.08Z"></path>
      <path class="cls-2" d="M31,144.66c-1.37-2.33.28-4.91,1.89-6.59a7.24,7.24,0,0,1,5.94-2.42,17.86,17.86,0,0,1,5.55,1.08c1.33.56,1.93,1.72,3,2.59,1.63,1.29.92-2.24,0-3,.92.72-.81-1.35-1.23-1.73a6.92,6.92,0,0,0-3-1.36c-2.74-.74-5.89-1.49-8.7-.7a9.07,9.07,0,0,0-5.19,13.06c1.13,1.93,2.92,1,1.77-.95Z"></path>
      <path class="cls-2" d="M172.34,223.12c-.71,1.8-5.93,2.2-7.58,2-4.24-.43-4.51-3.69-4.64-7.09a124.22,124.22,0,0,0-1.79-13.87c-.18-1.2-3.32-3.09-3.07-1.43.65,4.24,1.2,8.33,1.51,12.58.24,3.36,0,7,2.07,9.89s5.72,3.06,9.07,2.81c2.24-.17,6.46-.4,7.45-2.91.46-1.17-2.48-3.43-3-2Z"></path>
      <path class="cls-2" d="M122.44,120.09l0,.17,2.35-1.79c-6.86.8-14.07.34-21-.15-7.05-.51-14.12-.35-21.17-.86s-14.37-1.52-21.29-2.73c-1.91-.33-7.9-1.12-9.29-2.57-.55-.57-.94.06-.15-.78.61-.65,2.72-.87,3.46-1a31.85,31.85,0,0,1,6.79-.74c1.3,0,3.59-2.64,1.43-2.66a27.77,27.77,0,0,0-12.28,2.4c-1.21.61-4.64,2.27-4.14,4.11.44,1.64,6.9,2.77,8.43,3.15,4.59,1.14,9.37,1.46,14.05,2s9.23,1.5,13.94,1.63,9.5.1,14.26.42c8.42.56,17.07,1.37,25.47.39a2.89,2.89,0,0,0,2.35-1.79l0-.17c.43-1.68-2.95-.28-3.26.94Z"></path>
      <path class="cls-2" d="M144.15,103C146,93.87,146,83.54,149.88,75A75.26,75.26,0,0,1,161.72,57.4s-3-1.73-3.61-1A74.86,74.86,0,0,0,146.27,74c-3.88,8.51-3.9,18.82-5.73,27.95-.12.61,3.52,1.48,3.61,1Z"></path>
      <path class="cls-2" d="M90.69,99.11c3.78-5,7.35-11.08,12.06-15.22,5.08-4.47,11.6-7.52,17.4-10.94,5.2-3.08,10.92-6.2,15.11-10.65C139.62,57.68,143,52,147,47c.93-1.16-1-4.32-2.09-3-3.91,4.87-7.28,10.35-11.47,15-4.61,5.08-11.29,8.47-17.14,11.88-5.18,3-10.76,5.85-15.36,9.75C96.1,84.76,92.46,91,88.61,96.1c-.9,1.18,1.08,4.33,2.09,3Z"></path>
      <path class="cls-2" d="M143.75,53.1c.5-.75,3.13-1,3.72-1a7,7,0,0,1,4.32,1.15c2.19,1.57,2.43,4.63,2.52,7.16.06,1.62,3.81,1.64,3.75.05-.18-4.69-1.47-8.82-6.4-10.18-3.31-.91-9.35-1.12-11.52,2.15-.9,1.36,2.76,1.95,3.61.68Z"></path>
      <path class="cls-2" d="M142.91,52.29c.79-2.67-.48-5.64.26-8,1-3.09,4.08-6.42,5.84-9.06,2.15-3.22,3.11-5.41,7.05-5.92,3.47-.45,6.67-.35,9.83,1.19,2.63,1.28,6.67,3.55,7,6.85.15,1.29,3.47,2.75,3.33,1.5-.54-4.76-5.33-8-9.22-10.07-4.78-2.57-9.91-2.76-15.09-1.68-4.43.92-6.66,6.72-8.91,10.31-1.06,1.69-3.08,4-3.57,6-.55,2.26.84,4.89.1,7.41-.34,1.16,2.9,3,3.33,1.5Z"></path>
      <path class="cls-2" d="M157,64.35a15,15,0,0,1,6.87-7.29c1.71-.81,2.75-.85,4.09-2.34a69.26,69.26,0,0,0,5.9-8.3c1.57-2.42,1.78-5.24,2.94-7.8.78-1.72-2.94-2.08-3.65-.5-1.55,3.42-2.2,6.3-4.49,9.43-1.94,2.65-2.92,5.39-5.87,6.84a19.07,19.07,0,0,0-9.44,9.46c-.77,1.73,3,2.09,3.65.5Z"></path>
      <path class="cls-2" d="M156.2,52.28a4.08,4.08,0,0,0-2.27.57c-2,1.19,1.47,2.16,2.63,1.6,1.46-.71,2.58-1.72,4.26-1.81.39,0,3.16.13,3.21.4.27,1.53,4,1.45,3.75.06-.36-2.08-3.62-2.48-5.34-2.61a12.57,12.57,0,0,0-4.36.29,25.77,25.77,0,0,0-4.16,2.07l2.63,1.6-.39,0c2.26-.06,2.34-2.27,0-2.21Z"></path>
      <path class="cls-2" d="M125.26,73.69l.06-.25-1.05,1.33a20.5,20.5,0,0,1,7.1-1.55c1.32,0,3.85-.11,4.86,1,1.58,1.79,1.57,5.11-.41,6.62s-4.83,1.18-7,1a12.78,12.78,0,0,1-4.36-.72c-1.24-.66-4.33-5.43-1.31-6.15,2.18-.52.71-4-1.36-3.47-5.19,1.23-3.53,9.75-.06,12.15,3.9,2.7,13.26,3.14,16.88-.35a7.78,7.78,0,0,0-2.07-12.74,16.09,16.09,0,0,0-9-.83c-2,.33-5.27.87-5.8,3.1s2.91,3.11,3.46.8Z"></path>
      <path class="cls-2" d="M139.79,76.81l-.28,0c-.81.1-2.21.46-2.42,1.43l0,.2c-.1.48.42.62.75.71a33.51,33.51,0,0,1,4.29,1.33c.88.34,2.35.41,3.09,1,1,.76,4.3-.88,3.25-1.65S146,79,144.85,78.55a38.69,38.69,0,0,0-5-1.5l.75.71,0-.2L138.26,79l.28,0c.73-.09,2-.36,2.31-1.16s-.37-1.08-1.06-1Z"></path>
      <path class="cls-2" d="M135,83.86A33.89,33.89,0,0,0,140.63,85c1.53.25,2.94.66,4.44,1,2.3.5,1.85-3,0-3.37-1.5-.32-2.91-.74-4.44-1A33.89,33.89,0,0,1,135,80.49a1.29,1.29,0,0,0-1.63,1.28A2.28,2.28,0,0,0,135,83.86Z"></path>
      <path class="cls-2" d="M131.6,69.78c-2.91-.07-5.76-.62-8.69-.61-.64,0-1.52.79-2,1.15-.15.11-1.17,1-.93,1,2.92,0,5.78.54,8.69.61.62,0,1.53-.8,2-1.15.15-.11,1.18-1,.93-1Z"></path>
      <path class="cls-2" d="M121.12,78.79c-.36-.13-.42-.4-.68-.65a4.26,4.26,0,0,0-.87-.57c-.69-.41-1-1.15-1.7-1.56-.55-.32-1.19-.4-1.75-.72a5.56,5.56,0,0,0-1.94-.9,3,3,0,0,0-2.55.74c-.5.53-.42,1.22.39,1.34.56.09,1,.58,1.52.83s1.27.34,1.75.88a7.5,7.5,0,0,0,.66.8c.28.24.68.32,1,.53.52.39.71.9,1.37,1.14a2.93,2.93,0,0,0,2.56-.38c.43-.3,1.12-1.18.27-1.49Z"></path>
      <path class="cls-2" d="M124.81,91.57c-5.68.05-10.83,1.33-16.37,2.35-6.05,1.11-12.2,1.36-18.27,2.49C79,98.48,74.11,108.34,67.78,116.81c-.86,1.15,2.77,1.75,3.61.63L79.17,107c1.88-2.52,3.58-4.93,6.34-6.57,3.06-1.82,6.63-2.2,10.1-2.86,4.56-.87,9.23-.84,13.8-1.66,5.15-.93,10.1-2.26,15.37-2.31,2.25,0,2.32-2.07,0-2Z"></path>
      <path class="cls-2" d="M61.64,109.87c2.62,0,5.2.08,7.8.2,2.19.1,5.6.57,7.69-.2,1.63-.59-.23-3.8-1.58-3.31-1.84.67-4.73.24-6.69.19-2.72-.06-5.41-.19-8.14-.19-2,0-.5,3.31.92,3.31Z"></path>
      <path class="cls-2" d="M59.15,105.67q10.15,0,20.29,0c2.55,0,.81-1.59-.83-1.59q-10.14,0-20.29,0c-2.55,0-.81,1.6.83,1.59Z"></path>
    </g>
  </g>
</svg>
