<?xml version="1.0" encoding="UTF-8"?>
<svg xmlns="http://www.w3.org/2000/svg" viewBox="0 0 284.16 256.49">
  <defs>
    <style>.cls-1{fill:#fff;}.cls-2{fill:#8faedb;}</style>
  </defs>
  <title>Asset 60</title>
  <g id="Layer_2" data-name="Layer 2">
    <g id="Map">
      <rect class="cls-1" width="284.16" height="256.49"></rect>
      <path class="cls-2" d="M110.57,140.91c-6.34.64-14.22,5-8.8,11.78,2.49,3.1,5.72,4.63,9.5,5.55,5.1,1.24,9.85,3.54,15.25,2.71,4.15-.64,20.49-4.27,11.55-10a59.44,59.44,0,0,0-13.76-6.15c-4.76-1.57-9.71-3.88-14.78-3.89-3.3,0-.09,2.87,1.78,2.93h.44c3.25.11.13-2.86-1.78-2.93h-.44l1.78,2.93c2.86,0,5.59,1.42,8.25,2.29,3.25,1.06,6.57,2,9.71,3.33,1.54.67,3,1.5,4.44,2.31s1.93.43.85,2.23c-1.26,2.1-4.91,2.53-7.13,3.18a17.2,17.2,0,0,1-11.25-.24c-2.3-.8-5.45-1.15-7.52-2.33-2.36-1.35-5.12-4.51-3.48-7.18,1.23-2,5-3.37,7.18-3.6,3.25-.33.17-3.1-1.79-2.9Z"></path>
      <path class="cls-2" d="M138.74,153.46l-.5.11a1.21,1.21,0,0,0-.8.89c-1.42,6.64-.88,13.49-.89,20.26a134.06,134.06,0,0,1-1.46,22.51c-.18,1.05.57,4.24,2.19,3.33a4.45,4.45,0,0,0,1.48-1c1.36-1.19-.12-5.9-1.59-4.61a4.45,4.45,0,0,1-1.48,1l2.19,3.33a111.67,111.67,0,0,0,1.5-19.07c0-1.91-.84-21.6.27-21.83,1.82-.39.89-5.3-.91-4.92Z"></path>
      <path class="cls-2" d="M137.66,195.34c-2.67.12-4,1.46-6.16,2.5-2.65,1.27-5.93,1.05-8.75,1.34-3.67.37-7.68,1.34-11.23-.14-1.64-.68-5.75-2.42-6.09-4.16-.63-3.2-3.1.23-2.71,2.2,1,5.22,8.73,7.76,13.35,7.65,3.27-.08,6.55-.45,9.79-.76a20.27,20.27,0,0,0,5.09-.82c2.26-.89,3.43-2.72,6.09-2.85,2-.09,2.39-5,.63-5Z"></path>
      <path class="cls-2" d="M103.89,144.48H103a3.17,3.17,0,0,0-2.51,2,15.6,15.6,0,0,0-.77,9.58,94.17,94.17,0,0,1,1.35,18c0,5.86.27,11.79,0,17.65-.05,1.09-.64,3.19.05,4.24.81,1.23,2.33.8,3.17,1.82,1.37,1.66,4.44-2.22,3.31-3.58-.67-.81-1.61-.78-2.14-1.37-1.43-1.61-.8-4.49-.8-6.44q0-7.56,0-15.13a84.89,84.89,0,0,0-.55-13.13c-.53-3.42-2.17-7.88-.72-11.25l-2.51,2h.92c1.8,0,4-4.43,2.11-4.4Z"></path>
      <path class="cls-2" d="M103.17,160.33c2.82.91,5.37,3.64,8.1,5a27.93,27.93,0,0,0,10.1,3.11c3.49.34,6.14-.63,9.43-1.75,2.58-.88,7.52-1.64,9.15-3.89,1.15-1.6-2.41-5.05-3.44-3.63-1.37,1.9-5.82,2.59-8,3.35-3.32,1.17-6.14,2.2-9.7,1.74a23.41,23.41,0,0,1-10-3.72c-2.19-1.46-4.12-3.31-6.68-4.14-2.73-.88-.66,3.37,1,3.91Z"></path>
      <path class="cls-2" d="M107.44,160.57c1.37,0,2.4,1,3.75,1.18.51.08,1,.09,1.52.18.25,0,.51.15.76.17.91.08-.7,1.23.4-.92l1.2-1.51c1.06-.74.77-.16.31-.42a4.84,4.84,0,0,0-.77-.2c-.56-.2-1-.61-1.57-.79a7.52,7.52,0,0,1-3.64-1.76l-1.12,3.79a4.15,4.15,0,0,0,1.36-1.44c.41-.7,1.19-2.22.25-2.86s-2.17.61-2.57,1.28l.38-.43c-1,.66-2.18,2.75-1.12,3.79a6.47,6.47,0,0,0,2.81,1.62c.48.17,1,.22,1.5.42a12.72,12.72,0,0,0,1.27.68c2.09.69,3.8.22,4.8-2,.91-2,0-3.44-2-3.84-.73-.14-1.51-.1-2.23-.29-1.19-.32-1.91-1.07-3.21-1.1a3.1,3.1,0,0,0-2.54,2c-.27.57-.72,2.39.44,2.41Z"></path>
      <path class="cls-2" d="M89.22,141.56C87,146.18,85.1,152,86.45,157.1A45.4,45.4,0,0,0,93.79,172c3.32,4.38,8.69,7.71,13.61,10,5.38,2.51,10.88,4.26,16.88,3.6s11.94-2.11,16.64-6c4.17-3.43,7.59-8.71,8.13-14.27a32.6,32.6,0,0,0-3.73-19.26c-2.42-4.42-4.74-9.13-9-12.11-5.89-4.15-12.54-7.53-19.93-7.81a45.88,45.88,0,0,0-8.82.2c-3.49.59-6.3,2.57-9.5,3.6-1.7.55-.12,5.29,1.62,4.73,2.1-.68,4-1.78,6.15-2.47a32.31,32.31,0,0,1,9.36-1.22,31.75,31.75,0,0,1,18.37,5.54c10.92,7.38,16.31,22.87,9.07,34.74-3.25,5.33-10.57,8.26-16.48,9a31.53,31.53,0,0,1-18.94-2.87c-5.52-2.63-11-6.14-14.07-11.57a36.06,36.06,0,0,1-3.55-7.62c-1.23-4.48.3-9,2.23-13,.7-1.47-1.64-5.75-2.64-3.66Z"></path>
      <path class="cls-2" d="M99.35,135.38c1.88,0,2.3-5,.55-5s-2.3,5-.55,5Z"></path>
      <path class="cls-2" d="M163.3,176.62c4.13-9.24,4.17-22-.39-31.21-4.25-8.59-9-16.76-17-22.16-8.51-5.72-18.16-10-28.62-10.53-5-.23-11.08-.58-15.93.66-2.63.67-5.08,1.86-7.71,2.55-2.13.56-3.86,2.24-5.86,2.74-3.15.79.76,2.66,2.56,2.21,3.33-.83,6.63-2.77,9.92-4,5-1.85,11-1.78,16.37-1.53,10.26.47,19.48,5.33,27.69,11.07,3.11,2.17,4.67,5.16,6.93,8.09a72.59,72.59,0,0,1,6.85,11.65c4.29,8.61,4.22,21.21.37,29.82-.79,1.77,4.13,2.19,4.83.61Z"></path>
      <path class="cls-2" d="M77.28,131.36c-3.5,5.36-6.08,10.37-7.51,16.7-1.31,5.78-.26,10,2,15.34s4.58,10.47,8,15,7.78,7,12.51,10.14c9.29,6.09,20,11,31.37,10.68,10.45-.32,22-3.1,30.09-9.83,1.71-1.42-3.08-2.29-4.34-1.25-8,6.68-20.6,9-30.65,7.66-3-.41-5.83-.44-8.68-1.64-2.24-.94-4.45-2-6.67-3a76.19,76.19,0,0,1-13.14-7.92c-7.25-5.32-10.83-14-14.25-22-4.44-10.37.34-20.57,6.08-29.34,1-1.49-3.87-2.09-4.83-.61Z"></path>
      <path class="cls-2" d="M80.43,133a28.65,28.65,0,0,0,4.51-5.65c1.5-2.61,3.63-3.46,6.38-4.54,1.6-.62-.6-5.09-2.37-4.4-2.56,1-5.11,1.93-6.57,4.38a32.64,32.64,0,0,1-4.85,6.3c-1.18,1.18,1.43,5.39,2.9,3.91Z"></path>
      <path class="cls-2" d="M58.15,116.44c-3.76,5.9-6.91,10.6-9.1,17.3-2,6.18-4,12.37-3.85,19,.13,5.82,2.52,10.8,4.78,16.06a139.31,139.31,0,0,0,8.52,17.31,55.77,55.77,0,0,0,10.78,13.27c4.85,4.24,10.84,7.18,16.15,10.8,5.88,4,13,6.74,19.6,9.43a27.72,27.72,0,0,0,9.84,2.05c3.88.15,7.46,1.59,11.35,1.61a57.08,57.08,0,0,0,9.49-1.21c3.69-.6,7.47-.35,11.09-1.37a62.53,62.53,0,0,0,8.52-3.48c3.11-1.4,6.75-1.61,9.67-3.35,2.62-1.56,4.71-4,7.16-5.8,2.69-2,5.29-3.91,7.21-6.71a83.55,83.55,0,0,0,9.38-19.48c2.19-6.46,1.17-14,1-20.73a54.75,54.75,0,0,0-3.86-19.89,86.77,86.77,0,0,0-5.61-10c-1.67-2.82-2.56-6.14-4.52-8.75-.94-1.25-2.14-2.29-3.11-3.52-1.39-1.77-2.16-3.82-3.38-5.69a21.48,21.48,0,0,0-5.49-5.25c-13.58-9.92-28.37-17.38-45.41-19.07a89.19,89.19,0,0,0-11,.1c-4.15.1-8.42-.54-12.52.29-3.85.78-7.25,2.91-11,3.88-1.76.45-3.63.48-5.29,1.31-2,1-3,2.69-5.34,3.16-1.78.36-.92,5.29.83,4.93,2.88-.58,4.51-2.95,7.3-3.85,2.59-.84,5.13-1.16,7.71-2.18,6.75-2.67,12-2.46,19.19-2.61,13.18-.29,26.82,1.89,38.77,7.93,5.4,2.73,10.62,6.61,15.55,10.13A21.58,21.58,0,0,1,168.9,119c1.74,2.89,4.14,5.2,5.85,8.07,2.95,4.95,6.08,10.24,8.56,15.46,3.59,7.58,3.6,15.83,3.75,24,.07,3.7.49,7.72-.48,11.35-.87,3.25-2.65,6.37-4,9.44-2.93,6.57-6.09,11.78-11.91,16.1-2.27,1.69-4.22,3.92-6.59,5.45s-5.14,1.57-7.7,2.52-4.81,2.32-7.3,3.28c-3.68,1.43-7.06,1.71-10.94,2.05-5.89.52-11.17,2.25-17.13,1-3.47-.72-6.71-.65-10.18-1.19s-6.72-2.18-9.9-3.64c-6.06-2.76-11.93-5.15-17.4-9-4.47-3.16-9.49-5.37-13.64-9-9.45-8.26-14.38-20.31-19.2-31.59-2-4.7-3.16-8.75-2.5-13.94a55.47,55.47,0,0,1,2.6-10.3,71.58,71.58,0,0,1,3.37-9.49c1.61-3.25,4.1-6,6-9.06.87-1.37-.78-6-2-4Z"></path>
      <path class="cls-2" d="M58.84,119.88a46.18,46.18,0,0,0,6.65-8c1-1.68,1.73-3.52,3.38-4.73a31.83,31.83,0,0,1,6.85-3.18c1.77-.69.63-5.52-.92-4.91-3.54,1.38-7.6,2.7-9.81,6-2.41,3.56-4.67,7.21-7.73,10.28-1.25,1.25.29,5.9,1.58,4.61Z"></path>
      <path class="cls-2" d="M120.2,171.79c.46,6,.43,12,.43,18.06,0,2,3.14,4.77,3.14,1.5,0-6.05,0-12-.45-18-.15-2-3.36-4.76-3.11-1.51Z"></path>
      <path class="cls-2" d="M43.29,90.05c-2.36,3.79-4.27,8.57-3.09,13.06a21.58,21.58,0,0,0,8.66,12.61c7.73,5.36,17.45,6.24,24.83-.33,8-7.1,7.28-20.29.49-28.12-6.59-7.59-17-8.15-25.42-4-1.7.83-3.25,4.8-.32,3.37,6.41-3.14,14.27-2.89,19.93,2.12S80,108.27,71.5,113.84c-6.54,4.31-14.16,2.13-20-2.19C44.59,106.51,42,97.5,46.67,90c1.72-2.76-2.38-1.52-3.37.07Z"></path>
      <path class="cls-2" d="M97.19,103.46c-.11-8-2.6-14.74-6.43-21.64C87.4,75.75,82.9,71.53,77,67.85c-6.7-4.17-14.27-5.21-21.94-5.13-3.45,0-5.91.06-9.07,1.36-1.71.7-3.78,1-5.42,1.85-.83.42-1.46,1.33-2.33,1.64-1.51.54-4,4.68-1.34,3.75,1.9-.68,3.48-1.77,5.34-2.47a29.3,29.3,0,0,1,10.57-2.22c7.09-.05,14.21.94,20.49,4.6C84.84,78,93,92,93.14,105.44c0,2.34,4.08-.33,4.06-2Z"></path>
      <path class="cls-2" d="M28.62,79.64a45,45,0,0,0-6.25,15.68c-1.06,5.89.78,10.48,3,15.85,2,4.83,4.34,9.79,8.11,13.51a54.6,54.6,0,0,0,14.16,9.46c5.11,2.49,10.44,4.49,16.27,4a47.47,47.47,0,0,0,14.9-3.81c10-4,16.68-13.05,18.4-23.8.35-2.18-3.8.36-4.06,2a24.92,24.92,0,0,1-21.4,20.88,52.35,52.35,0,0,1-6.27.91c-2.05,0-4.24-.65-6.3-.88-4.74-.54-10.27-3.46-14.1-6.28-3.2-2.35-6.74-4.37-9.32-7.42a42.14,42.14,0,0,1-6.38-11.36c-1.83-4.42-3.83-8.66-3.2-13.56A39.19,39.19,0,0,1,32,79.57c1.68-2.79-2.4-1.54-3.37.07Z"></path>
      <path class="cls-2" d="M158.56,110.31c-2.36,3.79-4.27,8.57-3.09,13.06A21.58,21.58,0,0,0,164.12,136c7.73,5.36,17.45,6.24,24.83-.33,8-7.1,7.28-20.29.49-28.12-6.59-7.59-17-8.15-25.42-4-1.7.83-3.25,4.8-.32,3.37,6.41-3.14,14.27-2.89,19.93,2.12s11.59,19.52,3.13,25.09c-6.54,4.31-14.16,2.13-20-2.19-6.93-5.14-9.53-14.14-4.85-21.67,1.72-2.76-2.38-1.52-3.37.07Z"></path>
      <path class="cls-2" d="M209.77,137.2A36.86,36.86,0,0,0,210.1,112c-2.9-7.66-7.17-15.24-13.73-20.15-6.29-4.71-13.87-8.38-21.94-8.4-3.75,0-7.91-.38-11.5.88-2.1.74-4.53,1.4-6.53,2.33-.91.42-1.61,1.37-2.54,1.7-1.51.54-4,4.68-1.34,3.75,2.34-.83,4.34-2.08,6.68-3,4.2-1.57,7.72-1.81,12.14-1.79,8.21,0,15.48,3.53,21.92,8.3,5.72,4.23,9.2,11.13,12.15,17.55a34,34,0,0,1,.5,25c-1.05,2.58,3.23.45,3.84-1.06Z"></path>
      <path class="cls-2" d="M144.41,100.27c-4.17,6.9-8.4,16.18-5.78,24.39,2.4,7.53,6,16.58,12.48,21.57,6.72,5.2,14.09,9.74,22.54,11s15.45-1.31,23.3-4.29c1.49-.57,3.91-4.73,1.34-3.75-7.34,2.78-13.7,5.09-21.65,4.08-7.79-1-13.38-4.79-19.75-9.05-6.6-4.41-9.78-10.94-12.63-18.16-1.57-4-2.74-7.45-2-11.79a38.94,38.94,0,0,1,5.56-14.06c1.68-2.79-2.4-1.54-3.37.07Z"></path>
      <path class="cls-2" d="M127.14,88c-5.48,9.4-10.39,19.66-10.28,30.9,0,5.07,2,9.5,3.86,14.13a119.34,119.34,0,0,0,6.46,14.28C132.52,157,140.85,163.22,150,169a87.5,87.5,0,0,0,14.82,7.39c3,1.16,5.85,1,9,1.5,3.73.61,6.58,1.34,10.43.77,5-.74,10.29-.89,15-2.81,3.43-1.41,6.62-2.94,10.11-4.14a13.81,13.81,0,0,0,5-3.12c3.12-2.86,6.89-5.5,9.38-8.94,3.53-4.86,5.89-11.39,7.88-17s1.35-11.64,1.25-17.55c-.1-6.47-.76-13-3.37-19-1-2.18-2.19-4.23-3.33-6.31-1.51-2.77-2.38-5.94-4.1-8.55-3.73-5.65-6.46-10.28-12-14.31-10.52-7.71-22.53-14.58-36.08-14.64-6,0-12.86-.74-18.52,1.39-3,1.11-5.8,2.17-8.78,3.1-2.13.66-3.74,2.9-5.76,3.35-1.62.36-4.11,4.38-1.34,3.75A8.79,8.79,0,0,0,143,72.16,13.57,13.57,0,0,1,147.92,70c2.24-.62,4.25-1.83,6.42-2.61,3.31-1.18,6.24-1,9.65-.95,5.74.07,10.89-.34,16.55,1.12A71,71,0,0,1,196,73c4.52,2.4,8.85,6,12.86,9.16a17.89,17.89,0,0,1,4.83,5.52c1.47,2.67,3.37,5,4.86,7.59,5.94,10.48,9.95,20.5,10.16,32.69.1,5.57.68,11.22-1.38,16.51C225.21,150,223.26,156.8,219,161c-1.57,1.52-3.42,2.73-5,4.25-2.25,2.17-4.71,2.84-7.48,3.95-2.32.93-4.42,2.34-6.77,3.22-3.1,1.16-6.08,1.14-9.27,1.64-3.55.55-6.88,1.56-10.51.86a61.47,61.47,0,0,0-6.37-1.13c-5.94-.54-10.88-3.58-16.17-6.17-4.46-2.19-8-5.44-12.23-8.07a37.33,37.33,0,0,1-10.12-9C129,142.53,124.28,131.62,121.6,122c-3.21-11.53,3.32-24.48,8.91-34.07,1.64-2.82-2.42-1.56-3.37.07Z"></path>
      <path class="cls-2" d="M147.2,98.47c0,.84-1.08,1.67-.08.77a9,9,0,0,0,1-1.06c.6-.74,1.35-1.26,2-2,.14-.17.65-.73.22-.34a13.31,13.31,0,0,0,1.25-1,13.5,13.5,0,0,1,2-2A3.59,3.59,0,0,0,155,89.68c-.29-1.14-1.35-.75-2-.23a67.64,67.64,0,0,0-5.24,5c-.78.74-1.52,1.63-2.26,2.42a5.42,5.42,0,0,0-1.71,3.59c0,1,.68,1.49,1.62,1a3.89,3.89,0,0,0,1.89-3Z"></path>
    </g>
  </g>
</svg>
