<?xml version="1.0" encoding="UTF-8"?>
<svg xmlns="http://www.w3.org/2000/svg" viewBox="0 0 284.16 256.49">
  <defs>
    <style>.cls-1{fill:#fff;}.cls-2{fill:#8faedb;}</style>
  </defs>
  <title>Asset 61</title>
  <g id="Layer_2" data-name="Layer 2">
    <g id="Map">
      <rect class="cls-1" width="284.16" height="256.49"></rect>
      <path class="cls-2" d="M52.33,157.25c.14-9.91,2.43-19.71,2.32-29.64,0-3.61-.5-7.64,1.21-11,1.94-3.79,6.19-6.17,10.12-7.34a38.32,38.32,0,0,1,9.78-1.22c3.85-.13,7.59-1.07,11.45-1.11,7.13-.07,14-1.63,21.12-2.17,7.65-.58,15.58,0,23.25,0,8,0,16,0,24.08-.54,3.71-.27,7.42-.58,11.14-.58s7.06.87,10.65,1.08c6.56.38,14.57.62,15.92,8.77.48,2.91,0,5.92,0,8.85,0,1.62.22,3.25.19,4.87-.05,2.57-1,4.65-1.43,7.11-.53,3.18,0,6.4-.52,9.63a57,57,0,0,0-.84,9.39,121.13,121.13,0,0,1-2,22.37c-.81,4.12-1.83,8.24-3,12.27-1,3.31-1.83,8.44-4.38,10.8-5.14,4.75-15.25,3-21.66,3-16.38,0-32.75.09-49.12-.69-8.91-.42-17.69-1.91-26.52-3.11-4.37-.59-8.69-1.47-13.07-2-4-.52-8.07-.66-12-1.81s-7.76-2.74-8.33-7.13c-.52-4-1.48-7.83-1.39-11.87a68.28,68.28,0,0,1,2.23-15.39c.6-2.34-1.57-5-2.42-1.72A80.91,80.91,0,0,0,46.69,172a45,45,0,0,0,0,9.86c.34,2.39,1,4.57,1.24,7a14.51,14.51,0,0,0,.37,3.23c1.69,5.34,9.5,7.34,14.28,8.07,9.26,1.41,18.62,2.55,27.92,3.69,4.62.56,9.11,1.73,13.76,2,5,.33,10,.51,15.06.67,9.77.32,19.54.31,29.32.31,4.72,0,9.45,0,14.17,0,3.91,0,8,.44,11.81-.42,2.42-.54,6.2-1.34,8.15-3,2.12-1.83,2.92-5.92,3.78-8.39,2.66-7.61,5.15-16.13,5.67-24.21.26-4.1,1.25-8.12,1.38-12.22.15-4.79-.16-9.4.73-14.14.7-3.69.19-7.53,1-11.11a42.59,42.59,0,0,0,.88-11c-.11-5.67,1.1-12-2.46-17-4.11-5.71-11-4.92-17.17-5.59a82.94,82.94,0,0,0-12.78-.85c-4.92.21-9.82.75-14.74.94-9.5.35-19.07.13-28.57.07-8,0-16.09,0-24,1.3-9.33,1.53-19.14.76-28.43,2.73-7.05,1.49-13.4,6-15.42,13.17-1.83,6.49-.64,13.79-1.29,20.49s-1.72,13.72-1.81,20.61c0,3.35,2.77,1.54,2.81-.91Z"></path>
      <path class="cls-2" d="M59.54,134.17c-1.55,3.82-1.17,8.28-1.64,12.31-.41,3.58-.78,7.22-1,10.86-.23,4.19-1.5,8.11-1.67,12.32a56.79,56.79,0,0,0,1,9.85c.9,6.57,2,11.59,8.94,13.68,7.92,2.39,17.15,3.19,25.39,3.51,8.6.33,17.2,1.32,25.81,1.83,9.78.58,19.72.38,29.52.42a174.89,174.89,0,0,0,23.78-1.84c2.77-.38,6.16-1,8.16-3.06s3.17-5.78,3.88-8.61c.42-1.69-2.16-5.65-2.85-2.85-.81,3.27-2.27,7.12-5.55,8.5s-6.83,1.18-10.29,1.51c-7.16.67-14.19,1.63-21.4,1.43-15.1-.41-30.17.06-45.2-1.75-6.74-.81-13.49-.89-20.24-1.9a88.85,88.85,0,0,1-10.86-1.81c-5.62-1.58-5.65-5.17-6.19-10.14-.41-3.72-1.19-7.2-.43-11a50.41,50.41,0,0,0,1.25-8.35,72.73,72.73,0,0,1,1.19-10.3c.65-3.45-.34-7.63,1-10.87.64-1.57-1.67-5.89-2.54-3.76Z"></path>
      <path class="cls-2" d="M188.29,138.3c0-4.8-.06-9.59,0-14.39,0-2.48.2-5-.92-7.29-2.06-4.2-7-5.57-11.28-6.2-7.56-1.1-15.61-.37-23.23-.38-8.22,0-16.27.62-24.45.92-8.63.31-17.09-.92-25.7-.91-9.12,0-18.24,0-27.35,0-5.8,0-11.36-1.19-14.62,4.71s-2.27,15.28-2.3,21.67c0,3,2.81,3,2.82,0,0-5.69-1.65-19.33,5.31-21.26,2.64-.73,6-.12,8.77-.13l10.4,0c7.59,0,15.28-.36,22.86.05,6.65.36,13.1,1.07,19.8.87,6.33-.2,12.52-1,18.88-.93,7,0,14,0,21,0,4.62,0,9.86-.09,14,2.2,3.84,2.1,3.15,5.73,3.15,9.53s0,7.67,0,11.51c0,3,2.8,3,2.79,0Z"></path>
      <path class="cls-2" d="M186.94,135.41c-3.25.78-3.14,4.23-3.71,7a50.19,50.19,0,0,0-.82,7c-.22,3.89-1.49,6.94-2.14,10.72-.83,4.82-.29,9.9-1.16,14.72a47.69,47.69,0,0,1-2.59,7.85c-.22.61-.86,2.41-.61,3.14.62,1.78,5.43.45,4.84-1.24-.32-.92,1.15-2.94,1.49-3.83a46.79,46.79,0,0,0,1.51-5.8,60.22,60.22,0,0,0,1.17-11.81c.18-4.64,2.21-8.74,2.35-13.34.12-4.24.53-9.41,2.1-13.35l-2.1,1.53.31-.08c2.93-.7,2.29-3.25-.65-2.54Z"></path>
      <path class="cls-2" d="M111.44,121.89c-2.34,3.42-2,11.45,2.41,13,3.5,1.21,7.3.13,10.87.1,2.54,0,6.05,0,8.25-1.47,1.74-1.16,2-2.43,1.87-4.31-.2-2.45.23-6.23-.83-8.51-1.15-2.49-4.65-1.58-6.87-1.64-4.12-.11-8.28-.52-12.38-.88-1.67-.15-4.56,3.77-2.15,4,4.55.4,9.14.87,13.72.88,2.12,0,3-.6,3.86,2a11.42,11.42,0,0,1,.23,1.7c.16,1.17-.32,3.91.35,5,.82,1.29,1.82-.86.81-1.25-.54-.21-1.39.26-1.91.34-2.53.41-5.27.34-7.84.54-2.2.17-5.76.45-7-2-.39-.78-1.23-5.7-.66-6.53,1.88-2.75-1.37-3-2.77-.95Z"></path>
      <path class="cls-2" d="M151.64,130.43c3,0,6.37-.39,9.31.08l-1-1.29c-1.14,3.15-.67,7.42-.16,10.68.62,3.93.57,7.64,1.74,11.39l3-2.57a26.56,26.56,0,0,1-9.22-1.44c-1.59-.62-.95-.73-1.44-2.73-.68-2.74-2.07-5.21-2.2-8.09-.11-2.52,1.05-4.76,1.09-7.25,0-2-4.66-.42-4.69,1.33,0,3-1.37,5.45-1,8.53.35,2.8,3.08,6.72,2.25,9.47-.1.34-.18.78.18,1,1.74,1.18,3.87.92,5.9,1.35,2.71.57,4.95,1.19,7.73.91,1.06-.1,3.41-1.14,3-2.57-1-3.32-1.05-6.72-1.48-10.22-.37-3-1.26-7.38-.18-10.36.3-.83-.27-1.17-1-1.29-3-.48-6.27-.07-9.31-.07-1.62,0-5.26,3.14-2.47,3.14Z"></path>
      <path class="cls-2" d="M170.47,133.33l.41.09L170,132c.19,3-.47,6.43-.45,9.53,0,4.17.29,8.29.41,12.43.06,2-.58,4.58,1,6.19s6.09,2.39,8.13,3.3c.8.36,1.27-.26,1.64-.91,1.83-3.19,1.79-7.76,1.5-11.31-.37-4.51-.16-8.66-.72-13.12-.3-2.38,1.18-6.66-.79-8.57-2.46-2.39-6.6-3.41-9.93-3.68-1.84-.15-2.52,4.8-.77,4.94,2.33.19,6.18.62,7.75,2.66,1.17,1.54.71-.22.59,2.44a14.3,14.3,0,0,0,.14,2.76,23.1,23.1,0,0,1,.68,5c-.09,1.31-.6,2.28-.53,3.65.19,3.84,2.35,8.72.22,12.44l1.64-.91c-1.67-.75-5.33-1.45-6.64-2.56-1.76-1.5-1.45-6.49-1.57-8.54-.33-6,.71-12,.33-17.84,0-.54-.34-1.28-.93-1.4l-.41-.09c-1.74-.36-2.58,4.57-.77,4.94Z"></path>
      <path class="cls-2" d="M94,129.63l0-.3c.2-2.17-1.6-1.69-2.49-.38-1.62,2.4-1,4.42-.42,7.12.8,3.93,2.83,8.44,2.7,12.41l1.35-2.72c-1,.78-4,1.28-5.15,1.66-1.95.65-4.11,1-5.93,2l.75,3.36c1.76-3.07,1.4-6.31,1.21-9.73-.11-2-.54-4-.57-6.05,0-1.85-.67-5.41.07-7.15l-1.44,1.74c1.28-.8,5.53.16,7,.15,1.74,0,3.23-4.73,1.18-4.73h-.77c-1.75,0-3.23,4.73-1.18,4.73h.77L92.3,127c-2.49,0-6.08-1.59-8.21.33a6.71,6.71,0,0,0-1.78,4.77,57.88,57.88,0,0,0,.13,9.26c.26,2.24,1.66,7.15.49,9.18-.4.69-1.16,4.39.75,3.36,2.84-1.53,6.52-2.14,9.57-3.13,1.75-.57,3-1.22,3.56-3.15S96.45,143,96,141c-.5-2.31-1.18-4.58-1.65-6.9,0-.17-.48-3.66-1-2.94l-2.49-.38,0,.3c-.3,3.25,2.92.48,3.1-1.45Z"></path>
      <path class="cls-2" d="M75.05,128.68c-2.31,6.82.77,14.75,1.54,21.61.22,2,.7,3.9.9,5.87.26,2.54.24,3.12-2.12,4.44a24.22,24.22,0,0,0-4.4,2.55c-1.56,1.36-2.62,3.64-4.89,4l3.86,1.71c-.51-3.57-.39-7.46-.55-11.07-.18-4-1.18-7.82-.94-11.82.21-3.53.71-6.44.15-10-.43-2.69-1.61-5,1.94-6.21a9.6,9.6,0,0,0,2,0q1.71.17,0-.73c.48,1.73,5.35,2.47,4.84.61-1.21-4.36-10.14-3.16-13.31-2.63-.29,0-.93.34-1,.73-.35,4.18,1.25,8,1.05,12.18-.14,3-.72,5.87-.52,8.91.42,6.34.56,13.12,1.46,19.38.22,1.51,2.72,1.87,3.86,1.71,3.72-.54,5.52-4.41,8.68-6.12,4-2.19,5.15-1.94,4.69-6.4-.42-4-.92-8.15-1.57-12.16-.82-5-2.61-10.11-.89-15.21.58-1.72-4.2-3.15-4.81-1.35Z"></path>
      <path class="cls-2" d="M82.45,165.83l.08-.44L80.28,168c1.59-.46,3.13-.5,4.61-1.32a17.45,17.45,0,0,0,3.8-3.14,13.66,13.66,0,0,0,2.74-3.74c.93-1.94,1.19-4,1.91-6,.23-.62.64-2.88-.88-2.33a7.33,7.33,0,0,1-1,.33c-1.62.46-3.4,5-1.16,4.38a7.33,7.33,0,0,0,1-.33l-.88-2.33c-.87,2.4-1,5.1-2.8,7a9.9,9.9,0,0,1-2.75,2.22,21.62,21.62,0,0,1-3.45.82,3.68,3.68,0,0,0-2.24,2.63l-.08.44c-.57,3.21,3,1.11,3.34-.87Z"></path>
      <path class="cls-2" d="M71.54,176.05c9.35,1.31,19.86,4.24,26.75-4.31,3.5-4.34,6.43-9.39,6.74-15,.16-2.87-.07-7-3.26-8-1.85-.61-5.73,1.21-2.64,2.23,1.6.52.85,6.64.69,7.65-.58,3.83-2.78,7.23-5,10.37-5.73,8.22-13.42,5.75-21.85,4.57-2.38-.33-4.8,2.09-1.46,2.56Z"></path>
      <path class="cls-2" d="M78,187.91c6.72-.08,13.92,1.87,20.43-.58a23.65,23.65,0,0,0,12.41-10.43,63.3,63.3,0,0,0,7.56-18.47c.75-3.47,0-4.06-1.2-7.24-.85-2.33-1-3.41-3.51-4.21l1.48,1.32-.08-1c-.14-1.73-5-2.51-4.86-.39l.08,1c0,.61,1,1.16,1.48,1.32.11,0,1.74,4,1.89,4.48.61,2.2-.28,5-1,7.16-1.8,5.54-4.13,11.49-7.58,16.23a22.17,22.17,0,0,1-11.15,8c-5.52,1.6-12.2-.18-17.89-.12-3.25,0,0,2.91,1.92,2.89Z"></path>
      <path class="cls-2" d="M155.13,156.79l.44.09-2.08-2.76c.52,2.36.31,4.41,1.66,6.55A15.18,15.18,0,0,0,159.9,165c3.18,2.09,7.91,3.06,11.69,3,2,0-.08-4.42-1.72-4.56h-.11c-1.83-.15-.07,4.41,1.72,4.56h.11l-1.72-4.56a26,26,0,0,1-7.41-1.2,9.81,9.81,0,0,1-3.71-2c-1.59-1.44-1.59-3.09-2-5.08-.21-1-1-2.53-2.08-2.76l-.44-.09c-2.34-.48-.73,4.09.92,4.43Z"></path>
      <path class="cls-2" d="M143.69,148.88c-5.22,6.76-3.43,17.79,2.35,23.89a27,27,0,0,0,24.65,7.7c1.17-.23,3.6-2.12,2.84-3.59l-.5-1c-.94-1.83-4.57,1.53-3.77,3.08l.5,1,2.84-3.59c-3.3.66-7.57.23-10.89-.22-4.34-.6-6.88-2.73-10.12-5.34-5.47-4.41-9.9-14.93-5.09-21.16,2.05-2.66-1.34-2.66-2.81-.76Z"></path>
      <path class="cls-2" d="M134.83,145.06l-.43.1a4,4,0,0,0-2.76,2.8c-.73,2.72-2.53,4.83-3.06,7.71a23.92,23.92,0,0,0,.08,8.65,29.1,29.1,0,0,0,6.15,13.19,44.31,44.31,0,0,0,14.45,11.38c3,1.54,5.65,2.76,7.88-.49,1.89-2.77-1.46-2.67-2.83-.68l-.25.36,2.31-1.74c-2.54.49-7.21-3-9.17-4.26a39.4,39.4,0,0,1-10-9.42,29.82,29.82,0,0,1-4.49-10,19.65,19.65,0,0,1-.09-9.94c.65-2.2,2.13-4,2.73-6.24l-2.76,2.8.43-.1c1.59-.38,3.95-4.67,1.79-4.15Z"></path>
      <path class="cls-2" d="M118.42,140.72c-.94-.12.44.16.61.21.81.21,1.62.38,2.43.61a14.57,14.57,0,0,0,4.81.61c3.07-.16,5.67-2,8.61-2.47,1.85-.32-.9-4.38-2.67-4.08-3,.52-5.62,2.52-8.81,2.44-2.38-.06-4.53-1.13-6.82-1.43s.18,3.91,1.85,4.13Z"></path>
      <path class="cls-2" d="M102.3,138.75c1.39,6.15,11.29,10,16.81,11,10,1.81,17.81-2.28,26.41-6.7.7-.36,3.56-4,1.46-4.12l.32.61c-.59-2.32-4.05,1.05-3.65,2.67l0,.17c.09.35.22.77.67.81l.31,0,1.46-4.12c-7.72,3.94-14.71,7.74-23.73,6.53a27.41,27.41,0,0,1-8.94-3.13c-2.29-1.18-6.87-3.66-7.49-6.44-.53-2.35-4,1-3.67,2.65Z"></path>
      <path class="cls-2" d="M99.8,152.71c-1.45-.39-.08.14.32.62a15.63,15.63,0,0,0,2.86,2.53,47.32,47.32,0,0,0,5.21,2.83c5.27,2.69,10.22,5.13,16.14,6,12,1.82,23.83-.68,33-8.89,1.32-1.18-2.19-4.73-3.59-3.48a41.06,41.06,0,0,1-13.51,7.78c-6.24,1.92-13.82,1.61-20.13.17-5.06-1.16-9.74-3.75-14.25-6.26-2.41-1.34-4.55-4.42-7.27-5.15s-.46,3.39,1.2,3.84Z"></path>
      <path class="cls-2" d="M82,162.34c1.83,2.16,4.64,3.53,6.91,5.16a61.4,61.4,0,0,0,11,6.35c8.76,3.8,18.08,7.08,27.63,8,9.88.92,19.4.31,28.59-3.66,4.12-1.78,8.24-3.7,12.28-5.66,2.57-1.25,7.08-3.49,6.46-6.87-.32-1.72-5-3.15-4.67-1.39.79,4.28-15.64,10.24-19,11.62-8.24,3.36-17,3.58-25.73,2.7-8-.8-16.31-3.56-23.63-6.85a86.15,86.15,0,0,1-10.64-6.12c-1.35-.85-2.68-1.76-4-2.67-.28-.2-2.34-2.21-1.17-.83-1.08-1.28-5.83-1.89-4,.26Z"></path>
      <path class="cls-2" d="M116.79,96.4c1.74-2.35,7.11-2.15,9.64-2.15,3.11,0,5.45,1.79,8.46,1.78,1.86,0,1.88-5,0-5s-2.88-.91-4.46-1.39a19.52,19.52,0,0,0-6.32-.36c-2.57.11-7,.55-8.69,2.79-1,1.33,0,6.13,1.35,4.32Z"></path>
      <path class="cls-2" d="M108.42,88.49c6.74-4.09,12.25-7,20.42-5.77a49.6,49.6,0,0,1,18.76,6.4l-.49-4.66-.23,0c-2-.24-.89,4.58.87,4.79l.23,0c2.21.26.45-4.08-.49-4.66A51.58,51.58,0,0,0,128,77.92a27.12,27.12,0,0,0-11.12.35c-3.58,1.06-6.88,3.56-10,5.48-1.67,1,.16,5.61,1.6,4.74Z"></path>
      <path class="cls-2" d="M100.64,78.29c2.08-3.59,9.27-4.91,13-6a45.76,45.76,0,0,1,16.35-1.86c10,.83,21.86,4.86,30,10.85,1.57,1.15,5.65.37,3-1.56C157.92,76,151.72,74,146,71.55a55.62,55.62,0,0,0-17.76-4.15,52.27,52.27,0,0,0-17.56,2.17c-4.1,1.19-12.18,2.78-14.5,6.8-1.06,1.83,3.63,3.39,4.48,1.92Z"></path>
    </g>
  </g>
</svg>
