<?xml version="1.0" encoding="UTF-8"?>
<svg xmlns="http://www.w3.org/2000/svg" viewBox="0 0 284.16 328.93">
  <defs>
    <style>.cls-1{fill:none;}.cls-2{fill:#8faedb;}</style>
  </defs>
  <title>Asset 53</title>
  <g id="Layer_2" data-name="Layer 2">
    <g id="Map">
      <rect class="cls-1" width="284.16" height="328.93"></rect>
      <path class="cls-2" d="M112.51,178.44c-1.3,1.29-1.9,4.71,0,5.84a3.06,3.06,0,0,0,1.55.21,10.76,10.76,0,0,0,1.7.18,7.64,7.64,0,0,0,4.59-2.4,8.84,8.84,0,0,0,2.27-3.52c.29-1,.52-2.63-.48-3.33a6.44,6.44,0,0,0-3.6-.66,19,19,0,0,0-4.53,1.58c-.84.33-2.3,1.29-2.18,2.36s1.67.78,2.33.52a15.23,15.23,0,0,1,2.64-1.07,4.51,4.51,0,0,1,1.32.29c.2.15.23.24.21.73a3.26,3.26,0,0,1-1.2,2.3c.46-.28.26-.28-.22-.35a13.34,13.34,0,0,0-1.35,0l.85.18a1.41,1.41,0,0,1-.54-1.22,3.47,3.47,0,0,1,0-.53c0-.24.27-.69,0-.41.63-.63.89-1.71-.15-2s-2.47.61-3.19,1.33Z"></path>
      <path class="cls-2" d="M114.82,185a21,21,0,0,1,.23,6.09c-.16,1.8.18,3.54-.23,5.31l2.35-2.53-.33.14c-.92.39-2.33,1.4-2.35,2.53s1,1.24,1.86.87c2.79-1.19,3.16-3.57,2.85-6.31s.52-5.83-.2-8.58c-.51-1.94-4.64.78-4.19,2.49Z"></path>
      <path class="cls-2" d="M108.75,192.19a14.1,14.1,0,0,0,4,4.53c2.06,1.4,3.57,1.51,6,1,3.24-.72,8.47-3.81,9.05-7.48.09-.56.17-1.3-.39-1.66l-.32-.21c-1.54-1-4.12,3.29-2.51,4.32l.32.21-.39-1.66c.23-1.48.75-1-.14-.44-.73.45-1.35,1.07-2.09,1.52a8,8,0,0,1-4.51,1.23c-2.61-.19-4.76-3-6-5.13-1-1.68-4,2.25-3,3.81Z"></path>
      <path class="cls-2" d="M123.68,192.91a11.72,11.72,0,0,0,4.88-1l-2.08-4.55-.15.06c-1.69.66.31,5.24,2.08,4.55l.15-.06c1.69-.66-.31-5.23-2.08-4.55a9.81,9.81,0,0,1-4.16.91c-2-.12-.43,4.58,1.36,4.68Z"></path>
      <path class="cls-2" d="M128.7,194.41c0-.36.54-.81.76-1.18.37-.64.75-1.28,1.09-1.93.64-1.2-1.14-2.38-2-2.81l-.22-.11c-.66-.35-2.23-.62-2.37.46s1.26,2,2.07,2.46l.22.11-2-2.81c-.38.71-.77,1.44-1.2,2.12s-.84,1-.89,1.69c-.07,1.1,1.16,2.08,2.07,2.46.61.25,2.3.69,2.37-.46Z"></path>
      <path class="cls-2" d="M111.56,191.57a.54.54,0,0,1-.37,0q-.25-.07,0,0l.24.09c.4.14-.36-.25-.06,0s-.9-.87-.57-.5a4.74,4.74,0,0,0,1.49,1.15,3,3,0,0,0,.52.21c.09,0,.91.23.42.1a1.27,1.27,0,0,0,1.2-.08,1.24,1.24,0,0,0,.24-1.18,3.93,3.93,0,0,0-2.33-2.66,2.64,2.64,0,0,0-.74-.18c.45,0,1.55,1.23,1.1.69A4.71,4.71,0,0,0,111.1,188a4.14,4.14,0,0,0-2.18-.54c-.41,0-.6.55-.61.87a2.83,2.83,0,0,0,.52,1.53,3.23,3.23,0,0,0,2.74,1.69Z"></path>
      <path class="cls-2" d="M111.89,192.33l-.15-.37c0-.08-.08-.27,0-.08a1,1,0,0,1,0-.56,3.92,3.92,0,0,0,.28-1.4,2.76,2.76,0,0,0-.81-1.4,4.23,4.23,0,0,0-1.61-1.06c-.88-.28-1.9-.22-1.84.92l.07-.38-.13.3c-.06.13-.11.26-.16.4a2.53,2.53,0,0,0-.12.86,5.87,5.87,0,0,0,.54,2.15,3.83,3.83,0,0,0,2.81,2.15c1,.11,1.57-.53,1.17-1.52Z"></path>
      <path class="cls-2" d="M110.23,185.69c1.23.93,3.79,1.26,5.25,1.22a19,19,0,0,0,8.89-2.28,3.15,3.15,0,0,0,1.07-3l0-.2c-.56-3.28-3-1.23-2.62,1.2l0,.2,1.07-3a17.23,17.23,0,0,1-8.18,2.14c-1.25,0-3.51-.21-4.57-1-1.44-1.09-2.35,3.71-.93,4.78Z"></path>
      <path class="cls-2" d="M70.4,145.81c2.27-3.91,5.5-6.09,9.27-8.33,3.94-2.35,7.49-5.15,11.64-7.17a57.85,57.85,0,0,1,29.12-5.69c10,.5,18,3.13,27,7.19,4.26,1.92,8.24,3.08,10.82,7.24a20.92,20.92,0,0,0,2,3.3c1.06,1.18,4,2.66,4.28,4.13.41,1.89,4,4.11,3.26.92-.94-4.32-4.59-5.73-7-9.15s-3.62-5.55-7.4-7.56c-9-4.81-18.55-8.83-28.75-10-10.73-1.25-21.17-.73-31.28,3.29-5.8,2.3-10.56,5.69-15.82,8.92-4.17,2.56-7.87,4.9-10.39,9.24-.89,1.54,2.19,5.41,3.18,3.69Z"></path>
      <path class="cls-2" d="M62.7,156a28,28,0,0,1,6.93-10.83,3.93,3.93,0,0,0,1.23-3.32c-.22-.92-1-1.47-1.78-.66A36,36,0,0,0,60.19,155c-1,2.83,1.52,3.8,2.51.93Z"></path>
      <path class="cls-2" d="M59.63,143.89c2.82-.8,5.67-1.38,8.48-2.27l.46-4.52q-.27.08.48.06l-1.25,4.54c2.45-.95,5.76-1.06,7.81-2.69,1.39-1.1,1.87-5.83-.38-4-1.58,1.25-5,1.45-7,2.21-1,.4-3.09,4.05-1.25,4.54a1.78,1.78,0,0,0,1.09-.11c1.67-.53,2.82-5.27.46-4.52-2.8.89-5.65,1.47-8.47,2.27-1.68.48-2.86,5.2-.46,4.52Z"></path>
      <path class="cls-2" d="M150,131.55c3.74-1.25,7.81-1.18,11.71-1.19,4.19,0,8.61-.46,12.51,1.37,1.85.87,5.87-.66,2.93-2-4.93-2.25-9.77-2.33-15.12-2.31-5.07,0-10.28-.12-15.14,1.51-2.74.92,1.4,3.2,3.11,2.62Z"></path>
      <path class="cls-2" d="M186.24,207.1c-4.18,2.35-8,4.77-12.48,6.56s-8.8,3.81-13.21,5.89c-9.3,4.38-19.29,8.22-29.53,9.27a194,194,0,0,1-32.24.65c-4-.27-7.82-1.19-11.81-1.31a124.71,124.71,0,0,1-17.91-1.82c-3-.53-3.49,2.42-.49,3,5.61,1,11.41,1.39,17.09,1.83,4.46.34,8.92,1.17,13.36,1.45,11.5.74,23.37.08,34.83-.87,9.59-.79,18.68-4.79,27.46-8.5,5.52-2.33,10.81-5,16.37-7.26,4.6-1.86,8.31-4.31,12.59-6.72,2.06-1.16-2.47-3-4-2.14Z"></path>
      <path class="cls-2" d="M59.63,139.53c-8.67,4.5-16,10-18.93,19.88-3.61,12.1-5.11,24.83-8.94,36.89-.73,2.29,3.87.58,4.42-1.17,3-9.38,4.9-19.26,7.07-28.85,1.06-4.69,2-9,4.45-13.2,3.13-5.38,7.05-7.73,12.39-10.5,2.21-1.15,2.51-4.6-.46-3.06Z"></path>
      <path class="cls-2" d="M57.95,151.26a11.49,11.49,0,0,0-.35,8.14c1.27,3.61,4.44,5.49,6.54,8.5A163.31,163.31,0,0,0,79.4,186.15c2.58,2.75,4.38,5.17,7.22,7.63s5.5,5.07,8.33,7.5a31.78,31.78,0,0,0,20.85,7.23,34,34,0,0,0,21.33-7.44c6.41-5,10-12.07,14.07-18.9a126.07,126.07,0,0,0,10.61-22.31c2.49-7,6-14.63,5.72-22.13-.12-3-3-3.16-2.9-.09.27,6.82-3.54,14.78-5.88,21.17-2.26,6.17-5.49,11.73-8.39,17.57-6.27,12.62-16.22,27-31.95,27.2-7.29.11-13.3-1.18-19.59-5.06-2.58-1.59-4.41-3.79-6.7-5.73s-4.84-3.77-7-5.92c-4.35-4.42-8.27-9.48-12.47-14.12a69,69,0,0,1-6.37-8.32c-2.11-3.17-7.56-6.11-5.91-10.57.73-2-1.34-5.67-2.48-2.6Z"></path>
      <path class="cls-2" d="M175.68,130.55c0,2.29.75,2.81,2.19,4.4a42.48,42.48,0,0,1,6.82,10.1,128.32,128.32,0,0,1,7.93,22.16c1.92,7.44,4.8,13.95,4.91,21.8.06,4.13-1.68,6.41-3.6,9.76-2.58,4.48-5.67,7.79-11.28,8.06-1.87.09-3.19,4.87-1,4.77a16.3,16.3,0,0,0,9.11-3.6c3.28-2.52,4.47-5.82,6.73-9.14,1.63-2.4,3-4.2,3.26-7.17.47-4.6-.24-9.25-.91-13.78-.63-4.29-2.44-8-3.7-12.14-1.41-4.59-2.4-9-4.16-13.52s-3.29-9.5-5.77-13.68a42.77,42.77,0,0,0-2.62-3.57c-.63-.85-4.68-4.88-4.67-5.91,0-3.27-3.16-.58-3.18,1.47Z"></path>
      <path class="cls-2" d="M31.73,196.83c-1.31,5.38-1.68,9.83,1.41,14.47,3.33,5,7.7,7.84,13.15,10.32a173.48,173.48,0,0,0,17.43,6.58c6.21,2.06,12.87,2.31,19.39,2.25,1.86,0,4.93-3.61,2-3.59-11.88.11-22.75-2.78-33.56-7.66-4.5-2-9.38-4.14-12.57-8.1-1.28-1.59-3.36-4.4-3.73-6.43-.49-2.73.3-6.07,1-8.73.59-2.43-4-.9-4.48.89Z"></path>
      <path class="cls-2" d="M36.06,183.66c1.2,3.85,5.35,4.49,8.74,5.74,6.43,2.37,12.76,4.94,19.36,6.75,7,1.94,14.05,3.76,20.74,6.7,5.55,2.43,11.74,3.37,17.59,4.86,6.88,1.76,13.8,3.94,20.78,5.25,7.32,1.37,14.79,1.82,22.12,3.17,13.18,2.42,25.17-2.72,38-4.2,2.1-.24.13-4.79-1.69-4.58-12.51,1.44-24.35,6.59-37.19,4.31-6.44-1.15-13-1.79-19.43-2.75s-12.84-3-19.21-4.57c-5.65-1.41-11.4-2.61-17-4.21-5.91-1.69-11.37-4.45-17.37-6.06a150.05,150.05,0,0,1-18-5.54c-2.65-1.08-5.31-2.07-8-3-1.52-.53-3.21-1.4-4.77-1.8-.47-.12-2-1.13-1.7-.19-.75-2.4-4-3-3,.16Z"></path>
      <path class="cls-2" d="M138,212.72c.84-1.41,4.84-2.74,6-3.24,1.47-.62,3-1.12,4.45-1.76,3.31-1.43,6.33-3.55,9.46-5.34A100.76,100.76,0,0,0,175.28,190c4.88-4.38,8.12-9,11.59-14.47A35.78,35.78,0,0,0,193,156.14c0-1.93-5-2-5,0-.15,7.83-2.73,13.56-7.11,19.84-2,2.8-3,5.86-5.42,8.39a84.55,84.55,0,0,1-7.56,6.88c-5.93,4.91-12.75,8.85-19.42,12.65-4.26,2.42-12.64,3.61-15.29,8.07-1,1.75,3.85,2.4,4.82.76Z"></path>
      <path class="cls-2" d="M116,208.87c4.19.06,9.21,2.94,13,.55,4.78-3,8.46-7.5,12.08-11.71,1.38-1.6-3-3.86-4.17-2.52a77.54,77.54,0,0,1-10.22,10.17c-1.94,1.56-1.8,1.9-4.34,1.44a48.86,48.86,0,0,0-7.78-1.11c-3.27,0-.63,3.15,1.41,3.18Z"></path>
    </g>
  </g>
</svg>
