<?xml version="1.0" encoding="UTF-8"?>
<svg xmlns="http://www.w3.org/2000/svg" viewBox="0 0 566.8 425.26">
  <defs>
    <style>.cls-1{fill:#8faedb;}</style>
  </defs>
  <title>Asset 5</title>
  <g id="Layer_2" data-name="Layer 2">
    <g id="Layer_1-2" data-name="Layer 1">
      <path class="cls-1" d="M70.78,125.4c2.29,2.29,3.51,3.53,6.76,4.69A111.09,111.09,0,0,0,93,134.45c6.05,1.23,12.12,1.73,18.23,2.5,5.76.73,11.17,2,16.87,3,6.14,1.13,12.33,2,18.38,3.62,3.37.88,6.55,2.21,9.87,3.23,2.17.67,4.56.42,6.64,1.21,3.35,1.28,6.38,5.08,8.82,7.57,2.05,2.11,3.92,4.36,5.86,6.57,3.37,3.85,7,8.22,11,11.35,1,.78,4.13-1.38,3.17-2.34l-1-1c-1.13-1.13-4.37,1.15-3.38,2.13l1,1,3.17-2.34c-4.25-3.3-8.24-8.22-11.76-12.29a97.3,97.3,0,0,0-11.6-11.74c-1.9-1.56-2.51-2-4.73-2.17-3.36-.27-6.07-1.3-9.22-2.36A133.19,133.19,0,0,0,135,138c-5.51-1-11-2.83-16.54-3.45s-11.32-.88-16.88-1.7a98.7,98.7,0,0,1-16.79-3.72c-2.23-.75-4.86-1.67-7-2.62-1.69-.74-2.4-2-3.63-3.23s-4.37,1.14-3.38,2.13Z"></path>
      <path class="cls-1" d="M74.86,106.38v1c0,.53.63.63,1,.63,6.18,0,12.33-.27,18.42,1,5.47,1.12,10.78,2.85,16.23,4.09,5.16,1.17,10.39,1.34,15.49,2.8,5.28,1.51,10.67,2.72,16,4.05,2.47.62,4.94,1.3,7.35,2,.29.08,2.6.59,2.66.66.35.45-.13,3.17,0,3.84.53,2.49,2.28,4.69,3.21,7,2.11,5.31-2.48,14.33,3.26,18.18.7.47,2-.18,2.49-.68l1-1c1.88-1.88-.63-2.65-2.05-1.23l-1,1,2.49-.68c-3.92-2.63-1.9-9.76-1.85-13.58,0-2.22-.71-3.65-1.71-5.74a19.22,19.22,0,0,1-2.37-9.35c0-.53-.63-.62-1-.63-2.61,0-1.53-.67-2.74-1-1.81-.52-3.76-.72-5.6-1.16-3.52-.84-7-1.85-10.52-2.66-6.56-1.51-12.86-2.85-19.48-4-6.92-1.15-13.54-3.64-20.43-5a44.43,44.43,0,0,0-8.48-.83H81.87c-1.57,0-3.45.91-3.45-.42,0-1.54-3.56.12-3.56,1.59Z"></path>
      <path class="cls-1" d="M117.8,109.18l1,1c.6.6,2.39,1.06,3.12.43,2.9-2.46,1.56-8.09,1.45-11.42,0-1.39-.06-2.8,0-4.19.07-2.41.82-3.54,1.57-5.78a11.69,11.69,0,0,0,.51-4.1l-1.66.74c4.88,0,10.34-.67,15.14.17a42.8,42.8,0,0,0,7.77.87l-2.26-1.57c-.56,2.73-1.1,4-.51,6.68a76.78,76.78,0,0,1,1.5,12.22c.27,5.43-1.12,12.33,2.28,17.12a3,3,0,0,0,3,.87c.77-.27,1.34-.78,2.08-1,2.18-.76-1.1-2.59-2.44-2.12-.77.27-1.34.78-2.08,1l3,.87c-3.38-4.74-1.63-11.89-2-17.3-.22-3.26-.6-6.76-1.15-10a17.44,17.44,0,0,1,.17-7.53c.21-1-1.57-1.57-2.26-1.57-2.83,0-5.32-.85-8.07-1-4.89-.35-9.94,0-14.84,0-.4,0-1.66.06-1.66.74a10.49,10.49,0,0,1-.63,4.25,18.15,18.15,0,0,0-1.45,7.7c0,3,1.79,10.47-.66,12.56l3.12.43-1-1c-1-1-4.74-.68-3.09.95Z"></path>
      <path class="cls-1" d="M119.44,86.05v1c0,1.44,4,1.06,4-.52v-1c0-.66-1.14-.86-1.59-.86h-1l1.59.86V82.41l-1.84,1.35c3.09-.19,6.05-1,9.17-1,2.68,0,5.36.07,8,0,1.87-.08,4.33-.8,5.9.62,1.77,1.61.92,4.86.82,6.89-.07,1.4,3.88,1.07,4-.52.26-5.07.15-9.11-5.85-9.44-7.48-.42-14.91.87-22.31,1.32-.71,0-1.84.51-1.84,1.35v3.13c0,.66,1.14.86,1.59.86h1l-1.59-.86v1c0,1.44,4,1.06,4-.52v-1c0-1.44-4-1.06-4,.52Z"></path>
      <path class="cls-1" d="M133.54,83.4l1,1c.87.87,1.5-.73,1.5-1.35v-1c0-.76-.15-2.07-1-2.37s-1.21.94-1.21,1.52v1l1.5-1.35-1-1c-.65-.65-1.31.25-1.43.86a3,3,0,0,0,.67,2.68Z"></path>
      <path class="cls-1" d="M134,83.63c1.49,0,1.35-4-.2-4s-1.35,4,.2,4Z"></path>
      <path class="cls-1" d="M138.53,78.51c1.13,2.68,6.47,2.79,9.11,3.25s5.09.6,7.61,1c3.18.53,5.7,1.89,8.73,2.79,3.52,1,7.2.58,10.76,1.33,1.88.39,4,.48,5.13-1.44,2.67-4.49-8.48-6.23-11.14-6.88-5.42-1.33-10.91-2-16.37-3-3.49-.67-9.41-.59-11.71-3.57-.89-1.14-3.17,1.07-3.17,2v4.17c0,1.95,3.33-.05,3.33-1.44V72.58l-3.17,2c3.14,4.06,12.43,3.93,17,4.64,1.43.22,23,4.44,22.28,6.5L178.61,84c-.88.37-5.43-.82-6.65-.83a25.9,25.9,0,0,1-9.76-2.27c-3-1.23-6.2-1.37-9.41-1.8A49.37,49.37,0,0,1,146.65,78c-.46-.12-4.57-1-4.83-1.63-.66-1.57-3.84.79-3.29,2.1Z"></path>
      <path class="cls-1" d="M177.37,88.27c-1.71-.09-1.21-2.34-1.4.56a12,12,0,0,0,.19,2.12,61.88,61.88,0,0,0,1.63,8c1.06,4.1,2.23,8.12-.74,11.74-.93,1.13,2.33,3.44,3.32,2.23,4.08-5,1.24-11,.06-16.53-.78-3.63.76-10.73-4.54-11-2.3-.12.07,2.8,1.48,2.87Z"></path>
      <path class="cls-1" d="M150.12,107.89A151.25,151.25,0,0,1,176.88,110c.93.17,15.48.95,15.55,1.33.29,1.43,4.1,2.42,3.79.91-1-5-8.81-3.88-12.44-3.83-5.44.08-10.75-1.77-16.19-2-6.21-.3-12.4-1.08-18.63-1.08-2.61,0-.48,2.54,1.15,2.54Z"></path>
      <path class="cls-1" d="M148.85,111.72a144.54,144.54,0,0,1,25.73,2.06,61,61,0,0,0,11.5,1.06,28.78,28.78,0,0,1,5.81.5s3.72.73,3.55.32l.62-2.68H194c-1.42,0-.9,3.94.69,3.94h2.08c1,0,.82-2.19.62-2.68-1.16-2.75-3.72-2.55-6.46-3.16-4.5-1-9.46,0-14.06-.75a170.19,170.19,0,0,0-28.7-2.55c-1.42,0-.9,3.94.69,3.94Z"></path>
      <path class="cls-1" d="M192.55,117.44c1.08,0,0,.38.3,1.05a34.29,34.29,0,0,1,2,4.06,41.25,41.25,0,0,1,1.29,7.7c.73,6.18,1.29,12.55,1.67,18.75.22,3.54.84,6.73,1.37,10.22.43,2.84.21,5.65,1.09,8.42A51.71,51.71,0,0,1,203,183.48c0,1.56,3.54-.14,3.54-1.64a48.94,48.94,0,0,0-2.08-14.58,79,79,0,0,1-3.12-19c-.33-6-.91-12.1-1.51-18.1-.26-2.6-.64-5.17-1.1-7.73a16.33,16.33,0,0,0-.62-3.41c-.84-1.63-1.68-1.53-2-3.88-.07-.53-.59-.61-1-.61h-1c-1.42,0-3.81,2.88-1.48,2.88Z"></path>
      <path class="cls-1" d="M100.21,72.44c3.73,0,7.19.19,10,3.05A13.53,13.53,0,0,1,113.4,83c.49,4.73-3.5,6.47-4.29,10.53-.58,3,1.55,4.38,2.65,7s1.63,9.8-1.17,11.34c-1.7.94,1.69,2.84,2.92,2.16,3.46-1.91,3.13-8,2.57-11.34-.36-2.14-2-3.39-2.78-5.38-1.47-4,2-5.62,3.39-8.78,1.88-4.4-.38-10.11-3.31-13.54C109.66,70.56,104.29,70,98.9,70c-2.61,0-.28,2.44,1.31,2.44Z"></path>
      <path class="cls-1" d="M78.36,56.38c1.86-1.53,4-2,6.11-3.06,2.63-1.29,5-3,7.77-4,4.39-1.68,9.24-3.16,14-3.21,4.33,0,8.41,1,9.69,5.73.7,2.58.11,5.32,1.49,7.76,3.33,5.89,12.62,2.34,18.08,4,4.11,1.22,4.84,3.86,4.92,7.69,0,1.47.17,8.69-2.4,8.44-1.7-.17-1.19,3.76.21,3.9,5.54.54,4.64-11.77,4.22-14.88-1.11-8.19-7.72-9.84-15.18-9.85-1.23,0-2.44.12-3.67.13-2.82,0-4.6-2-5.14-4.69a23.32,23.32,0,0,0-1.13-5.15c-1.42-3.35-3.58-5.83-7.23-6.63C105,41.4,99.8,42.74,95,44.26a50.58,50.58,0,0,0-8.82,3.58c-3,1.6-6.51,2.72-9.16,4.89-1.12.92.11,4.68,1.36,3.66Z"></path>
      <path class="cls-1" d="M68.34,49.91c3.61,2.54,8.31.09,12.09,2.26,2.32,1.33,2.3,4.64,2.14,7.19-.22,3.44-2.16,6.44-4,9.27-.72,1.12.65,3.3,1.89,3.36,4.08.21,5.21,3.39,4.36,7.05-.11.48-.81.83-.9,1.38-.22,1.43-.36,2.21.45,3.55,1.39,2.29,3.81,3.26,4.58,6.17.85,3.21-.13,6.47-3.63,7.36l2.05,2.68V98.11c0-1.37-2.72-4-2.72-1.72v2.08c0,.79.94,3,2.05,2.68C95.2,99,91.53,88.93,88,84.07c-1.47-2-.21-2,.13-4.44a11.37,11.37,0,0,0-.9-5.34c-1.47-3.83-4-5.73-8.11-5.94L81,71.71c3.63-5.61,6.25-12.67,3.1-19.29a8.06,8.06,0,0,0-4.14-3.78c-3.47-1.51-8.63.17-11.63-1.95-1.84-1.3-1,2.44.05,3.21Z"></path>
      <path class="cls-1" d="M134.41,97.06h1l-1.77-2.44v7.29l2.58,1.09c-.12-1.8-.89-3.42-1-5.21a8,8,0,0,0-.78-3.45c-1.13-2-3-2.11-5.16-2.11a.86.86,0,0,0-.81.9c0,2.5-.34,5-.43,7.48-.08,2.15-.38,5,.87,6.85a3,3,0,0,0,5.41-.21c1.6-3,.89-7.23.89-10.51,0-.77-1.34-3.35-2.33-2.2-2.26,2.63-3.51,8.26-.19,10.56.39.27.84.42,1.21,0l1-1c1-1-.86-4.52-2.07-3.31l-1,1,1.21,0c.54.37.18,0,.37-.58s.25-1,.43-1.44a6.65,6.65,0,0,1,1.09-2l-2.33-2.2c0,2.46.46,5.36-.25,7.74a2.8,2.8,0,0,1-1.56,1.9q-1.09-.53-.38.32.36.83.25.35c.1-.18-.06-.81-.07-1-.15-3.29.39-6.56.44-9.84l-.81.9a8.34,8.34,0,0,0,2.19.07q.86.36.13-.51a5,5,0,0,1,.06.81c-.09,1.93.92,3.63,1.05,5.52.11,1.59,2.58,3.74,2.58,1.09V95.72c0-.81-.78-2.44-1.77-2.44h-1c-1.68,0-.5,3.78,1,3.78Z"></path>
      <path class="cls-1" d="M158.75,96.92h1l-2.34-2.82c0,1.34-.77,2.16-1,3.32a13,13,0,0,0,.05,3.2,17.87,17.87,0,0,0,1.26,6.22c.31.73,1.82,2.3,2.56,1.2,3.09-4.56,2.26-10.1,2.19-15.29l-.6,1.06c.5,0,3.23.11,3-.12.17.19-.13,1.56-.14,1.77-.07,1.33-.16,2.66-.23,4-.14,2.76,0,5.64,1.8,7.86.68.83,2.4,1.84,2.4,0v-1a2.67,2.67,0,0,0-2.34-2.43,10.79,10.79,0,0,1-1.9-.1q.5.31.48-.53c.06-.75.5-1.54.59-2.32a57,57,0,0,0,0-6.08l-2.86-.94c.38,1.4,1.37,2.88,3,3,2,.2.36-3.34-1.06-3.48q-.24.05-.13-.09L165.68,95l-.16-.6c-.31-1.14-2.86-3.25-2.86-.94s.32,4.78-.41,7c-.42,1.27-.86,2.16-.45,3.52.9,3,3.65,3.38,6.33,3.4l-2.34-2.43v1l2.4,0c-2.18-2.64,0-8-.35-11.21-.47-4.1-4.41-4.47-7.7-4.47-.54,0-.61.69-.6,1.06.06,4.75.85,9.71-2,13.87l2.56,1.2a15.49,15.49,0,0,1-.75-5.56c0-1.7,1-2.84,1-4.62,0-1.26-1-2.82-2.34-2.82h-1c-1.53,0,.25,3.49,1.74,3.49Z"></path>
      <path class="cls-1" d="M182.69,169h2.08l-.95-1.56c0,2.9,2.53,4.47,4.19,6.69a81.51,81.51,0,0,1,7.47,13c2.19,4.47,4.07,9.09,5.9,13.71,2,5,2.85,10.15,4.44,15.24,2.87,9.18,6.25,18.51,9.8,27.44a58.69,58.69,0,0,0,5.62,10.62c1.76,2.71,1.92,5.68,3.58,8.31,1,1.59,2.28-2.11,1.5-3.33s-.37-2.61-.84-3.83a29.77,29.77,0,0,0-3.12-5.21,50.46,50.46,0,0,1-5.1-9.9c-3.59-9.09-7.4-18.87-9.88-28.31a147.94,147.94,0,0,0-9-25.24,122.53,122.53,0,0,0-5.67-10.89,56.07,56.07,0,0,0-3.24-4.91c-.75-1-3.38-3.15-3.38-4.22,0-.48-.28-1.56-.95-1.56h-2.08c-1.58,0-1.88,4-.37,4Z"></path>
      <path class="cls-1" d="M199.2,157.25c3.67,0,6.59,1.63,10.38,1.34,5.86-.45,11.52.71,17.38.74,10.62.05,21.12.93,31.75,1,1.62,0,5.72.41,2,.81a83,83,0,0,1-8.93,0,123.64,123.64,0,0,1-18-1.77c-5-.75-10.34-.69-15.45-1.25A150.45,150.45,0,0,0,202,157c-2,0,0,3.36,1.4,3.36,4.92,0,9.68.78,14.58,1,2.81.15,5.52.92,8.34,1,2.2.09,4.42-.15,6.61,0,5.2.34,10.32,1.77,15.58,2,5.78.26,11.6.07,17.39.07.45,0,.88-.24.86-.75-.15-4.08-2.6-6.25-6.54-6.7-7.43-.86-15.08-.16-22.57-.9s-15.15-.37-22.71-1c-3.23-.29-6.54.59-9.7.25-2.67-.29-4.6-1.48-7.41-1.5-2,0,0,3.35,1.41,3.36Z"></path>
      <path class="cls-1" d="M213.23,220.94c4,2.23,9.18-.7,13.12-2.17,3.19-1.19,6.25-2.86,9.49-3.9,2-.63,4.16-.53,5.95-1.57s-2.15-4-3.83-3c-1,.55-2.68.46-3.77.76a54.62,54.62,0,0,0-6.86,2.75c-2.12.89-4.27,1.73-6.44,2.46-.79.27-5.78,2.36-6.21,2.13-2.65-1.48-4.11,1.1-1.44,2.58Z"></path>
      <path class="cls-1" d="M238.65,214.2c11.67,0,23.17-.94,34.79-1.36,5.06-.18,9.94.16,15,.37,2.65.11,7.09,1,9.36-.84,1.45-1.18,1.29-5.83-1-4-.66.54-2.34,0-3.17,0-2.89,0-5.72-.19-8.6-.45a75.16,75.16,0,0,0-13.28.15c-10.82,1-21.61,1.22-32.48,1.22-1.86,0-2.86,4.85-.6,4.85Z"></path>
      <path class="cls-1" d="M215.76,219.34q-1.06-.67-.37-.21a1.06,1.06,0,0,0,.31.19c.77.34,2.05.55,2.1-.69a4.1,4.1,0,0,0-.49-1.76c.2.55,0,0,0-.22a8.77,8.77,0,0,0-.66-2.48l.21,1a10.12,10.12,0,0,0-.67-4.26c-.44-1-1.52-2.19-2.69-2.18s-1.28,1.16-.89,2a3.77,3.77,0,0,1,.25,1.57,7.76,7.76,0,0,0,.32,2c.31,1.19.35,2.45,1.11,3.48l-.5-1.56v.2l1.59-.91c2,.86,0-.09-.46-.19-1-.24-1.73.32-1.54,1.4a3.67,3.67,0,0,0,2.38,2.62Z"></path>
      <path class="cls-1" d="M214.33,216c1.82.82,3,.07,4.85-.51,3.1-1,6.25-1.69,9.4-2.47,6.58-1.62,13.11-4,19.93-4.3,1.08,0,1.63-1.47,1.63-2.39v-.46c0-3-2.9-3.29-2.92-.2v.46l1.63-2.39c-5.61.25-11.09,1.84-16.48,3.3-2.84.77-5.69,1.42-8.53,2.15-2,.51-6.51,2.92-8.4,2.07s-2.84,4-1.11,4.76Z"></path>
      <path class="cls-1" d="M244.91,209.43h.46l-2.65-3.3a5.57,5.57,0,0,0,.65,2.67,6.41,6.41,0,0,0,.92,1.23l0,0q-.74-2.65-.67-1.44a5.91,5.91,0,0,0,1.36,4.42c.53.6,1.74,1.56,2.43.61s0-2.47-.65-3.17c.18.2.22.82.42.94,0,0,0-.35,0-.5a7.55,7.55,0,0,0-.1-1.36,4.55,4.55,0,0,0-.74-1.69,5.55,5.55,0,0,0-.38-.5l-.43-.44q.78,2.35.72,1.21c0-1.36-1.11-3.3-2.65-3.3h-.46c-1.16,0-.94,1.74-.68,2.41.37,1,1.26,2.15,2.42,2.15Z"></path>
      <path class="cls-1" d="M242.68,206.36c-1.25.24-2,.61-3.24.93s-4.53,3.49-1.52,3.47c5.68,0,11.36-.39,17-.45,5-.05,10,.33,15-.31,10.29-1.33,21-.63,31.38-.63,1.83,0,5-3.52,2.08-3.52H288.1c-4.45,0-9.07-.6-13.48,0-11.28,1.65-23.2,1.26-34.63,1.34l-1.52,3.47c1-.26,2.24-.73,3.24-.93,2-.39,4.18-4,1-3.42Z"></path>
      <path class="cls-1" d="M229.24,208.64h.46c1,0,3-.47,2.93-1.85-.11-2.39-.62-4.76-.52-7.15a23.72,23.72,0,0,1,1.67-6.57c.6-1.77,1.16-3.67,1.89-5.39.39-.9,1.29-3.34,2.1-3.73s2.78.48,3.39.7a20.43,20.43,0,0,1,10.61,9.46c1.86,3.67.63,8.58,3.38,11.92,1,1.17,5.06,1,4.8-1.09a1.84,1.84,0,0,0-.61-1.3c-1.25-1.43-6-.07-4.66,1.46l.32.56,4.8-1.09c-2.33-2.83-1.6-7.06-2.63-10.28-.78-2.42-2.9-5-4.66-6.83-3.42-3.55-8.79-6.44-13.83-6.47-5.72,0-6.37,3-8.19,7.61-1.21,3.1-2.71,6.44-3.24,9.72-.49,3,.29,6.15.43,9.19l2.93-1.85h-.46c-2.52,0-4.26,3-.91,3Z"></path>
      <path class="cls-1" d="M236.11,189.19c1.82.57,3.79.26,5.69.6a9.72,9.72,0,0,1,7.51,6.46c1.48,4.62,2.41,9.75,5.05,13.88.91,1.42,2.38.74,2.38-.79v-.93c0-2.07-3.18-4.87-3.18-1.6v.93l2.38-.79c-3.34-5.22-2.63-12.21-6.77-17a14.38,14.38,0,0,0-6.51-4.52c-2.36-.75-5.08-.34-7.35-1.06-1.84-.58-1,4.25.8,4.82Z"></path>
      <path class="cls-1" d="M234.19,194.29c3.88,0,7.82-.21,11.68.17,3.44.33,6.57,1.21,10.08,1.22,2.31,0,1.3-4.84-.66-4.84-3.5,0-6.64-.89-10.08-1.22-3.86-.38-7.81-.17-11.68-.17-2.31,0-1.29,4.84.66,4.84Z"></path>
      <path class="cls-1" d="M236.22,192.93c.58,1-.38,2.43-.52,3.52a43.15,43.15,0,0,0,0,5.29c0,2-.36,4.86,1.27,6.33,1.47,1.33,5.72-1.25,4-2.78-1.39-1.25-.58-6.3-.58-7.94,0-2,1.39-4.72.37-6.54s-5.53.34-4.53,2.11Z"></path>
      <path class="cls-1" d="M241.91,196.87a17.42,17.42,0,0,1,1.87,5.89c.19,2.07,0,4.15.31,6.21.14.92,1.15,1,1.88.88l.41-.06a3.35,3.35,0,0,0,2.64-2.25l.06-.41c.37-2.57-4.22-1-4.49.93l-.06.41,2.64-2.25-.41.06,1.88.88c-.36-2.33,0-4.7-.4-7a22.3,22.3,0,0,0-2-5.88c-.87-1.81-5.19.69-4.27,2.6Z"></path>
      <path class="cls-1" d="M233.27,196.68l.46.46-.45-2.24c-.25,3.74-3,6.89-3.25,10.65-.06.88,0,2.52,1.18,2.68s1.79-1.42,1.85-2.27c.25-3.68,5.68-10,2.32-13.35-1.84-1.84-3.44,2.73-2.1,4.07Z"></path>
      <path class="cls-1" d="M266.81,164.62l.46.46-.2-.77a4,4,0,0,0,0,.4l0,.12q.17-.33,0-.12l.73-.74.36-.2,1.29-.34h-.13a4,4,0,0,0-1.83.63c-.35.25-.89.68-.89,1.15v.46l4.67-1.22a1.65,1.65,0,0,1-.23-.28q.1.19,0-.06a1.81,1.81,0,0,1,0-.28q0,.26,0,0a1.07,1.07,0,0,0-.53-1,2.72,2.72,0,0,0-1.62-.29,3.88,3.88,0,0,0-1.83.63c-.35.25-.89.68-.89,1.15a2.9,2.9,0,0,0,.66,2.16,2.69,2.69,0,0,0,2.61.45,4.49,4.49,0,0,0,1.17-.52c.31-.19.89-.73.89-1.15v-.46l-2.71,1.78c1.33-.14,3.08-.88,3.17-2.44a1.43,1.43,0,0,0-.21-1.05c-.13-.16-.3-.3-.45-.45a3,3,0,0,0-3.24-.23c-.63.3-2.07,1.37-1.23,2.22Z"></path>
      <path class="cls-1" d="M268.33,160.57l-1.85-1.85c-.61-.61-1.81-1.13-2.23,0a3.5,3.5,0,0,0,.87,3.35l1.85,1.85c.61.61,1.81,1.13,2.23,0a3.5,3.5,0,0,0-.87-3.35Z"></path>
      <path class="cls-1" d="M270.35,162.65a1.69,1.69,0,0,0-.89-1.59c-1.54-1.1-4,1.11-4,2.62-.13,4.31-.69,8.07.24,12.34.84,3.89.69,7.69.69,11.68,0,3.62.31,7.12.46,10.7a51.48,51.48,0,0,0,.46,6.94c.26,1.43.93,2.62.92,4.17l3.14-2.84h-.46c-2,0-4.76,3.74-1.79,3.74h.46a3.22,3.22,0,0,0,3.14-2.84c0-3.69-1.23-7.33-1.39-11.11-.15-3.59-.46-7.09-.46-10.71,0-4,.15-7.79-.69-11.68-.9-4.17-.36-8.12-.24-12.34l-4,2.62,0,.26c.19,2.14,4.65,0,4.48-2Z"></path>
      <path class="cls-1" d="M262.1,160.42a2,2,0,0,0,1.54,1.15l-1.14-1.09v.46c0,.7.55.95,1.14,1.09,9.41,2.21,20.14-.8,29.72-.9l-1.7-1.11v.46c0,2.21,4.76.81,4.76-1.1v-.46c0-.91-1-1.12-1.7-1.11-9.09.1-19.7,3-28.61.95l1.14,1.09v-.46c0-.7-.56-.94-1.14-1.09l.61.23c-1-1.8-5.59.21-4.62,1.9Z"></path>
      <path class="cls-1" d="M285,146c4.55,1.78,6.33,7,8.53,10.91,2,3.51,5.94,8.06,9.94,9.11,1.29.34,3.36-1.42,3.36-2.71v-.46c0-2.55-4.3-.3-4.3,1.55v.46l3.36-2.71c-4.47-1.18-7.92-7.33-9.85-11.07-1.79-3.46-4-7.23-7.78-8.71-1.78-.7-5.22,2.87-3.26,3.64Z"></path>
      <path class="cls-1" d="M281.46,143.32c0,1-1.59,2.89-2,3.79-.7,1.67-1.19,3.41-1.88,5.09-1.2,2.92-2.73,5.79-3.1,9s2.51,3.31,2.94.31l.06-.41-1.33,2.28.41-.06c1.83-.26,2-5.2-.28-4.88l-.41.06c-.87.12-1.24,1.62-1.33,2.28l-.06.41,2.94.31c.35-3.38,2.68-6.78,3.77-10s3.18-5.63,3.18-9.19c0-3.34-2.94-1.47-2.94,1Z"></path>
      <path class="cls-1" d="M302.93,164.65c2.63,2.33,8,.93,11.22.7,7.05-.52,14-1,21.1-1.07,12.67-.08,25.31.91,38,.91,1.06,0,3.69-.61,3.29-2.21-.15-.59-.48-.79-1-1.08-1.57-.9-5.93,1.33-3.77,2.57l-.06-.16,3.29-2.21c-11.45,0-22.86-.92-34.29-.93-5.12,0-10.24,0-15.35.27-3.25.15-6.46.51-9.7.77-1.73.14-7.35,1.27-8.29.43-1.44-1.27-6,.67-4.44,2Z"></path>
      <path class="cls-1" d="M368.45,160.6v.46l4.86.51a6.28,6.28,0,0,0-2.51-4.07,42.92,42.92,0,0,1-6.36-5.82c-3.46-4-6.21-6.52-11.06-8.66l1.42,1.43a2.48,2.48,0,0,0-1.35-2.06c-1.7-1.21-5.75-.15-3.09,1.76l-.42-.21c.06.67.88,1.19,1.42,1.43,2.16,1,4,1.69,5.62,3.43,1.37,1.45,2.61,3,3.91,4.52a30.1,30.1,0,0,0,3.31,3.47c1.52,1.29,3.88,2.09,4.25,4.27.31,1.8,4.86,2.79,4.86.51v-.46c0-1.82-4.86-2.77-4.86-.51Z"></path>
      <path class="cls-1" d="M286.36,145.75c5.71-.4,11.86.26,17.59.6,6.77.4,13.52,1.27,20.23,2.22a69.41,69.41,0,0,0,14.49.94c3.84-.22,8.29.56,11.41-1.71,1.46-1.06,1-5.93-1-4.45-2.84,2.07-8.47,1.08-12,1.37-4.77.38-9.57-.72-14.3-1.39-6.05-.86-12.18-1.58-18.29-1.95-5.7-.34-11.91-1-17.59-.6-2.05.14-2.41,5.1-.54,5Z"></path>
      <path class="cls-1" d="M302.69,168.32h1.39l-3.37-2.69c0,6.58,1.36,12.48,2.43,18.91,1.32,8-.26,16.27,1.45,24.32.74,3.47,1.89,6.93,2.12,10.49.25,3.76.27,7.4.79,11.17a97.74,97.74,0,0,0,1.68,9.88c.89,3.69,2.86,7.2,3.54,10.9.21,1.16,3,4,4.11,2.32l.93-1.39c1.15-1.73-2.8-4.79-3.91-3.12l-.93,1.39,4.11,2.32c-.56-3-2-5.86-2.94-8.81a67.2,67.2,0,0,1-2.16-11.09c-.56-4.07-.62-8-.93-12-.27-3.56-1.39-7-2.13-10.48-1.66-7.81-.12-15.8-1.3-23.57-1-6.69-2.61-12.78-2.61-19.63,0-1.49-2.09-2.69-3.37-2.69H300.2c-2.33,0,.73,3.81,2.48,3.81Z"></path>
      <path class="cls-1" d="M369.7,162.44v-.93c0-2.54-2.32-1.53-2.9.21-1.72,5.18-.28,11.67,1.1,16.84A114.12,114.12,0,0,1,372,209.19c0,18.09,2.28,36.07,5.54,53.83.52,2.84,3.3-.42,3.3-2v-1.39c0-3.27-3.34-.76-3.34,1.4v1.39l3.3-2c-3.15-17.1-5.53-34.45-5.56-51.88,0-8-.29-16-1.92-23.88-.87-4.24-2.48-8.34-3.21-12.59-.4-2.34-1.52-7.08-.74-9.4l-2.9.21v.93c0,3.27,3.18.59,3.18-1.46Z"></path>
      <path class="cls-1" d="M340.27,151.75h.46c.79,0,1.56-.37,1.56-1.22,0-6.6-2.72-11.94-4.36-18.17-1.83-7-2.17-14.16-3.65-21.17-.71-3.36-2.13-6.54-2.77-9.9s-.7-6.66-1.72-10c-1.79-5.9-4.58-12.61-8.31-17.53S312.22,65.94,308,61.61C303.24,56.82,299.7,51,295.17,46c-4.31-4.7-9.62-8.23-13.83-13-2-2.25-3.54-5-5.56-7.16-1.19-1.27-5-4.48-6.31-4.36,3.25-.3.15-3.06-1.78-2.88-1,.09-1.66.06-2.25.89a.84.84,0,0,0,0,1c1.54,2,2.34,3.37,4.41,4.76,2.35,1.56,3.24,3.77,5.14,5.8,4.5,4.8,9.51,8.82,14,13.52,4.26,4.41,7.72,9.4,11.72,14.07a39.34,39.34,0,0,0,6.36,6.47,59.2,59.2,0,0,1,8.08,6.62C319.83,76.7,323,84.3,325,90.63c1,3.32,1,6.65,1.72,10s2.07,6.54,2.77,9.91c1.47,7,1.8,14.23,3.65,21.18,1.64,6.16,4.35,11.66,4.35,18.18l1.56-1.22h-.46c-3.26,0-.3,3.08,1.73,3.08Z"></path>
      <path class="cls-1" d="M208.34,10.39c4.58,1.68,10.32.51,15.19,1.61,5.24,1.18,10.23,3.12,15.35,4.69A56.29,56.29,0,0,1,253,23.08c4.43,2.8,10.5,4.21,14.35,7.73s5,9,7.19,13.45c2,4.2,5.11,7.84,7.49,11.85,2.87,4.86,4.8,10.22,7.57,15.14a36.43,36.43,0,0,0,3.28,5.51c.54.64,2.82,2.14,2.84,2.94.07,2.79,3.15-.86,3.11-2.51a3.66,3.66,0,0,0-1.32-2.61,23.41,23.41,0,0,1-3.73-4.65c-2.85-4.87-5-10-7.54-15s-6.71-9.55-9.11-14.79c-2-4.37-3.37-9.41-6.77-13-3.2-3.36-8-4.3-11.89-6.52-5.13-2.91-9.62-6.06-15.3-7.84-5.35-1.68-10.62-3.63-16.07-5a46.24,46.24,0,0,0-7.63-1.39c-2.9-.23-6.44.39-9.18-.61-1.72-.63-3.63,4-2,4.59Z"></path>
      <path class="cls-1" d="M264.41,19.64l.46.46-.12-2.9c-1.75,0-3.58-1.54-5.15-2.16a45.08,45.08,0,0,0-9.3-2.11c-4.59-.74-9.62-2.21-14.25-2.21-2.31,0,.45,4,2.08,4,4.27,0,9.13,1.39,13.42,2.08a40,40,0,0,1,12,3.45,6.83,6.83,0,0,0,3.32.94c1.8,0,.51-2.27-.12-2.9l-.46-.46c-2.12-2.12-4-.34-1.85,1.8Z"></path>
      <path class="cls-1" d="M172.56,2.8c-.85.67,5.29,2.35,5.58,2.45,2.89.94,5.77,2,8.59,3.12a162.77,162.77,0,0,1,15.21,7.26C211.82,21,219.63,29.24,226.61,38c3.42,4.28,7.2,8.3,10.51,12.66,3.5,4.62,6.63,9.39,10.41,13.8,3.52,4.12,6.82,8.47,10.65,12.3,1.74,1.74,3.55,3.46,5.36,5.12,2.31,2.11,5.39,3.46,7.51,5.72,1.33,1.42,5.45-1.32,4.31-2.53-1.78-1.89-4-2.92-6-4.52a80.5,80.5,0,0,1-8.13-7.63c-4.34-4.53-8.32-9.6-12.28-14.47-7.88-9.68-14.6-20.66-23.64-29.37-4.16-4-7.54-9.05-12.37-12.32A118.71,118.71,0,0,0,196.41,8a138.89,138.89,0,0,0-16.89-6.57c-3.44-1.09-6.3-2.51-9.36-.07-2.63,2.09.52,2.95,2.4,1.46Z"></path>
      <path class="cls-1" d="M332.51,115c2.45-1.78,2.22-5.1,5.06-6.81s6.7-1.92,9.77-2.09c4.16-.22,8.73-.08,12.67,1.39,5.39,2,5.87,6.29,8.36,10.66,3.55,6.24,8.82,3.16,14.49,5.28,6.24,2.34,2.18,11.82,8.53,13.38,1.78.44.56-4.29-1.21-4.72.51.12-1.08-6.46-1.29-6.94-1.19-2.73-3.18-5.21-6-6.16-3.71-1.23-7.87.08-11-2.31s-3.65-7.11-6.5-10.09c-4.79-5-12.71-5.47-19.19-5.22-3.26.13-7,.53-10,2a8.92,8.92,0,0,0-3.18,2.57c-.84,1-1.5,3.82-2.42,4.49-1.61,1.17.57,5.61,2,4.6Z"></path>
      <path class="cls-1" d="M388.64,131.58c2.56-4.25,10.59-6.33,15.11-3.66,2.85,1.69,5,5.5,5.58,8.67.85,5-2,6.17-3.89,10-.88,1.79-.42,2.94.88,4.34,2.35,2.54,5.45,3.92,7.66,6.78,2.67,3.47,4.06,7.2,3,11.59-.9,3.59-3.27,8.79-6.32,11.16-1.9,1.48-10.49,3.06-12.89,1-1.35-1.17-5.35,1.76-3.69,3.19,2.6,2.24,8.95,1.34,12,.84,4.58-.76,8.16-3.81,10.75-7.53,2.81-4,5.71-9.91,5.06-15-.7-5.36-4.74-9.78-8.82-13-.62-.49-3.2-1.81-3.38-2.62-.3-1.34,1-2.36,1.69-3.3,1.13-1.65,2.7-4,3-6,.55-4.31-2.56-10-5.9-12.61-7.25-5.55-19.49-.79-23.77,6.33-1.47,2.44,3.14,1.26,4-.22Z"></path>
      <path class="cls-1" d="M389.38,157.91c-.65-1-1.75-1.78-2.31-2.78L385,159.49c4.72-.21,10.15,1.35,13.43,5,3.77,4.18,2.54,9.79.57,14.48-1.76,4.19-9.72,5.65-7.68,11.5,1,2.91,3.9,4.9,4.92,8,1.77,5.34-3,9.31-5.52,13.44-.45.74-.73,1.68-1.25,2.37-1.95,2.56-3.63,1-5.82.06a42.2,42.2,0,0,1-4.19-1.52c-.2-.12-.63-1.11-1-1.39-1.52-1.08-3.83,3.31-2.15,4.52l-.15-.18a1.32,1.32,0,0,0,.62,1.1c2.43,1.06,4.47,2.46,6.79,3.58a5.07,5.07,0,0,0,4,.28c2.63-1,3.7-3.9,5-6.13,2.51-4.37,6.59-8.3,7.57-13.45.71-3.74-1.15-7.72-3.2-10.76-.3-.45-2.09-2.07-2-2.46.11-.58.8-.48,1.26-1,1.3-1.31,2.7-1.92,3.77-3.49a28.42,28.42,0,0,0,4.25-13c.77-10-8.52-16-17.78-15.59-1.75.08-2.85,3-2.07,4.35.59,1,1.64,1.74,2.31,2.78,1.07,1.64,3.75-2.49,2.74-4Z"></path>
      <path class="cls-1" d="M317,194.24c1.47,1.46,4.8.62,6.66.53,3.45-.17,6.89-.47,10.32-.78l-1.12-.94v.46c0,2.39,3.9-.56,3.9-2.36v-.46a1,1,0,0,0-1.12-.94c-2.83.25-5.65.5-8.48.68-1.64.1-5.93,1-6.94,0-1.36-1.36-4.66,2.38-3.23,3.82Z"></path>
      <path class="cls-1" d="M318.91,192c0,3.29-.24,6.7,0,10,.16,2,1.43,5.26,3.78,3.28,1.46-1.23-.17-5.91-1.8-4.54q1.2,2.93,1,1.24,0-.55,0-1.09c0-.79,0-1.59,0-2.38v-5.79c0-2.55-3-4-3-.69Z"></path>
      <path class="cls-1" d="M329,194.62q.07-.65-.07.09-.14,1,0,.21c-.2.71-.41,1.39-.58,2.11a23.23,23.23,0,0,0-.56,3c-.19,1.65-.21,4,1.91,4.26,1.88.22,4.07-4.23,1.95-4.48-.8-.09,0-2.74.11-3.27.43-1.73,1.48-3.86.54-5.57s-4.16,2-3.25,3.65Z"></path>
      <path class="cls-1" d="M322.46,201.77c2.57,1.64,6.06,0,9-.31a39,39,0,0,1,11.77.2c1.93.39.83-4.27-.7-4.65l.72.66c-1.66-2.9-3.33.11-2.09,2.3a2.91,2.91,0,0,0,1.65,1.59l-.7-4.65a37.82,37.82,0,0,0-9.89-.37c-1.6.11-3.19.34-4.78.52-.53.06-4,.91-4.39.66-2.48-1.58-2.13,3-.55,4.05Z"></path>
      <path class="cls-1" d="M335,190.45a14,14,0,0,1,1.61,4.89c0,1.46-.4,3-.44,4.42-.06,1.9,4.47,3.9,4.53,1.81.05-1.77.73-3.76.42-5.52a23.37,23.37,0,0,0-2-5.54c-.79-1.67-5.33-2.72-4.08-.06Z"></path>
      <path class="cls-1" d="M350.34,192.44c.07,2,.78,3.89.92,5.88s0,3.81,0,5.69c0,2.46,4.07-.24,4.07-2.06s.06-3.8,0-5.7-.86-3.85-.92-5.88c-.08-2.47-4.12.25-4.06,2.07Z"></path>
      <path class="cls-1" d="M356.17,194.08a29.15,29.15,0,0,1,5.76-.43c.95.08,1.86.42,2.82.43.46,0,1.26-.26,1.63,0l-.7-4h-.46c-2,0,.16,4.43,2.06,4.43h.46c2,0-.06-3.5-.7-4-1.75-1.26-3.75-1-5.79-1.31-2.43-.38-4.75.13-7.14.37-2.07.22.17,4.62,2.06,4.43Z"></path>
      <path class="cls-1" d="M347.7,199.91c2.28,2.2,6.08,1.61,9,1.61,4.57,0,9.1.38,13.66.46l2-3.55h-.93c-1.83,0-4.93,3.55-2,3.55h.93c1.81,0,5-3.5,2-3.55-3.4-.06-6.78-.42-10.18-.46-3.07,0-8.37,1.07-10.7-1.17-1.31-1.26-5.38,1.55-3.77,3.11Z"></path>
      <path class="cls-1" d="M354.93,189c-.19-.25-.07.59-.07.65a5.29,5.29,0,0,0,.13,1.05l.13.54q0-.51,0,0c0,.41,0,.82,0,1.23a10.4,10.4,0,0,0,1.63,5.34c.32.46,2.49,2.23,2.91.8a1.55,1.55,0,0,1,.68-1.09c1.41-1.46-1.75-5.31-3-4a4.13,4.13,0,0,0-1.17,1.69l2.91.8c.54.77.11-.4.07-.59a10.12,10.12,0,0,1-.21-1.44,19.61,19.61,0,0,0-.23-2.14c-.31-1.76-.33-3.13-1.47-4.63-.51-.66-1.78-1.78-2.66-1.11s-.1,2.22.38,2.86Z"></path>
      <path class="cls-1" d="M360.83,192.62c1.6,2.1,2.18,4.78,3.71,6.94a1,1,0,0,0,1.44,0,26,26,0,0,0,3.08-3.62,3.7,3.7,0,0,0,.11-3.53,1.09,1.09,0,0,0-2-.06,20.69,20.69,0,0,1-2.48,2.86l1.44,0a18.42,18.42,0,0,1-1.57-3.28,17.72,17.72,0,0,0-2.13-3.66c-.72-.95-1.71.11-2,.84a3.65,3.65,0,0,0,.41,3.43Z"></path>
      <path class="cls-1" d="M321.28,179.21q-.75-1.71-.6-.24,0,.59-.08,1.18a18.56,18.56,0,0,0,.13,2.75c.31,2.65,1.15,5.18,1.23,7.86a3.77,3.77,0,0,0,1.59,3.16c.83.45,1.86.25,1.82-.92-.12-3.57-1.45-7.05-1.38-10.61,0-2.42.26-4.72-1.64-6.55-2.36-2.26-2.57,1.94-1.08,3.37Z"></path>
      <path class="cls-1" d="M321.65,180.85c2.55,2.55,7.34,0,10.47,1l-1.61-2.8c.1,4.06,1.3,8,1.39,12,0,.84.7,3.14,2,2.81a1.58,1.58,0,0,0,1.1-.95c.88-1.54-1.11-6-2.31-3.93l.18,0,2,2.81c-.09-4.06-1.29-8-1.39-12,0-1-.54-2.49-1.61-2.8-1.46-.43-3.06,0-4.56,0-1.7,0-3.4,0-5.09,0l1.14.51-.46-.46c-2.07-2.07-2.56,2.58-1.26,3.88Z"></path>
      <path class="cls-1" d="M325.75,183.9c.76.47.31,2.28.4,3.28a29.36,29.36,0,0,0,1,4.41c.08.33.47.79.86.73,1.5-.21,2.28-1.38,2.77-2.73.29-.79.35-2.24-.76-2.36s-2,1.43-2.31,2.26l-.12.33,1.45-2,.52-.14.86.73a21.2,21.2,0,0,1-.85-5.47c0-1.55-.07-2.63-1.49-3.5-1.64-1-4,3.38-2.31,4.43Z"></path>
      <path class="cls-1" d="M324.32,183.59c.51.62.38,1.83.66,2.57q.19.7,0-.18,0,.6.12,1.19a19.52,19.52,0,0,1,.32,1.94c0,1,.34,2.6,1.46,2.89s1.51-1.2,1.48-2a27,27,0,0,0-.87-5.62c-.43-1.63-.6-3.24-1.72-4.6a1.1,1.1,0,0,0-2,.31,3.75,3.75,0,0,0,.54,3.49Z"></path>
      <path class="cls-1" d="M350.72,182.11l.46.46L350,180.4c0,2,.44,3.83.46,5.79,0,1.53.92,3,.92,4.4,0,1.84,3.72,4.59,3.72,1.66a11.05,11.05,0,0,0-.76-2.8c-.34-1.3,0-2.64-.23-4-.37-2.31-.27-4.33-2-6.07-.59-.59-1.84-1.32-2.45-.37s.39,2.45,1,3.07Z"></path>
      <path class="cls-1" d="M351.48,184.44c1.24,1.48,2.33,1,3.94.44,1.91-.61,4.36-.24,6.37-.24s1.66-5-.34-5h-5a4.29,4.29,0,0,0-1.95.37,9.09,9.09,0,0,0-.86.35c-.35.2-.83-.1-.42.4-1.88-2.26-3,2.25-1.77,3.66Z"></path>
      <path class="cls-1" d="M358.71,182.34c0,2-1.55,10.22,1.57,10.65,1.85.25,4.63-3.81,2.68-4.08-1.18-.16-.3-7.56-.28-8.8s-1.33-1-2-.65a3.61,3.61,0,0,0-1.92,2.87Z"></path>
      <path class="cls-1" d="M352.41,181.82c.75,1.41,1.8,2.57,2.61,3.93a24.26,24.26,0,0,0,2.78,4.32l1.07-2h-.46c-.95,0-1.85.67-1.37,1.65s2.14,1.39,3.17,1.39h.46c1.28,0,2-1,1.07-2-1.07-1.16-1.61-2.7-2.46-4s-1.66-2.21-2.33-3.47c-.83-1.57-5.7-1.93-4.54.27Z"></path>
      <path class="cls-1" d="M326.08,236.71a13,13,0,0,0,7.24.21,53.33,53.33,0,0,1,10.91-.94c2.44,0-.42-4-2.25-4a53.55,53.55,0,0,0-8.65.39c-2.41.4-5,1.6-7.45.74-3.09-1.09-1.81,2.87.2,3.58Z"></path>
      <path class="cls-1" d="M326.14,238.31c1.83,1.07,4.78.93,6.86,1.07,1.27.08,2.55.24,3.8.41.73.1,2.33,0,2.85.61l2.73-3h-.46c-2.15,0-4.6,3.34-1.32,3.34h.46c1.15,0,4-1.58,2.73-3s-4.14-1.25-5.9-1.45c-2.37-.28-6.26.13-8.36-1.09-1.59-.93-5.62,1.76-3.39,3.06Z"></path>
      <path class="cls-1" d="M327.38,242.31h12c2.94,0,0-3.66-1.87-3.66h-12c-2.94,0,0,3.66,1.87,3.66Z"></path>
      <path class="cls-1" d="M326.1,238.93c.25.18.16,1,.19,1.25s.07.62.14.93,0-.23.09.05a20.69,20.69,0,0,0,.56,2.4,4,4,0,0,0,1.48,2.16c1,.59,2.2,0,3-.73s1.64-2.09,1.28-3.22-1.5-.89-2.2-.26c.11-.09.5-.07.51-.08s-.08,0-.09,0-.34-.48-.44-.67a9.29,9.29,0,0,1-.5-1.71c-.16-.61.21.86-.07-.48a9.26,9.26,0,0,1-.22-1.14,3.37,3.37,0,0,0-1.18-2.77c-1.61-1.13-4.22,3.12-2.54,4.31Z"></path>
      <path class="cls-1" d="M337,236.83c.57,1.23.56,2.65,1,3.92a3.81,3.81,0,0,0,3.58,2.57c1,.05,2.62-.09,3-1.19s-1-1.67-1.84-1.72.52.09.45.22a2.63,2.63,0,0,1-.24-.41,5.4,5.4,0,0,1-.37-1.29,13.92,13.92,0,0,0-.82-3.14c-.79-1.72-5.7-1-4.77,1Z"></path>
      <path class="cls-1" d="M340.08,237.72H341l-.7-.34q.6.63.24-.81-.07.24-.16.47a4.71,4.71,0,0,0-.34,1.34,3.37,3.37,0,0,0,.73,2.71l.83-3.68c-.47.42-1.72.35-2.3.35-1,0-1.93-.06-2.89-.07-1.91,0-3.59,4.65-1.42,4.67,2.77,0,5.54.4,7.78-1.57.8-.71,1.66-2.7.83-3.68-.46-.54-.1,0-.16.24a4.94,4.94,0,0,1,.17-.48,4.66,4.66,0,0,0,.28-1.93,2.29,2.29,0,0,0-.64-1.44c-.52-.53-1.05-.43-1.74-.43-1.91,0-3.58,4.67-1.42,4.67Z"></path>
      <path class="cls-1" d="M351.76,237.34h2.32l-1.9-3.26c0,.23-.4.85-.5,1.19a11.93,11.93,0,0,0-.29,1.72,30.37,30.37,0,0,0-.14,3.57c0,1,.73,3.7,2.3,3.24,1.4-.41,2.08-2.61,2.25-3.87a3.39,3.39,0,0,0-1.49-3.12c-1.11-.52-1.55.53-1.67,1.44.08-.59-.23.24-.27.32s-.47.51-.26.44l2.3,3.24a15.78,15.78,0,0,1,.39-4.54l-.44.8a4.19,4.19,0,0,0,1-2.74c0-.93-.57-3.26-1.9-3.26h-2.32c-2.25,0-1.23,4.84.64,4.84Z"></path>
      <path class="cls-1" d="M353.6,236.85c5.54,0,11.07-1.35,16.66-1.39,2.39,0-.64-3.86-2.46-3.85-5.6,0-11.13,1.39-16.66,1.39-2.38,0,.65,3.85,2.46,3.85Z"></path>
      <path class="cls-1" d="M351.34,240.09c3.74,2.18,9.59,1.27,13.75,1.2,2.52,0,7.65-.41,7.65-3.9a1,1,0,0,0-.75-.89c-.63-.13-1.22-.33-1.85-.46-1.76-.36-5.5,2.83-3.14,3.32.63.13,1.22.33,1.85.46l-.75-.89v.46l1.07-1.72c-1.26.86-5.39.13-6.89.13-2.07,0-5.16.44-7-.65-1.65-1-5.69,1.89-3.91,2.93Z"></path>
      <path class="cls-1" d="M367.49,237.92a2.8,2.8,0,0,0,1.32-1.7c.13-.44.11-1.1.47-1.35l-4.61-1c.09-.41-.11,0-.25.23a2.46,2.46,0,0,0-.22.7l.38-.72c-1.51,1.65-1.34,3.26-1.31,5.35l4.69-.47a2.35,2.35,0,0,1-.63-1.09c-.14-1.13-1.41-1.56-2.41-1.61-.67,0-2.71.21-2.58,1.32a4.77,4.77,0,0,0,1.22,2.61,3.4,3.4,0,0,0,2.78.84c.67-.07,1.93-.44,1.92-1.31a9.84,9.84,0,0,1,.05-3.12,6.8,6.8,0,0,1,.82-1.32q.13-.38,0,0l.27-.34a2.5,2.5,0,0,0,.28-.78c.18-.84-1.17-1.39-1.75-1.52a3.61,3.61,0,0,0-2.86.51,2.39,2.39,0,0,0-.91,1.43,4,4,0,0,0-.19.8c0,.25-.35.59.12.27-2.46,1.65,1.83,3.34,3.41,2.28Z"></path>
      <path class="cls-1" d="M356.14,230.81a17.93,17.93,0,0,0,.93,2.78c.26.9,1.19,2,.53,2.89l4.47,2.07v-.46c0-1.91-4.58-3.8-4.58-1.69v.46c0,1.71,3.24,3.66,4.47,2.07,1.65-2.14-1.07-5.11-1.32-7.29-.21-1.81-4.78-3.39-4.49-.83Z"></path>
      <path class="cls-1" d="M327.38,225.65h.93L327,224.8V231c0,2.12.38,4.18.46,6.29.06,1.48,2.46.66,3,.25a3.51,3.51,0,0,0,1.88-2.71c.23-2.54-4.26-.74-4.43,1.1l-.06.64,1.41-1.79-.4.29,3,.25c-.08-2.11-.46-4.17-.46-6.29v-6.21c0-.67-.82-.85-1.32-.85h-.93c-1.88,0-4.78,3.67-1.83,3.67Z"></path>
      <path class="cls-1" d="M328.13,224.63c2.83,0,5.61-.74,8.43-1l-1.79-.95c0,2.56.86,4.94.93,7.5a24.57,24.57,0,0,0,.46,4.54c.23,1.09.74,2.16.93,3.24.39,2.28,4.64.3,4.64-1.52V236c0-2.13-4.64-.41-4.64,1.52V238l4.64-1.52c-.46-2.68-1.31-5-1.39-7.78-.07-2.56-.93-4.94-.93-7.5,0-.93-1.14-1-1.79-.95-2.43.18-4.87.9-7.31.9a3.65,3.65,0,0,0-3.14,1.63c-.42.88-.23,1.85,1,1.85Z"></path>
      <path class="cls-1" d="M328.14,226.13a11.46,11.46,0,0,1,3,5.65c.34,1.4.49,3.24,2,3.82,1.71.65,5.6-2.31,3.26-3.2a9.81,9.81,0,0,1-.57-2c-.27-.83-.37-1.71-.65-2.54a12.64,12.64,0,0,0-3-4.48c-1.29-1.35-5.57,1.16-4,2.78Z"></path>
      <path class="cls-1" d="M353.19,224.72a10.38,10.38,0,0,0,.56,2.38c-.19-.89-.1.16-.1.56,0,.76,0,1.5.1,2.25a23.63,23.63,0,0,0,1.95,8c1.17,2.38,2.8-.65,2.8-2v-.46c0-3.33-3-1.66-3,.88v.46l2.8-2a19,19,0,0,1-1.63-7.22,19.49,19.49,0,0,0-.08-2.89,3.71,3.71,0,0,0-.27-.88c-.61-1.24-.14.8-.14.1,0-.9-.39-2.17-1.51-2s-1.47,2-1.47,2.89Z"></path>
      <path class="cls-1" d="M351,225.14c2.49.12,4.9.46,7.41.46,1.9,0,4.3.39,6-.66a3.72,3.72,0,0,0,1.88-3c-.05-1-.77-1.73-1.76-1.11-1.31.82-4.49.27-6.05.26-1.88,0-3.69-.37-5.56-.46s-4,4.4-1.9,4.5Z"></path>
      <path class="cls-1" d="M362.37,223.83c.94,1.67-.46,3.9-.68,5.6a23.59,23.59,0,0,0-.12,5.9c.43,3.24,2.32,4.44,4.64,1.82,1.69-1.91.46-5.1-1.75-2.6l-.5.57,1.35-.93c-.51.13.26-7.21.45-8,.51-2,.8-4.28-.23-6.14s-4.08,2.07-3.14,3.74Z"></path>
      <path class="cls-1" d="M357.17,225.54c1.16,1.61,2.67,3.75,3.43,5.1a29.09,29.09,0,0,0,3.93,6.08c.58.62,1.8,1.4,2.46.46s-.24-2.47-.85-3.12c-1.45-1.55-2.06-3.42-3.13-5.2s-2.27-3.34-3.4-4.92c-.49-.69-1.65-1.91-2.6-1.28s-.3,2.23.17,2.89Z"></path>
      <path class="cls-1" d="M381.61,223.73h1c3,0,.74-2.77-1.08-2.94-3-.29-5.25-2.74-8.33-3.12l2.08,2.76c3.45-1.39,7.7-.85,11.36-.85,4.32,0,8.65-.21,12.9.68,6.51,1.37,12.83,3.29,19.53,3.49,3.26.09.25-2.94-1.69-3-8.17-.24-15.79-3.8-23.89-4.17-6.61-.3-15.62-1.31-21.9,1.23-2,.81,1.27,2.66,2.08,2.76,2.91.36,5.17,2.83,8.33,3.12L381,220.74h-1c-3.26,0-.27,3,1.69,3Z"></path>
      <path class="cls-1" d="M402.29,219.91c2.63,8,1.6,15.48,2.14,23.72.47,7.1,2,13.75,2,20.93a193,193,0,0,0,1.25,19.71c.69,6.75,2.14,13.33,2.92,20,.14,1.22,2.44,1.82,3.36,1.68a2.57,2.57,0,0,0,2.53-1.88c.62-1.69-4.18-3-4.85-1.22l.45.2,3.36,1.68c-.77-6.67-2.24-13.26-2.92-20A196.13,196.13,0,0,1,411.31,265c0-7.17-1.6-13.84-2-20.93-.5-8.25.49-15.71-2.14-23.72-.56-1.7-5.44-2.29-4.85-.48Z"></path>
      <path class="cls-1" d="M230,259.47c0,9.4-.32,18.86.11,28.25.36,7.82,2.21,16,7.14,22.32,4.24,5.4,10.51,8.82,16.92,11,8.21,2.73,14.5,2.79,23,1.13,2.33-.46,7.7-2.07,9.74-.37a31,31,0,0,1,1.57,2.85c1.51,2.22,3.65,4.05,5.16,6.32,3.67,5.52,4.27,15,11.68,17.18,3.09.9,6.44.34,9.6.25,5.28-.17,10.37.05,15.34,2,7.46,2.87,17.94,5.53,22,12.81l.75-2.44h-2.08c-2.5,0-.29,4.3,1.47,4.3h2.08c1.43,0,1.28-1.47.75-2.44-3.51-6.32-7.54-8.73-14-11.43-6.93-2.89-13.88-6.58-21.49-7-3.38-.19-6.72,0-10.09.11-3.65.14-6.18.42-8.22-3.21-1.06-1.9-1.39-4-2.21-6a38.4,38.4,0,0,0-5.48-8.68,48.2,48.2,0,0,1-3.38-4c-.62-1-.77-2.21-1.51-3.19-3-3.91-10-2.08-14-1.3-4.71.92-9.7,2.18-14.5,1.15a59.55,59.55,0,0,1-10.73-3.5c-9.85-4.26-14.49-12.24-15.57-22.75-1-10.08-.32-20.53-.32-30.65,0-1.69-3.71-4.89-3.71-2.6Z"></path>
      <path class="cls-1" d="M360.6,355v1c0,1,.32,2.94,1.69,3,2.37.09,6.46,1.77,8.68,2.71,3.82,1.61,4.89,4,5.83,7.76,1.24,4.92-.41,7-5,8.23-3.26.9-6.31,2.22-9.55,3.32-15.24,5.18-31.84,5.5-47.7,4.42-18.11-1.24-36.27-.16-54.4-.16-8.42,0-16.35,1.24-24.62,2.58-3.42.55-6.74,1.57-10.12,2.28-2.74.58-5.53.8-7.8,2.56l2,3.47c.33-1.33,2.46-2.16,3.44-2.93,1.48-1.16.3-6-1.3-4.71-2.19,1.72-4.19,2.56-4.89,5.4-.2.83.48,4.67,2,3.47,2.24-1.73,5-1.85,7.71-2.42,3.76-.81,7.43-2,11.26-2.43,7.44-.87,14.4-2.31,22-2.31,16.8,0,33.61-.85,50.4-.06,7.67.36,15.06,1.42,22.74.59,7.25-.79,14.4-.74,21.55-2.4,6.46-1.5,12.66-4,18.93-6,3.72-1.23,6.6-3.06,6.87-7.14.3-4.63-1.15-11.73-4.39-15.24a14.77,14.77,0,0,0-6.57-3.74c-2.5-.8-5-2.09-7.66-2.19l1.69,3v-1c0-2.45-2.83-4.38-2.83-1Z"></path>
      <path class="cls-1" d="M355.41,354.58v1c0,.84.45,2.43,1.52,2.43h13.54c1.9,0,1.72-5-.25-5H356.68l1.52,2.43v-1c0-3-2.79-2.87-2.79.14Z"></path>
      <path class="cls-1" d="M387.45,352.56v1a1.07,1.07,0,0,0,1,1.16,87.86,87.86,0,0,1,15.93,2.32c5.05,1.05,10.39,2.57,14.23,6.22,5.35,5.07,5.42,13.54-.95,17.72-2.82,1.85-5.78,2.14-9.08,2.39-3.14.24-6.23.86-9.38,1-1.77.1-3.52,4.68-1.39,4.68h1c1.83,0,3.48-4.68,1.39-4.68h-1l-1.39,4.68c7.43-.43,15.76-.51,21.79-5.31,4.93-3.94,7.38-9,6.3-15.32-1.18-6.91-5.79-11.42-12.15-13.91a73,73,0,0,0-23.91-4.5l1,1.16v-1c0-2.84-3.3.61-3.3,2.35Z"></path>
      <path class="cls-1" d="M399.65,351.56a13.33,13.33,0,0,0,4,.64,6.45,6.45,0,0,1,4.08,1.76c1.79,1.46,3.51,2.75,5.88,2.93,2,.15.74-4.62-1.08-4.76-2.45-.19-3.87-2-5.77-3.35-2.38-1.66-4.82-.8-7.38-1.75-2.28-.85-1.35,3.92.28,4.53Z"></path>
      <path class="cls-1" d="M399.54,347a3.34,3.34,0,0,0-2.54-2.66l-2.89,3.7A190.86,190.86,0,0,1,413,353.31c2.72.9,6.24,1.86,7.79,4.37,1.4,2.27,1.89,5.74,2.88,8.28.9,2.3,2.88,6.08,2.51,8.63-.53,3.77-5.26,6.78-8.23,8.67-2.76,1.76-5.76,3.08-8.59,4.72-2.52,1.46-4.81,3.28-7.52,4.38l1.51,1.88a6.71,6.71,0,0,0,1.43-4.08c.09-2.46-4.18-.15-4.25,1.61a2.54,2.54,0,0,1-.66,2.17c-.93,1.32,0,2.47,1.51,1.88,3.41-1.38,6.22-3.61,9.4-5.4,3.73-2.11,7.53-3.9,11-6.43,4.27-3.11,9.48-7.87,8.39-13.67-.83-4.38-3.16-8.51-4.36-12.79-.77-2.75-1.59-4.22-4.17-5.65-3.84-2.13-8.29-3.07-12.49-4.16s-8.31-2.5-12.56-3.44c-1.47-.32-4.71,3.14-2.89,3.7l1.62,1.51c.62,2,4.75-.73,4.22-2.45Z"></path>
      <path class="cls-1" d="M353.26,349.64l-.14.41c-2.19.31-.63,4.6,1.12,4.75a32.19,32.19,0,0,1,10.11,2.87c2.22,1.11,3.19,4.09,3.89,6.45,3.29,11.06-7.9,11.43-15.38,12.37-7.19.91-14.72,1.31-22,1.67-3.79.19-7.67-.34-11.46,0-3.53.33-6.78,1-10.37,1-8.29.13-16.18,3.78-24.53,4.19-3.88.19-7.71.89-11.6,1-4.11.12-8.2,0-12.31.36-15.78,1.38-30.25,7.37-46,9-2.19.23-.7,4.94,1.1,4.75A150,150,0,0,0,235.2,395c7.25-1.73,13.82-4.06,21.33-4.79,15.46-1.5,30.71-1.24,45.89-5A48.19,48.19,0,0,1,314.17,384c3.3,0,6.21-1,9.56-1,7.52,0,14.84-.95,22.35-1A81.42,81.42,0,0,0,364,379.81c4.52-1.1,7.57-4.15,8-8.94.42-4.32-1.41-11.24-4.08-14.78-2.87-3.81-10.32-5.65-14.83-6l1.12,4.75a2.07,2.07,0,0,0,1.95-1.68c.6-1.62-2.1-5.72-2.92-3.48Z"></path>
      <path class="cls-1" d="M236.94,212.8c0,5.61-.91,11.08-1,16.66,0,1.71,2,2.93,3.52,2.93h1c1.22,0,.74-1.47.37-2.05a3.74,3.74,0,0,0-3.07-1.59h-1l3.52,2.93c.13-5.58,1-11.06,1-16.66,0-1.82-4.35-4.09-4.35-2.21Z"></path>
      <path class="cls-1" d="M219.16,238.27h1l-1.2-2.59v1c0,.83.08,2.45,1.2,2.59,7.29.89,14.56.07,21.87,0,1.94,0,2.2-5,.34-5-7.31.07-14.58.89-21.87,0l1.2,2.59v-1c0-.72-.08-2.59-1.2-2.59h-1c-1.93,0-2.2,5-.34,5Z"></path>
      <path class="cls-1" d="M236.11,238.76c6.53,0,13-1,19.55-1,8.13,0,16.27.06,24.4,0,5.47,0,10.57-1.64,16-2.36,3.46-.46,8-1.13,9.73-4.52.79-1.52-3.1-4.57-4.1-2.64-1.86,3.6-8.3,3-11.61,3.54-2.81.46-5.39,1.63-8.28,1.94a91,91,0,0,1-9.64.15c-7.25,0-14.51,0-21.76,0-5.55,0-11,1-16.57,1-2.34,0,.6,3.9,2.32,3.9Z"></path>
      <path class="cls-1" d="M299.18,215.84c.81,2.32,2.22,4.55,2.91,6.88.43,1.42,0,3.16.05,4.66.14,3.36,1.65,5.24,5.05,5.66.83.1,2.19-.21,2.06-1.27s-2-1.47-2.81-1.57c1.86.23.65.36.7-.88,0-.5-.12-1-.13-1.54,0-1.11.17-2.21.14-3.31-.07-2.72-2.21-5.7-3.11-8.31-.59-1.7-5.5-2.13-4.87-.3Z"></path>
      <path class="cls-1" d="M232.4,240.31c2,0,2.7-4.91.95-4.91-2,0-2.7,4.91-.95,4.91Z"></path>
      <path class="cls-1" d="M239.56,236.68c0,3.66-.31,7.44.43,11,.71,3.44.3,7.05,2.38,10.06,1.9,2.75,3.24-.31,1.83-2.35-.62-.89-.29-2.56-.39-3.59-.15-1.47-.65-2.87-.85-4.32a62.55,62.55,0,0,1-.11-8.49c0-1.71-3.28-5.19-3.28-2.35Z"></path>
      <path class="cls-1" d="M228.89,241.57c3,2.15,4.07,9.06,4.65,12.48.51,3-1.14,8.26,1.6,10.43,1.55,1.23,5.17-2.17,3.79-3.26-1.75-1.38-.84-4.12-.87-6.11a28.92,28.92,0,0,0-1-6.38c-.76-3.12-1.67-8.43-4.41-10.43-1.6-1.17-5.18,2.25-3.79,3.26Z"></path>
      <path class="cls-1" d="M237.52,258.25l1,1L237.51,257c.07,1.67,1.41,4,3.32,4,1.11,0,1-1.58.81-2.3-.28-.89-1-2.38-2.16-2.39a.39.39,0,0,1-.15,0c-.14-.08.43.13.2,0s-.27-.17.15.11l-.07,0a1.73,1.73,0,0,1,.66.93,2,2,0,0,1,.45,1.05v-.13a4.09,4.09,0,0,0-1.07-2.31c-.32-.36-.69-.69-1-1a2,2,0,0,0-1.23-.7.91.91,0,0,0-.86.67,3.69,3.69,0,0,0,1,3.31Z"></path>
      <path class="cls-1" d="M282.52,235.7c0,.15,0,.3,0,.45,0,.32.06-.44.06-.42a2.54,2.54,0,0,1,.72-1.31c.22-.21,0,0,.19-.1s.08,0,0,0H283c-1.06,0-1.51,1.62-1.51,2.42,0,.15,0,.3,0,.45,0,.32.06-.44.06-.42a2.54,2.54,0,0,1,.72-1.31c.22-.21,0,0,.19-.1s.08,0,0,0H282c-1.08,0-1.49,1.58-1.51,2.42a3.56,3.56,0,0,0,.31,1.79c.19.35.48.78.94.78a2,2,0,0,0,1.79-.64,4.45,4.45,0,0,0,.76-2.83l-1.51,2.42a2,2,0,0,0,1.79-.64,4.45,4.45,0,0,0,.76-2.83c0-.8-.13-2.51-1.25-2.57s-1.51,1.66-1.51,2.42Z"></path>
      <path class="cls-1" d="M278,237.87c0,7.65.49,15,1.18,22.53.33,3.62,1.58,6.8,2.49,10.27.34,1.27,1.54,8.58.76,9.24-1.53,1.31-1.65,5.51.83,3.38,4.57-3.92,2.65-13,1-17.84s-2.29-10.74-2.76-15.89c-.42-4.53-.07-9.24-.07-13.8,0-2.87-3.45.35-3.45,2.1Z"></path>
      <path class="cls-1" d="M235.89,278.44v2.08a3.4,3.4,0,0,0,3.09,2.88h43.74c2.91,0,0-3.64-1.78-3.64H237.18l3.09,2.88v-2.08c0-1.82-4.38-4-4.38-2.15Z"></path>
      <path class="cls-1" d="M289.7,285h1c.63,0,.95-.54,1-1.11.12-1.34,2.29-1,3.17-1,2.09,0,.64-4.73-1.18-4.73-.69,0-1.39,0-2.08,0a3.33,3.33,0,0,0-3.08,3.2l1-1.11h-1c-2.09,0-.64,4.73,1.18,4.73Z"></path>
      <path class="cls-1" d="M284.61,281.85h20.83c2.05,0,.42-4.67-1.41-4.67H283.2c-2.05,0-.42,4.67,1.41,4.67Z"></path>
      <path class="cls-1" d="M303.29,281.75c1.09,1.09.09.24.33,1.32a30.88,30.88,0,0,0,1.56,4.78c1.24,3.11,2.54,6.19,3.67,9.35,1.43,4,2.89,10.13,7.31,11.84l-1.33-2.25c.21,1.78.83,3.43,1,5.21.1.9.62,2.29,1.71,2.29h1c1.81,0,1.31-5-.67-5h-1l1.71,2.29c-.21-1.78-.83-3.43-1-5.21a2.74,2.74,0,0,0-1.33-2.25c-4-1.53-5.24-9.74-6.69-13.35s-2.38-6.89-3.43-10.43a6.5,6.5,0,0,0-2-3.09c-1.61-1.62-2,3.25-.81,4.47Z"></path>
      <path class="cls-1" d="M313.76,313.11v1l2.72-1.72c-6,.17-11.79,1.68-17.7,2.39-2.61.31-5.28.43-7.86.8-2.34.33-4.41,1.69-6.73,2-1.66.23-4.34,3-1.21,3h1c2,0,5.08-3,1.82-3h-1l-1.21,3a26.41,26.41,0,0,0,4.93-1.38c3-1,6.48-1.06,9.66-1.44,5.9-.72,11.73-2.22,17.69-2.39.77,0,2.72-.71,2.72-1.72v-1c0-2.17-4.85-1.23-4.85.52Z"></path>
      <path class="cls-1" d="M376.48,343.11a6.79,6.79,0,0,0,1.18.5c.13,0,.06.12-.06-.23-.06-.17.07-.39,0-.09a3.92,3.92,0,0,0,.4,2.5c.2.43.61.45,1,.45h3.75a3.18,3.18,0,0,0,2.63-1.86c.26-.49.86-2.42-.31-2.42h-4.59l1,.45a2.56,2.56,0,0,1-.19-.51c-.12-.47,0,.21,0-.15a3.87,3.87,0,0,0,0-1.23c-.33-1.06-1.51-1.35-2.46-1.67-1.68-.58-4.37,3.59-2.32,4.29Z"></path>
      <path class="cls-1" d="M313.56,315.29c3.33,2.47,7.08,4.15,10.77,6,2.72,1.36,5.53,3.21,8.53,3.82,4,.81,7.9-.11,11.91,1.17,4.26,1.36,7.83,4.22,11,7.3,2.14,2.08,4.24.26,2-1.88-4.63-4.49-9.8-8.56-16.23-10-4.76-1-9.13.06-13.62-2.15s-9.35-4.14-13.33-7.09c-2.68-2-3.1,1.31-1.09,2.8Z"></path>
      <path class="cls-1" d="M391.39,347.74c-3.1,2.29-8.8.95-12.42.86a92,92,0,0,0-10,.27,25.4,25.4,0,0,0-4.51.63c-1.13.31-2.29,1.15-3.45,1.18-2.89.07.25,3.54,2,3.5,2.39-.06,4.53-1.32,6.91-1.68a65.59,65.59,0,0,1,12.4-.33c3.79.15,9.5,1.14,12.81-1.3,1.67-1.24-2.3-4.19-3.75-3.12Z"></path>
      <path class="cls-1" d="M368,353.87c-3.8-3.8-7.51-4.93-12.54-6.73-4-1.45-7.51-4.29-11.82-4.85a62.2,62.2,0,0,0-8-.16,48,48,0,0,1-7.51-1c-2.18-.32-4.46.07-6.66-.08-2.46-.17-4.82-.89-7.29-1L311.94,344a5.18,5.18,0,0,0,5.18-3.47c1.1-2.61-3.27-.69-3.95.91l-.31.73L315,340l-.77.08c-1.57.06-4.8,3.79-2.25,3.94,8.84.54,17.24,2,26.14,2.08,5.24.07,8.15,2.49,12.81,4.3,5,2,9.51,2.93,13.44,6.86,1.37,1.37,5-2,3.71-3.36Z"></path>
      <path class="cls-1" d="M382.07,346.4h6.25c1.81,0,3.58-4.62,1.55-4.62h-4.17c-1.81,0-3.58,4.62-1.55,4.62h4.17c1.81,0,3.58-4.62,1.55-4.62h-6.25c-1.81,0-3.58,4.62-1.55,4.62Z"></path>
      <path class="cls-1" d="M337.2,340.06c-1-3.72,16.41-4.09,19-4.66,11.42-2.56,23.28-5,35-5.19l-1.23-.83v1c0,2,4.53,0,4.53-1.81v-1c0-.64-.73-.84-1.23-.83-7.82.13-15.48,1.61-23.2,2.73-7.05,1-13.82,3.15-20.94,3.57-4.28.25-18.45,1.57-16.43,8.84.58,2.08,5-.13,4.53-1.81Z"></path>
      <path class="cls-1" d="M360.89,344.75c1.71,1.71,2.93,2,5.42,1.56,4.37-.68,8.84-1.06,13.1-2.32,11.45-3.38,23-7.86,35-8.86,9.8-.81,19.68-1.56,29.45-2.19,10.3-.67,20.26-3.95,30.63-4.14,3-.06,3.1-2.81,0-2.75-9.16.17-17.91,2.49-26.92,3.82-8.8,1.3-17.82,1.42-26.72,2.09a162.12,162.12,0,0,0-28.65,4.91c-9.67,2.47-18.78,5.87-28.77,6.91l2.81.69-1-1c-1.21-1.21-6-.38-4.34,1.31Z"></path>
      <path class="cls-1" d="M380.6,329.44c5.26,3.7,15.35-.23,21.12-1.15,8.59-1.37,17-3.56,25.65-4.66,8-1,15.89-3.25,24-3.42,4-.08,7.67,1.1,11.6,1.39,4.74.35,9.53-.1,14.27-.15,2.06,0,.5-4.72-1.3-4.7-4.18,0-8.37.37-12.55.24-4-.13-7.67-1.41-11.63-1.48-7.61-.15-15,1.85-22.52,3s-14.73,2.45-22.1,3.9c-4.09.81-8.28,1.18-12.34,2.09-3.48.78-10.63,3.2-13.87.92-2.36-1.66-1.77,3-.33,4Z"></path>
      <path class="cls-1" d="M340,330.45l1,1c1,1,3.25.48,4.2-.42.71-.67,3.67-.09,4.67-.1a66.39,66.39,0,0,0,7-.69c4.51-.54,9.28.27,13.68-.79,10.33-2.49,20.79-1.61,31.16-3.92,9.52-2.12,19.22-2,28.8-3.8,5-.93,9.84-2.34,14.78-3.53,5.76-1.39,11.94-.83,17.83-.83,1.94,0,5.12-2.91,1.87-2.91-5.22,0-10.67-.45-15.85.12-6,.66-11.81,3-17.71,4.17-10.63,2.06-21.32,2.08-31.91,4.45-5.8,1.3-11.46.82-17.31,1.28-5.64.45-11.06,2.48-16.65,2.48-5.82,0-11.48,1-17.3,1-2.74,0-4.9,0-7,2l4.2-.42-1-1c-1.28-1.28-5.89.49-4.5,1.88Z"></path>
      <path class="cls-1" d="M375.66,341.4l.6,1.31c0,.87,1.35,1.45,2,1.67,8.14,2.77,17.52.76,25.81-.2,4.75-.55,9.18-2,13.83-3s9.19-1.49,13.75-2.2a263.13,263.13,0,0,1,31-2.8c10-.36,19.31-4.92,29.34-5.19,3.27-.09.26-3.06-1.73-3-8.84.24-16.94,3.71-25.62,4.87-5.39.72-10.88.17-16.3.76-4.67.51-9.27,1.34-14,1.8A184.54,184.54,0,0,0,409,339.91c-4.82,1.17-9.69,1.23-14.55,2-5.1.76-10.36,1.56-15.36-.14l2,1.67a4,4,0,0,0-1.48-2.86c-1.21-1.27-5.94-1.23-4,.86Z"></path>
      <path class="cls-1" d="M318.72,267.4c5.56-.58,10.5-1.74,16.18-1.23s11.3,1.44,17,1.87c10.1.76,20.21,1.41,30.34,1.45,1.74,0,1.08-4.91-.9-4.92-11.15,0-22.26-.84-33.37-1.69-5.37-.41-10.66-1.52-16-1.79-4.87-.25-9.35.91-14.12,1.4-1.83.19-1,5.12.9,4.92Z"></path>
      <path class="cls-1" d="M324.39,263.29c3.49,0,6.65-1.08,10.09-1.39,5-.44,10.15,0,15.18.23,8.92.33,17.88.11,26.81.11,3.25,0,.12-2.93-1.82-2.93-9.41,0-18.85.17-28.25-.19-3.94-.15-7.88-.37-11.82-.24s-8,1.43-12,1.47c-3.26,0-.15,3,1.82,3Z"></path>
      <path class="cls-1" d="M332.78,308.05c17.76,0,35.38-2,53.12-2.08,1.91,0,2-5,.14-5-17.73.13-35.35,2.08-53.12,2.08-1.91,0-2,5-.14,5Z"></path>
      <path class="cls-1" d="M337.19,319c3.25,2.1,7.39.25,11,.15a167.27,167.27,0,0,0,17.64-1.56c11-1.47,21.39-5.49,32.6-5.69,1.92,0-.23-4.45-2.06-4.42-10.08.18-19.34,3.49-29.16,5.21-4.74.83-9.61,1.3-14.4,1.68-2.86.22-5.73.25-8.59.39-2.23.12-5.35,1.52-7.39.21-2.36-1.52-1.1,3.1.34,4Z"></path>
      <path class="cls-1" d="M391,309.95c3,3.55,9.79,2.57,13.84,2.41,1.18,0,2.37-.15,3.55-.16a20.83,20.83,0,0,1,2.68.07c2,.23,1.89.59,3,1.85a11,11,0,0,0,2.71,2.75c1.37.86,3.42,1.13,4.43,2.46s5.93,1.4,4.51-.46c-1.94-2.53-5.24-2.76-7.14-5.21-2.07-2.65-2.61-3.49-6.35-4.06a40.52,40.52,0,0,0-7.93-.15c-1.54.07-8,1-8.78,0-1.08-1.3-6-1.31-4.51.46Z"></path>
      <path class="cls-1" d="M384.83,310.74h2.08c.57,0,1-.3,1-.93-.09-3.64-1.46-11.08-6-11.53-.65-.07-.94.36-1,.93,0,.14-.49.13,0,.11-2.45.13.14,4.22,1.87,4.13a2,2,0,0,0,2.07-2l-1,.93a2.24,2.24,0,0,1-1.24-.9l.11.17a4.48,4.48,0,0,0,.36.85,16.5,16.5,0,0,1,.52,1.94,16.68,16.68,0,0,1,.48,3.07l1-.93h-2.09c-2.41,0,.16,4.12,1.88,4.12Z"></path>
      <path class="cls-1" d="M330.56,307.39h.38l-2.3-2c.81,2.21,2.63,3.85,3.53,6.23a24.26,24.26,0,0,1,1.66,7.76c0,1.49,2.2,2.58,3.46,2.58h1c1.21,0,.79-1.44.41-2a3.74,3.74,0,0,0-3-1.65h-1l3.46,2.58c-.14-5.25-2.21-12.09-6.53-15.38l1.32,1.84a3.93,3.93,0,0,0-4-3.61c-2.9-.08-.11,3.63,1.67,3.67Z"></path>
      <path class="cls-1" d="M354,321.72a244.32,244.32,0,0,0,31.56-2.66c9.56-1.48,19.19-1.51,28.85-1.51,2,0,4.69-3.16,1.43-3.16-9.4,0-18.91-.12-28.21,1.4a235.41,235.41,0,0,1-32.19,2.76c-2,0-4.69,3.24-1.42,3.16Z"></path>
      <path class="cls-1" d="M378,322.9c1.29,1.63,1.76,1.22,3.56.88a82.43,82.43,0,0,1,10.67-1.71c8.43-.48,16.56.7,24.73-2,1.68-.56,3.3-4.92.54-4-7.12,2.37-14.58,1.43-21.94,1.64a55,55,0,0,0-8.88,1c-.79.15-4.75,1.39-5.21.79-1.34-1.69-4.54,2.08-3.46,3.44Z"></path>
      <path class="cls-1" d="M334.46,281.91h1l-1.07-1.61v1l2-3.17h-1c-.63,0-1.27.82-1.5,1.31-1.11,2.4-1.8,4.94-2.75,7.4a10.41,10.41,0,0,0-.84,5c.18,2.85,1.56,6.38,4.25,2.79.57-.77,1.32-2.45.7-3.38s-1.47-.61-2.07.2c.77-1,.18,1.12.34-.47a6.73,6.73,0,0,0-.14-1.12c0-.31,0-.64,0-.94-.28-1.6.19,1.11-.27.47a25.22,25.22,0,0,1,1.31-3.43,43.46,43.46,0,0,1,1.55-4.34l-1.5,1.31h1c1.26,0,2-2.24,2-3.17v-1c0-.73-.19-1.61-1.07-1.61h-1c-1.77,0-3.07,4.78-1,4.78Z"></path>
      <path class="cls-1" d="M335.42,278.29c0,2.21-.11,4.46,0,6.67s.91,4.23,1,6.38,3.34,4.62,3.19,1.36c-.09-1.89-.71-3.67-.93-5.53a54.73,54.73,0,0,1-.1-6.42,3.91,3.91,0,0,0-1.42-3.24c-.78-.49-1.78-.38-1.78.78Z"></path>
      <path class="cls-1" d="M337,280.68c.43.38,1,.65,1.43,1,.14.14.52.88.47.53s-.08,0-.46.29a7.41,7.41,0,0,1-1.48,1,3.62,3.62,0,0,0-1.46,3.13c0,.86.51,2,1.54,1.4a8.68,8.68,0,0,0,4.72-5.85,6.57,6.57,0,0,0-.31-3.6c-.44-1.15-1.48-1.52-2.35-2.3-1.53-1.36-3.45,3.2-2.1,4.4Z"></path>
      <path class="cls-1" d="M340.81,284.12c0,1.88.68,2.63,2.47,3l-1.43-1v4.17l2.89-1.86c-2.08,0-4.18-.09-6.25,0s-4.13.9-6.25,1c-.84.05-2.71.39-2.86,1.48s1.16,1.42,2,1.36c2.13-.14,4.14-.9,6.25-1s4.18,0,6.25,0c1,0,2.89-.54,2.89-1.86v-4.17c0-.65-1-.85-1.43-1l-.51-.12,1.27.61c-.45-.47-.37-1-.38-1.62,0-1.77-5-1.11-4.92.87Z"></path>
      <path class="cls-1" d="M357.52,281.67c0,1.75-.6,3.39-.66,5.14a8.6,8.6,0,0,0,2.49,6.36c1.31,1.43,2-1.52,2-2.26,0-1.37.12-2.8,0-4.17-.07-.74-.45-3-1-3.45q-.24-.84-.22,1.34a4.36,4.36,0,0,1,.84-.43,10.86,10.86,0,0,1,2.1-.27c1.7-.21,3.38-.55,5,.1l-1.11-3c-.15,2.13-1.69,4.21-2.06,6.36s-.16,5,2.13,6l.12-4.92h-6.25l.61,4.89c2.88-1.44,6.67-2.65,8.76-5.24,1.51-1.87,1.5-4.31,1.5-6.59,0-.71-.45-2.57-1.5-2.43-4,.54-5.11,10.63-.79,11.24,1.72.24,1.72-4.71-.25-5,.25,0,.21.9.37.47.09-.25,0-.48.15-.74s.28-.92.77-1l-1.5-2.43a3.32,3.32,0,0,1-1.65,3.39,49.64,49.64,0,0,1-6.83,3.53c-1.41.7-1.23,4.89.61,4.89h6.25c1.9,0,1.46-4.33.12-4.92-.64-.28-.15.66,0,.6a5,5,0,0,0,.21-.81c.22-.78.54-1.52.83-2.28a13.54,13.54,0,0,0,1.11-3.87c.07-.92-.07-2.61-1.11-3-2.13-.84-4.23-.38-6.43-.16-1.62.17-3.32.5-4.12,2.12a6.32,6.32,0,0,0,0,4.69,14.67,14.67,0,0,1,.57,5.22l2-2.26c-1.32-1.45-.66-2.29-.41-4.06a22.38,22.38,0,0,0,.16-3.19c0-.8-.44-2.48-1.5-2.43s-1.25,1.8-1.25,2.57Z"></path>
      <path class="cls-1" d="M376.33,269.78c1.29,7.49,3.19,14.85,3.06,22.51-.07,4-.6,8.9,4.52,9.52,1.78.22,1.92-4.76,0-5-2.75-.33-1.73-4.28-1.73-6.1a41.43,41.43,0,0,0-.57-7.69c-.88-4.85-1.78-9.74-2.62-14.58-.57-3.29-3-1.09-2.62,1.35Z"></path>
      <path class="cls-1" d="M318.38,256.59h1c1.44,0,4.17-3.89,2.28-4.1-10.7-1.19-2.36,20.84-1.6,24.65,1.4,7,1.26,13.55,1.16,20.55a40.28,40.28,0,0,0,.33,7.71c.21,1.16,1,2.31,1,3.37,0,2.36,3.93-.54,3.93-2.27,0-2.56-1.22-5.13-1.29-7.94-.08-3.55.21-7.09.24-10.64.07-6.82-1.34-13.64-3.05-20.22-.57-2.18-1.13-4.34-1.53-6.56-.19-1.09-.45-2.16-.56-3.26q-.1-.68-.13-1.38.32-1.82-1.16,0l2.28-4.1h-1c-1.72,0-4.3,4.13-1.87,4.13Z"></path>
      <path class="cls-1" d="M263.49,254c.93.93.4,2.23.16,3.76a51.19,51.19,0,0,0-.82,8.52c0,3.93-.75,8.51.08,12.37,1.3,6.06,9.42,8.4,13.54,3.45a3.94,3.94,0,0,0,1.07-3.8c-.35-2.17-.71-4.31-1-6.51-.78-5.24-.51-10.91-2.57-15.88a5,5,0,0,0-5.35-3.44c-2.3.09-5.66.09-7.49,1.69-1.58,1.38,2.62,4,4,2.82,1.07-.94,3.57-1,4.94-1q.87,0-.57-.78a4.36,4.36,0,0,1,.64,1.56c.15,1.94.81,3.87,1,5.84.27,3.62.79,6.87,1.16,10.42.26,2.51,1.75,7.1-1.93,7.95-4.13.95-2.88-4.72-2.81-7,.09-2.84-.09-5.69,0-8.53.17-4.19,2.64-9.17-.66-12.47-1.42-1.42-5.64-1.3-3.33,1Z"></path>
      <path class="cls-1" d="M243.12,259.94l-.25-.1c.16,1.11,1.69,1.28,2.56,1.28h1l-2.56-1.28c0,4.66-1.43,10.37-2.51,15-.72,3.1-1.74,5.93,1.29,8,3.2,2.24,11.49,2.61,12.81-2.15.65-2.32-.92-4.78-1.68-6.86-1.56-4.27-.67-9.24-.38-13.71.17-2.56-.22-5.33-3.08-6-3.17-.72-5.85,1.78-8.85,2.17-3.32.43-1,2.95,1.44,2.64,1.81-.23,3.28-1.29,5-1.63,1.28-.25.69-1,.38,1-.19,1.22-.07,3-.18,4.32-.33,4-.68,8.42.87,12.15.54,1.31,1.95,3.46,1.59,4.91q-1.13,3.3-3.26.52-2.53-.47-1.71-2.42c-.1-1.27.67-2.6.93-3.84,1-4.59,2.26-9.64,2.31-14.36,0-1.11-1.85-1.28-2.56-1.28h-1l2.56,1.28c-.2-1.42-1.1-1.73-2.33-2.19-1.91-.71-5.48,1.37-2.42,2.5Z"></path>
      <path class="cls-1" d="M277,192.5l1,1-.63-1.27q0,7.29,0,14.58c0,1.51,2.15,2.49,3.41,2.49h1c2.86,0-.44-3.4-2.21-3.4h-1l3.41,2.49q0-5.56,0-11.12c0-2.71.18-3.92-1.67-5.78-1.41-1.41-5.66-1.36-3.35.95Z"></path>
      <path class="cls-1" d="M283.56,194.92c.07,5,1.1,9.73,2.08,14.58.36,1.78,5.26,2.49,4.85.47-1-4.85-2-9.62-2.08-14.58,0-1.74-4.89-2.65-4.85-.47Z"></path>
      <path class="cls-1" d="M293.94,190.41a48.32,48.32,0,0,0,3.12,17.71c.71,1.85,5.55.73,4.91-.92a48.35,48.35,0,0,1-3.12-17.71c0-1.76-4.91-1.08-4.91.92Z"></path>
      <path class="cls-1" d="M292.8,259.58c-.06,6.91-1,15,4.67,20.08,1.25,1.13,2.47-1.64,2.5-2.5.16-4.45,1.27-9-.73-13.25-.47-1-1.36-1.86-1.72-2.87-.62-1.73.21-3.44.23-5.11a3.9,3.9,0,0,0-1.39-3.63c-1-1-2.21,1.11-2.38,1.84a63.57,63.57,0,0,0-1.19,13.77c0,3.26,3,.23,3-1.78a52,52,0,0,1,.89-11.23l-2.38,1.84c.37.34-.51,3.21-.51,3.87a9.17,9.17,0,0,0,1.15,4.2c1.18,2.28,2.29,3.93,2.4,6.64.09,2.26-.35,4.6-.43,6.86l2.52-3.11c-4.81-4.37-3.71-11.55-3.66-17.41,0-3.25-3-.22-3,1.78Z"></path>
      <path class="cls-1" d="M303.66,257.94c3.22,5.85.84,15.43,6.53,20.06,1.38,1.12,4.07-1.17,4.07-2.58a59.61,59.61,0,0,1,.14-6.26,14.63,14.63,0,0,0,.28-4.11c-.36-1.85-1.66-3-3.53-2.41-4.12,1.21-4.57,8-2.28,10.92,1.23,1.57,5.39-1.19,4.22-2.68a5.15,5.15,0,0,1-1-3c-.06-1,.62-2.92-.33-2.41l-2.2.56c1,.08.2,10.47.2,11.35l4.07-2.58c-2.75-2.24-2.71-6.53-3.46-9.71s-.85-6.8-2.51-9.81c-.92-1.66-5.18.94-4.22,2.68Z"></path>
      <path class="cls-1" d="M387.88,243.26h1l-2.59-3.33c0,1.26-1,3-1,4.48s0,3.05,0,4.57c0,3.11-.61,6.35,0,9.44.54,2.84,2.25,8.62,6,7.3,2.11-.75,3.69-3,5.33-4.39,1.17-1,2.58-1.3,2.86-3.14.33-2.16-1.76-4.44-2.65-6.18-2-4-2.71-8.67-2.81-13.11,0-1.17-2.71-5.07-3.41-2.58-.37,1.32-4.1,2-5,3.78-.86,1.63,2.11,5.56,3,3.83,1.27-2.41,4.63-1.87,5.37-4.55l-3.41-2.58a42.06,42.06,0,0,0,2.23,13c.32.9,3,5,2.89,5.75-.07.35-4.55,4.19-4.49,4.14a21.28,21.28,0,0,0-2.06,1.48c-.88,1,.42.51.35.25a19.13,19.13,0,0,1-.78-6.84c.13-2.41-.16-4.93.1-7.32.2-1.82,1-3.36,1-5.24,0-1.29-1.14-3.33-2.59-3.33h-1c-2,0-.11,4.56,1.73,4.56Z"></path>
      <path class="cls-1" d="M386.35,242.66c1.55,4.48-1,8.3-2.15,12.51l3.47,1.83a20,20,0,0,0,3.05-2.75c1-1.54-2.13-5.4-3.25-3.64-1.4,2.2-4.37,2.3-3.2,5.58.33.91,2.8,4.24,3.47,1.83,1.41-5.07,3.87-9.2,2-14.57-.32-.92-1.13-2.52-2.28-2.59s-1.45.82-1.11,1.79Z"></path>
      <path class="cls-1" d="M389.86,283.05c-.26,1.78-.94,3.4-1,5.21-.12,2.07,0,4.18,0,6.25,0,1.64,3.74,3.26,4.65,1.64,1.85-3.31,1.36-7.3,1.19-10.93-.08-1.78.08-3.61-.08-5.38-.06-.67-.29-1.26-.37-1.91,0-.16-.55-1.3-.36-.79q1.53-.63-.32-1-1.43-1.1-.83,0c-.05.11.29,1.72.3,1.91a33.05,33.05,0,0,1,0,4c-.1,4.21.88,8.28,1,12.48,0,1.81,4.73,3.38,4.71,1.26,0-4.19-1.78-6.94-6.15-7.45l3,2.25c.11-2.36.75-5.21,2.82-6.61l-4.11-2.63c-1.13,1.33-2,2.84-3.12,4.17-.74.87.18,1.77.9,2.29,1.84,1.31,3,1,4.93.55,2.24-.53-1.69-3.44-3.38-3-.16,0-.79.31-1,.34l2.37.65-.62-.44.9,2.29c1.13-1.33,2-2.84,3.12-4.17,1.49-1.75-2.73-3.56-4.11-2.63-2.5,1.69-3.29,5.12-3.42,8-.06,1.31,2.05,2.13,3,2.25,0,0,.1,2.71.1,3l4.71,1.26c-.1-3.81-1.07-7.52-1-11.33a31.64,31.64,0,0,0-.2-6.65c-.87-4.31-5.2-5.65-8.39-2.7a1,1,0,0,0-.21,1.09,8.82,8.82,0,0,1,.95,3.29c0,1.5,0,3,.08,4.49.17,3.4.68,7.09-1,10.18l4.65,1.64c0-2.06-.14-4.19,0-6.25.12-1.79.78-3.45,1-5.21s-4.4-3.43-4.71-1.26Z"></path>
      <path class="cls-1" d="M427.69,368l1,1-1.07-2c.39,9.4,6.55,17.44,6.7,26.75s-.45,19-.45,28.45a3.48,3.48,0,0,0,3.12,3h1c2.44,0-.31-4-2.11-4h-1l3.12,3c0-5.59,0-11.19,0-16.78s1.2-11.51-.09-17c-1.21-5.2-3.91-10-5.25-15.14-1-3.75-.27-6.55-3-9.29-2.16-2.14-4.1-.1-2,2.06Z"></path>
      <path class="cls-1" d="M407.06,389.58l.73.27-2.28-2a66.49,66.49,0,0,1-5.87,3.83c-3.67,2.05-7.68,2.91-11.74,3.86-8.14,1.9-16.57,2.62-24.64,4.63s-16,4-24,6c-6.44,1.65-13.49,3.47-20.15,3.72l3,3.65c1.22-.49,1.58-1.29,2.39-2.34,1.21-1.57-2.76-4.61-4-3a5.67,5.67,0,0,1-1.78,1.83c-2.18.87,1.83,3.7,3,3.65,8.78-.33,17.85-3.16,26.34-5.28l15.18-3.8c5.47-1.37,11-2,16.54-3,8.72-1.61,18.13-3,25.71-7.82,1.26-.8,4.48-2.3,4.6-4.14s-2.09-3-3.45-3.52c-3.06-1.13-1.4,2.79.51,3.5Z"></path>
      <path class="cls-1" d="M415.58,381.42c0,1.21-1.77.71-2.66,1.12-1.76.81-3.1,2.44-5,3.25a72.49,72.49,0,0,1-13.9,4c-5.07,1-10.06,2.46-15.13,3.44-5.56,1.07-11.33,1.19-16.94,2.15-20.61,3.52-41.63,7.07-61.37,14.13l2.56,4a2.86,2.86,0,0,1,.83-1.71c1.25-1.42-1.24-5.72-2.67-4.09a5.49,5.49,0,0,0-1.26,2.45c-.35,1.3.67,4.64,2.56,4a212,212,0,0,1,35.13-9.14c11.23-2,22.34-4.73,33.67-6a231.16,231.16,0,0,0,29.78-5.67,49.29,49.29,0,0,0,13-5.39c2.15-1.24,4.64-1.08,4.64-4,0-1.75-3.28-5.25-3.28-2.41Z"></path>
      <path class="cls-1" d="M412.38,302.9c.29-2.51,1.62-4.55,2.11-6.95.45-2.2.49-4.15,1.55-6.21.79-1.53,2.85-4.73,5-4.57s.64,1.06,1,2.59c1.27,4.82,8.94,7.46,12.84,4.68a8.59,8.59,0,0,0,2.32-2.48s1.44-2.2.32-1.37q-1.14-.63-.23.6l.4.95c1.12,4.11,3.15,6.83-1.13,9.63s-9.12,3.19-14.23,3.29c-2.58.05-3.74.39-4.46,3.06-.34,1.28,2.09,1.91,2.86,1.91h1c3.33,0,1.71-2.89-.8-2.89h-1l2.86,1.91a3.19,3.19,0,0,1,.88-1.73l-1.9.63c5.69,0,10.69.22,16-2.33,3-1.47,6.58-2.85,6.57-6.61,0-4.27-3.46-15.11-9.61-11-1.31.87-1.84,2.57-3,3.53-3.18,2.56-4-1.18-4.47-3.67-.48-2.81-3.19-3.91-5.9-3.89a11.26,11.26,0,0,0-8.46,4,15.51,15.51,0,0,0-3,6.86c-.67,3-2,6.06-2.34,9.11-.22,1.94,4.7,2.8,4.91.93Z"></path>
      <path class="cls-1" d="M428.46,300.57q2-.5,1-.39a3.31,3.31,0,0,0-1.13.25,5.55,5.55,0,0,0-1.47.81,7.83,7.83,0,0,0-2.46,3.23c-1.1,2.56-1.07,5.5-1.07,8.23,0,.65.74.84,1.25.84h1a3.78,3.78,0,0,0,3-1.8c.5-.93.07-1.7-1-1.7h-1l1.25.84a21,21,0,0,1,.6-6.38c.05-.17.61-1.27.59-1.31s-2.28.65-.81.41a5.77,5.77,0,0,0,2.77-1.4c.63-.52,1.52-1.68.63-2.37s-2.48.18-3.14.73Z"></path>
      <path class="cls-1" d="M430.13,301.75c-.08-1.79-1.07-3.81-3-3.84-.4,0-.72.65-.81.93a3.61,3.61,0,0,0,0,1.81c.24,1,.77,2.12,1.9,2.14-.72,0-.21,0,0,.06s-.35-.23,0,0a1.5,1.5,0,0,1-.46-.5q-.48-2.25-.43-1.31c0,.94.54,2.56,1.62,2.79s1.33-1.34,1.3-2.08Z"></path>
      <path class="cls-1" d="M445.47,299.43c-.1,3.17-1.47,8.78,1.34,11.13.65.54,1.7-.06,2.22-.5,7-6-.2-15.29,5.68-21.29l-2.91.65c2.78,9.76,12.5.84,18.11-.63l-1.53-.82c.44,3.74,3.35,8.36,1.09,12-1.27,2-2.55,1.4-5.18,1.4-1.85,0-4.23-.4-6,.11-1.95.55-1.41,1.33-1.58-.92a19,19,0,0,0-.68-4.33c-.78-2.51-1.95-3-4.57-3.19l1.06.93v-1c0-2.36-3.91.57-3.91,2.32v1c0,.67.49.89,1.06.93,4.13.26,2.43,6.48,4.45,9.17.24.32.93.2,1.22.1,4.77-1.67,12,1.12,15.75-3.08a14.45,14.45,0,0,0,2.9-7.18c.53-3.83-1.26-6.93-1.69-10.59-.1-.89-.77-1-1.53-.82-4.73,1.24-13,9.19-15.22,1.45-.41-1.44-2.51.24-2.91.65-2.17,2.22-4.15,4.8-4.44,8-.25,2.82,2.23,10.23-.29,12.38l2.22-.5c-2.11-1.77-.82-7.26-.74-9.7s-3.85.59-3.9,2.32Z"></path>
      <path class="cls-1" d="M463.6,304.31v2.08c0,.82.54,2,1.54,1.43a3.72,3.72,0,0,0,1.51-3.11v-2.08c0-.82-.54-2-1.54-1.43a3.72,3.72,0,0,0-1.51,3.11v2.08c0,.82.54,2,1.54,1.43a3.72,3.72,0,0,0,1.51-3.11v-2.08c0-.82-.54-2-1.54-1.43a3.72,3.72,0,0,0-1.51,3.11Z"></path>
      <path class="cls-1" d="M466.59,300.48l-1-2.08c-.18-.37-.74-.38-1.06-.28a2.79,2.79,0,0,0-1.27,1,3.16,3.16,0,0,0-.59,3.17l1,2.08c.18.37.74.38,1.06.28a2.79,2.79,0,0,0,1.27-1,3.16,3.16,0,0,0,.59-3.17Z"></path>
      <path class="cls-1" d="M412.32,221.67c0-3.74-.8-8.89-4.44-10.88-5.23-2.86-11.77.91-17.27-1.31l.3,2.86h1c3.27,0,.46-3.11-1.56-3.11h-1c-2.68,0-1.26,2.23.3,2.86,3.86,1.56,8.19,1.45,12.27,1.09,3.2-.29,4.19-.48,5.07,2.88a18,18,0,0,1,.53,4.67c0,1.78,4.78,3.08,4.78.95Z"></path>
      <path class="cls-1" d="M381.74,123.4v1c0,.4.49.63.81.67a2.85,2.85,0,0,0,1.56-.4,3.24,3.24,0,0,0,1.92-2.57v-1c0-.4-.49-.63-.81-.67a2.85,2.85,0,0,0-1.56.4,3.24,3.24,0,0,0-1.92,2.57Z"></path>
      <path class="cls-1" d="M387.1,124.79l1,1c1.4,1.4,4.14-1.2,4.14-2.66v-1l-3,3c3.71-.67,6.8-3.21,10.25-4.64a107.83,107.83,0,0,1,12.15-3.83c5.48-1.56,10.74-3.54,16.34-4.73a52.7,52.7,0,0,0,9.21-2.82c2.66-1.1,3.34-1.7,5.8-.43a11.8,11.8,0,0,0,2,.84c2.07.68,4.17.62,6.17,1.71,2.2,1.19,4,3.16,5.93,4.71,2.38,1.89,5,3.28,7.53,5,3.61,2.51,5.8,6,8.86,9.07,1.35,1.35,5.22-1.78,4-3-2.52-2.52-4.39-5.6-7.14-7.86-3.5-2.88-7.59-4.86-11.08-7.77-2.67-2.22-5-4.19-8.42-5A22.92,22.92,0,0,1,446,104.9c-1.06-.49-1.74-1.12-2.95-1.12-3.38,0-7.21,2.8-10.42,3.69-4.9,1.35-9.83,2.44-14.69,4-5,1.6-10.2,2.86-15.17,4.69-2.11.78-4.33,1.5-6.35,2.49-1.83.89-3.41,2.5-5.44,2.86-1.37.25-3,1.47-3,3v1l4.14-2.66-1-1c-1.35-1.35-5.22,1.78-4,3Z"></path>
      <path class="cls-1" d="M466.7,120.72c3.92-1.12,8.12-1,12-2.25,5.94-1.87,9.76-5.58,16.32-2.62,6,2.7,8.94,9.38,12.45,14.64S515,141,518.08,146.71c2.61,4.77,4.93,9.65,7.2,14.58,2.05,4.46,4.5,7.7,9.05,9.75,5.55,2.51,11.66,3.38,17.41,5.26,5.19,1.7,7.53,6.18,12.25,8.58,1.61.82,3.87-3.64,2.25-4.47-4.74-2.42-7-6.86-12.25-8.58-6.23-2-13.21-2.76-19-6-4.93-2.76-6.45-7.83-8.72-12.64a136,136,0,0,0-8.89-16.37c-3.52-5.37-7.49-10.49-11-15.85-1.69-2.58-2.46-5.21-4.95-7.11a19.87,19.87,0,0,0-7.47-3.64c-5.52-1.23-9,1.85-13.87,3.54-4.06,1.41-8.5,1.31-12.64,2.49-1.58.45-3,5.11-.75,4.45Z"></path>
      <path class="cls-1" d="M81.54,128.45l.27.46a.88.88,0,0,0,1.06.22,4.69,4.69,0,0,0,1.18-.7c.79-.68,2.72-4.12.57-4.34a209.38,209.38,0,0,1-22.08-3.74c-3.58-.77-7.25-2-10.88-2.43-2.95-.34-6,0-8.91-.45a208.19,208.19,0,0,0-21.06-2.79c-6.88-.41-12.56-4.58-19.34-5.16C.6,109.35-1.13,114,1,114.17c6.74.57,12.47,4.68,19.34,5.16,7.11.5,14,1.81,21.06,2.79,4,.56,7.91.37,11.88,1.14,3.59.7,7.14,1.62,10.73,2.34,6.33,1.28,12.85,2.48,19.27,3.15l.57-4.34.43,0c-.93-1.61-3.62,2.49-2.7,4.06Z"></path>
      <path class="cls-1" d="M307.39,355.16c3.75,1.42,7.8,1.85,11.59,3.26,3.46,1.29,6.54,3.41,9.76,5.17a70.56,70.56,0,0,0,19.27,7.2c1.7.35,5.36-2.92,3-3.4A70.44,70.44,0,0,1,330,359a53.88,53.88,0,0,0-8-3.94c-3.79-1.44-7.83-1.83-11.59-3.26-1.63-.62-5.35,2.51-3,3.39Z"></path>
      <path class="cls-1" d="M282.69,352.54v1l1.26-.84h-1l2.71,1.38c-1.24-1.31-2.08-3.12-3.51-4.56-2.36-2.36-4.66-4.76-6.94-7.18a37.63,37.63,0,0,0-12.25-8.23c-1.88-.85-4.48-2.75-6.54-3.22-2.53-.58-6-.25-8.56,0a42.91,42.91,0,0,0-7.88,2.12c-1.54.49-3.17.88-4,2.4l3.41.48a15.65,15.65,0,0,0-4.65-2.69c-1.41-.51-6.84-1.1-6.86-2.86s-4.54-3.84-4.51-1.86c.1,7.8,8.93,5.35,13.48,9,.62.51,2.76,1.67,3.41.48.87-1.61,5.31-2.39,6.89-2.84,2.72-.76,6.29-1.4,9.15-.86,2,.37,3.56,1.84,5.43,2.64,3.36,1.44,6.38,2.64,9.1,5.22a91.53,91.53,0,0,1,10,10.65c1.52,2,2.44,3.37,5.16,3.37.5,0,1.26-.18,1.26-.84v-1c0-1.85-4.51-3.86-4.51-1.86Z"></path>
      <path class="cls-1" d="M249.66,334.77c7.31-2.4-12.44-17.27-14.54-18.62-6-3.83-11.6-9.31-14.67-15.82s-1.37-14-5.51-20.16c-1.61-2.41-3.84-4.26-5.51-6.6s-2.48-4.77-4-7a34.31,34.31,0,0,0-12.24-10.26,52.46,52.46,0,0,0-18.66-5.76c-7.12-.77-13.06,1.31-19.91,2.85l3,3.42v-1c0-1.71-3.75-4.88-3.75-2.57v1c0,1.33,1.39,3.79,3,3.42,5.92-1.33,11.21-3.42,17.4-3a49.47,49.47,0,0,1,16.81,4.36c5.54,2.49,10.2,6.07,13.17,11.41a40.26,40.26,0,0,0,3.45,5.73c2,2.47,4.33,4.15,5.63,7.21,2.18,5.13,1.06,11,3.38,16.18a45.49,45.49,0,0,0,7.45,11,49,49,0,0,0,10.48,9,66.16,66.16,0,0,1,6.72,4.85c.5.42,5.79,6,5.87,6-2,.67.63,4.84,2.35,4.28Z"></path>
      <path class="cls-1" d="M128.1,173.78c2.82,2.82,6.87,3.06,10.51,4.56,6.13,2.54,12.49,4.54,18.58,7.17,5.11,2.21,11.5,3.53,14.3,8.67s3.49,11.43,5.17,17,4.56,10.33,6.9,15.59A131.65,131.65,0,0,1,190.29,245c1.3,4.7,2.88,9.28,4,14,.85,3.41,1.77,7.21,4.57,9.57.64.54,4,2.24,4,.25v-1c0-1.82-4.64-3.56-4.64-1.51v1l4,.25c-3.17-2.67-3.3-8.22-4.41-11.94-1.71-5.75-3.19-11.84-5.43-17.41-4.68-11.61-10.68-22.36-13.5-34.63-1-4.56-2.44-9.74-5.85-13.16-2.95-3-7-4.07-10.76-5.6-5.85-2.39-11.68-4.73-17.58-7-3.1-1.2-6.13-2.59-9.23-3.78a25.21,25.21,0,0,0-3.72-1.16c.33.07,1.48,1.76-.35-.07-1.41-1.41-5.63-1.32-3.32,1Z"></path>
      <path class="cls-1" d="M147.58,173.7c11.09-.07,23-1,32.26,6.36,8.37,6.7,9.83,17.35,14.75,26.27a104.22,104.22,0,0,1,6.84,14.2c1.93,5.2,1.63,10.41,3,15.69,1.27,4.76,2.43,9.54,4.45,14,2.68,6,6.69,11.06,6.94,17.85.11,3,2.89,2.91,2.77-.12a31.82,31.82,0,0,0-4.47-14.65,76.91,76.91,0,0,1-7.29-19.27c-.78-3.14-.47-6.28-1-9.44a34.52,34.52,0,0,0-2.23-6.73,112.09,112.09,0,0,0-7.31-15.2c-5.24-9.52-6.75-20.46-15.89-27.45-9.73-7.44-21.57-6.63-33.14-6.56-1.87,0-1.71,5,.22,5Z"></path>
      <path class="cls-1" d="M203.3,286v1l5-.49c-.74-11.91-20.39-14-29.28-15-7.9-.88-15.76-.73-23.71-.73-3.88,0-7.76,0-11.63,0-4.15,0-8.18-.9-12.32-1l1.91,1.54a4.23,4.23,0,0,1,1.5-1.41c2.3-1.77-2.29-2.71-3.71-1.62-1.19.92-2.1,1.37-2.66,2.76-.42,1.05,1.21,1.51,1.91,1.54,6.45.22,12.72,1,19.21,1,6.83,0,13.66-.09,20.48,0a76.26,76.26,0,0,1,18.28,2.46c5.69,1.52,14.61,3.93,15,11,.12,1.91,5,1.46,5-.49v-1c0-1.86-5-1.5-5,.49Z"></path>
      <path class="cls-1" d="M140.17,257.58h1l-3.07-3v1a3.69,3.69,0,0,0,2.08,2.76c12.22,6.46,19,18.74,27.74,28.8,4.6,5.28,10.16,9.5,14.51,15,3.86,4.9,6.59,10.65,11.13,15a74.48,74.48,0,0,1,7.84,8.07c1.86,2.41,3.31,5.09,5.13,7.51a20.44,20.44,0,0,0,10.6,7.41c5.75,1.65,12.1.5,18,1.19,1.74.2,3.62.4,5.34.78s3.39,1.26,5.14,1.73c1.95.52,4.47,1,6.36.11s-1.24-4.68-2.9-3.92c-2.69,1.23-5.79-1-8.28-1.64a53.08,53.08,0,0,0-7.72-1.1c-6.25-.7-13.92,1-19.63-2.07-5.18-2.78-7.86-9.64-11.66-14-4.36-5-9-9-12.71-14.57A79.11,79.11,0,0,0,178,293a141.13,141.13,0,0,1-14.1-15.71c-6.75-8.63-13.94-17.27-23.78-22.47l2.08,2.76v-1a3.56,3.56,0,0,0-3.07-3h-1c-2.4,0,.34,4,2.08,4Z"></path>
      <path class="cls-1" d="M156.21,284.07c2.61-.14,2.48-3.74,1.3-5.41s-4.82-3.58-6.59-4.51c-2.79-1.46-5.65-2.42-8.41-4a111.26,111.26,0,0,0-13.88-6.28c-6.19-2.54-10.85-6.84-16-11-2.39-2-4.82-3.87-7.18-5.86-3-2.5-4.26-4.78-6.29-7.9-3.54-5.45-8.67-9.94-12.61-15.14-3.54-4.67-6.79-9.38-12.06-12.15s-10.9-5.4-16.66-6.57c-2.08-.42-1.71,4.51.07,4.88a60.19,60.19,0,0,1,13.54,5c6.27,3,9.68,7.27,13.75,12.64,3.33,4.39,7.2,8.2,10.62,12.49,3.2,4,4.9,7.94,9,11.23,7.58,6.14,14.77,13.53,23.9,17.27a126.78,126.78,0,0,1,13.69,6.33c4.62,2.57,10,4.33,14.1,7.73l-1.1-2.68,0,.73L156,279l-.65.16c-1.83.1-1.15,5,.83,4.93Z"></path>
      <path class="cls-1" d="M60.45,206.92h1c2.06,0,.8-3.71-.14-4.39-6.8-4.87-17-5.91-24.81-8.46-4.51-1.48-9.42-1.75-13.78-3.61s-8.27-3.73-13.24-3.94l.94,4.79h1c2.14,0,.88-4.79-.94-4.79h-1c-2.15,0-.87,4.71.94,4.79,4.94.22,8.7,2.21,13.14,4,4.16,1.71,8.83,1.86,13.09,3.27,4.43,1.47,9,2.61,13.42,4,3.32,1,7.72,1.87,10.59,3.92l-.14-4.39h-1c-2.13,0-.87,4.79.94,4.79Z"></path>
      <path class="cls-1" d="M22.1,186c4.79,0,9.22,1.34,13.65,3s9,3,13.54,4.54a60.9,60.9,0,0,1,13.15,6.27c3.6,2.26,7.91,3.76,11.27,6.27,3.14,2.35,5.56,5.58,8.64,8,3.49,2.76,7.24,5,10.23,8.41a65.12,65.12,0,0,1,8.78,13.25c2.53,4.94,5.54,10.15,7.11,15.49.31,1.06,3.13,4,3.13,1.24v-2.08c0-1.72-3.26-5.23-3.26-2.4v2.08l3.13,1.24c-1.57-5.33-4.43-10.19-6.8-15.2a89.92,89.92,0,0,0-8.16-13.42,44.26,44.26,0,0,0-9.1-9.22c-4.15-3.24-7.9-6.63-11.82-10.14-3.64-3.25-8.08-4.66-12.19-7.2A70.56,70.56,0,0,0,51.31,190c-5.29-2-10.77-3.41-16.06-5.44-4.71-1.81-9.39-3.23-14.47-3.23-2.07,0-.5,4.69,1.33,4.69Z"></path>
      <path class="cls-1" d="M68.93,200.31c3.47,3.34,7.26,7.26,11.31,9.82,4.53,2.87,9.81,4.39,14.2,7.52a86.32,86.32,0,0,1,10.37,9.17c3.46,3.42,6.87,6.33,9.63,10.43a181.27,181.27,0,0,0,16.48,20.43,44.5,44.5,0,0,0,10.29,8.15c3.53,2.08,7.65,1.19,11.4,2.31l-.73-1.32v1c0,2.92,3.68.11,3.68-1.71V263c0-2.92-3.68-.11-3.68,1.71v3.13c0,2.92,3.68.11,3.68-1.71v-1c0-.62-.07-1.12-.73-1.32-4.62-1.39-8.33-.45-12.56-3.46a51.79,51.79,0,0,1-10.27-9c-3-3.48-6.41-6.51-9.21-10.17s-4.75-7.58-7.59-11.07a96.11,96.11,0,0,0-17.83-16.54c-4.11-2.94-9-4.57-13.31-7.08s-8.51-6.71-12.2-10.27c-1.3-1.26-4.36,2.67-2.92,4.06Z"></path>
      <path class="cls-1" d="M149.18,262.31v1c0,1,.24,2.95,1.63,3,5.57.33,11.36,6,17,4,1.65-.58.91-5.46-1.17-4.74-2.5.87-5.84-1-8.1-1.89a26,26,0,0,0-8.2-2.4l1.63,3v-1c0-.86-.15-2.72-1.25-3s-1.57,1-1.57,1.89Z"></path>
      <path class="cls-1" d="M16.39,164.07c4.54,2.33,9.18,1.15,14.11,1.42,6,.32,11.8,1.67,17.74,2.19,12.26,1.07,24.37,3.33,36.53,5.2,11.61,1.79,23.39,2.91,35.1,3.79,6.37.48,13-.4,19.18,1.57,4,1.28,6.8,5,11.1,5.8,1,.17,3.9-.1,3.9-1.62v-1c0-2.16-4.85-1.26-4.85.47v1l3.9-1.62c-3.94-.71-6.73-4.33-10.52-5.62-4.85-1.65-10.12-1.69-15.19-1.75a275.18,275.18,0,0,1-35.24-3.13c-11.55-1.67-23-3.82-34.62-5.24-5.9-.72-11.78-1.38-17.66-2.19a87.78,87.78,0,0,0-9.37-.87c-3.35-.1-7.14.79-10.26-.81-1.52-.78-5.94,1.34-3.84,2.41Z"></path>
      <path class="cls-1" d="M64.58,167.41c8.92,0,17.69,1.69,26.62,2,4.31.13,8.65.22,13,.12,5-.12,9.65-1.4,14.58-2.08,5.23-.73,9.82.85,14.69,2.48,3.91,1.31,8,1.85,12,3a22.3,22.3,0,0,1,9.89,5.75,16.33,16.33,0,0,0,7.82,4.36c2,.46,1.64-4.48-.13-4.88-3.75-.85-6-3-8.69-5.54s-5.5-3.54-9-4.56c-4.56-1.33-9.17-2.06-13.65-3.62-3.9-1.36-8-2.47-12.22-2.14-4.8.37-9.42,2-14.26,2.26s-9.94.07-14.86-.08c-9-.27-17.67-2-26.62-2-1.78,0-1.13,4.92.88,4.92Z"></path>
      <path class="cls-1" d="M239.31,355.35c-2.48,1.81-5.78,1-8.64.89-4.39-.22-8.74-.53-13.12-.82-7.52-.49-15.05,0-22.58-.26-14.87-.43-29.64-2.48-44.49-3.09l.62,4.89c1.42-.57,1.77-1.33,2.72-2.56,1.08-1.41-.76-5.92-2.28-3.94a5.77,5.77,0,0,1-1.45,1.6c-1.58.63-1.18,4.81.62,4.89,7.43.31,14.89,1.34,22.26,2.09,3.87.4,7.92-.16,11.81,0s7.89,1,11.9,1c9,.09,17.8,0,26.73.66,4.83.37,13.41,2.24,17.61-.83,1.49-1.08,0-5.82-1.71-4.57Z"></path>
      <path class="cls-1" d="M91.86,314.38v1c0,3.37,2.83,1.46,2.89-1a49.92,49.92,0,0,1,5.19-20.9c2.89-5.61,7-7.34,13.17-7.37,3.77,0,6.7-1.05,8,3.44.39,1.39.17,2.58.93,4,1.72,3.14,5.31,4.53,8.57,5.46,3.54,1,9.88.69,12.54,3.26,2.06,2,3.4,4.78,5.51,6.83,2.44,2.36,5,4.51,7.24,7a26.26,26.26,0,0,0,11.91,7.61,15,15,0,0,1,8.24,5.88,55.3,55.3,0,0,1,4.61,7.72l1.12-4.07c-2.14.66-3.91,2.66-5.68,4-2.6,1.92-5.17,3.78-7.82,5.63-2.37,1.66-3.68,3.73-5.44,5.93-3.08,3.85-6.31,4-10.89,4.21-2.8.1-6.2,1.07-8.92.37-2.94-.75-3.34-3.7-5.5-5.54-5-4.25-10.47-8.81-10.47-15.75,0-3.34-2.9-1.5-2.9,1,0,2.22-.27,4.43.7,6.47a38.43,38.43,0,0,0,6.18,8.78c1.35,1.44,3.08,2.4,4.53,3.72,1.27,1.16,1.73,2.54,2.75,3.8,2,2.48,4.32,2.69,7.43,2.52,6.18-.33,13.51.54,17.88-4.7,1.51-1.81,2.46-3.84,4.31-5.41s3.86-2.21,5.57-3.6c2.32-1.88,5.52-5.62,8.43-6.51,1.37-.42,1.67-3,1.12-4.07-2.4-4.71-5.34-10.79-10-13.68-3-1.87-6.87-2.13-10-3.9-3.52-2-5.74-5.34-8.62-8.07s-5.54-4.93-7.78-8c-1.54-2.1-2.42-4-5.09-4.56-5-1.06-10.6-.83-15.05-3.8-4-2.65-.87-8.33-5.49-10.43-2.74-1.24-7.1-.65-10-.44A15.21,15.21,0,0,0,104.5,283c-4.19,2.33-6.66,7-8.31,11.35a63.37,63.37,0,0,0-4.33,21.11l2.89-1v-1c0-3.34-2.89-1.5-2.89,1Z"></path>
      <path class="cls-1" d="M97.13,302.74v1l3.29-1.84c-9.57,0-26.16-.52-30.44,10.5-1.51,3.9-1.73,10.16.71,13.75C73.95,331,79.88,331,85,331a151.27,151.27,0,0,1,23.28,1.33c4.74.73,8.58,1,12.73-1.91,2.75-1.94,5.41-5.37,2.48-8.32-1.5-1.51-4.46-1.88-5.72-3.55-1.92-2.53-.29-8.36-.19-11.27.07-2.19-4.78-1.22-4.84.62-.12,3.51-1.31,7.81-.13,11.22.83,2.41,3.15,2.93,5.17,4.22,2.35,1.5,2.63,3.62.12,5.43s-5.75.89-8.57.35A67.74,67.74,0,0,0,96.08,328c-4.52,0-9.94.85-14.36-.08-6.06-1.27-8.15-5.4-7.8-11.14C74.65,304.38,89.22,305,98.69,305c.89,0,3.29-.52,3.29-1.84v-1c0-2.2-4.84-1.19-4.84.62Z"></path>
      <path class="cls-1" d="M126.74,347.08c-2.08-1.57-4.77-1.06-7.25-1.34a90.16,90.16,0,0,0-11.35-.83,78.61,78.61,0,0,0-11.47.75c-3.2.5-6.26,1.66-9.47,2.12-4.56.66-8.1,0-10.42-4.11-1.3-2.32-2.54-5.28-4.78-6.9-4.26-3.07-11-.44-14.63,2.5l1.46,2.92c2.84-4.53,1.86-10.37,4.51-15.15l-3,.45v1c0,.55.32,1.21,1,1.21,2.11,0,4.29-.25,6.31.5s3.57,2.08,5.36,3c3,1.5,6.5,3.42,9.84,3.82,4.37.52,8.31,1.27,12.26,3.44,4.56,2.5,4.43,5.65,1.47,9.67l1.69-1.09H95.11c-1.88,0-3.63,4.64-1.52,4.64,2.53,0,3.57.37,5.13-1.52a21.3,21.3,0,0,0,3.42-7c1-3.89-.83-7-4.15-8.83a35.16,35.16,0,0,0-8.4-3.42c-3.58-.87-6.83-.73-10.28-2.31-2.75-1.26-5.36-2.7-8-4.1-3-1.59-5-1.41-8.44-1.41l1,1.21v-1c0-2.35-2.44-.54-3,.45A24.88,24.88,0,0,0,58.43,332c-.31,1.24-.74,2.48-1,3.71s-.06,3.42-.43,4c-.93,1.49-1,4.92,1.46,2.92,3-2.44,8.76-3.72,11.83-.89,2,1.87,3,5,4.43,7.29,2.65,4.28,7.74,4,12.31,3.18,6.69-1.24,12.75-2.63,19.62-2.69a68.49,68.49,0,0,1,9.95.62c2.41.32,5.95-.11,7.89,1.36,1.46,1.1,3.92-3.22,2.29-4.45Z"></path>
      <path class="cls-1" d="M121.45,345.06c1.24,1.24,1.57,1.24,3.31,1.55a32.79,32.79,0,0,1,9.43,2.83c5.32,2.65,10.18,6.24,15.81,8.27a21,21,0,0,0,6,1.36c2.08.11,4.62-.58,6.56.42,4.61,2.38.54,8.26,5.12,10.81.91.51,5.34-.32,4-1.87-1.57-1.79-3.4-2.06-5.72-2.08-1,0-2.05.18-3.08.22-2.86.12-5.3-.65-8.06-.94a46.48,46.48,0,0,0-16.51,1.12l3.3,1c.21-4.3,1.89-9,.14-13.19-.84-2-2.68-3-3.71-4.78s-.54-3.67-1.77-5.31-5.93-.32-4.7,1.31c1.08,1.43.46,2.68,1,4.17.71,1.83,2.83,3,3.8,4.64,2.43,4.09.45,9.31.23,13.74-.07,1.37,2.64,1.18,3.3,1a35.71,35.71,0,0,1,11.9-.89c2.4.2,4.7.89,7.12,1,1.37.07,7.2-.65,8,.29l4-1.87c-1.71-1-.78-5.18-1.4-6.88a6.15,6.15,0,0,0-2.87-3.51c-3.77-2.19-8.34-.75-12.33-1.86-5.9-1.64-10.9-5.53-16.29-8.29a35.36,35.36,0,0,0-6.93-2.79c-2.43-.65-4.31-.14-5.59-1.42s-5.91.15-4.12,1.94Z"></path>
      <path class="cls-1" d="M95.85,288.25h1c.52,0,2.06-.25,2-1.08-.37-6.31-4.68-10.75-8.42-15.51-3.13-4-6.59-7.56-11.31-9.6-6.86-3-14.56-4.77-21.67-7.12-3.61-1.19-7.28-2.13-10.89-3.3-1-.32-2-.7-3-1-.41-.11-5.63-1.95-5-2.19,2.7-1-1.54-3.09-3.21-2.48-4.35,1.6.16,5.12,2.49,6,6,2.39,12.62,3.66,18.78,5.71,4.68,1.56,9.35,3.2,14.06,4.69,3.79,1.2,7.39,2.09,10.5,4.78a48.43,48.43,0,0,1,6.32,7.33c2.84,3.68,6.06,7,6.35,11.91l2-1.08h-1c-3.34,0-1.57,2.89.92,2.89Z"></path>
      <path class="cls-1" d="M238.77,359.93c1.8,3.36,5.85,3.75,9.22,4.52,5.84,1.33,11.88.86,17.88.84a136.9,136.9,0,0,0,20.28-1.86c4.36-.65,10.43,1.68,13.68-2.14,1.22-1.43-3.56-2.48-4.76-1.06-.74.87-4.65.16-5.65.17a37.31,37.31,0,0,0-6.29.53,92.47,92.47,0,0,1-15.63,1.53c-4.76,0-9.85.5-14.58,0-2.3-.23-8.13-.83-9.28-3-.88-1.64-5.8-1.33-4.86.43Z"></path>
      <path class="cls-1" d="M186,379.54c-.27.53-7.69,3.19-9.16,3.73a90.23,90.23,0,0,1-23.77,5.48c-3.3.29-6.6.53-9.89.9-3.73.43-7.5,1.53-11.25,1.58-3.37,0-6.69-.66-10.07-.26s-6.41,1.32-9.9,1.34l.71,2.2,1-1c2.3-2.29-2-2.29-3.44-.86l-1,1c-.88.88-.66,2.21.71,2.2,4,0,7.55-1.2,11.47-1.48,3.65-.26,7.31.72,10.95.38,4.93-.46,9.85-1.71,14.83-2.14,4-.35,8-.62,12-1.27A87,87,0,0,0,181,384.51c2.73-1.23,7.59-2.1,9.1-5,1.33-2.59-3.24-1.56-4.07.07Z"></path>
      <path class="cls-1" d="M122,352.54l-1.06-1c.28.75,1.21,1.91,2.1,2,6.21.65,10.43,6.27,14.88,10s10.25,6.34,15.39,9.22a56.64,56.64,0,0,0,13.84,5.23c2.48.66,5.92,2.39,8,.12,1.2-1.31-1.78-5.26-3.27-3.62-1.17,1.28-8.19-1.36-9.88-1.8-5.75-1.5-10.73-5.23-15.94-7.93a36.62,36.62,0,0,1-7.44-4.69c-1.76-1.54-3.08-3.52-4.92-5-3.35-2.68-7.46-5.53-11.8-6l2.1,2a4.2,4.2,0,0,0-3.14-3c-2.46-.35-.62,4.15,1.16,4.4Z"></path>
      <path class="cls-1" d="M134.93,355.66c1.3,0,.16.19,1.31,1.34a13.25,13.25,0,0,0,4,2.42c4.43,2,9,3.9,13.44,5.82,4.66,2,9.72,3.56,14.2,5.9,2,1,3.71,2.47,5.76,3.35,1.86.79,4.12.9,5.43,2.61l2.35-3.94c-5,1.22-9.66-.85-14.28-2.4A37,37,0,0,1,154,362.83c-3.61-3.13-8.05-5-11.8-7.87-1.79-1.39-3.19-3.16-5.22-4.26s-5.08-1.23-6.56-3.15-4.18,1.95-3.39,3.51c1.54,3,4.9,3.71,7.66,5.25,4.37,2.43,8.72,5.78,13.42,7.54,3.87,1.45,7.74,1.35,11.5,3.32s8,3.55,11.41,6.05l.7-3.38c-1,1.06-14.27-6.12-15.79-7.09-3.22-2.08-5.52-5-8.3-7.54a48.56,48.56,0,0,0-9.22-6.52c-6.58-3.68-14-7.63-21.19-9.81-7.61-2.29-15.35-3.45-22.83-6.35l.76,1.32-.06.12c1.71-1.81.82-5.09-1.48-2.66a6.29,6.29,0,0,0-2.14,4.28,1.14,1.14,0,0,0,.76,1.32c8.39,3.25,17.47,4.15,25.76,7.4s17.86,7.67,24.92,13.41c3.05,2.49,5.41,5.66,8.57,8a50.91,50.91,0,0,0,9.32,5c3.36,1.56,9.2,5.24,12.4,1.8.61-.66,1.79-2.57.7-3.38-1.71-1.26-3.75-1.77-5.57-2.81-1.34-.77-2.38-1.68-3.82-2.36a50.37,50.37,0,0,0-11.28-3.81c-5-1.1-9.65-4.36-14-6.91-2.73-1.59-7.3-2.75-8.78-5.69L127,351.05c1.25,1.62,2.67,2.11,4.55,2.75,2.79,1,4.44,2.37,6.59,4.27,4.32,3.81,9.77,6.06,14.11,9.94A35,35,0,0,0,165,375.13c4.9,1.68,9.86,3.67,15.12,2.38,1.17-.29,3.36-2.62,2.35-3.94-2-2.57-5.18-2.7-7.91-4.2a85.06,85.06,0,0,0-10.42-5.09c-4.71-1.83-9.33-3.89-14-5.93-2.55-1.13-10.51-3-11.33-6.25-.08-.33-.32-.84-.75-.84h-1c-1.86,0-4.1,4.38-2.15,4.38Z"></path>
      <path class="cls-1" d="M146.15,369.72q4.22-1,1.67-2.48a8.52,8.52,0,0,0-1.46-1,13.77,13.77,0,0,0-5.76-1.49,87,87,0,0,0-14.18-.39c-7.08.35-13.77,2.61-20.93,2.26-.82,0-3,.09-3.59-.6-1.37-1.6,2-4.84,3.07-5.11a15.39,15.39,0,0,1,5.6.65c1.71.69,2.14.74,2.24,2.74.13,2.5-.49,2.13-2.68,2.09-1.91,0-4.06.31-5.93,0a42.3,42.3,0,0,0-7.61-1c-1.67,0-5.35,3.16-2.41,3.28a150.54,150.54,0,0,1,15.06,1.72c5.2.76,10.44-.51,15.68-.63,5.53-.13,11.26-.36,16.75.32,4.58.57,9.34,1.72,14,1.72,1.76,0,5.25-3.28,2.41-3.28-4.6,0-9.39-1.11-14-1.72-4.72-.63-9.57-.39-14.34-.36-5.94,0-12.24,1.33-18.09.67-5-.56-10-1.5-15.06-1.72l-2.41,3.28c2.73,0,5,.88,7.61,1,3.08.19,6.32.18,9.4.12,3.66-.08,6.1-1.69,6.34-5.51.33-5.26-2.87-6-7.52-6.4s-9.12-.51-11.54,4c-1.65,3.07-2.75,6.46,1.33,7.63,3.82,1.1,9.06.62,12.94.12,5.34-.7,10.24-2,15.68-2,4.72,0,11.3-.58,15.3,2.28,1.67,1.2,2.22,2.36,4.42,1.72a3.38,3.38,0,0,0,2.72-3.16c.11-2.07-4.62-.61-4.71,1.26Z"></path>
    </g>
  </g>
</svg>
