<?xml version="1.0" encoding="UTF-8"?>
<svg xmlns="http://www.w3.org/2000/svg" viewBox="0 0 535.35 487.64">
  <defs>
    <style>.cls-1{fill:#8faedb;}</style>
  </defs>
  <title>Asset 1</title>
  <g id="Layer_2" data-name="Layer 2">
    <g id="Layer_1-2" data-name="Layer 1">
      <path class="cls-1" d="M64.15,256.63c1.7-3.51,6.53-6.41,9.47-8.83,3.71-3.06,7.34-6.17,10.91-9.39,6.07-5.48,12.2-10.7,17.73-16.75,6-6.6,12.05-13.83,19.05-19.39,6.57-5.22,12.46-11.76,19.73-16,4-2.32,8.48-4.53,12.87-2.19,4,2.13,7.58,4.32,11.88,5.91,7.24,2.67,13.63,5.9,21.35,6.95,8.69,1.18,17.39,3.4,25.94,5.36,8.84,2,17.73,4.39,26,8.11s26.49,14.85,21.71,26.29c-3.32,8-10.67,11.86-16.68,17.29a145.92,145.92,0,0,0-16.6,17.39,97.3,97.3,0,0,1-9.45,9.91c-3,2.82-5.32,6.24-8.33,9-5.89,5.35-11.85,10.2-17,16.33-5.53,6.55-9.29,13.84-17.23,18-7.79,4.06-15.55,5.47-24.12,3.44-19.78-4.68-35.16-17.63-51-29.5-7.78-5.81-16.6-12.11-22.81-19.6-5.39-6.51-16.18-14.78-11.39-24.23,1.24-2.44-.94-3.85-2.22-1.33s-2.77,4.9-2.66,7.88,1.93,6.66,3.38,9.32c2.1,3.85,5.75,6.51,8.49,9.86a65.88,65.88,0,0,0,9.47,9.41c7.94,6.57,15.75,13.08,24.15,19.09s15.77,12.14,25,16.63c7.93,3.84,17.58,8.07,26.58,7.84,7.22-.18,15.34-3.37,21.15-7.58,7.26-5.27,11.09-13,17.06-19.46a100.08,100.08,0,0,1,11-10.51c3.71-3,6.4-6.46,9.68-9.83,3-3.07,6.34-5.77,9.17-9,3.55-4.05,6.73-8.33,10.51-12.2A89.5,89.5,0,0,1,248.65,254a38.57,38.57,0,0,0,8.63-7.69c3.59-4.62,7.86-9.85,7.37-16.05-.48-6-4.83-11-9.13-14.78-12.4-11-29.33-14.92-45.1-18.35-4.94-1.08-9.91-2.07-14.85-3.15-5.32-1.15-11-1.29-16.06-3.32-4.35-1.74-8.63-3.59-13-5.29s-7.87-4.64-12-6.17c-7.53-2.76-17.37,5.51-22.48,10.19-4.15,3.81-8.41,7.29-12.75,10.87-4,3.32-7.29,7.25-10.82,11.09-7.79,8.46-16,16.2-24.57,23.89-4.46,4-9.06,7.82-13.66,11.68-3.37,2.83-6.82,5.44-8.76,9.46-1.34,2.78,1.77,2.24,2.74.22Z"></path>
      <path class="cls-1" d="M159.86,173.19c3.63,1.89,6.69,4.51,10.47,6.16A87.5,87.5,0,0,1,182.11,186c7,4.43,14.21,6.07,22.34,7.36,9.33,1.47,18.92,3.38,28.12,5.51,4.39,1,8.58,2.72,13,3.67,5,1.09,10.08,1.8,15.05,3.12a51.92,51.92,0,0,1,11,4.36c3.79,2,7.48,4.26,11.32,6.1,5.17,2.47,12.67,1.53,18.13.54,9.71-1.75,19.1-5.38,28.53-8.21,9.83-3,20-4.62,29.85-7.34a69.9,69.9,0,0,1,15.46-2.66c4-.22,8.15-1.09,12.16-1.63,5.94-.79,12.71-3.06,16.43-8,7.43-9.95-9.57-17.18-17-18.9-18.48-4.31-36.88-12-54.21-19.82-7.85-3.54-15.72-7.48-24.26-9.05-7.94-1.46-14.87.21-22.57,2-9.31,2.2-18.2,5.31-27.33,8.19-10.78,3.4-21.86,5.48-32.85,8.05-11.42,2.68-23,4.44-34.56,6.27-5.31.84-10.6,1.7-16,2.06-4.91.33-9.43.14-14.17,1.44-3,.81-.75,3,1.48,2.39,3.94-1.08,7.95-.91,12-1.15,4.76-.29,9.45-.93,14.15-1.68,8.46-1.36,16.93-2.59,25.35-4.15,17.21-3.19,34-7.86,50.87-12.27a74.86,74.86,0,0,0,9.64-3.22c4.25-1.74,8.41-2.49,12.85-3.54s9.09-2.55,13.86-2.46a44.27,44.27,0,0,1,14.36,3.17c15.85,5.86,30.95,13.6,46.93,19.24,7.27,2.56,14,5.21,21.55,6.85,5.22,1.14,13.14,4.07,16.15,8.81,4.92,7.76-8.13,12.65-13.69,13.29-7.89.91-16,1-23.69,3.12-8.64,2.44-17.4,4.19-26.11,6.35s-17.31,5.24-26,7.76a69.61,69.61,0,0,1-13.53,3c-3.58.29-8,.8-11.25-.86-6.06-3.07-12.09-8-18.74-9.58-18.56-4.38-37.1-8.76-55.81-12.49-9.83-2-18.3-2.94-26.94-8.53a62.86,62.86,0,0,0-10-5.67c-4.06-1.71-7.34-4.45-11.22-6.46-1.5-.78-5.43,1-3,2.21Z"></path>
      <path class="cls-1" d="M488.12,33.92c-3.71,6.31-5.5,13.65-8.56,20.3a174.56,174.56,0,0,0-8.4,21.58c-2.52,8.16-4.75,16.31-7,24.55-2.06,7.6-5.48,14.51-9,21.54s-6.11,14.06-9.42,21c-3.59,7.49-8.29,14-13,20.86-3.86,5.63-7.62,13.19-13.18,17.32-2.85,2.12-7.45,5.47-11,5.81-5.09.49-2.57-4.16-3.69-7.39-.56-1.62-5.06-2.18-4.47-.47.92,2.64-.63,5.51,1,8.09a6.58,6.58,0,0,0,4.4,2.7c6.12,1.23,13.39-3.4,17.94-7,6.11-4.83,10.2-13.19,14.58-19.51A141.13,141.13,0,0,0,451.64,141c3.78-8.34,7.52-16.65,11.46-24.92,4.15-8.7,6.13-17.73,8.72-27s5.37-18.62,9.25-27.37c1.89-4.28,4-8.46,5.76-12.8s3-9.09,5.4-13.26c1-1.74-3.27-3.24-4.11-1.81Z"></path>
      <path class="cls-1" d="M396.58,12.58c7.4.94,14.76,1.55,22.16,2.48s15.08,0,22.53,0c8.27,0,16.82-.58,25,.43a155.62,155.62,0,0,0,22.19.85c3-.06.19-2.82-1.66-2.78-8,.15-15.65-.39-23.64-1-7.19-.57-14.54-.13-21.75-.15-7.65,0-15.67,1-23.26,0-7.38-1-14.74-1.61-22.14-2.55-3.05-.39-1.74,2.46.54,2.75Z"></path>
      <path class="cls-1" d="M303.51,141.33c3.68-1.55,4.88-5.47,7.3-8.33,1.32-1.55,3-2.74,4.39-4.21,1.62-1.72,2.31-3.76,3.6-5.71,2.34-3.52,5.09-6,6.4-10.19s2.19-8.81,3.29-13.15c1-3.87.62-7.74,2.32-11.46,1.91-4.17,4-8.87,6.29-12.82s5.61-7,7.94-11a58.47,58.47,0,0,0,6-12.51c.52-1.69-3.91-2.92-4.45-1.18-1.49,4.82-4,9.06-6.55,13.36-2.09,3.47-5.13,6.15-7.19,9.6-2.18,3.63-3.69,7.88-5.62,11.66-1.85,3.63-2.1,6.65-2.67,10.59s-2,7.82-2.84,11.73c-1.08,5-3.09,8.35-6.15,12.38-2.52,3.31-4.25,6.51-7.28,9.47s-4.38,7.8-8.27,9.45c-2,.83,2,2.92,3.5,2.29Z"></path>
      <path class="cls-1" d="M483.46,21.26c1.81,15.65-11.3,29.19-18.45,42.13-3.45,6.25-4.87,13.31-7.13,20-2.36,7-5.65,13.69-8.07,20.67-2.48,7.16-6,13.73-8.93,20.68-1.41,3.39-4.09,5.68-5.76,8.87-1.79,3.41-2.87,7-4.88,10.36-3.82,6.33-6.61,13-10.12,19.45-4.19,7.72-11.24,13-19.12,16.6-1.09.5-3.1,3.09-1.27,3.86l1.81,1.12c1.43,1.13,4.22-2.53,2.76-3.68a7.13,7.13,0,0,0-2.48-1.42l-1.27,3.86c6.1-2.8,12.26-6.62,16.72-11.7,5.34-6.07,7.72-13.42,11.46-20.44,2.07-3.88,4.81-7.4,6.65-11.41a52.91,52.91,0,0,1,5.95-10.54c2.47-3.27,3.47-7.38,5.37-11a111.44,111.44,0,0,0,4.69-10.48c3-7.56,6-15.22,8.82-22.86,3.18-8.54,5-17,9.6-25,7.49-13,18.92-25.67,17.08-41.56-.25-2.19-3.61.79-3.43,2.39Z"></path>
      <path class="cls-1" d="M168.62,172.44l-.19-1.15c-.24-1.46-1.85-2.21-3.2-2.21-2.61,0-6.52,1.87-8,4.06a10.73,10.73,0,0,0-.51,11.08,3.32,3.32,0,0,0,2.62,1.81c.68,0,2.06-.28,1.55-1.3-.63-1.25-1.3-2.26-1.25-3.68a12.24,12.24,0,0,1,1.34-5.21,8.34,8.34,0,0,1,6.31-3.63l-3.2-2.21.19,1.15c.28,1.73,4.6,3.1,4.3,1.29Z"></path>
      <path class="cls-1" d="M401.2,184.23c0,5.4,2.3,16.13-2.59,19.55-6.12,4.28-12.25,4.88-19.32,6.53s-14,3.58-21.23,4.41a26.12,26.12,0,0,0-9.07,2.56c-3.42,1.65-5.89,1.42-9.52,1.86-2.92.36-5.59,1.4-8.57,1.63a43.17,43.17,0,0,0-8.6,1.24c-6.89,2-13.69,4.49-20.56,6.56a39.64,39.64,0,0,1-9.32,1.75c-3.82.26-7.24,1.48-11.15,1.45a78.94,78.94,0,0,1-9.44-.82,27.67,27.67,0,0,1-12.07-4.13l1.7,2.69a2.33,2.33,0,0,1,2.3-2.71c1.92-.67-.71-4.39-2.37-3.82-4.83,1.68-4.23,5.53-.54,7.91,6.56,4.24,14.24,4.65,22,4.77,4.55.07,8.74-1.3,13.25-1.48,3.37-.13,6.22-1.28,9.44-2.18,9.28-2.59,18.1-6.66,27.77-7.42,3.85-.3,7.37-1.38,11.24-1.53,3.59-.14,6.22-1.95,9.48-3.23,4-1.57,8.53-1.41,12.72-2.18,4.72-.87,9.34-2.2,14-3.32,7.65-1.84,15-2.34,21.38-7.43,2.5-2,2.79-3.59,2.88-6.73.13-4.61-.16-9.24-.17-13.85,0-1.64-3.63-4.33-3.62-2.11Z"></path>
      <path class="cls-1" d="M71.49,272.49V272c0-.71-.32-2.21-1.36-1.91s-1.5,1.65-1.5,2.59v.53c0,.71.32,2.21,1.36,1.91s1.5-1.65,1.5-2.59Z"></path>
      <path class="cls-1" d="M69.95,269.36l-1.06-1.06c-1.69-1.69-3.12,2.53-1.89,3.76l1.06,1.06c1.69,1.69,3.12-2.53,1.89-3.76Z"></path>
      <path class="cls-1" d="M64.52,256.68c-1.15,3-3,5.42-3.31,8.74-.4,5.17-.55,11.42,1.67,16.23,4.56,9.86,14.25,15.5,21.71,22.82,3.77,3.7,8,6.73,11.82,10.3a77.1,77.1,0,0,0,13,9.83c9.65,5.74,20.11,9,30.2,13.79,8.75,4.13,19.18,8,29.07,6.09,8.7-1.68,15.28-10.11,20.13-16.87,6.85-9.55,16-17.85,24.5-25.88,3.77-3.55,7.68-6.82,11-10.78,4.13-4.9,8.08-10,12.67-14.46,12.77-12.42,42-31.93,25.25-51.94-1.71-2-2.21,2.3-1.13,3.6,4.67,5.58,3.94,10.91.32,16.67a67,67,0,0,1-10.17,13.1c-6.53,6.22-13.78,11.72-19.86,18.41-3,3.34-5.86,6.91-8.76,10.38-3.35,4-7.28,7.29-11.06,10.87-7.13,6.73-13.55,13.65-20.24,20.8-5.84,6.25-10,13.7-17.19,18.69-8.24,5.74-19.16,2.79-28,0-4.3-1.37-8.43-3.91-12.57-5.74-4.31-1.9-8.87-3.11-13.07-5.26-8.16-4.19-16.35-8.44-23-14.9C89.91,303.69,81,297.35,73.15,290c-4.5-4.18-8.76-9.87-9.06-16.09-.27-5.69,1.11-9.52,3.05-14.55.63-1.64-1.64-5.27-2.63-2.73Z"></path>
      <path class="cls-1" d="M266.9,234.29c-.47,2.84-.15,5.75-.15,8.62,0,3.65-.55,7.47-.33,11.1.29,4.79,3.35,5.76,7.63,4.84,8-1.71,15.77-4,23.63-6.09,8.21-2.22,16.66-3.29,25-4.78a436.4,436.4,0,0,0,50.73-12.15c15.59-4.75,30.89-11,47.06-13.46,16.41-2.5,34.92-.54,49.43,8a40.46,40.46,0,0,1,8.05,5.83c3.45,3.43,4.92,8.18,6.36,12.7,1.64,5.15,2.63,11.85,9,12.88,4.35.7,11.25-1.87,14.79-4.42,3.23-2.33,3.6-6.28,3.27-10C510,232.23,496.47,225.77,485,218.65c-3.31-2-7.08-3.05-10.62-4.59a48.1,48.1,0,0,0-12-3.94,248.43,248.43,0,0,0-26.62-3.22c-4.68-.23-9.3-1.06-14-1.11-4.31-.05-8.63.15-12.93-.06-4.54-.21-10.77-1.57-14.28,2.13-1.14,1.21-.91,5.57.91,3.64,2.91-3.08,9.64-1.42,13.34-1.29,7.18.26,14.2.39,21.36.91,14.13,1,29,1.23,42.18,7,2.48,1.09,5.05,1.91,7.54,3,3.48,1.48,6.32,3.93,9.6,5.76,6.11,3.41,12.38,7,16.11,13.15,1.69,2.8,3.55,7.13,3.1,10.48-.49,3.65-3.21,4-6.13,5.17-2.57,1-5.71,2.27-8.56,1.64-5-1.1-5.61-6.91-6.9-11-1.53-4.82-3.13-9.92-6.67-13.68-4.33-4.58-10.67-7.89-16.45-10.25-11.94-4.88-25.54-6.32-38.33-5.07-14.22,1.4-27.77,6.33-41.29,10.66q-21.11,6.76-42.66,11.94c-15.92,3.84-32.28,5.23-48.07,9.64-4.29,1.2-8.57,2.43-12.91,3.43-2.21.51-5.42,1.72-7.73,1.73-5,0-3.35-5.72-3.34-9,0-3.85-.52-8,.11-11.85.5-3-2.45-1.81-2.83.46Z"></path>
      <path class="cls-1" d="M176.85,354.08c7.22-9.1,14.8-18,21.36-27.56,3-4.43,6.64-8.46,9.82-12.78,1.54-2.09,2.9-4.25,4.35-6.38,2-2.94,4.73-5,7.23-7.52,8.51-8.55,17.5-16.7,25.79-25.45s16.44-18,24.54-27.15c1.09-1.23.84-5.62-.91-3.64-16.58,18.66-33.75,36.51-51.67,53.9-1.75,1.7-3.93,3.12-5.46,5s-2.58,4.31-4.05,6.34c-3.33,4.59-7.05,8.87-10.37,13.45-7.14,9.85-14.65,19.36-22.22,28.9-1.21,1.53-.28,5.23,1.59,2.87Z"></path>
      <path class="cls-1" d="M61.07,271.93c-.06,1.62-4.68,4.42-5.76,5.39A17.17,17.17,0,0,0,51,282.38a10.69,10.69,0,0,0,.51,10c5.33,9.54,16.12,15.23,25,20.81,5.66,3.55,11.24,6.79,16.6,10.78,5.11,3.8,10.58,7.33,16,10.68,5.2,3.22,9.76,7.37,15,10.45,5.71,3.33,11.66,6.29,17.42,9.53,1.8,1,3.35-3.25,1.9-4.07-4.62-2.6-9.24-5.15-13.92-7.63-5.65-3-10.19-7.09-15.52-10.53-4.66-3-9.36-5.94-14-9.06-4.85-3.3-9.34-7.09-14.46-10-9.15-5.17-19.41-10.63-26.72-18.31A30.81,30.81,0,0,1,54,289c-2.33-4.24,1.2-7,4.18-9.61,2.57-2.23,5.6-4.23,5.73-7.88.11-3-2.74-1.91-2.83.46Z"></path>
      <path class="cls-1" d="M488.66,255.2l-.86-.48c-.27-.15-.82-.44-1.14-.2-1.72,1.29-11.33-15.42-12.7-17.05-4-4.84-10.26-9.91-16.2-12-7-2.42-14.43-5.15-21.72-6.44-4.25-.75-8.49-1.45-12.77-2-3.75-.47-7-1.23-10.63.06-1.64.58.24,4.76,2,4.14,4.17-1.47,9.37-.11,13.64.54a115.45,115.45,0,0,1,13.93,2.69c3.86,1.09,7.49,2.81,11.36,3.88,4.23,1.16,7.79,2.37,11.33,5.1,4,3.09,7.3,5.95,10,10.26,1.85,3,3.53,6.16,5.66,8.92a38,38,0,0,0,4.14,4.94,6.4,6.4,0,0,0,2.12,1.45c.39.13,1.38-.2,1.57-.09,2.36,1.31,1.77-2.91.28-3.74Z"></path>
      <path class="cls-1" d="M54.33,278.77c-3.61,4.18-.94,9,1.91,12.85a41.86,41.86,0,0,0,6.09,5.9,121.89,121.89,0,0,0,9.8,8c5.77,4.12,12.28,6.81,18.11,10.71,5.6,3.74,10.53,8.74,16.46,11.85,3,1.57,5.75,3.44,8.68,5,3.48,1.9,7.47,2.82,11.12,4.31,7,2.87,13.77,5.93,19.92,10.46,5.22,3.84,13.73,6.78,20.3,5.39,7-1.48,10.94-6,15.1-11.35,5.36-6.94,9.91-14.67,15.74-21.2a98.32,98.32,0,0,0,7.14-9.58c2.6-3.76,5.88-6.78,8.52-10.44,1.61-2.23-.39-4-2-1.68s-4.1,4.09-5.91,6.35c-2.1,2.64-3.91,5.61-5.88,8.35-3.67,5.1-7.64,9.93-11.34,15-4.19,5.77-8.24,13.24-14,17.6-6.61,5-17.72,3.22-24.16-1.57a65.78,65.78,0,0,0-14.44-8.48c-6-2.4-13-4.1-18.45-7.56-4.67-3-9.53-5.41-14-8.62s-8.78-7.17-13.81-9.81C82.46,306.83,76,303.18,70.29,298c-2.75-2.49-5.75-4.69-8.51-7.18-1.36-1.23-7.45-8.27-5.53-10.5s-.1-3.68-1.91-1.57Z"></path>
      <path class="cls-1" d="M60.11,305.27c-2.82,5.88-3.75,12.24-7.58,17.65-3.59,5.07-6.28,10.31-9.29,15.73-4.38,7.89-12.2,16.25-9.41,25.92,1.07,3.7,3,6.14,7,6.38,3.63.22,8.21.81,11.58-1a11,11,0,0,0,5.13-6.09c1.57-3.78,3.71-7.32,5.18-11.15,1.1-2.86-2-2.37-2.88-.19-1.66,4.32-4.48,13.32-9.5,14.18-2.91.5-8.86.77-11.12-1-3.86-3.06-2.81-9.2-1-13,1.6-3.37,3.86-6.53,5.72-9.77,2.3-4,4.18-8.23,6.47-12.23s5.36-7.07,7.3-11.09c2-4.2,2.74-8.9,4.74-13.12,1.18-2.48-1.07-3.82-2.29-1.27Z"></path>
      <path class="cls-1" d="M138.61,350.84c-3,7.37-5.17,15-8.16,22.37-2.76,6.82-4.54,13.89-6.79,20.88-1.44,4.48-5.26,12.05-2.45,16.41s9,5.42,13.78,4.82c2.68-.34-.46-3.3-2.19-3.09-3.44.42-8.5-.94-8-4.93.14-1.06.55-2.06.79-3.1.58-2.55,1.17-4.94,2-7.43,1.63-5,3-10,4.7-14.94,1.49-4.39,3.3-8.59,5-12.91,2.07-5.33,3.4-10.91,5.54-16.23.7-1.73-3.52-3.56-4.21-1.86Z"></path>
      <path class="cls-1" d="M56.35,349.33c1.7,0,3.74-4,1.37-4-1.7,0-3.74,4-1.37,4Z"></path>
      <path class="cls-1" d="M58.15,347.5c-.52-1.44,3.79-5.52,4.5-6.86,2-3.69,3.39-8,5-11.82l-3.09-1.12c3.26,5.18,8.8,7.47,13.81,10.71,2.68,1.73,5.22,3.82,8.15,5.12,3.44,1.52,6.83,2.76,10.18,4.54,5.58,3,10.93,6.72,16.91,8.85a130.66,130.66,0,0,1,20.82,9.37c2.61,1.51,2.07-2.32.36-3.3-4.92-2.84-10.37-5-15.48-7.42-2.94-1.42-6.1-2.18-9.07-3.51s-5.7-3.23-8.56-4.83c-5.38-3-11.16-5-16.56-7.84-2.52-1.32-4.83-3.24-7.23-4.78-3.29-2.11-8.44-4.28-10.54-7.62-.41-.65-2.44-2.64-3.09-1.12-2,4.69-3.69,10.19-6.77,14.26-1.53,2-3.66,4.41-2.69,7.09.66,1.83,4.32,3.13,3.29.3Z"></path>
      <path class="cls-1" d="M59.24,349.06l.43.1-1.43-2c1.45,6.45,8.8,10.16,13.89,13.51,6.77,4.45,12.92,10.2,20,14.07s13.89,7.51,21.12,10.9c4,1.9,8.52,2.49,12.67,4.11,1.78.69,1.51-3.84-.17-4.49-3.48-1.36-7.28-1.84-10.75-3.22-6.68-2.66-12.61-6.5-18.92-9.85C90,369,84.66,364.95,79,361c-3-2.1-6-4.11-9.05-6.16-2.57-1.74-8.28-5-9-8.16-.17-.74-.6-1.77-1.43-2l-.43-.1c-2-.47-1.56,4.07.18,4.49Z"></path>
      <path class="cls-1" d="M73.72,333.52c.1-3.3,2.59-7.2,4.33-9.89,2-3.09,3.86-6.23,5.86-9.33.94-1.45-2.36-4.58-3.51-2.81-2.2,3.4-4.3,6.81-6.47,10.25-1.72,2.71-3.81,6.47-3.91,9.75,0,1.71,3.63,4.32,3.69,2Z"></path>
      <path class="cls-1" d="M152.43,392.3c1.73-5.57,3.94-11,5.87-16.49,1.73-4.92,1.35-10,2.73-15,.72-2.62-3.25-1-3.72.64-1.49,5.36-1.39,10.73-3.19,16-1.74,5.15-3.81,10.2-5.42,15.41-.8,2.59,3.21,1,3.73-.64Z"></path>
      <path class="cls-1" d="M383.28,10.77c3.28-3.81,5.48-5.07,10.53-5.65A107.73,107.73,0,0,1,404.59,4c5.27-.09,10.61-.4,15.87,0,3.13.21,6,1.19,9.1,1.24,4.13.07,8,1.23,12.14,1.19,4.61,0,9.34-.32,13.93,0,9.06.7,18.11,2,27.2,2.54a189,189,0,0,1,25.71,3.44c6.4,1.29,18.65,2.14,20.06,10.44.66,3.89-3.39,7.41-6.35,9.66-2.24,1.69-5.12,2-7.78,2.58-3.92.84-7.33-.78-11.06-1.69-4.19-1-8.56-2.4-12.88-2.55-2.28-.08-.3,3.91,1.32,4,11.83.41,24.77,9.6,35-.35,4.2-4.08,6.7-6.75,4.42-12.78-1.82-4.82-6.1-7.64-10.54-9.92-5.66-2.9-12.75-3.15-18.88-4.47C493.73,5.54,485.28,5.49,477,4.78S460.5,2.54,452.31,2.39c-4-.07-7.94-.05-11.9,0S433,1.57,429.2,1.2A228.75,228.75,0,0,0,402.5,0a111.13,111.13,0,0,0-13.34,1.21c-3.83.53-6.18,3-8.61,5.83-1.19,1.39,1.7,4.9,2.73,3.7Z"></path>
      <path class="cls-1" d="M501.51,33.71l-1,.12c-1,.13-1.75,1.31-2,2.22-.87,3.5-2.78,6.54-3.84,10s-1.41,6.93-2.76,10.34c-2.56,6.41-6.31,12.11-9.11,18.34-1.29,2.86-1.92,6-3.26,8.81-1.81,3.8-4.53,7.07-6.63,10.7-3.29,5.67-4.9,12-7.22,18.13-5.17,13.57-8.77,27.64-15.62,40.52-3.46,6.5-6.16,13.38-9.74,19.8a218.7,218.7,0,0,0-9.94,19.58c-1.11,2.56,1.37,3.68,2.49,1.1,3.09-7.13,6.87-13.8,10.52-20.64,3.41-6.39,6.13-13.12,9.54-19.53,6.92-13,10.74-27.47,15.74-41.29,2.55-7,4.72-13.57,8.87-19.87a51.2,51.2,0,0,0,5-8.88c1.31-3.26,2.15-6.62,3.91-9.7a113.31,113.31,0,0,0,9-19.06c1-3,1.2-6.12,2.23-9.08,1.11-3.19,2.78-6,3.61-9.34l-2,2.22,1-.12c1.69-.21,3-4.56,1.17-4.33Z"></path>
      <path class="cls-1" d="M423.19,223.29c3-1.32,1.94-3.7-.57-4.92-.54-.26-2.39-.87-2.67.13-1.46,5.24-5,9.27-7.1,14.19-.91,2.13-2.09,4.15-3,6.28-1,2.41-1.43,4.9-2.93,7.09-1.91,2.78-4.23,4.58-7.63,4.79-3.08.19-3.25-.32-3.69-3.13-.57-3.71-1.51-7.48-1.45-11.24,0-2.84,1.73-4.58,2.36-7.19.4-1.66-3.77-3.47-4.26-1.42-.4,1.67-1.79,2.89-2.22,4.55s-.1,4,.07,5.79c.36,3.62.65,7.85,1.77,11.33,1.53,4.75,6.85,5.1,11.17,4.41,6.7-1.07,8.69-7.47,10.88-12.85,2.85-7,8-13.18,10.06-20.48l-2.67.13-1.06-.53c-2.14,1,1.33,3.74,2.88,3.05Z"></path>
      <path class="cls-1" d="M427.05,209.6c3,0,.56-3-1.38-3-3,0-.56,3,1.38,3Z"></path>
      <path class="cls-1" d="M407.57,204.93l-1-.19,2.22,2.86c0-2.59,5-5.66,6.68-7.33a50.79,50.79,0,0,0,6.44-8.09c5.17-8,7.45-17.27,13.92-24.54,1.12-1.26-1.66-4.86-3-3.3-7.08,8-9.3,18.49-15.57,26.9a68.53,68.53,0,0,1-7.79,8.44c-1.79,1.72-4,3.61-4,6.26a3.25,3.25,0,0,0,2.22,2.86l1,.19c2.25.43.61-3.75-1.05-4.07Z"></path>
      <path class="cls-1" d="M350.78,40.07c-2.45-3-4.07-5.69-3.23-9.73S351.3,22.58,353,19c2-4.16,2.76-6,7.91-6.47,5.78-.51,11.69.31,17.39,1.18,9.82,1.48,20.2,4.12,30.15,3.7,10.6-.45,20.8,1.36,31.21,3.36a65.89,65.89,0,0,0,12.7,1.06c4.92,0,10.94-1,15.76,0,.66.13,1.36,0,1.41.11.43.62.34,2.59.37,3.28a14.62,14.62,0,0,1-.85,6.3c-1.72,3.91-6.25,7-8.88,10.4-5.9,7.57-9.39,18.63-20.35,19.32-10.26.64-20.91-.4-31.21-.4-12.53,0-24,0-35.85-4.71-4.33-1.71-8.79-3.85-13.38-4.75-2.63-.52-8.71.75-8.35-3.14.16-1.71-4.13-3.28-4.31-1.25-.73,7.88,8.5,6.4,13.51,7.44,5.9,1.22,11.38,4.33,17,6.31a62.64,62.64,0,0,0,16.85,3.06c13.1.8,26.29-.15,39.4.44,4.8.22,10.43.85,14.95-1.17s7.31-6.35,9.84-10.34a86.84,86.84,0,0,1,11.28-14.61c3.42-3.5,4.75-6.64,4.62-11.61-.25-9.84-9.28-7.72-16.69-7.73-6.39,0-12.67.17-19-1-6.69-1.28-13.45-2.47-20.2-3.41-6.22-.87-12.41.55-18.62-.35C392.85,13,386,12,379.07,11s-14.15-2.1-21.23-1.41c-4.53.44-6.36,1.79-8.24,5.82s-5.37,8.79-6.29,13.27c-1.06,5.14.63,7.9,3.72,11.73,1,1.28,5.4,1.75,3.74-.3Z"></path>
      <path class="cls-1" d="M349.76,49.42c.05-5,.7-12.12-5.64-13.66-2.92-.71-1.42,2.78.47,3.24,2.07.5,1.21,7.05,1.19,9.11,0,1.66,4,3.67,4,1.32Z"></path>
      <path class="cls-1" d="M343.92,41c2.2-.07,4.45,2.38,6.3,3.36a24,24,0,0,0,3.69,1.51c3.77,1.27,7.65,2.35,11.46,3.51,7,2.15,14.93,2.74,22.26,3.12,14,.72,28.05,4,42.17,2.5,3.49-.37,6.86-1.15,10.37-1.44a19.75,19.75,0,0,0,7.58-1.73,11.94,11.94,0,0,0,4.83-4.79,75.63,75.63,0,0,0,4-7,50.44,50.44,0,0,0,3.79-10,18.65,18.65,0,0,1,.68-3.63,7.06,7.06,0,0,0,1-1.49c.32-1.66.87-1,.28-2.87-1.76-5.54-8.45-4.29-12.32-2.73-2.78,1.11.87,2.67,2.6,2,6.28-2.51,3.74,4.38,3.27,7.36a31.86,31.86,0,0,1-2.8,8.57c-2,4.7-5.2,12.35-10.61,13.42-10.93,2.16-22.09,1.58-33.16,1.4-2.58,0-4.72-.85-7.19-1.18-2.86-.38-5.77-.45-8.64-.81-5.47-.68-11.12-1.18-16.63-1.53-6.62-.42-12.83-2.8-19.15-4.7-4.51-1.35-8.1-5.7-12.94-5.54-2.28.07-4,2.82-.88,2.72Z"></path>
      <path class="cls-1" d="M383.26,5.85a8.29,8.29,0,0,0-3,2.6,7.19,7.19,0,0,0-2.13,3.62c-.11.79.09,1.89,1.15,1.63a3.24,3.24,0,0,0,2-2.48c.06-.49-.16.31-.18.38s-.14.21,0,.07l.14-.17c.21-.24.44-.47.65-.71s.32-.42.49-.63c0,0,.37-.46.24-.29s-.05.07,0,0,.11-.1-.19.09a3.44,3.44,0,0,0,2-2.48c.13-.66-.1-2.06-1.14-1.62Z"></path>
      <path class="cls-1" d="M396.41,10c-2.14,0-4.34-.14-6.47.05-.75.07-1.62.39-2.33.41s-1.38-.21-2.13-.13-2.4.52-2.54,1.56l0,.25c-.27,2,4.25,1.38,4.48-.33l0-.25-2.54,1.56a6,6,0,0,0,1.41.27c1,0,2-.45,3-.55,2.13-.2,4.33-.05,6.47-.05,2.35,0,3.66-2.77.6-2.77Z"></path>
      <path class="cls-1" d="M486,21.26c.09-2.36-.33-4.24-2.16-5.83a13.11,13.11,0,0,0-2.34-1.3,4.64,4.64,0,0,0-1.39-.7,7.29,7.29,0,0,0-1.62,0c-1.66.05-1,4.58.82,4.53a2.54,2.54,0,0,1,1.62.32c.58.34,1.23.54,1.8.89.3.18.58.65.87.78-.56-.26-.07-1.28-.21-.47a7.08,7.08,0,0,0,0,1c0,.85.43,2.4,1.39,2.62S486,22,486,21.26Z"></path>
      <path class="cls-1" d="M485.66,15.56c1,1.28,2.43,1.53,3.65,2.54,2.46,2,1.78,4.1.76,6.84s-1.45,5.52-2.71,8.17c-.67,1.41-1.35,2.54-.84,4.1s5,1,4.39-.93c-.52-1.58,2-4.77,2.49-6.3a63.26,63.26,0,0,0,2.14-7.88,4.74,4.74,0,0,0-1.15-4.42c-1.1-1.27-3.46-1.84-4.34-3-1-1.35-5.46-.52-4.4.9Z"></path>
      <path class="cls-1" d="M141.54,355.38c1.52-.68,3.6.93,4.92,1.49,1.88.79,3.89,1.59,5.83,2.2a31.69,31.69,0,0,0,8.88,1.55c5.85,0,12.53-4.24,16.75-8.05,1.25-1.12,1.13-5.45-.87-3.65-5.5,5-12.54,7.87-19.89,6.63a44,44,0,0,1-9.41-3.09c-2.25-.94-4-2.33-6.37-1.26-1.49.67-2,5.12.14,4.18Z"></path>
      <path class="cls-1" d="M135.3,414.11a42,42,0,0,0,6.85.33c.51-.05,1.28-.14,1.44-.76,1-3.67,2.85-6.52,4.7-9.78a60.79,60.79,0,0,0,4.47-10.56c.58-1.73-3.79-3.17-4.38-1.42a53.9,53.9,0,0,1-5,11.36,32.6,32.6,0,0,0-4.2,9l1.44-.76a43,43,0,0,1-6.85-.33c-3-.17-.4,2.83,1.49,2.94Z"></path>
      <path class="cls-1" d="M307.32,127.67l.23.79c.3,1,2.35,3.18,3.57,2.24,5.31-4.06,8.21-12,4.26-17.83-4.43-6.57-13.17-8.35-19.69-11.92-3.76-2.06-8.15-2.27-12.32-2.8-5.79-.73-11.64-1.19-17.41-2.07-9.34-1.43-18.65-.63-28.05-.61-4.65,0-9.4-.31-14,.48-5.16.89-10.26,2.25-15.41,3.22a87.63,87.63,0,0,0-13.4,3.32c-5.06,1.81-9.12,5-13.57,7.87-6.78,4.42-12.51,8.74-14.72,17-1.56,5.88-.41,12.33,2,17.81a31.13,31.13,0,0,0,15.38,15.42,39.39,39.39,0,0,0,14.45,4.17c4.36.33,8.75,2.6,12.68-.1,1.64-1.12-1.78-4.13-3.17-3.18-3,2-7.64.13-11-.13a34.51,34.51,0,0,1-13.23-3.91,24.3,24.3,0,0,1-12.14-13.76,23.16,23.16,0,0,1-.12-16.68c2.8-6.83,7.8-10,13.66-13.91,6.92-4.61,12.95-7.95,21.21-9.7,7.29-1.55,15-3.75,22.39-4.45,7.17-.68,14.58-.12,21.79-.33,8.09-.24,15.66,1,23.67,1.59,4.45.35,8.85,1,13.28,1.59a21.87,21.87,0,0,1,9,2.71,28.92,28.92,0,0,0,3.68,2c4.56,1.89,10.07,2.75,12.24,7.79,1.83,4.25-1,10.4-4.62,13.19l3.57,2.24-.23-.79c-.44-1.49-4.56-3.34-4-1.31Z"></path>
      <path class="cls-1" d="M173.2,116.52c-5.49,1.82-5.47,11.1-3.91,15.66a40.85,40.85,0,0,0,13.79,19.53c16.52,12.33,37.94,9.21,57.29,7.61,1.64-.14.62-4.59-1.24-4.43-8.2.68-16.32,1.19-24.55,1.19-6.79,0-13.44,0-20-2.16a38.81,38.81,0,0,1-17-11.93,36.34,36.34,0,0,1-5.09-9.27c-1.18-3-2.17-10.4,1.95-11.76,1.71-.57.43-5-1.24-4.43Z"></path>
      <path class="cls-1" d="M430.42,192.88c.44-1-1.13,1.66-.84,1.21a16.87,16.87,0,0,0-1.18,2.12c-.66,1.43-.91,3-1.54,4.43a64,64,0,0,1-3.63,6.91l1.69-1.17-.29-.15c-1.42-.74-3.18,3.5-1.62,4.3l.29.15c.67.35,1.44-.73,1.69-1.17,1.37-2.32,2.54-4.77,3.72-7.21.78-1.6,1-3.45,1.79-5,.65-1.25,1.58-2.29,2.14-3.6,1.09-2.55-1.12-3.37-2.21-.83Z"></path>
      <path class="cls-1" d="M248.83,106.43c1.94,3.57,7,3.95,10.69,4,3,0,8.46-1,7.34-5.2-.92-3.48-5.4-3.91-8.3-4.16-2.36-.2-6.63-1.92-7.63,1.27-.49,1.54,2.5,4.89,3.18,2.71.37-1.16,4.09-.11,4.9,0,.54.08,1.08.13,1.62.2.86.1,2.76,1.11,3.53.93q.84.26-.17-.68-.28-1.19-.87-.44c-.25,0-1.26.66-1.56.76a11.23,11.23,0,0,1-3.1.44c-1,0-6.75,0-7.41-1.19-1.34-2.46-3.53-1.09-2.2,1.34Z"></path>
      <path class="cls-1" d="M260.53,104.67A90.43,90.43,0,0,0,260,94.45c-.36-3.9.87-7.69,1.49-11.51.29-1.79-2-5-2.45-2-.59,3.59-1.71,7.15-1.75,10.8,0,4,.72,8,.65,12.06,0,2.27,2.56,4,2.61.93Z"></path>
      <path class="cls-1" d="M263.71,81.6c-1.27-1.68-3.26-2.5-4.35-4.33-1.3-2.17-1.5-5.82-1.68-8.27-.21-2.81-.17-5.68-.27-8.5,0-.77-.67-16.15-.87-16.1,3-.8.79-2.87-1.4-2.3-4.83,1.25-2.52,12.28-2.4,16.06s.08,7.5.35,11.2a25.29,25.29,0,0,0,1.57,8.17c1.17,2.63,3.12,3,4.68,5.08,1,1.33,5.44.41,4.37-1Z"></path>
      <path class="cls-1" d="M263.34,83.43c.24-1.78,2.09-2.76,2.68-4.4.7-1.94,0-3.41-.3-5.36-.53-3-.32-6.32-.36-9.39,0-3.51-.12-7,0-10.55.15-3.11,1.33-5.91,1.59-9,.13-1.54-3.52-4.13-3.7-1.91-.23,2.8-1.36,5.33-1.55,8.15-.23,3.45-.15,6.92-.11,10.38,0,2.48,0,5,.1,7.45.06,2.05.78,4.21.66,6.23-.16,2.5-2.36,3.45-2.68,5.77-.22,1.65,3.4,4.32,3.62,2.64Z"></path>
      <path class="cls-1" d="M261.65,36.48c-3,0-5.42-.22-7.87,1.7-1.55,1.21-3.87,3.1-3.69,5.3.34,3.94,6.48,4.17,9.33,4,3.63-.18,9.93-.79,8-6-1.07-3-7.68-5.71-10.23-3.27-1.42,1.36,2.28,4,3.42,2.91a2.56,2.56,0,0,1,2.78-.15c.43.41.19,1.69-.4,2.2-1.34,1.15-4.67,1.15-6.38,1.18a11.19,11.19,0,0,1-2.57-.13c-1.2-.27,0,.07.4-.23s.75-1.07,1.17-1.5a12.07,12.07,0,0,1,2.82-2.27c1.5-.79,3.37-.5,5-.49,2.64,0-.23-3.21-1.83-3.21Z"></path>
      <path class="cls-1" d="M204.51,134.43c2.85-.25,4.22-1.8,6.33-3.61a84.74,84.74,0,0,0,7.73-7c1.35-1.49,2.68-3.84,4.44-4.89,1.6-.95,4.22-.62,6-.39,4.55.59,8.72,2.61,13.33,3.13,4.92.55,9.92.86,14.78,1.86.7.14,3.73.32,4.34.89,1,1,.23,1.47-.84,3-4.4,6.39-10.15,11.9-15.06,17.89l1.69-.72c-3.47.36-7.62-1.28-11.2-1.42-3.8-.16-7.6.14-11.4.15A44.63,44.63,0,0,1,210,141c-3.5-1.16-7.74-2.14-11-3.85l.65,1.82c2.57-2.45,5.71-3.36,8.35-5.55,1.7-1.41-2.59-2.7-3.83-1.67-2.7,2.24-5.7,3-8.35,5.55-.78.74-.1,1.42.65,1.82,3.09,1.63,6.75,2.38,10,3.53a53,53,0,0,0,11.31,2.9c8.91,1,17.66-.25,26.56,1.3,1.81.31,3.53.74,5.26-.15,2.32-1.2,4.74-5.71,6.66-7.78,2.23-2.42,4.15-4.93,6.27-7.44,1.08-1.28,5-5,4.77-6.65-.48-3.31-9.29-3.82-11.43-4.17-3.49-.57-7-.88-10.55-1.26a83.8,83.8,0,0,1-12.58-2.73c-4.26-1.11-9.91-2.49-13.59.56-2.57,2.13-4.46,5.05-6.85,7.37-1.45,1.4-3,2.57-4.55,3.87-1.07.91-2.78,3.23-4.24,3.36-3.05.27-1.32,2.77,1,2.57Z"></path>
      <path class="cls-1" d="M232.84,130.38a5.23,5.23,0,0,1,2.14-2.86c1.14-.52,4,.4,5.38.5a8.9,8.9,0,0,1,2.15.23c.34.11.26-.31-.12.45a4.18,4.18,0,0,1-1.69,2c-1.72,1.07-9.78,2.25-9.89-.74-.06-1.62-3.36-4.46-3.26-1.8.28,7.52,11.92,10.58,16.81,5.47a5.83,5.83,0,0,0-2.47-9.32,21.14,21.14,0,0,0-4.12-.48c-1.43-.15-3.41-.78-4.86-.39-1.63.44-2.88,2.74-3.28,4.29s2.64,4.86,3.21,2.68Z"></path>
      <path class="cls-1" d="M228.19,130.84h.35c1.09,0,.9-1.23.54-1.87a3.36,3.36,0,0,0-2.67-1.72c-1.87,0-6.27-.66-7.56,1.3-.45.68,0,1.5.45,2.05,2.76,3.41,6.76,1.94,10.43,1.79,1.07,0,.92-1.2.54-1.87a3.33,3.33,0,0,0-2.67-1.72c-1.35.05-2.64.36-4,.5a6.7,6.7,0,0,1-1.23.05c-.64,0-1.07-.49-.53.18l.45,2.05c.91-1.38,5-.74,6.23-.73l-2.13-3.6h-.35c-1.09,0-.9,1.23-.54,1.87a3.36,3.36,0,0,0,2.67,1.72Z"></path>
      <path class="cls-1" d="M227.76,130.51c-3.06,1.61-6.95,1.18-9.57,3.72-.61.59-1.44,1.65-.84,2.51,1.78,2.54,5.85,1.18,8.32.73,2.71-.49,6.62-1.27,7-4.64.24-2.19-3.67,0-3.84,1.66.19-1.75,1.69-1.19.12-1-.32,0-.65.14-1,.2-.7.13-1.4.23-2.1.37-1.54.31-4,1.11-5.09-.44l-.84,2.51c.71-.69,2.55-.9,3.47-1.12a17.42,17.42,0,0,0,4.13-1.32c.84-.44,2.08-1.36,2-2.45s-1-1.2-1.81-.78Z"></path>
      <path class="cls-1" d="M232.38,133.47c-1.15.13-2.17-.83-3.39-.69a3.82,3.82,0,0,0-2.81,2.51c-.88,2.16-.63,5.4,2.15,5.82,2.08.31,4.42.23,6-1.26,1.41-1.32,2.93-5.52-.07-5.88-1.82-.22-2.68,4.3-.94,4.5.42.05.29.08.23,0l-.29-.9c-.27-1.89.73-1.93.26-1.56l-.34.3c-.31.25-.38.22-.86.31a8.44,8.44,0,0,1-3.29,0c-.17,0-.56-.23-.62-.22.77-.18-.3,1.17-.3,1.17a1.94,1.94,0,0,1,.49-.24,4.13,4.13,0,0,1,1.74.47,3.85,3.85,0,0,0,1.8.2c1.65-.19,2.23-4.71.23-4.48Z"></path>
      <path class="cls-1" d="M237,138.87h.51a3.45,3.45,0,0,0,2.81-1.63c.44-.85.09-1.59-.92-1.59h-.51a3.45,3.45,0,0,0-2.81,1.63c-.44.85-.09,1.59.92,1.59Z"></path>
      <path class="cls-1" d="M242.91,133.86h-.51c-.87,0-2.37.42-2.62,1.4s1.19,1.27,1.87,1.27h.51c.87,0,2.37-.42,2.62-1.4s-1.19-1.27-1.87-1.27Z"></path>
      <path class="cls-1" d="M239.63,139.74c3,0,.51-2.92-1.38-2.92-3,0-.51,2.92,1.38,2.92Z"></path>
      <path class="cls-1" d="M244.17,138.61c1.62,0,4.12-3.74,1.88-3.74-1.62,0-4.12,3.74-1.88,3.74Z"></path>
      <path class="cls-1" d="M245,133.41h.51c.75,0,2.31-.07,2.39-1.12s-1.48-1.46-2.2-1.46h-.51c-.75,0-2.31.07-2.39,1.12s1.48,1.46,2.2,1.46Z"></path>
      <path class="cls-1" d="M247.88,136.07h.51a3.36,3.36,0,0,0,2.91-1.29c.51-.9-.46-1.48-1.27-1.48h-.51a3.36,3.36,0,0,0-2.91,1.29c-.51.9.46,1.48,1.27,1.48Z"></path>
      <path class="cls-1" d="M228.8,126.16c2.57.79,4.45,3.64,7.13,4.59a19.58,19.58,0,0,0,6.14.95c3.1.06,8.79-.41,7.76-4.85-.23-1-1.51-1.59-2.43-1.71a41.07,41.07,0,0,1-12.9-3.59c-1.8-.87-5.54-3.62-7.74-2.18-2.52,1.66.76,5.22,2.1,6.49,2.27,2.15,5.34,2.45,8.28,2,2.59-.43-1-3-2.56-2.71a4,4,0,0,1-3.25-1.61,4.49,4.49,0,0,0-1.82-1.49c.3-.07,1.7.9,2,1.06a42.75,42.75,0,0,0,5.52,2.41,56.36,56.36,0,0,0,10.76,2.41l-2.43-1.71c.76,3.31-4.74,2.89-6.81,2.52-3.61-.64-5.59-4-9-5-2.66-.81-3.45,1.65-.77,2.47Z"></path>
      <path class="cls-1" d="M243.16,120.76c-1-1.21-1.09-3.05-3.07-3s-3.62,1.92-4.67,3.41c-.89,1.26-2,3-1.6,4.6s2.36,2.15,3.89,2a11.63,11.63,0,0,0,7.65-4.76,3.77,3.77,0,0,0,.48-4.05c-.81-1.3-2.58-1.55-4-1.84a6.57,6.57,0,0,0-7.91,5.55c-.12,1.33-.13,3.16.86,4.19s3.15,1.07,4.6.94c3.41-.32,5.55-3.27,6.89-6.16.51-1.1,1-2.44.16-3.51s-2.51-1-3.75-.77c-2.76.57-7.17,3.14-6.09,6.58.58,1.84,2.39,2.25,4,1.43a6.84,6.84,0,0,0,3.51-4.86.88.88,0,0,0-.54-.89c-2.49-.58-5.56.95-5.53,3.84s3.61,1.57,4.88.36c.55-.53,1.44-1.81.74-2.55s-2,.15-2.57.65q1.35-.82,0,.43-1.33.84-.2.84l-.54-.89c0-.31.27-.21,0-.76s.29-.08-.47.11c.47-.12.92-.5,1.42-.62,1-.26,2.09-.24,1.59.93a5.94,5.94,0,0,1-1.17,1.92c-.36.32,0,.07-.22.16a3.66,3.66,0,0,1-1.12.07c-.74,0-1.85.09-2.37-.58a3.68,3.68,0,0,1-.29-2.46c.36-.7.74-.51,1.6-.34a9.73,9.73,0,0,1,2.28.62c1.56.75.64,1.42-.45,2-.84.46-3.18,1.47-3.53,0-.11-.48.19-.82.44-1.19l.38-.52q.2-.37.12.1c.14.18.22.82.37,1.07a10.38,10.38,0,0,0,.91,1.14c1.11,1.36,4.48-1.76,3.31-3.2Z"></path>
      <path class="cls-1" d="M252.76,134c2.24,0-.3-3.71-2-3.71-2.24,0,.3,3.71,2,3.71Z"></path>
      <path class="cls-1" d="M247.74,131.92c2.29,0,4-2.69.89-2.69-2.29,0-4,2.69-.89,2.69Z"></path>
      <path class="cls-1" d="M227.1,123c-.6.35-2.55,0-3.25.11a22.73,22.73,0,0,0-4.33,1.05c-1.44.49-3.46,1.07-4.29,2.5a2.2,2.2,0,0,0-.4,1.81c.12.81,1.65,1.67,1.66,2.16,0,1.27-4.11,3.41-4.92,4.93a1,1,0,0,0,0,.74c.84,1.31,1.39.82,2.21,1.62s.87,1.16,1.15,2.63a1,1,0,0,0,.55.5c1.78.45,3.67.37,5.42.8,2.94.72,3.67,2.1,6.69,2.18a106.49,106.49,0,0,0,15.4-1.12c1.87-.23,4.22-3.4,1.25-3-4.7.58-9.94,1.38-14.7,1.1-2.39-.14-3.94-1.79-6.36-2.12s-3.72,0-3.64-2.52c0-.45-.27-.65-.61-.86s-2.46-.82-2.43-.55c-.08-.64,2.62-1.79,3.06-2.16,1.18-1,2.24-1.87,1.67-3.49-.25-.7-1.49-1.07-1.67-1.7-.26-.95,1.55-1.2,2.83-1.42,2.58-.44,4.54.1,6.87-1.27,2.65-1.56-.12-3.06-2.11-1.89Z"></path>
      <path class="cls-1" d="M263.63,120.33c1.68,1.16,4.08,1.26,6,1.2,1.42,0,4.75.09,5.59-1.32,1-1.74-3.26-3.23-4.12-1.79-.18.3-2.21.29-2.59.31a11.46,11.46,0,0,1-1.44,0c-.24,0-1.19-.38-.68,0a3.22,3.22,0,0,0-3.16-.34c-.9.59-.34,1.48.34,2Z"></path>
      <path class="cls-1" d="M264.29,117.63c.9,1.67,2.87,2.36,4.66,2.56a20.63,20.63,0,0,0,6.45-.18c1.85-.35-.64-4.15-2.35-3.83a11.65,11.65,0,0,1-4.08.27c-.95-.14-2.26,0-3.09-.56l1.25,1.26-.12-.23c-.39-.73-1.6-1.88-2.53-1.56s-.54,1.61-.19,2.27Z"></path>
      <path class="cls-1" d="M267.83,118.12c2.4.12,4.74.94,7.15.41,1.78-.39,1-4.93-.68-4.55-2.38.53-4.76-.29-7.15-.41-1.65-.08-1.19,4.46.68,4.55Z"></path>
      <path class="cls-1" d="M274.95,120.54c2.65-3.95,6.27-1.58,10.28-.92s9.31.92,13.24-.73c1.54-.65,1.12-5.19-.68-4.44-5.36,2.25-11.27.52-16.56-.61-4.29-.92-6,.28-8.12,3.45-.93,1.39.34,5.49,1.84,3.26Z"></path>
      <path class="cls-1" d="M214.16,114.36c2.19-1.71,6.44-2.29,9-3a74.38,74.38,0,0,1,10.06-2.07c2.56-.32,3.47-.53,5.72,1a19.42,19.42,0,0,0,6.74,2.89l.61-2.74c-2.77,1.57-8.59.55-11.81.83-4.32.38-8.6.63-12.95.66-4.62,0-12.52-.55-15.18,4.35a1.06,1.06,0,0,0,.21,1.42c2.92,2.65,9.65,2.32,13.3,2.28,1.72,0,4.42-3.39,1.71-3.36-2.92,0-9.18.34-11.66-1.91l.21,1.42q-2.29,1.44,3.17-.66l1.91-.08c1.79-.16,3.59-.09,5.39-.12,3.79-.05,7.57-.16,11.34-.56,5-.53,11.25.57,15.78-2,.75-.43,2.28-2.41.61-2.74-3.39-.67-5.82-3.71-8.94-4.46-2.22-.53-5.79.56-8,.94-6.29,1.1-14.53,2.43-19.68,6.43-2.42,1.88.62,2.94,2.43,1.53Z"></path>
      <path class="cls-1" d="M231.53,119.78c5.59,0,11.36-.9,17-1.18,3.15-.16,9.84.24,12.06-2.64,5.25-6.83-12.57-7.52-15.33-7.52-1.82,0-1.84,4.6,0,4.6,4.16,0,10.71.31,14.28,2.56l-.92-1.61,0,.58.62-2.59c-3.25,2.79-10.64,2.06-14.66,2.32-4.29.28-8.75.91-13,.88-1.85,0-1.88,4.59,0,4.6Z"></path>
      <path class="cls-1" d="M236.66,279.82c6.93,0,13.61-1,20.49-1.26a60,60,0,0,0,19.93-3.84c5.54-2,10.68-4,15.21-7.83,2.5-2.14,5-4.31,7.49-6.45,2.68-2.29,5.72-6.09,9-7.55,1.46-.66,2.72-5,.77-4.12-4.88,2.2-8.75,7-12.79,10.38-2.24,1.9-4.38,4-6.71,5.75-3.13,2.4-6.75,3.69-10.42,5.06a62.55,62.55,0,0,1-20.88,4.39c-6.87.22-13.58,1.25-20.49,1.26-1.72,0-3.44,4.22-1.54,4.22Z"></path>
      <path class="cls-1" d="M246.27,275.1c1-1.41,5.15-1.4,6.67-1.54,3.45-.32,6.93,0,10.4-.19a58.29,58.29,0,0,0,16.52-3.1,33.34,33.34,0,0,0,5.74-3.18c2.49-1.53,5.19-2.6,7.42-4.53a53.53,53.53,0,0,0,4.82-5c1.81-2,3.49-5.45,6-6.64s-1.33-3.14-2.87-2.42c-4.12,1.93-6.47,6.8-9.6,10A41.05,41.05,0,0,1,272.87,269c-7.26,1.7-14.24,1.12-21.54,1.84-2.76.27-7.56.29-9.3,2.82-1.12,1.62,3.25,2.92,4.24,1.49Z"></path>
      <path class="cls-1" d="M460.35,222.82c-4.33.89-7.65,4.34-11.55,6.36-6.09,3.16-11.13,7.45-16.8,11.26-4.84,3.26-10.19,5.64-15,8.94-5.86,4-10.83,8.61-17.33,11.64a73.18,73.18,0,0,0-12.6,8c-5.39,4-11.26,7.08-16.9,10.63-5.3,3.34-10.24,7.22-15.58,10.5A176.23,176.23,0,0,0,339,300.61c-10.59,8.15-21.85,14.71-33.58,21.09-12.43,6.77-24.73,13.75-37.26,20.35-12.35,6.51-24.81,12.77-37.2,19.19-11.29,5.85-23.13,12.13-33.26,19.86A263.11,263.11,0,0,1,160,404.83c-5.35,2.81-10,6.33-15.07,9.56-5.65,3.62-12.37,5-17.93,8.86-2,1.36,2.4,2.68,3.7,2a22.56,22.56,0,0,1,6.08-2.68c2.95-.61,0-3.06-1.91-2.66a28.67,28.67,0,0,0-7.87,3.36l3.7,2c4.73-3.26,10.26-4.72,15.31-7.37s9.44-6.49,14.44-9.31c11.11-6.26,22.42-11.85,32.83-19.3,4.61-3.3,8.91-7,13.67-10.09,5.84-3.79,12-7.17,18-10.66,11.41-6.62,23.49-12,35.1-18.22,12-6.46,24.16-12.64,36-19.37s24.18-12.77,35.58-20.25c5.25-3.45,10.06-7.49,15.12-11.21s10.61-6.65,15.81-10.17c10.18-6.89,21.15-12.84,30.86-20.38,5.09-4,11.13-5.78,16.4-9.37,5.68-3.86,10.7-8.49,16.71-11.91a171.72,171.72,0,0,0,17.31-11.24,63.69,63.69,0,0,1,8.65-5.3c3-1.56,6.48-5.06,9.77-5.74,2.94-.6-.12-2.9-1.93-2.53Z"></path>
      <path class="cls-1" d="M468.52,240.84c-1.53,4.08-9,6.17-12.49,8.46-6.29,4.11-12,9.07-18.23,13.29-12.13,8.22-23.9,17.16-35.22,26.45-23.55,19.33-49.9,34.89-76,50.51S276.54,373.47,251.22,390c-13.37,8.73-27.11,16.9-41.06,24.68-12.87,7.18-26.69,12.67-39.37,20.15-7.05,4.16-13.55,9.15-20.78,13-6.88,3.7-14.19,6.72-20.85,10.81-13.54,8.32-27.09,16.81-39.46,26.88-2.33,1.9,1.43,2.74,3,1.5,5.77-4.7,11.93-8.86,18-13.16,5.87-4.16,12.13-7.5,18.1-11.5,6.32-4.23,13.3-7.29,20-10.76a200,200,0,0,0,18.59-11.3c13-8.61,27.82-14.21,41.47-21.76,13-7.21,25.91-14.75,38.5-22.74,27-17.13,52.28-36.8,79.64-53.29,12.29-7.41,24.81-14.45,36.85-22.27,12.64-8.21,25.63-16.79,37.35-26.27,13.34-10.79,26.77-21.43,41-31,6.76-4.56,12.8-10.33,20-14.18,3.57-1.91,8.95-3.84,10.49-8,.8-2.14-3.61-1.49-4.18,0Z"></path>
      <path class="cls-1" d="M485,224c11.58-4.29,21.43-12.73,32.08-18.79,1.61-.92,2.64-4.73,0-3.24-10.33,5.88-19.93,14.26-31.15,18.41-1.53.57-3.44,4.54-1,3.62Z"></path>
      <path class="cls-1" d="M387.83,245c-7.86,3.89-15.59,8.12-23.36,12.2-7.19,3.77-13.62,8.55-21,12-7.54,3.56-15.35,6.12-22.66,10.22-6.94,3.9-13.82,8-20.88,11.7-3.48,1.81-7.23,3.12-10.49,5.31-2.86,1.92-5.95,2.78-8.89,4.53-3.12,1.85-5.87,4.17-9.11,5.84-4.35,2.24-8.78,4.31-13.14,6.54-7.81,4-15.42,8-23,12.45A72.91,72.91,0,0,1,223.88,331c-4,1.49-7.6,3.68-11.5,5.37-4.06,1.77-8.17,3.5-12.27,5.17s-8.2,4.41-12.18,6.67c-8.2,4.64-16.47,10.85-25.54,13.64l1,4.39,1.21-.72c1.53-.9.73-5.4-1-4.39l-1.21.72c-1.45.86-1.08,5,1,4.39,7.87-2.42,15.27-7.6,22.31-11.77a180.87,180.87,0,0,1,21.24-11c7.68-3.28,15.28-6.68,22.93-10,8-3.47,15.15-8.61,23-12.47s16.47-7.35,23.75-12.19c2.93-1.94,5.54-4,8.85-5.25,3.48-1.31,6.2-3.67,9.6-5.21,14.87-6.74,28.22-16,43.49-22,8.64-3.38,15.75-8.78,23.83-13.1,8.75-4.68,17.55-9.42,26.43-13.82,1.5-.74.8-5.25-.94-4.39Z"></path>
      <path class="cls-1" d="M208.61,312.66l.34.72a1.46,1.46,0,0,0,1.33.94c5.82-.39,11.28-5,16.55-7.12,6.13-2.45,11.86-5.88,17.87-8.62,13.45-6.13,26.48-13,39.68-19.63,12.79-6.44,25.75-12.43,38.39-19.17,6.06-3.23,11.45-7.82,17.72-10.53a39.54,39.54,0,0,0,7.83-4.16c2.79-2,5.93-4.68,9.32-5.56.62-.16.83-.74.95-1.31l.14-.66c.4-1.88-2-4.87-2.63-1.93l-.14.66.95-1.31c-5.58,1.45-9.62,6.29-14.76,8.7-2.91,1.37-5.8,2.34-8.48,4.17-3,2.05-5.95,4.11-9.13,5.91-12.43,7-25.48,12.94-38.27,19.26-13.24,6.54-26.19,13.66-39.64,19.77-6.44,2.92-12.66,6.43-19.13,9.25a78.93,78.93,0,0,0-8.08,3.73c-2.8,1.6-6.57,3.78-9.87,4l1.33.94-.34-.72c-1.29-2.71-2.76.94-1.94,2.66Z"></path>
      <path class="cls-1" d="M113.91,384.34c-.42.82-3.61,1.17-4.5,1.48a68.85,68.85,0,0,0-7,3.44c-5.06,2.46-10.48,3.87-15.7,5.91s-9.53,5.22-14.54,7.37S63.1,408.39,58,409.9l2.82,1.69.55-.72c1.41-1.83-3.06-2.25-4.11-.89l-.55.72c-1.25,1.62,1.93,2,2.82,1.69,5.31-1.57,9.49-5.21,14.49-7.45,6.38-2.86,12.14-6.61,18.79-8.88a144.54,144.54,0,0,0,16.38-6.87c3-1.45,7.57-1.41,9.24-4.66.86-1.67-3.67-1.78-4.49-.18Z"></path>
      <path class="cls-1" d="M474,212.59c2-3.13,5.78-5.08,8.84-7.09,3.45-2.27,6.86-4.61,10.27-6.93q5.73-3.91,11.44-7.85c2.31-1.6,5.15-4.31,7.92-5.06,3-.81.64-2.92-1.57-2.32-3.17.86-5.84,3.25-8.51,5.1q-5.93,4.12-11.9,8.19c-3.7,2.53-7.39,5.06-11.13,7.52-3.31,2.18-7.31,4.33-9.47,7.72-1.23,1.93,3.23,2.13,4.12.74Z"></path>
      <path class="cls-1" d="M203.3,462.73c1.19-1.26,3-1.79,4.38-2.78,1.56-1.1,2.73-2.58,4.22-3.76,4-3.17,9.12-5.31,13.48-8,9.1-5.62,19.32-9.28,28.13-15.38,3.59-2.49,6.85-5.53,10.33-8.17q6.51-4.94,13-9.86c8.8-6.64,17.52-13.34,26.53-19.73,8.29-5.88,17.1-11.09,25.27-17.08,3.63-2.66,7.52-4.83,11.09-7.59,4.08-3.16,7.81-6.69,12-9.65A262.66,262.66,0,0,0,375,343c3.7-3.25,7.18-6.81,11.1-9.8,4.11-3.13,8.31-5.91,12.29-9.21,18.35-15.21,41.05-24.49,60.41-38.06,1.83-1.29,1.86-4.47-.67-2.7-1.88,1.31-3.61,1.83-5.35,3.3a34.45,34.45,0,0,1-4.68,3.12c-4.86,3-9.53,6.07-14.53,8.81a325.21,325.21,0,0,0-29.26,18.13c-16.9,11.7-31.94,25.59-48.27,38-3.65,2.76-7.71,5-11.1,8.08a86.11,86.11,0,0,1-12.22,9.56c-8.65,5.38-17.19,10.94-25.52,16.81-8.75,6.18-17.86,12.21-26.23,18.88-7.9,6.29-16.36,12-24,18.59-9.63,8.21-21.59,12.35-32.28,18.94-4.34,2.68-9.12,4.87-13.26,7.82-2.06,1.47-3.67,3.47-5.82,4.81a21.16,21.16,0,0,0-4.88,3.48c-2.1,2.24,1,2.9,2.61,1.21Z"></path>
      <path class="cls-1" d="M335,279.33c1.59,0,3.18.89,4.83,1,3.28.22,6.65,0,9.93,0,6.64,0,13.15.83,19.76,1,2.68.07,0-3.29-1.74-3.33-6.28-.15-12.46-1-18.77-1-3.2,0-6.46.17-9.66,0-2.15-.1-4-1-6.1-1-2.69,0,.05,3.3,1.75,3.33Z"></path>
      <path class="cls-1" d="M56.07,456.63c2.16.34,4,1.49,6.17,1.87,2.62.46,5.32.12,8,.46,6.69.85,13.1,3.62,19.61,5.28,5.57,1.42,11.28,1.55,16.84,3,5,1.26,8.54,2.31,13.65,1.69,1.89-.23,1.65-4.82-.17-4.6-5.47.67-9.87-.88-15.17-2.16-6-1.44-12.07-1.57-18-3.3-5.29-1.53-10.54-3.41-16-4.31-2.85-.47-5.77-.13-8.59-.68-2.22-.43-4.16-1.45-6.41-1.81-1.71-.27-1.74,4.29.17,4.6Z"></path>
      <path class="cls-1" d="M504.65,214.31c5.09,0,9.94.55,15,1,2.13.18,4.22,0,6.34.37,1,.18,5.12.34,5.64,1.29.8,1.46,4.49-1.23,3.6-2.87-.73-1.34-1.38-1.17-2.73-1.33-2.42-.28-4.87-.82-7.31-.89-6.1-.18-12.09-1-18.23-1-1.59,0-4.44,3.5-2.29,3.5Z"></path>
      <path class="cls-1" d="M250.32,290.61c-1.11,0-2.24-.79-3.38-1-2.68-.41-5.87,0-8.59,0-5.8,0-11.55.78-17.35,1l-2,3.72a13.21,13.21,0,0,0,4.6-1.22c1.78-.78,2.85-4.51.09-3.3l-2.73.8c-1.58.12-4.26,3.81-2,3.72,5.5-.22,11-.94,16.48-1,2.28,0,4.62-.12,6.91,0,2.08.11,3.87,1,5.92,1,1.67,0,4.23-3.72,2-3.71Z"></path>
      <path class="cls-1" d="M2.48,394.41c6.53-.47,11.76-4.06,17.74-6.32,6.9-2.6,14.25-3.82,21-6.72,6.59-2.81,12.91-6.27,19.48-9.15A88.85,88.85,0,0,0,70.08,368c2.46-1.44,4.7-3.62,7.73-3.54,1.91,0,.18-4.15-1.61-4.2-4.63-.11-9.58,4.46-13.73,6.22-6.86,2.91-13.48,6-20.14,9.32s-13.87,4.85-20.93,7.11S8.21,389.69.87,390.22c-2,.14-.18,4.33,1.61,4.2Z"></path>
      <path class="cls-1" d="M101,345.57a30.89,30.89,0,0,1,8.71-4.76,32.16,32.16,0,0,0,4.39-1.78c1.2-.69,2.4-2.14,3.76-2.37,2.77-.48,2.14-3.14-.6-2.66a10.34,10.34,0,0,0-4.27,2.1c-2,1.39-4,1.93-6.21,2.89a37.47,37.47,0,0,0-9.37,5.41c-2,1.74,2.3,2.28,3.6,1.16Z"></path>
      <path class="cls-1" d="M23.53,344.66c1.35-2.78,7.49-3.27,10.13-4.3,4.45-1.73,8.59-3.92,13.26-5.1a1,1,0,0,0,.73-.8l.17-.8c.34-1.67-2.95-4.74-3.41-2.46-.09.45-6.14,2.2-6.63,2.41-3,1.24-5.82,2.69-8.89,3.68-2.83.92-7,1.18-8.5,4.16-.78,1.6,2.28,5,3.15,3.21Z"></path>
      <path class="cls-1" d="M131.1,422.62l.68.17-1.1-1.67c-.67,1.14-3.27,1.59-4.45,2.06-2.91,1.16-5.72,2.57-8.61,3.78-5.22,2.18-10.37,4.44-15.45,6.92-11,5.34-21.24,12.35-32.56,17a92,92,0,0,0-13.39,6.69C51.83,460.18,46.67,462,42,464c-5.4,2.37-10.85,4.88-16.11,7.54-5.1,2.59-9.74,6.07-15,8.45l3.58,1,.53-1.68c1.17-2.05-3.29-2.23-4.14-.74A4.72,4.72,0,0,0,10,481c-.27,1.84,2.63,1.43,3.58,1,5.22-2.39,9.86-5.87,15-8.46,5.88-3,12-5.76,18-8.37,4.64-2,9.32-3.86,13.61-6.54,4.88-3.05,10.2-4.86,15.4-7.26,10.83-5,20.92-11.57,31.67-16.77,6.15-3,12.52-5.45,18.75-8.23,2.57-1.15,7.26-1.9,8.81-4.55.55-.94-.24-1.46-1.1-1.67L133,420c-1.88-.46-4.85,1.92-1.93,2.64Z"></path>
      <path class="cls-1" d="M288.74,170.65c.6,6.5,4.73,14.84,12.63,11.09a14.35,14.35,0,0,0,6.58-6.22c1.78-3.57,1-6.45.4-10.1-.17-1.08-1.09-1-1.93-.67-.64.28-4.26-.46-5-.46l-6.71,0c-4.33,0-8.41-.94-12.68-1.29-4-.32-9.49-.7-13.43,0a5,5,0,0,0-4.09,3.83c-1.76,5.53,2.81,12.7,9.11,11.41,7.29-1.5,7.14-8.56,6.83-14.32-.13-2.31-3.82.25-3.72,2a22.44,22.44,0,0,1,.34,3.58q.49,1.93-2,2.87-1.21,3.37-3.12,1.49c-1.73-.52-6.2-5.88-4-7.56-.43.32,2.94.57,3.08.57l4.19,0a52.11,52.11,0,0,1,8.09.56,87.87,87.87,0,0,0,13.26.74c3.15,0,7,1.15,9.9-.11l-1.93-.67a18.26,18.26,0,0,1,.49,1.92,8.48,8.48,0,0,1,.05,4.84,3.86,3.86,0,0,1-4,3.31c-3.72,1.43-5.44.63-7.17-2.82a15.93,15.93,0,0,1-1.53-6c-.21-2.32-3.87.26-3.72,2Z"></path>
      <path class="cls-1" d="M267.59,165.19a6.14,6.14,0,0,0-2.63,3.53c-.66,1.71,2.28,2,3.29,1.72a17.85,17.85,0,0,0,6.16-3.3l-4.14-1.28c-.72,1.11-1.09,2.37-1.82,3.5a19.44,19.44,0,0,0-1.72,3.62c-.71,1.81,2.77,2.19,3.77,1.53a33.71,33.71,0,0,0,9.14-9.35c1.16-1.75-3.23-2.09-4.14-1.28a17.56,17.56,0,0,0-3,3.58c-.77,1.18-1.32,2.78-2.3,3.77l4.14,1.28a9.37,9.37,0,0,1,3.11-3.44l-3.87-1.18c0,1.17-1.42,2.2-2.13,3.07a6.43,6.43,0,0,0-1.75,3.19c-.19,1.45,2.54,1.67,3.39,1.37a9.74,9.74,0,0,0,3.85-2.48c.62-.63,2-2.95,2.84-3.14l-3.29-1.73a20,20,0,0,1-3.16,4.4l3.89,1.59.28-.29c1.63-1.69-2.7-2.83-3.89-1.59l-.28.29c-1.64,1.7,2.68,2.77,3.89,1.59a23.06,23.06,0,0,0,3.66-5c1-1.65-2.49-1.91-3.29-1.73-3,.69-3.81,4.59-6.68,5.62l3.39,1.37c.33-2.52,3.79-3.58,3.89-6.26.06-1.72-2.87-1.6-3.87-1.18a6.09,6.09,0,0,0-2.29,2.06c-.73.86-1.74,1.38-2.06,2.52-.57,2,3.11,2.31,4.14,1.28,2.14-2.15,2.91-5.26,5.26-7.35l-4.14-1.28a30.33,30.33,0,0,1-7.89,8.21l3.77,1.53a19.46,19.46,0,0,1,1.72-3.62c.73-1.12,1.1-2.4,1.82-3.5,1.21-1.86-3.28-1.91-4.14-1.28a12.9,12.9,0,0,1-4.46,2.4l3.29,1.72c.27-.71.65-2,1.38-2.38,2.39-1.26-1.61-2.92-3.15-2.1Z"></path>
      <path class="cls-1" d="M289.88,165.23c-.07,1.48-1.58,2.25-2.23,3.49-.88,1.66,1.72,3.13,3.06,3.08,2-.07,3.62-1.69,5.2-2.75l-3.44-3c-1.53,1.68-3.33,3.52-5,5.08-1.23,1.17,2.19,3.88,3.44,3a88.13,88.13,0,0,1,7.7-4.48L295,167.05c-.27,1.75-2.89,2.82-3.6,4.52-.64,1.52,2.41,3.19,3.58,2.61a49.29,49.29,0,0,0,6.18-3.68l-3.44-3c-1.24,2.39-4.16,3.3-5.37,5.86-.69,1.47,1.29,3,2.6,3.1,3.34.3,6.6-3.36,9.18-5.12l-3.44-3c-1.27,2.77-6,3.73-5.91,7.36,0,1.25,2.4,3,3.59,2.21,2.08-1.42,4-3.1,6.14-4.43l-3.44-3c-1.66,2-3.67,3.6-5,5.87-.88,1.53,1.71,3.32,3.05,3.09,3.15-.55,6-3.32,8.21-5.51l-3.72-2.71a35.17,35.17,0,0,0-4.57,5.48c-1,1.58,2.67,4.25,3.72,2.71,1.85-2.71,3.65-4.58,2.95-7.91-.49-2.31-.76-4.28-3.43-4.9-2.93-.68-1.46,2.84.48,3.29l.57.13-2.13-1.82c1.69,3.12-.43,5.95-2.16,8.5l3.72,2.71a35.17,35.17,0,0,1,4.57-5.48c1.26-1.26-2.34-4.08-3.72-2.71-1.73,1.73-4.36,4.32-6.88,4.76l3.05,3.09c1.3-2.26,3.31-3.88,5-5.87,1.16-1.39-2.16-3.76-3.44-3-2.12,1.33-4.06,3-6.14,4.43l3.59,2.21c-.07-2.18,4.79-4.12,5.59-5.87.69-1.51-2-3.93-3.44-3-1.28.87-2.55,1.77-3.81,2.67-.9.64-2.51,2.27-3.7,2.16l2.6,3.1c1.21-2.57,4.11-3.44,5.37-5.86.78-1.51-2-3.91-3.44-3a49.3,49.3,0,0,1-6.18,3.68l3.58,2.61c.78-1.84,3.27-2.38,3.6-4.52.23-1.48-2.22-3.41-3.58-2.61a88.42,88.42,0,0,0-7.7,4.48l3.44,3c1.69-1.6,3.42-3.36,5-5.08,1.19-1.31-2.18-3.79-3.44-3s-2.83,2.43-4.44,2.49l3.06,3.08c.8-1.5,2.45-2.34,2.53-4.18s-3.93-3.92-4-2Z"></path>
      <path class="cls-1" d="M281.27,171a8.59,8.59,0,0,1,3.91-2.58L283.6,168c1.05,1.09,2.47,1.13,3.65,2s2.8,1.64,3.63,2.73l.93-3.07-.28-.15c-2.39-1.29-1.67,3-.13,3.79l.28.15c2.18,1.18,1.66-2.1.93-3.07-1.15-1.52-2.68-2.21-4.16-3.34a13.38,13.38,0,0,0-1.92-1.41c-.57-.3-1.58-.37-2-.79a1.49,1.49,0,0,0-1.59-.42,9.23,9.23,0,0,0-2.2.84,15.37,15.37,0,0,0-2.27,2.24c-1.2,1.27,1.35,5.06,2.78,3.53Z"></path>
      <path class="cls-1" d="M289.67,168.76q.26-.24-.26.18t-.26.14c.14,0,.55-.18-.11,0a11.86,11.86,0,0,0,1.17-.39,4,4,0,0,0,2.44-2.5c.25-1-.9-1.36-1.69-1.17a3.25,3.25,0,0,0-2.42,2.07,2.22,2.22,0,0,1,1-1.12c.08,0,.55-.33.22-.13l-.16.06.32-.1-.76.24a5.16,5.16,0,0,0-1.89,1.08c-.51.48-1.41,1.72-.48,2.28s2.23,0,2.91-.67Z"></path>
      <path class="cls-1" d="M303.83,168.94c4.41,0,8.7-.08,13.09-.36,2.36-.15,4.73-.05,7.1-.07s2.7-.3,2.43,2.36c-.17,1.7,3.68,2.62,4.38,1.15,3.14-6.51-3.55-7-8.49-6.74-3.7.19-7.2,1.32-10.92,1.32s-7-.31-10.49.42c-3,.62-.05,3.1,1.87,2.74a5.88,5.88,0,0,0,3-1.24c.56-.42,1-1.31,1.59-1.6,1.08-.5,3.32.21,4.58.25,4.07.12,13.12-3.37,15,1.17.68,1.65,5.22,1.83,4.49.06-2.29-5.56-6.29-5.78-12.07-5-2.43.31-4.83,1.07-7.3,1.06-1.77,0-3.6-.56-5.38-.44-2.66.18-3.42,2.61-5.73,3l1.87,2.74c4.16-.88,8.4,0,12.62-.39,1.46-.13,2.94-.43,4.38-.7,1.94-.37,8.74-2.17,6.8,1.84l4.38,1.15c.46-4.6-1.38-6-5.78-6.06-7.39-.12-14.72.5-22.11.5-3.06,0-1.63,2.82.74,2.82Z"></path>
      <path class="cls-1" d="M267.7,166.54a123.39,123.39,0,0,0,13.81-3.28c3.74-1,11.4-4.55,14.47-1.29l2.71-3.71c-2.63-1.81-5.82-.5-8.64.37-4.34,1.35-8.67,2.63-13,4-1.68.54-3,4.6-.35,3.77,2.91-.93,5.82-1.25,8.68-2.39,2.45-1,7.91-3.9,10.59-2.05,1.6,1.1,4-2.38,2.71-3.71-3.47-3.7-8-1.2-12.42,0-5.61,1.54-11.59,3.43-17.35,4.26-1.69.24-3.52,4.35-1.22,4Z"></path>
    </g>
  </g>
</svg>
