<?xml version="1.0" encoding="UTF-8"?>
<svg xmlns="http://www.w3.org/2000/svg" viewBox="0 0 294.58 397.11">
  <defs>
    <style>.cls-1{fill:#8faedb;}.cls-2{fill:#fff;}</style>
  </defs>
  <title>Asset 6</title>
  <g id="Layer_2" data-name="Layer 2">
    <g id="Layer_1-2" data-name="Layer 1">
      <path class="cls-1" d="M280.93,193.75v1.17c0,.5.51.86,1,1-.65-.16.23,6.82.2,6.15A56.92,56.92,0,0,1,282,209c-.31,3.8-1.2,7.54-1.71,11.34-.45,3.37-1,6.68-1.39,10-.55,4.21-2.73,7.84-3.22,12-.14,1.17,2.83,1.62,3,.48.56-4.81,2.94-9.24,3.51-14.16.49-4.24,1.16-8.51,1.76-12.77.7-5,1.41-9.78,1.1-14.93-.12-1.93.45-5.9-2.06-6.53l1,1v-1.17c0-1.19-3-1.56-3-.48Z"></path>
      <path class="cls-1" d="M286.87,209.36c0,1.07-.57,2.5-.59,3.76,0,2.55.06,5.1-.09,7.65-.32,5.53-2,10.59-3.18,15.94-1.18,5.55-1.81,11.19-3.54,16.62-.84,2.63-2,5.19-3.1,7.73-.83,1.92-1.28,4.32-2.34,6-.55.89,1.43,1.73,2,1.66a2.26,2.26,0,0,0,1.68-.76c1-.84-1.57-2.4-2.41-1.67l-.66.41,2,1.66c1.12-1.81,1.56-4.05,2.34-6,1-2.58,2.24-5.08,3.1-7.73,1.63-5,2.31-10.27,3.33-15.44,1.06-5.33,2.84-10.37,3.35-15.82.27-2.86.22-5.74.22-8.61,0-1.62.59-3,.59-4.55,0-1.09-2.8-2.1-2.8-.86Z"></path>
      <path class="cls-1" d="M278.62,267.1v.58c0,.62.31,2.05,1.21,1.38,4.1-3.08,6-9.52,7.84-14.06,1.61-4,3.18-8.57,5.81-11.92.68-.86,0-3.58-1.07-2.19-1.35,1.72-3.06,3.21-3.78,5.33-.59,1.75-1,3.49-1.76,5.27-2.11,4.79-3.28,11.59-7.74,14.94l1.21,1.38v-.59c0-1.79-1.72-2-1.72-.11Z"></path>
      <path class="cls-1" d="M3.59,231.1C2.66,239.1,3.48,248,4,256c.23,4,.41,7.89.88,11.83.33,2.78-.2,5.93,1.27,8.36.77,1.28,4.48-.11,3.53-1.68s-.84-6.7-1.06-8.61C8.14,262,8,258,7.75,254.08c-.47-7.56-1.16-15.92-.28-23.45.2-1.74-3.7-1-3.88.47Z"></path>
      <path class="cls-1" d="M101.9,69l1,1c1,1,3.63-.47,3.48-1.85-.62-5.77-5.36-8.58-8.23-13.15-3.68-5.87-3.71-14.09-2.43-20.77,1.44-7.46,8.1-13.23,13.81-17.67,2.49-1.93,4.72-3.89,7.12-5.9,3.7-3.11,8.82-3.79,13.48-4.29,13.22-1.42,28,5.28,36.34,15.72A61.93,61.93,0,0,1,171,29.31c1.52,2.55,3.31,4.91,4.14,7.81,1.74,6.13,1.39,15.53-2.13,20.9-1.23,1.88,2.47.92,3.21-.21,3.7-5.66,4.11-14.65,2.81-21.12-.68-3.37-2.54-6-4.3-8.91s-3.19-5.91-5.36-8.47A46.27,46.27,0,0,0,150,6.16c-7.42-2.67-13.36-3.5-21.15-2.3a35.58,35.58,0,0,0-9.62,2.43c-3.36,1.58-5.73,4.44-8.58,6.7-5.72,4.53-11.31,8.81-15.37,15a19.8,19.8,0,0,0-3.28,9c-.44,4-.93,9-.23,13,1.42,8,10.23,12,11.07,19.79l3.48-1.85-1-1c-1.12-1.12-4.36,1.16-3.38,2.13Z"></path>
      <path class="cls-1" d="M171.9,53.26c0,4-3.71,9.31-6.44,12.21s-7.08,6.94-11.19,8c-1.41.36,1.24,3.23,2.65,2.86,4.59-1.19,9.49-5.71,12.5-9.32,2.84-3.41,5.81-8,5.86-12.46,0-1.35-3.36-3.26-3.38-1.3Z"></path>
      <path class="cls-1" d="M122.17,68h1l-1.57-.91v1c0,1.26,2.47.9,3.09.64,3-1.26,1.89-5.46,2.48-8.12.48-2.15,1.09-4.7,2.57-6.4,4-4.65,7.26,0,9,3.16a31.43,31.43,0,0,1,3.8,12.92c.57,5.84.1,11.93.1,17.79,0,1.45,4,1.16,4-.41v-1c0-1.45-4-1.16-4,.41v1c0,1.45,4,1.16,4-.41,0-8,.32-16-1-24-.73-4.43-3.79-10.84-8-13a9.3,9.3,0,0,0-10,1.16,13.48,13.48,0,0,0-3.76,6.5c-.3,1-1.15,8.59-1.32,8.66l3.09.64v-1c0-.65-1.1-.91-1.57-.91h-1c-1.94,0-3.53,2.22-.84,2.22Z"></path>
      <path class="cls-1" d="M122.19,66.55l-.53.65c-.36.05-.48.37-.55.67-1.51,5.81-1.33,12.43-1.11,18.51.11,3.2.1,9.32,4.2,10.24,1.81.41.14-3.12-1.2-3.42.39.09-.06-6.11-.07-6.75,0-2.13,0-4.25.1-6.38s-.39-4.95.05-7.12,1.28-2,1.91-3.68c.5-1.36-2.26-4.17-2.8-2.72Z"></path>
      <path class="cls-1" d="M105.58,66.39h-2c-1.14,0-2.89,1.21-2.67,2.51.56,3.39,4.91,5.73,7.61,7.38C112,78.42,115.81,80,120,79.41c1.39-.19,3.5-3.31,1.21-3-3.61.5-7-1.19-10.05-3-2.37-1.44-6.38-3.51-6.87-6.47l-2.67,2.51h2c1.36,0,3.83-3,2-3Z"></path>
      <path class="cls-1" d="M122.52,60.24h1c2.27,0-.46-2.65-1.84-2.65h-1l2.78,1.92c-.1-2-1.23-1.72-2.4-2.8-2.31-2.14-2.66-8.18-2.91-11.62a51.85,51.85,0,0,1,.31-7.58c.15-2.13-.13-4.76.93-6.71,2.12-3.87,8.63-4.57,12.51-5.62a41.27,41.27,0,0,1,6.62-.94c1.63-.18,3.13-1.07,4.77-1,3.42.15,7.56,6.29,9.26,9.21,2.93,5,2.69,10.71.16,15.75-2.44,4.87-4.81,10.81-11,11.39-2.3.21.44,2.78,1.84,2.65,5.92-.55,8.82-4.57,11.31-9.52,2.77-5.51,4.69-10.13,2.77-16.39-1.44-4.7-5.24-9.34-8.79-12.67-3.11-2.93-5.81-3.82-9.93-2.69-2.73.75-5.51.52-8.28,1.19a78.44,78.44,0,0,0-8.3,2.49c-5.54,2-7.14,4.61-7.55,10.46-.42,6-2.08,23.66,7.48,24.16L120,58.35l-.24,0c.06,1.22,1.75,1.92,2.78,1.92h1c2.27,0-.46-2.65-1.84-2.65h-1c-2.27,0,.46,2.65,1.84,2.65Z"></path>
      <path class="cls-1" d="M153.91,74.23v1l.72-.85a3.09,3.09,0,0,0-1.57.25,4.39,4.39,0,0,1-1.93.74,10.13,10.13,0,0,0-1.3.11c-1.9.41-3.15,1.79-5.2,1.89-1.9.09.53,3.15,1.93,3.08a7.74,7.74,0,0,0,2.91-.66,16.74,16.74,0,0,1,2.46-1.25,27,27,0,0,0,2.71-.38c.91-.34,1-.72,1.93-.72.52,0,.72-.4.72-.85v-1c0-1.38-3.36-3.33-3.36-1.37Z"></path>
      <path class="cls-1" d="M88.63,92.53l.16.24c-2.37.12-.36,2.3,1.12,2.3,3.61,0,7.28-1.11,10.87-1.6a148.52,148.52,0,0,1,16.38-1.35c9.71-.25,19.33-1,29.06-1,8.66,0,17,1,25.67,1,7.19,0,14,2.18,21,3,2.66.31,1.31-2.09-.63-2.32-2.72-.32-5.27-1.54-8-1.87a115.22,115.22,0,0,0-11.5-1.12c-8.82-.17-17.42-1-26.25-1-10.05,0-20,.8-30,1q-6.82.17-13.62.92c-4.44.5-9.2,2-13.63,2l1.12,2.3c1.31-.07,2.08-.36,2.16-1.76.08-1.59-3.85-2.23-3.93-.77Z"></path>
      <path class="cls-1" d="M193.47,96.46c0-5.46,3.21-6,8-6.29,1.1-.07,2.57-.59,3.67-.37,2.16.43,1.66.59,2.12,2.56A6.86,6.86,0,0,0,209,96.12c1.76,1.75,5.55,2.65,7.87,3,3.77.64,6.39.62,10.12,2.26,1.13.5,2.23,1.18,3.39,1.6,1.61.57,2.86.09,4.75.91l-1.4-1.56c0,7.38.55,15-2.52,21.95-.6,1.36.07,1.42-1.28,2.35-.54.37-3.07.38-3.55.46-3.11.54-6.13,1.49-9.18,2.28s-6,.74-8.91,1.44c-1.34.32-2.87.85-3.49,2.22-.33.72.35,2.07,0,2.68-.22.34-2.91.77-3.09.84-3.32,1.27-5.62,3.64-9.56,3l2.31,2.16a5.72,5.72,0,0,1,1.81-1.76c1.3-1-2.06-3.08-3.24-2.18-1,.77-1.73,1.09-2.19,2.24s1.48,2,2.31,2.16c5.58.88,9.17-3.08,14.44-4,.44-.08.93-.23.93-.77,0-5,6.94-4.46,10.54-5.35,4.86-1.2,9.48-2.71,14.53-2.89a.86.86,0,0,0,.93-.77c.34-4,2.36-7.37,2.81-11.35.51-4.48.19-9.14.19-13.65,0-.69-.84-1.32-1.4-1.56a32.1,32.1,0,0,0-5.64-1.44c-2.54-.62-5-2.21-7.51-3-2-.6-4.37-.44-6-.68A25.92,25.92,0,0,1,212,95.37c-2.34-1.71-.71-5.78-4-7.47-3.85-2-10.28-.31-14.42-.31-.23,0-.8.16-.86.46-.42,1.9-2.31,1.6-3,3-.5,1-.06,3.16-.06,4.3,0,1.45,3.74,2.76,3.74,1.1Z"></path>
      <path class="cls-1" d="M201.7,133.39a2.21,2.21,0,0,0,2,1.58c.91.13,2.86.05,2.91-1.25.24-6.94,2.64-13.81,3.48-20.73s1.36-14.27,1.52-21.27c0-1.47-3.95-1.22-4,.37-.16,7-.68,14.32-1.52,21.27s-3.23,13.75-3.48,20.73l2.91-1.25,0-.42c-.49-1.32-4.39-.7-3.78,1Z"></path>
      <path class="cls-1" d="M188,97.3c.91.91.85,2.32,1.06,3.62.51,3.17.42,6.27.81,9.47a52.12,52.12,0,0,1-1.34,19.44c-1.17,4.95-1,9.64-6.65,11.61-5,1.76-10.73,1.33-15.94,2.33-6.06,1.17-12.17.8-18.25,1.65-6.59.92-13.62.29-20.27.29H111.07a39.28,39.28,0,0,1-10.17-.89c-2.46-.64-4.8-1.78-7.27-2.41-3.34-.86-3.9.63-6.73,2.14-4.63,2.47-8.94,1-11.14-3.59-.65-1.36-.73-2.55-2.08-3.49-2.23-1.55-5.34-.28-7.85-1.23-2.15-.81-3.67-2.35-5.65-3.43-1.69-.91-3.36-.92-5-1.61s-1.52-.76-2.15-2.6c-.27-.8-.26-1.29-.64-2.22-.84-2.07-1.67-3.4-1.83-5.7a32.69,32.69,0,0,1,.64-8c.6-3.46.1-6.39,3.71-8.21,2.75-1.38,6-1.27,8.86-2.35s4.68-2.06,7.56-2.94,4-1.49,4.88-4.36,3.1-8.48,6.47-4.08c1.58,2.06.46,4.42.12,6.59-.42,2.65-.12,5.5-.12,8.16,0,3.27-.27,6.75.51,9.95,1.36,5.53,3.32,10.85,4.22,16.51C88,136,88.74,140.37,92,143.31c.69.62,3.58,1.57,3.52-.18a5.17,5.17,0,0,0-1.12-3.32c-.81-1.15-4.73-1.36-3.64.19a3.42,3.42,0,0,1,.88,2.68l3.52-.18c-4.22-3.79-3.72-10.9-5.07-16-.82-3.12-1.69-6.24-2.57-9.34-1.06-3.73-1-7.39-1-11.26a47,47,0,0,1,.64-9.6A7.85,7.85,0,0,0,86,89.72c-1.78-2.81-5.09-3.43-8.25-3-5.25.78-3.55,5.11-6,8.45-1.33,1.86-5,1.86-7.1,2.8a88.24,88.24,0,0,1-10.41,3.49c-5.95,1.8-6.13,5.22-7.13,10.73a39.68,39.68,0,0,0-.51,7.31c0,3.13,1.13,4.41,2.06,7.3,1.31,4.05,1.24,5.56,5.72,6.64,5.2,1.25,9.15,5.74,14.7,6,.54,0,2-.4,2.41-.21s.41,1.44.74,2.46a8.74,8.74,0,0,0,3.72,4.5c3.61,2.3,8.37,2.36,12.31,1,1.24-.44,3.55-2.61,4.7-2.63.55,0,2.84,1.68,3.42,1.89a16.57,16.57,0,0,0,3.17.61,101.46,101.46,0,0,0,16.69,1c15,0,29.89-.26,44.83-1,4.23-.22,8.29-1.55,12.5-1.9,3.11-.25,6.14-.24,9.18-1.06,5.86-1.58,7.77-4.37,8.92-10.14,1.36-6.84,3.38-13.42,2.44-20.46-.54-4.08-.24-8.49-1.15-12.37-.47-2-.4-3.18-1.86-4.65-1-1-4.78-.86-3.15.78Z"></path>
      <path class="cls-1" d="M73.25,139.09c2,0,3.37-2.35.7-2.35-2,0-3.37,2.35-.7,2.35Z"></path>
      <path class="cls-1" d="M72.85,142.85h1c.68,0,1-.63,1-1.25a31,31,0,0,0-.33-4.51,107.31,107.31,0,0,1-.67-15.49,93.57,93.57,0,0,0-.13-10.19c-.48-4.37-2.26-9.81.73-13.74.9-1.18-.74-4.75-1.68-3.52-4.71,6.18-1.4,15.51-1.4,22.54,0,5.39-.18,10.82,0,16.21.09,2.54,1,4.81,1,7.33l1-1.25h-1c-1.76,0-.94,3.87.52,3.87Z"></path>
      <path class="cls-1" d="M146.76,392.78a22.1,22.1,0,0,0-2.79-7.21c-1.61-3.07-2.77-6.34-4.59-9.31-3.5-5.73-8.73-12.35-14.88-15.36-3.4-1.66-6.9-2.76-10.14-4.8-4.14-2.61-8.31-5.12-12.58-7.53C94.14,344.27,86.93,339,79,335.35c-9.25-4.29-16.47-10.36-24.8-16.07A87.71,87.71,0,0,1,35,301.45c-6.44-8.11-10.91-17.29-11.22-27.81-.13-4.53,0-9.07,0-13.6,0-2.94-1.17-9,.61-11.49.84-1.15-.4-4.87-1.55-3.3-2.54,3.49-1.4,8.1-1.39,12.12,0,7.19-.6,14.7.48,21.83,1.9,12.52,9,23,17.63,31.92a106.88,106.88,0,0,0,16,13.1c6.43,4.52,12.07,9.85,19.28,13.18,14.06,6.51,27.06,15.43,40.44,23.26,2.74,1.6,5.74,2.55,8.59,3.9,3.89,1.84,6.47,5,9.3,8.12a44.8,44.8,0,0,1,7.43,11.88c1.22,2.67,3.5,5.51,3.9,8.48.32,2.4,2.67,2.16,2.34-.27Z"></path>
      <path class="cls-1" d="M145.75,395.57l1,1c1,1,3.81.66,3.81-1a70.32,70.32,0,0,1,.21-8.11,53.29,53.29,0,0,1,1.15-6c.29-1.23.29-3.65.78-4.76-.39.89.93-.28,1.52-.83,2.6-2.47,4.63-6.27,6.81-9.17,5.31-7.08,10.09-14.16,17.55-19.14a187.75,187.75,0,0,1,20-11.24,250.53,250.53,0,0,0,36.25-22.68c6.23-4.6,12.15-9.53,18.35-14.19,5.64-4.23,9.74-9.42,13.59-15.3,9-13.75,10.83-30.61,14.75-46.27a.76.76,0,0,0-.35-.82c-1.54-1.14-2.87-2.3-4.8-2.24s-2.87,1.57-4.52,2.14c-2.53.87-.45,2.59,1.44,1.94,1.67-.57,2.93-2.35,3.79,0,.54,1.46-.83,4.57-1.18,6q-.76,3.06-1.5,6.13c-1.81,7.52-2.87,15.49-5.85,22.66a69.2,69.2,0,0,1-12.73,19.78c-2.72,2.95-6.1,5.2-9.32,7.56s-6.38,5.3-9.69,7.83a255.26,255.26,0,0,1-40.58,25.88,184.76,184.76,0,0,0-20.77,11.74c-6.13,4.16-10.27,9.31-14.7,15.21-3,4-5.76,8.25-9,12-.92,1.07-2.21,1.68-2.91,2.9-.58,1-.46,3.07-.67,4.12-.44,2.29-1.07,4.53-1.35,6.86a73.66,73.66,0,0,0-.24,8.75l3.81-1-1-1c-1.08-1.08-4.82.17-3.68,1.31Z"></path>
      <path class="cls-1" d="M21,263.34c1.45,1.45,1,.56-1,1s-1.6.58-3.17,1.33a30.5,30.5,0,0,0-6.14,3.48c-4.08,3.36-5.57,8.15-9,12l3.73,1.29c1-8.19-.5-15.93-1.36-24.05-.83-7.91.59-15.3,2.25-23s5-14.52,10.86-20c2.62-2.45,5.62-4.42,8.23-6.86,2.32-2.17,3.82-5.1,6.61-6.66L28.78,201c.82,1.54.35,4,.56,5.72A41.67,41.67,0,0,0,31.06,214c1.73,5.65,3.54,11.14,5.59,16.7,2,5.31,3.32,10.69,4.84,16.11,1.34,4.81,4.09,9.69,6.29,14.2l1.09-1.33a26.08,26.08,0,0,0-8.12,2.53,24.88,24.88,0,0,1-10.88,2.47l1.9,2.34c3.27-1.08,2-7.2,1.78-9.77-.27-3.71-.48-9.15-4.66-10.47-.79-.25-2.23-.18-2.23.91,0,5-.07,9.45,1.15,14.25a35.09,35.09,0,0,0,5,11.07c4.85,7.13,10.1,14.69,17.07,19.92,7.37,5.53,15.45,11,24.52,13,8.5,1.91,16.12,6.07,25,6.18,4.95.06,10.68.7,15.57-.07,2.86-.45,4.58-2.21,5.89-4.74a25.82,25.82,0,0,0,2.74-9.71c.42-5.75,1-11.28,1-17.06,0-5.28.1-10.53.33-15.81.21-4.84-.5-9.29-1-14.08a116.16,116.16,0,0,1-.33-13.36,21.72,21.72,0,0,1,1.23-7.5c.92-2.65.77-5.28,1-8.06,2-24.7.77-49.84.77-74.62,0-1.4-3.88-2.15-3.88-.4q0,29.19,0,58.38c0,5.59-.46,11-.84,16.56a32.66,32.66,0,0,1-.49,5.83c-.53,2.07-1.46,3.76-1.67,5.92-.74,7.85.52,15.71,1.29,23.47.84,8.42-.23,17.61-.3,26.09,0,4.75-.7,9.37-1.06,14.09-.29,3.81-1.74,9.9-5.31,11.84s-10.41.81-14.55.79c-5.54,0-9.78-1.42-14.88-3.29a83.36,83.36,0,0,0-10.64-2.83c-5.25-1.17-9.91-3.83-14.31-6.87s-9-5.83-12.66-9.92a124.8,124.8,0,0,1-9-11.49c-2.89-4.06-5.3-8-6.53-12.94s-1.15-9.28-1.15-14.25l-2.23.91c1.1.35,2.57,15.28,1.12,15.76-2.29.75.87,2.34,1.9,2.34a26.26,26.26,0,0,0,8-.87c3.8-1.21,6.88-3.71,11-4.13.74-.08,1.5-.49,1.09-1.33a92.19,92.19,0,0,1-6.59-16.18,167.41,167.41,0,0,0-5.61-16.84c-2-5.11-3.56-10.4-5-15.67-1-3.42-.13-8.24-1.77-11.31a2.8,2.8,0,0,0-3.34-.87c-2.63,1.47-3.75,3.7-5.82,5.76-2.4,2.4-5.12,4.34-7.69,6.54A37.87,37.87,0,0,0,3.27,231.45,79,79,0,0,0,0,252.62c.08,9.71,2.81,19,1.66,28.79-.18,1.52,2.83,2.31,3.73,1.29,3.32-3.8,4.76-8.47,8.76-11.76,3.36-2.76,7.89-3.53,11.25-6.24.4-.33,0-.95-.22-1.2l-1-1c-1-1-4.79-.79-3.14.85Z"></path>
      <path class="cls-1" d="M148.34,148c.48.34-1.17,5.86-1.32,6.68a36.85,36.85,0,0,0-.23,12c.68,4.93,1.78,9.67,2.33,14.6.58,5.11,1.14,10.27,2,15.37a96.09,96.09,0,0,1,1.13,16.18c0,6.12,1.05,12,1.05,18.19,0,10.86.71,21.65,1.12,32.49a85.92,85.92,0,0,0,5.67,28c2.69,6.56,9.6,13.31,16.79,14.59,9.09,1.61,20.07-3.05,27.94-7.12,4.55-2.35,8.86-5.16,13.39-7.56,5.15-2.73,10.57-5.16,15.39-8.46,12.73-8.7,21.33-21.16,32.15-31.44,1.19-1.13,1.08-4.5-.82-2.7L257.39,256l.82,2.7.08-.08c1.19-1.13,1.08-4.5-.82-2.7l-.08.08c-1.19,1.13-1.08,4.5.82,2.7l7.54-7.16-.82-2.7c-9,8.52-16.41,18-25.62,26.23-8.39,7.47-18.93,11.55-28.52,17.2-9,5.3-20.48,11.13-31.29,10.32-9.53-.72-16.37-10.47-18.59-18.85a118.81,118.81,0,0,1-3.84-28.36c-.1-4.76-.87-9.47-1-14.23-.21-6.25.26-12.53,0-18.77-.22-4.81-1-9.45-1.05-14.3a103.07,103.07,0,0,0-1.54-15.58c-.83-5.4-1-10.93-1.71-16.36-.78-5.9-2.91-11.5-2.6-17.56.14-2.76,3.53-12.35,1.07-14.08-1.19-.84-3.15,2.63-1.85,3.55Z"></path>
      <path class="cls-1" d="M271.6,263.81c0,2.72,3.32,3.74,5.29,5.09,1.5,1,3.55,2.77,4.21,4.59s-.3,3.74.56,5.63c.56,1.22,2.72,1.12,3.64.45,2-1.49,2-3,2.5-5.46a79.4,79.4,0,0,1,2.34-9.79c.37-1.13,1.18-2.15,1.46-3.3.51-2.09-.1-4.6.17-6.77.44-3.56,1-7.14,1.5-10.69,1-6.74,2-14.14.71-20.92-1.08-5.66-1.82-12.14-3.83-17.56-1.92-5.15-6.19-8.21-6.64-13.91-.2-2.59-.53-6.24-3.85-6.38-5-.2-4.77,7.29-5.28,10.46-.61,3.8-2.31,7.4-3.43,11.09A80.55,80.55,0,0,1,267,217.76c-3.54,7.42-11,12.09-17.64,16.5-3.26,2.18-6.47,4.69-9.92,6.53-2.12,1.13-4.32,1.75-5.8,3.73-.72,1,1.4,1.48,1.86,1.52,3.58.26,6.85,1.56,10.28,2.4,1.22.3,2.7.11,3.86.48,1.72.55,4.65,3.92,5,5.67.29,1.39,4.25,1.32,3.88-.41-1-4.59-5.07-7-9.29-7.54-4.59-.56-8.94-2.51-13.63-2.84l1.86,1.52c1.45-1.94,4.87-2.75,6.86-4,2.6-1.65,5.11-3.53,7.68-5.24,5.6-3.74,11.54-7.48,15.82-12.78,4-4.93,5.32-11.1,7.16-17,.9-2.88,2.21-5.68,2.94-8.6.59-2.37.33-9.82,3-10.89l-2.43.06c1.53.5.81,5.65,1.06,7,.56,2.94,2.8,5.2,4.47,7.54,2.7,3.79,3.22,8.19,4,12.66.7,4.09,2.12,8,2.44,12.19.67,8.48-1,17.9-2.43,26.25-.45,2.65-.26,5.33-.79,8-.42,2.09-1.27,4.07-1.79,6.15-.48,1.91-.94,3.82-1.41,5.72s-.26,4.58-2.17,6l3.64.45c-.83-1.81.51-3.28,0-5a15,15,0,0,0-2.44-3.37c-1.32-1.59-7.51-4.57-7.51-6.32,0-1.57-4-1.73-4-.2Z"></path>
      <path class="cls-1" d="M144.68,393.88a4.07,4.07,0,0,0,4.19,2.68.81.81,0,0,0,.87-.8c.94-12.61-2.38-25.29-2.89-37.86-.47-11.62.46-23.12.18-34.72-.14-6-.39-12-.74-18a101.06,101.06,0,0,1,1-19c.77-6.15.5-12.3.48-18.48,0-4.86.45-9.57-.37-14.39A117.36,117.36,0,0,1,146,238.81c-.17-3.69-1.52-6.78-2.25-10.25-.67-3.17-.55-6.72-.83-9.94q-1.69-19.52-3.43-39c-.87-9.83-2.1-19.7-2.58-29.56-.07-1.4-3.28-3.66-3.19-1.76,1,21.63,3.8,43.29,5.68,64.86.35,4.08.71,8.17,1,12.25a20.12,20.12,0,0,0,.17,2.14c.44,2.29,1.57,4.4,1.94,6.75.5,3.17.28,6.46.42,9.66.19,4.61,1.68,9,1.75,13.62.09,5.88,0,11.85-.13,17.73-.09,6.08-1.5,11.91-1.78,17.93-.3,6.38.5,12.77.75,19.14.52,13.19-.37,26.27-.07,39.44.16,7,1.06,13.82,1.6,20.76.24,3.14.68,6.26,1,9.39.11,1,.89,11.42-.07,11.11l1.78,1.66-.31-.7c-.69-1.53-3.93-2.49-2.86-.11Z"></path>
      <path class="cls-2" d="M115.66,56c-.52,6.93-5.77,13.65-9.5,19.16C101.8,81.59,97.31,87.93,93,94.38c-8.48,12.64-14.3,27-14.34,42.31,0,15.54,2.36,30.21,11.94,42.9,4.49,5.95,10,11.08,15.52,16.07,2.64,2.4,5.61,4.74,8.07,7.33,1.91,2,2.8,4.23,5.9,4.23,5.86,0,11.61-14.77,5.06-14.77h-.58c-5.86,0-11.61,14.77-5.06,14.77h.59c5.86,0,11.61-14.77,5.06-14.77H124l2.1,1.1C117.16,183.75,106,176,98.32,164.94a51.21,51.21,0,0,1-8.2-20c-1.2-6.59-1.83-15.24-.55-21.87C94.95,95.32,123.89,77.51,126,48.66c.26-3.41-2.6-4.29-5.13-2.69-3.2,2-5,6.41-5.26,10Z"></path>
      <path class="cls-2" d="M154.05,208.73c3.21,3.22,8.17,4,11.14,7.62,1.72,2.1,4.38,4.25,5.54,6.72.93,2,.7,4.34.63,6.47-.18,5.8-4.58,12.34-8.59,16.4a64.68,64.68,0,0,1-17,12.1c-6.29,3.13-12.55,6.4-18.72,9.76s-12.48,5.73-18.57,9c-11.86,6.27-24.89,10.58-36,18-4,2.68-2.47,17.45,3.19,15.44,3.34-1.19,4.58-3.25,5.19-6.77.59-3.37.06-8.49-3-10.65s-5.37.71-5.87,3.64l.49-1.06L74.57,294l-1,.35,3.19,15.44c7-4.69,14.61-7.5,22.21-11.09,7.22-3.41,14.18-7.46,21.52-10.59s14.55-7.26,21.8-10.88a109.46,109.46,0,0,0,20.6-12.73A51.94,51.94,0,0,0,177,246.84c3.47-6.9,4-14.65,3.15-22.27-.84-7.9-4.3-13.05-9.21-19-2.29-2.77-3.88-5.22-7.12-7-2.16-1.18-5.45-2.49-7.08-4.11-2.69-2.7-5.11,1.3-5.61,3.61a12,12,0,0,0,2.94,10.66Z"></path>
      <path class="cls-1" d="M129.19,55h.59c1.07,0,.75-2.68-.07-3-2.64-.88-4.66-3.46-7.51-3.79-2.53-.29-5.35,1.18-7.18,2.81-2.53,2.25-7.66,5.38-4.4,9,.89,1,1.22-1.91.55-2.66.69.76,3.33-2.34,3.52-2.53a12.14,12.14,0,0,1,5.68-3.56c3.55-.84,6.08,2.58,9.18,3.61l-.07-3h-.58c-1.06,0-.85,3,.29,3Z"></path>
      <path class="cls-1" d="M122.71,59.64l.51.07L122.28,58l.07.51.51-1.24c-3,.08-7.07-.09-9.91.83-2.25.73-3.71,3.05-5.11,4.81-1.26,1.58-6.32,7.6-1.52,8.4,1.2.2.82-2.74-.21-2.92l-.67-.19L106,70c.15-.93,1.91-3,2.49-3.75a23.88,23.88,0,0,1,3.71-4.34c1.52-1.18,3.15-1,5-1.16,2.14-.14,4.24-.45,6.39-.51.47,0,.55-.94.51-1.24l-.07-.51c-.07-.5-.29-1.59-.95-1.68l-.51-.07c-1.22-.18-.83,2.77.21,2.92Z"></path>
      <path class="cls-1" d="M121.86,61.72v.59l2.58-1.44-.58-1.17c-.4-.79-2,.26-2.26.66-1.13,1.62-1.49,3.51-2.34,5.27-2.3,4.76-6,4.94-10.61,5.3-3.49.27-6.5,3.19-8.31,6.09-.89,1.43,1.87.64,2.4-.21a16.63,16.63,0,0,1,1.86-1.86c2.5-2.3,3.17-1.8,6.16-2a12.54,12.54,0,0,0,5.59-1.42,12.14,12.14,0,0,0,4-3.82c1.5-2.19,1.78-5,3.24-7.07l-2.26.66.58,1.17c.52,1,2.58-.66,2.58-1.44v-.58c0-1.11-2.65.15-2.65,1.23Z"></path>
      <path class="cls-1" d="M101.42,75v.59l.5-.41h-.59a.53.53,0,0,0-.5.41c-.21,1-1.49,2-2.06,2.85a7.3,7.3,0,0,0-1.46,3.58c-.06,1.08,2.51,2.53,2.57,1.39a7.14,7.14,0,0,1,1.77-3.83A7.15,7.15,0,0,0,103.4,77l-.5.41h.59c.19,0,.5-.19.5-.41v-.59c0-1.08-2.57-2.49-2.57-1.39Z"></path>
      <path class="cls-1" d="M114.4,73.08H115l-2-1.2c0,.52.87.07.3.07-.31,0-.8.16-.88.51-.68,2.93-2.55,6.77-5.42,8.27-2.09,1.09-6.06,1.33-8.36,2.1-4.6,1.53-7.8,5-7.88,10.12,0,1,1.3,1.21,2,1.21h1.17c1.94,0,0-1.74-1.15-1.74H91.59l2,1.21a9.71,9.71,0,0,1,5.44-8.76c2.78-1.32,5.68-1.29,8.53-2a9.61,9.61,0,0,0,4.87-3.72c.51-.67,3.1-5.46,2.52-5.46.25,0,.88-.16.88-.51v-.58c0-1-1.3-1.2-2-1.2h-.59c-1.95,0,0,1.71,1.15,1.71Z"></path>
      <path class="cls-1" d="M106.07,82.81c0,3.55-1.35,7.34-4.66,9-2.82,1.43-5.93.77-8.88,1.75a9.41,9.41,0,0,0-6.36,6.54c-.15.53.36.7.76.7h.58c1.07,0,2.83-2.17,1.09-2.17H88l.76.7c1.5-5.25,6.28-3.6,10.18-4.63a14.82,14.82,0,0,0,5.45-2.89c3-2.51,4.29-6.45,4.29-10.29,0-1.13-2.64.17-2.64,1.27Z"></path>
      <path class="cls-1" d="M100.36,92.61c0,4.9-4.47,8.63-9.06,9.58-3.25.67-5.84-.07-8.29,2.52a12.64,12.64,0,0,0-3.14,6.64c-.16,1,2.13,2.84,2.36,1.37a12.14,12.14,0,0,1,2.34-5.29c1.82-2.28,3.48-2.07,6.1-2.42a17,17,0,0,0,7-2.08A11.37,11.37,0,0,0,102.71,94c0-1-2.35-2.79-2.35-1.37Z"></path>
      <path class="cls-1" d="M96.12,101.2a3.88,3.88,0,0,0-2.33,3.6c-.26,2.75,0,5.19-2,7.46-2.19,2.49-5.08,1.25-7.79,1.77-3.16.6-9.68,8.25-5.14,10.16,1,.43,3.19-1.59,2.09-2.05-1.86-.78-.18-3.46.75-4.38,2.32-2.26,3.43-1.4,5.65-1.52a8.2,8.2,0,0,0,5.1-2.12,12,12,0,0,0,3.32-4.81c.2-.56.56-6.28.66-6.34,1.3-.7,1.48-2.73-.29-1.77Z"></path>
      <path class="cls-1" d="M90.74,114.44c0,1.47-.08-.7-.42.68-.09.38-.1.7-.17,1.08-.54,2.91-.29,4.52-2.56,6.82-3.11,3.14-7.65,3.55-9.57,7.91l1.52,1.35.07-.51-.73,1.16.51-.07c1.17-.17.91-3.15-.22-3l-.51.07c-.53.08-.67.72-.73,1.16l-.07.51c-.11.75.88,2.79,1.52,1.35,1.36-3.07,4.24-3.69,6.83-5.33a13.64,13.64,0,0,0,4.35-4.52c1.09-1.9.91-3.55,1.28-5.56a14.86,14.86,0,0,0,.59-3.22c0-1.83-1.68-1.67-1.68.12Z"></path>
      <path class="cls-1" d="M78.82,118.5v1.17l1.59-2h-.59c-.78,0-1.43,1-1.55,1.65-.21,1.17-1.16,2.11-1.65,3.16a17.27,17.27,0,0,0-1,3.13c-.57,2.4.16,4.52.3,6.91.11,1.78,2.11-.18,2.11-1.22v-.58c0-1.74-2.11.14-2.11,1.22v.58L78,131.32c-.17-2.74-.94-5,.09-7.69.65-1.71,1.88-3,2.21-4.86l-1.55,1.65h.58c.89,0,1.59-1.18,1.59-2v-1.17c0-1.74-2.1.15-2.1,1.23Z"></path>
      <path class="cls-1" d="M81.19,110.52c-.19.65-1.11,1.41-1.44,2.07s-.57,1.24-.84,1.86a22.82,22.82,0,0,0-1.13,3.24c-.52,2-.46,4.3,2.08,4.47,1.11.07,2.41-2.6,1.18-2.68-3.93-.26,1.79-8.1,2.18-9.44.55-1.88-1.7-.66-2,.49Z"></path>
      <path class="cls-1" d="M88.14,123.82a5.42,5.42,0,0,0,2.13,3.89l-1-1.84c-.66,8-10.59,10.79-11.12,19.32-.05.86.78,2.22,1.78,2.1.82-.1.71-.08,1.38-.68.9-.79-.91-3.17-1.76-2.43l-1,.5,1.78,2.1c.53-8.49,10.44-11,11.12-19.32a2.2,2.2,0,0,0-1-1.84l-.21-.79c-.17-1-2.49-2.71-2.21-1Z"></path>
      <path class="cls-1" d="M77.2,132c-.5,3-2.66,4.61-1.94,7.9s3.35,6,4.93,8.72c.43.75,1.9.7,2.52.26.87-.62.9-.71,1-1.79s-2.89-1.06-3,.14l-.17.55,2.52.26c-1.54-2.68-4.14-5.43-4.79-8.46s1.46-4.9,1.92-7.71c.17-1-2.8-1.06-3,.14Z"></path>
      <path class="cls-1" d="M88.14,134.8l.44.8.17-2.53a2.12,2.12,0,0,0-.95,2c0,.61.08,1.51.73,1.79,3.92,1.73,3.76,7.5,2.36,11-.46,1.14-1.51,2-1.87,3.24a12.42,12.42,0,0,0-.06,3.29l1-1.13-.18-.23c-.85-1.48-1.57,1.29-1,2.21.29.51.42.8,1,.94s1-.6,1-1.13c0-2.61,1.39-4.27,2.1-6.66a23.74,23.74,0,0,0,.81-5.83c.1-3.66-1.26-7-4.83-8.62l.73,1.79q0-.66-.07.14a2.06,2.06,0,0,0,.17-2.53l-.44-.8c-.81-1.49-1.53,1.29-1,2.21Z"></path>
      <path class="cls-1" d="M78.27,144.32v1.17l1.23-2c-3.65,1.53-1,5.83.52,7.89,2,2.78,4.47,7.84,8.17,8.31.91.11,1.48-1.39,1.48-2.06v-1.17c0-1.72-2,.27-2,1.34v1.17l1.48-2.06c-2.82-.36-4.58-4.28-6.1-6.3-.52-.69-1.09-1.33-1.58-2-.32-.46-.64-.93-.92-1.41A9.49,9.49,0,0,1,79.9,146q-.15-1-.83.21a2.25,2.25,0,0,0,1.23-2V143c0-1.72-2,.28-2,1.34Z"></path>
      <path class="cls-1" d="M91.28,148.63v.59c0,.67,1.3.56,1.64.52,1.31-.17,3.38,2,3.93,3.1.91,1.76.55,4.39.07,6.27s-2,3.1-2.59,4.86a9.84,9.84,0,0,0-.11,2.8c0,1.08,2.94.62,2.94-.61v-.58c0-1.08-2.94-.62-2.94.61v.58c0,1.08,2.94.62,2.94-.61,0-2.73,1.85-4.17,2.58-6.66.59-2,1.05-5.08.21-7.08a7.43,7.43,0,0,0-7.36-4.34l1.64.52V148c0-1.06-2.94-.6-2.94.61Z"></path>
      <path class="cls-1" d="M87.84,156.1a15.14,15.14,0,0,0,4,10.41c2.13,2.2,4.54,5.12,7.73,5.65l-1-2h-.59c-1.71,0,.31,2,1.38,2h.59c1.75,0-.27-1.88-1-2-1.28-.21-2.32-1.76-3.11-2.6a21.09,21.09,0,0,1-2.92-3,14.65,14.65,0,0,1-2.17-7.59c0-1.11-2.8-2.11-2.8-.85Z"></path>
      <path class="cls-1" d="M99.39,158.67l.58.59c.7.7,1.35.42,1.35-.57v-.59c0-1-1.9-2.78-1.93-1.16q0,.46,0,.92a2.12,2.12,0,0,0,1.08,1.77c3,1.24,5.8,5.36,6.44,8.29.07.33-.37,7.66-1.63,7.66s-.42,2.84.7,2.84h.58a.58.58,0,0,0,.55-.39c1.54-4.64,2.71-7.84.88-12.56-1.26-3.24-4.51-7.22-7.74-8.56l1.08,1.77q0-.29,0-.58c0-1.23-1.94-2.8-1.94-.83v.59l1.35-.57-.58-.59c-1.39-1.39-1.64,1.08-.77,2Z"></path>
      <path class="cls-1" d="M97.25,171a2.71,2.71,0,0,0,2.31,1.75l-1.77-1.41c0,2.17,2.6,3.52,4.09,4.69a14.11,14.11,0,0,0,7.63,3.15c2,.13.51-1.91-.73-2a10,10,0,0,1-5.59-2.45c-.75-.59-1.47-1.14-2.17-1.77a2.79,2.79,0,0,1-.53-.65c.23.52.11.06.11-.16,0-.8-1.13-1.32-1.77-1.41l.3,0,1,.94-.15-.41c-.37-1-3.21-1.72-2.71-.34Z"></path>
      <path class="cls-1" d="M109.31,169.91c-.58.53,2.13,1.2,2.48,1.4a5.51,5.51,0,0,1,2.66,3.43c1.24,3.63.49,6.69.35,10.4l2.73-1.06v-1.76c0-1.22-2.73-.07-2.73,1.06v1.76c0,1.24,2.69,0,2.73-1.06.17-4.39,1.6-9.87-1.92-13.49-1.76-1.81-5.65-3.72-7.81-1.71-1.46,1.35.39,2,1.51,1Z"></path>
      <path class="cls-1" d="M107.74,178.43h.59L107,176.6a7.61,7.61,0,0,0,1.76,4.32l-.59-1.39a8.27,8.27,0,0,0,1.76,4.91c1.51,1.66,3.85,2.21,5.27,4.1.64.86,1.36.28,1.36-.58q0-.59,0-1.17c0-1.25-1.95-2.78-1.95-.82q0,.59,0,1.17l1.36-.58a17,17,0,0,0-4.5-3.68,2.85,2.85,0,0,1-1.32-2.19c-.21-1.07-1.09-2.26-1.19-3.27-.06-.62-.54-1.83-1.33-1.83H107c-1.28,0-.4,2.84.71,2.84Z"></path>
      <path class="cls-1" d="M116.44,176.13H117l-1.41-.42c1.79,1.61,4.27,2.2,6.09,3.69,1.37,1.13,1.42,3.11,3.31,3.66,1.43.42,3-1,1-1.52.54.16-.37-.8-.62-1.2a10.57,10.57,0,0,0-.6-1,8.66,8.66,0,0,0-3-2.08,40.29,40.29,0,0,1-3.75-2.28,3.49,3.49,0,0,0-2.2-.62c-2,0-1,1.78.55,1.75Z"></path>
      <path class="cls-1" d="M115.09,185.81v.59l.48-.77H115c-1.18,0,.07,2.67,1.19,2.68,3.59,0,5.06,4.4,8.53,4.67,1.5.12.39-2.56-.68-2.64-1.9-.15-3.17-2.21-4.65-3.23a7.44,7.44,0,0,0-4.38-1.47l1.19,2.68h.59c.4,0,.48-.48.48-.77v-.58c0-1.08-2.16-2.88-2.16-1.13Z"></path>
      <path class="cls-1" d="M125.91,188.48h-.58c-.93,0-1.35,1.44-1.35,2.15q0,3.88,0,7.76c0,1.77.82,6.27-.2,7.79-.83,1.24,0,3.05,1.16,1.38,1.49-2.22,1-4.62,1-7.15-.08-3.75,0-7.5,0-11.25l-1.35,2.15h.58c1.08,0,2-2.83.76-2.83Z"></path>
      <path class="cls-1" d="M149.94,196h.59l-1.38-1.79a3.76,3.76,0,0,0,1.47,2.77c1.27,1.06,2.43.69,3.85,1.17s2.78,4.27,3.4,5.76a34,34,0,0,1,1.3,4.72c.14.55.66,1.43,1.31,1.43h.59c1.26,0,.31-2.82-.8-2.82h-.59l1.31,1.43c-.41-1.53-.68-3.19-1.17-4.68a58.78,58.78,0,0,0-2.83-5.74,4.61,4.61,0,0,0-2-2.57c-.5-.25-3.91-.5-3.91-.69,0-.62-.62-1.79-1.38-1.79h-.59c-1.25,0-.3,2.81.81,2.81Z"></path>
      <path class="cls-1" d="M150.76,195.36v.22c0,1.38,2.22-.55,2.22-1.58q0-.4,0-.8l-2.22,1.59c0,3.36.84,6.47.64,9.84-.16,2.69-1,5.64-.56,8.33.39,2.46,2.62,8,5.62,8.09,1.11,0,2.51-2.58,1.35-2.6-4.83-.09-4.6-9.89-4.32-12.45.48-4.49-.45-8.38-.51-12.8,0-1.39-2.22.56-2.22,1.59q0,.4,0,.8c0,1.33,2.21-.38,2.22-1.29v-.22c0-1.85-2.23.11-2.22,1.29Z"></path>
      <path class="cls-1" d="M160.54,209.07a8.47,8.47,0,0,0,.4,2.09,16.23,16.23,0,0,1,.19,4.34c-.15,2.74-1.53,5-1.17,7.86,0,.38.5.47.81.42a2.81,2.81,0,0,0,2.27-1.87c.6-1.64-2-.7-2.42.33l1.11-.7.81.42c-.36-2.81,1.13-5.32,1.17-8.12,0-.95.08-1.94,0-2.88s-.59-1.84-.59-2.8c0-1.5-2.58-.17-2.58.89Z"></path>
      <path class="cls-1" d="M154.31,220.54h.58l-.54-.73c0,2.53,3.67,3.18,4.83,5.2a.5.5,0,0,0,.4.21h1.17c1.11,0,2.21-2.76,1-2.76-.81,0-.82,0-1.35-.59a9.34,9.34,0,0,0-1.6-1.38,16.62,16.62,0,0,1-1.83-1.24c-.45-.41-.53-.15-.53-.74,0-.32-.16-.73-.54-.73h-.58c-1.11,0-2.21,2.76-1,2.76Z"></path>
      <path class="cls-1" d="M165.79,211.77h-.59l1,.64v-.58l-2.7,1c1.26,1.22,3,1.9,4.13,3.19,1.63,1.82,2.05,4.72,2.44,7a10.87,10.87,0,0,1-.3,5c-1.57,4.76-3.19,4.79-6.84,6.79l2.1.32v-.59c0-1.29-2.86-.5-2.86.61v.59c0,1,1.59.6,2.1.32,2.3-1.26,5.09-2.13,6.88-4.15s1.72-4.58,2-7a17.85,17.85,0,0,0-1.52-8c-1.17-2.76-3.56-3.62-5.59-5.58-.66-.63-2.7.06-2.7,1V213c0,.54.56.64,1,.64h.58c1.23,0,2.86-1.9.9-1.9Z"></path>
      <path class="cls-1" d="M158.87,222.67c.06.06,0,1.1,0,1.41.2,1.26.72,2.22.84,3.58a19.25,19.25,0,0,0,.78,5.13,14.41,14.41,0,0,0,2,4c1,1.27,1.81,1.17,3.4,1.18s-.11-2.46-1.18-2.46H163l1.46.95c-2.13-2.6-1.95-5.57-2.38-8.71-.28-2.06-.51-4.68-2-6.23-1.25-1.32-2.48-.14-1.22,1.18Z"></path>
      <path class="cls-1" d="M171.11,228.56c-.54-.31-.12.45,0,1.12a20.51,20.51,0,0,0,1.11,2.61,13.37,13.37,0,0,1,.91,8.27c-1,4.86-3.9,7-8.3,8.74l2.26.68-.58-.59c-.75-.75-3.62-.83-2.42.37l.59.58a2.23,2.23,0,0,0,2.26.68c5.38-2.13,8.42-4.72,9.22-10.76a14.4,14.4,0,0,0-1.2-7.87c-.74-1.93-.69-4-2.55-5.11-1.3-.74-3.08.25-1.34,1.25Z"></path>
      <path class="cls-1" d="M164.36,236.7l.59.59.11-2.63h-.59c-.4,0-.52.6-.58.87-.23,1-1.54,2.11-2.14,2.93a21.87,21.87,0,0,0-2.21,3.54,16,16,0,0,0-1.53,8.54c.06.67.33,1.71,1.17,1.71h.59c1.09,0,.67-2.95-.56-2.95h-.59l1.17,1.71a14.07,14.07,0,0,1,3-9.79c1.06-1.48,2.42-2.66,2.83-4.48l-.58.87h.59c1,0,.52-2.22.11-2.63l-.58-.59c-1.24-1.24-1.56,1.53-.79,2.31Z"></path>
      <path class="cls-1" d="M160,251.68c.55,0,.64.44,1.22.63.84.28,1.71-.14,2.55,0a9,9,0,0,0,2.62.49c1.2-.09,2.36-.48,3.56-.55.85-.05,1-1.2,1-1.83v-1.17c0-.53-.35-1.29-1-1.13s-.74,1.28-.74,1.79v1.17l1-1.83c-1,.06-2,.32-3.08.47a8.54,8.54,0,0,1-3-.41c-.7-.11-1.6.29-2.25.08-.87-.28-.69-.72-1.62-.72-1.2,0-1.39,3-.23,3Z"></path>
      <path class="cls-1" d="M170.1,248.29l.58.59,1.73-2.24h-.58a2.1,2.1,0,0,0-1.88,1.78c-.12,5.67-4.38,13.56-10.75,11.73-3.2-.92-6.22-4.91-9.39-2.64,1.22-.87,1.06-2.93-.57-1.77a2.91,2.91,0,0,0-1.54,2.63.58.58,0,0,0,.6.64c3.91.05,6.56,3,10.26,3.82a9.94,9.94,0,0,0,7.11-1c4.26-2.53,6.65-9.92,6.75-14.59L170.55,249h.58c.75,0,2.56-1.41,1.73-2.24l-.58-.59c-.84-.84-3,1.23-2.18,2.06Z"></path>
      <path class="cls-1" d="M155.62,250.69v.59l1.14-2h-.59c-.79,0-1.14,1.4-1.14,2v.58l1.14-2a6.91,6.91,0,0,0-2.9.55,21.36,21.36,0,0,0-3.78,1.88,6.69,6.69,0,0,0-2.64,4.43l1.85-.64v-.58l-1.15,2h.59c1.1,0,1.75-2.9.41-2.9H148c-.8,0-1.15,1.4-1.15,2v.59c0,1.81,1.72.47,1.85-.64.17-1.43,2.14-2.06,3.22-2.6a8.14,8.14,0,0,1,3.85-1.09c.79,0,1.14-1.4,1.14-2v-.58l-1.14,2h.59c.79,0,1.14-1.4,1.14-2v-.59c0-.61-.35-1.07-1-.86s-.9,1.3-.9,1.87Z"></path>
      <path class="cls-1" d="M153,261.06c1.07,1.06,1.92,5.62,1.65,6.85l1.09-1.35-.59.28c-.43.21-1.09.82-1.09,1.35v.59l1.43-1.51a15.91,15.91,0,0,1-3.54,1.34c-2.94.58-5-.61-7.53-1.94a14.18,14.18,0,0,0-3.71-1.27c-.53-.13-3.67-.48-4.08-.93l-.35,1.34c3.61-3.43,7.93-7.47,13.05-7.47,1.06,0,2.93-2.29,1.5-2.29-2.68,0-5-.09-7.29,1.48a72.89,72.89,0,0,0-8.93,7.44c-.28.26-.69,1-.35,1.34,1,1.15,2.21.94,3.68,1.15,2.52.36,4.29,1.43,6.56,2.47a13.41,13.41,0,0,0,5.86,1.37c2.15-.09,3.07-1.18,4.85-1.92.55-.23,1.43-.81,1.43-1.51v-.59l-1.09,1.35c1.68-.81,1.9-1.86,1.71-3.65s-.68-4.58-1.89-5.79c-.86-.86-3.17,1-2.37,1.84Z"></path>
      <path class="cls-1" d="M155.79,267.4h1.76c.39,0,.58-.37.61-.71,0,.21,2,.15,2.31,0a2.14,2.14,0,0,0,1.2-1.76l-.37.66c.83-.22.89-1.32,1.36-1.9.71-.89-.84-3.43-1.64-2.43-.26.33-.63,1.52-1,1.61s-.34.46-.37.66c-.25,1.31-3.34-.44-3.51,1.76l.61-.71H155c-1.28,0-.33,2.82.8,2.82Z"></path>
      <path class="cls-1" d="M146.61,271.05c.81.81.36-.19-.47.39a15.21,15.21,0,0,1-1.3.87c-2.27,1.27-6.78,2.33-9.18,1.22a18.44,18.44,0,0,0-2.74-1.43,29.86,29.86,0,0,0-7.61-.59l1.68,1.22v-1.17c0-1.24-2.93-1.73-2.93-.62v1.17c0,.8,1,1.22,1.68,1.22a18.39,18.39,0,0,1,7.67,1.43,10.54,10.54,0,0,0,5.3.9c4.65-.14,7.76-.63,11-3.88.28-.28,0-.7-.2-.91l-.59-.59c-.79-.79-3.58-.48-2.33.77Z"></path>
      <path class="cls-1" d="M138.15,264.53c-2.68-.08-5.23-.49-7.88.18a11.11,11.11,0,0,0-3.36,1.26c-1.41,1-2.19,2.64-3.66,3.59-.92.6.05,1.39.79,1.39h.59c1.49,0,2.65-1.75.64-1.75h-.58l.79,1.39c2.05-1.34,3-3.56,5.47-4.23,2.18-.58,4.35-.17,6.56-.1,1.5,0,2.65-1.69.64-1.75Z"></path>
      <path class="cls-1" d="M136.37,276.38l.58.59-.21-2.4h-.58c-.39,0-.55.43-.55.75,0,.93-4,4.21-5.14,4.67-3.81,1.59-9-1.21-12.78-1.88l1.28,1.64a3.57,3.57,0,0,0-1.07-2.22c-1.31-1.5-2.11.36-1.09,1.52l.1.12c.07.6.63,1.52,1.28,1.64,3.84.68,8,2.84,11.94,2.3,3.65-.5,4.44-3.75,7.28-5.27a.79.79,0,0,0,.32-.68c0-.54-.48.16,0,.16,1.23,0,.14-2.05-.21-2.4l-.59-.58c-1.38-1.38-1.45,1.19-.58,2.06Z"></path>
      <path class="cls-1" d="M124.87,271.84l.59.58.14-1.85c-5.55,0-12.67.93-13.55,7.61l2.38,1.35V279c0-1.09-2.38-2.82-2.38-1.35v.58c0,1,2.17,2.94,2.38,1.35.76-5.83,7.5-6.42,12.21-6.44,1.08,0,.6-1.38.14-1.85l-.59-.58c-1.27-1.27-2.63-.14-1.32,1.16Z"></path>
      <path class="cls-1" d="M144.52,275.39V276l1.84,1.09a7.07,7.07,0,0,0-.54-3.35,1.74,1.74,0,0,0-1.22-1,2,2,0,0,0-1.5.74,1.81,1.81,0,0,0-.14,1.94c.17.39.8,1.24,1.3.75a2.13,2.13,0,0,1,.7-.51c.08,0-.13-.06,0,0a.9.9,0,0,1-.26-.16s-.18-.26-.09-.11l-.11-.2q.06.16,0,0c-.1-.2,0-.06,0,0s0-.32,0-.12,0,.29,0,.43,0,.26,0,.39,0,.34,0,.09,0,0,0,.07a2.16,2.16,0,0,0,.81,1.91c.58.33,1-.26,1-.82v-.59a2.16,2.16,0,0,0-.81-1.91c-.58-.33-1,.26-1,.82Z"></path>
      <path class="cls-1" d="M146,274.86a1.2,1.2,0,0,0,1.25,1.17l1-2.53h-.59l.67.58v-1.17c0-.71-.83-.63-1.26-.39a2.15,2.15,0,0,0-1.12,1.75v1.17a.6.6,0,0,0,.67.58h.59a2.07,2.07,0,0,0,1.59-1.34c.22-.54.14-1.18-.55-1.2.22,0,.15.08,0,0s.09.11,0,0,0,0,0,0c-.05-.69-.79-.65-1.26-.39a2.11,2.11,0,0,0-1.12,1.75Z"></path>
      <path class="cls-1" d="M157.39,269.81H158c.66,0,.68-1.21.61-1.62-.1-.58-.43-1.33-1.11-1.33h-.58l1.15,1.73V268c0-.66-.33-1.73-1.15-1.73h-.59c-.51,0-.65.88-.65,1.23v2.93c0,.58.25,1.55.91,1.72s.88-.74.88-1.21V268l-.65,1.23h.59l-1.15-1.73v.59c0,.66.33,1.73,1.15,1.73H158c.66,0,.68-1.21.61-1.62-.1-.58-.43-1.33-1.11-1.33h-.58c-.66,0-.68,1.21-.61,1.62.1.58.43,1.33,1.11,1.33Z"></path>
      <path class="cls-1" d="M123.73,281.25c.19.11-.21.53-.71,1.46-1.52,2.82-2.43,5.22-6.22,5.69a29.17,29.17,0,0,1-6.13,0c-.79-.07-4.25-.16-5-.84s-3.57.22-2.43,1.26c1.7,1.55,5.08,1.34,7.28,1.44,3.28.15,7.1.26,10.16-1.09s4.13-3.78,5.54-6.58c.5-1,1.39-1.81-.06-2.63-.93-.53-3.68.54-2.43,1.25Z"></path>
      <path class="cls-1" d="M116.52,278.75l.59.58.32-1.59a22.6,22.6,0,0,0-9.65,2.08c-2.52,1.11-5.42,1.76-6.39,4.84-.34,1.08,2.22,2.59,2.63,1.3.82-2.6,3.71-3.08,5.76-3.87a30.18,30.18,0,0,1,3-1.38,20.75,20.75,0,0,1,5.66-.71c1.08,0,.91-1,.32-1.59l-.59-.58c-1.08-1.08-3.06-.49-1.64.93Z"></path>
      <path class="cls-1" d="M112.6,289.68h.58l-1.38-1.17c-1.42,4.46-7.49,7.49-11.83,6.9-1.93-.26-9.85-2.12-10.45-3.81-.38-1.06-3.35-.94-2.92.29l.37,1a1.34,1.34,0,0,0,1,.67c5.67,1,10.17,4.78,16.09,3.51,4-.86,9.28-3.85,10.59-8,.25-.78-.75-1.17-1.38-1.17h-.59c-1.79,0-1.95,1.71-.1,1.71Z"></path>
      <path class="cls-1" d="M101.32,287.89h.59c1.3,0,.38-2.8-.74-2.83-3-.08-6-.61-8.91.17a14.69,14.69,0,0,0-7.31,5.28c-.57.7.14,2.73,1.16,2.65a2.84,2.84,0,0,0,2-.63c1.06-.62-.21-3.33-1.21-2.75l-1.52.54L86.52,293a13.26,13.26,0,0,1,7.36-5.06c2.64-.57,5.35-.09,8,0l-.74-2.83h-.59c-1.29,0-.39,2.83.74,2.83Z"></path>
      <path class="cls-1" d="M95.91,294.74a9.2,9.2,0,0,1-3.34,7.09c-2.93,2.66-5.93,2.4-9.27.51-1.62-.92-3.13-1.08-4.64-1.87-1.86-1-2-1.94-4.24-2l1.13,2v-.59c0-.55-.32-2-1.13-2h-.58c-1.35,0-.75,2.91.37,2.91h.59l-1.13-2v.59c0,.57.32,1.95,1.13,2,1.62,0,2.24,1.26,3.57,1.88.95.44,1.92.38,2.9.73,3.16,1.12,4.57,3,8.22,2.75,5-.35,8.31-6.39,8.31-11,0-1.23-1.88-3-1.88-1Z"></path>
      <path class="cls-1" d="M86.5,292l.59.59L87,290.46h-.59a.61.61,0,0,0-.62.31c-.24.56-3.46,1.3-4,1.52a40.79,40.79,0,0,0-4.22,2c-2.56,1.32-4.21,3.51-5.78,5.85-.56.84,1,2.47,1.83,2.24a3.06,3.06,0,0,0,1.39-.69c.91-.8-1-3.11-1.9-2.32a1.7,1.7,0,0,1-1,.48l1.83,2.24a17.23,17.23,0,0,1,7.42-6.34,48.2,48.2,0,0,1,5.4-2.16c.44-.16,1.16-.56,1.19-.56,1.32,0,.38-1.66-.08-2.12l-.59-.59c-1.42-1.42-1.86.63-.8,1.68Z"></path>
      <path class="cls-1" d="M82.5,307.24v.58l1.71-1.18c-2.33,0-3.61-1.57-5.65-2.36-1.33-.52-2.74-.78-4.06-1.34-.8-.34-3.37-1-3.78-1.73-.53-1-3.4-.2-2.76,1,.55,1,1.66,1.14,2.65,1.5,2.08.75,4.23,1.51,6.26,2.35,1.35.56,2.26,1.77,3.64,2.22a10.67,10.67,0,0,0,3.23.2c.68,0,1.71-.37,1.71-1.18v-.58c0-1.12-2.95-.7-2.95.55Z"></path>
      <path class="cls-1" d="M68.84,332.16h.59c1.46,0-.25-2.38-1.35-2.38-1.43,0-1.58.15-2.5,1.37-1.14,1.51-1.68,3.29-2.78,4.83a15.94,15.94,0,0,1-4.69,4.24c-1.26.74-2.83.83-3.48,2.27l2.51,1.29V342.6c0-1.11-2.54-2.57-2.54-1v1.17c0,.91,2,2.53,2.51,1.29.36-.81,3.29-1.78,4.1-2.4a18.78,18.78,0,0,0,3.63-3.4c1.29-1.71,2.27-6.07,4.58-6.08,1.46,0-.25-2.38-1.35-2.38h-.59c-1.46,0,.25,2.38,1.35,2.38Z"></path>
      <path class="cls-1" d="M50.72,320.38c0,1.36-1.1,2-1.65,3.1a8.45,8.45,0,0,0-.65,3.16,8,8,0,0,0,2,6.18c3.13,3.84,8,6.81,13,7.13,1.24.08.2-2.69-1-2.77a15.7,15.7,0,0,1-10.66-5.67c-2-2.65-1.11-4.68.34-7.32a4,4,0,0,0,.74-2.56c0-1.11-2.12-3-2.12-1.26Z"></path>
      <path class="cls-1" d="M48.8,331.78l.59.59L51,330.54h-.59a2,2,0,0,0-1.73,1.14,16,16,0,0,0-.63,4.07c-.06,1.7-.67,3.35-.56,5.06.18,2.71,1.75,5.43,4.64,5.81,5.27.7,10.84-4.46,11-9.61,0-.56-.65-.63-1-.63h-.59c-1.3,0-2.7,2-.74,2h.58l-1-.63a8.24,8.24,0,0,1-2.62,5.28c-1,.77-3.55,1.67-4.72,1.39s-2-1.75-2.36-2.85c-.62-1.92,0-3.43.19-5.33a30,30,0,0,1,.58-4.87l-1.73,1.14h.59c.69,0,2.39-1,1.59-1.83l-.59-.59c-.8-.8-3.38.68-2.44,1.63Z"></path>
      <path class="cls-1" d="M62.41,340q1.08,1.23,0-.47a2.12,2.12,0,0,0,1.48,1.84q-1.2-1-.33,1v1.6a13.79,13.79,0,0,1-.64,3.42c-.82,2.46-2.84,3.22-5.26,3.35s-6.75.36-7.66-2.82c-.36-1.27.36-2.61.57-3.8a19.4,19.4,0,0,0,0-3.22c0-1.15-2.24-2.81-2.24-1,0,3.5-1.72,7.5.78,10.55s6.91,3.32,10.57,2.94c4-.42,5.7-3.43,6.11-7.18.23-2.07.28-7-2.63-7.41l1.48,1.84a3.24,3.24,0,0,0-1.24-2.2c-1.41-1.41-2.06.54-1,1.63Z"></path>
      <path class="cls-1" d="M50.27,351.21c0,1.26.41,2.27,1.77,2.3l-.7-.32c2,2.48,5.33,3.12,7.61,5.27,1.3,1.22,1.71-1.52.87-2.31a21.1,21.1,0,0,0-4.66-3.05,10.86,10.86,0,0,1-2.38-1.56,3.41,3.41,0,0,0-1.55-1l.8.92.07.27c0-1.53-1.89-2.48-1.84-.48Z"></path>
      <path class="cls-1" d="M58.45,352c0,1.29.5,1.39,1.51,2.15a9.62,9.62,0,0,1,3.44,4.74c.44,1.28-.47,4.14,1.46,4.56.5.11,1-.43,1.12-.84l-.29.27c1.14-.16,1.6-3.11.28-2.92a1.88,1.88,0,0,0-1.46,1.44l1.12-.84c-.35-.08,0-1.7,0-2a10.82,10.82,0,0,0-1.18-3.15,7.93,7.93,0,0,0-2.09-2.9,9.71,9.71,0,0,0-1.46-1.23c-.54-.33-.54.39-.54-.33s-.45-1-1-.83-.83,1.33-.83,1.9Z"></path>
      <path class="cls-1" d="M64.77,348.58a19.09,19.09,0,0,0,.51,5.06c.2.75,1.31,4,.44,4-1.16.08-2.2,2.86-.95,2.77A3.4,3.4,0,0,0,68.1,357a10.67,10.67,0,0,0-.21-3.37,26.06,26.06,0,0,1-1-6.36c0-1.75-2.12.14-2.12,1.27Z"></path>
      <path class="cls-1" d="M65.46,344.49c0,2.45.84,6-.42,8.18-.55,1,.81,3.57,1.55,2.26,1.57-2.74.75-6.38.75-9.38,0-.6-.19-1.65-.85-1.89s-1,.21-1,.84Z"></path>
      <path class="cls-1" d="M55.8,357a10.75,10.75,0,0,1,1.28,3,3.15,3.15,0,0,0,2.66,2,2.17,2.17,0,0,0,1.89-.87c.27-.37.51-1.27-.23-1.32a1.9,1.9,0,0,1-1.37-.67c-.37-.43-.31-.83-.51-1.3s-.43-.74-.58-1.18a3.88,3.88,0,0,0-.63-1.28c-.8-1-3.26.76-2.5,1.66Z"></path>
      <path class="cls-1" d="M141.12,145.51a3.06,3.06,0,0,1,0,.33c0,.17,0,0,0,0a1.76,1.76,0,0,1-.36.41c-.47.47,0,1.08.46,1.39s1.45.8,1.9.34a2,2,0,0,0,.79-1.56c0-1.09-2.77-2.16-2.77-.95Z"></path>
      <path class="cls-1" d="M138.81,148.28c0,3.6-.55,7.17-.59,10.78,0,3.79-.76,8-.52,11.68.16,2.34,1.07,5,1.53,7.3a56.49,56.49,0,0,1,.86,7.41c.35,5,1,9.82,1.06,14.83.1,9.61,2.62,17.66,5.37,26.73,1.44,4.75,3.52,9.34,3.91,14.34.21,2.65-1.15,7.44.73,9.59.81.93,2.58-.3,2.66-1.29l.56-2.09c.49-1.33-2.31-.44-2.67.56a5.94,5.94,0,0,0-.61,2.59l2.66-1.29c-1.07-1.22-.6-3.16-.55-4.63a33.82,33.82,0,0,0-.38-7.15c-.86-4.64-2.73-9-4-13.47s-3-8.82-4-13.46-.88-9.36-.94-14.07-.89-9.34-1.15-14c-.23-4.27-1.69-8.25-2.14-12.44-.38-3.55.34-7.74.36-11.37,0-3.88.59-7.73.59-11.61,0-1.18-2.72,0-2.72,1.08Z"></path>
      <path class="cls-1" d="M143.65,147.79c-.36,6.92-.31,13.85-.66,20.78-.32,6.36-2.09,12.57-1.63,19a18.57,18.57,0,0,0,2.33,7.9c1.89,3.4,3.9,5,3.81,9.19-.13,6,.24,13.12-1.46,19-.48,1.65,2,.34,2.34-.68,1.78-6.12,1.17-13.13,1.61-19.43.39-5.56-4.54-9.1-5.78-14.26-1.59-6.61.55-13.69,1.11-20.31.62-7.41.37-15,.76-22.4.07-1.4-2.35.24-2.41,1.27Z"></path>
      <path class="cls-1" d="M151.73,265.05c-1.29,1.71-1.38,2.83-1.4,5,0,3.22-.35,6.82.17,10a53.78,53.78,0,0,0,6.58,17.15c5.39,9,15.46,11.79,25.53,11.19,5.38-.32,11.07-.5,16.31-1.86,6.56-1.7,12.63-4.77,18.71-7.63,10.89-5.13,21.29-11.6,31.93-17.12a.65.65,0,0,0,.33-.84l-.59-1.17c-.49-1-3.43-.51-2.86.63.93,1.85-9.05,5.77-10.64,6.54-4.42,2.16-8.62,4.57-13,6.87C212.92,299,202.46,305.12,191,306c-10.93.83-23.17,1.89-30.23-8.2-2.86-4.09-4.56-9.44-6.11-14.15a26.31,26.31,0,0,1-1.28-9c0-2.74-.77-6.58,1-8.92.9-1.19-2-1.56-2.64-.7Z"></path>
      <path class="cls-1" d="M146.92,274.82c0,3.92,1.34,7.32,2.18,11.15.76,3.5,1.2,7.25,2.29,10.66,2.32,7.25,8.53,14.94,15.79,17.54,7.88,2.82,17.51,2.29,25.45.06,4.52-1.27,9.07-2.61,13.62-3.7,3.18-.76,6-.71,8.19-3.48.66-.84-.13-3.67-1-2.53-2.27,2.88-5.74,2.5-8.95,3.28s-6.52,1.77-9.72,2.73c-7.32,2.19-16.07,3.46-23.63,1.76-8.13-1.82-14.75-8.14-17.85-15.85-1.4-3.49-1.8-7.7-2.56-11.37-.69-3.29-2.07-7.08-2.07-10.36,0-1.83-1.71-1.7-1.71.11Z"></path>
      <path class="cls-1" d="M148.52,303.55v1.76a.67.67,0,0,0,1.1.54,2.31,2.31,0,0,0,.93-1.91v-1.76a.67.67,0,0,0-1.1-.54,2.31,2.31,0,0,0-.93,1.91Z"></path>
      <path class="cls-1" d="M146.12,289.6l.59.58c.53.53,1.58.92,1.58-.22v-.58a2,2,0,0,0-1.67-1.91H146c-.4,0-.5.48-.5.78,0,4.56,2.1,8.3,4,12.38,2,4.44,3.34,9,6.07,13.13,4.4,6.61,9.33,9.64,17.39,9.76,1.2,0,0-2.67-1.16-2.69-8.65-.14-13.61-4.7-17.16-12.35-1.5-3.23-2.66-6.6-4.17-9.83-.54-1.16-3.71-8.5-2.68-8.5l-1.67-1.91v.58l1.58-.22-.58-.59c-1.41-1.41-2.07.48-1,1.57Z"></path>
      <path class="cls-1" d="M146.07,302.38c1.69,11.1,9.74,23.81,22,24.61,1.51.1.24-2.53-.85-2.6-10.62-.69-17.46-11.35-18.94-21-.16-1.07-2.51-2.68-2.25-1Z"></path>
      <path class="cls-1" d="M147,317l.51.07L146,315.34c.29,2,2.36,3.47,3.51,5a34.58,34.58,0,0,0,5.08,5.7,22.09,22.09,0,0,0,14.7,5.66c1.53,0,.25-2.6-.85-2.6a19.81,19.81,0,0,1-13.49-5.17,35.16,35.16,0,0,1-4.4-5.2c-.23-.3-2.27-2.25-2.29-2.4a2.17,2.17,0,0,0-1.55-1.78l-.51-.07c-1.47-.21-.23,2.45.85,2.6Z"></path>
      <path class="cls-1" d="M146.73,324.64c1,0,3.93,5.35,5.15,6.75a19,19,0,0,0,10.18,6.33c5.36,1.15,15.45,3.75,19.77-.95,1.24-1.35-.14-2.42-1.37-1.09-1.59,1.73-7.4,1-9.37.68a76.41,76.41,0,0,1-8.28-1.38,17.45,17.45,0,0,1-7.65-4.43c-1.72-1.65-5.18-5.34-5.65-7.95a.6.6,0,0,0-.69-.55h-1.17c-1.09,0-2.46,2.57-.93,2.57Z"></path>
      <path class="cls-1" d="M148,373.37h.59c.67,0,1.17-.93,1.28-1.47,2.07-9.85,12.85-16.17,19.29-23.25,6.76-7.44,15.43-11.11,23.26-17.06s17.21-9.1,25.73-13.91A138.18,138.18,0,0,0,241,301.15c.81-.7,1-3.55-.31-2.43-8.69,7.5-17.39,14.15-27.88,19.09-4.93,2.32-10,4.59-14.81,7.15-4.23,2.25-7.62,5.79-11.84,8.1-8.8,4.81-15.09,11.12-22.12,18.13-6.33,6.32-14.08,11.48-16,20.79l1.28-1.47h-.59c-1.15,0-2,2.85-.67,2.85Z"></path>
      <path class="cls-1" d="M147.72,365.86h.59a1,1,0,0,0,.92-.55c2.4-6.24,6.47-10.85,11.59-15,2.22-1.8,4.57-3.26,6.63-5.14s4.52-2.65,6.25-4.81c.82-1-1.95-2.11-2.67-1.21-1.45,1.82-2.76,1.68-4.28,2.95-1.29,1.07-2.32,2.43-3.65,3.45-2.29,1.76-4.69,3.2-6.89,5.14a30.16,30.16,0,0,0-6.68,7.49c-.63,1.1-2.76,5.81-2.85,5.81-2,0-.18,1.88,1.06,1.88Z"></path>
      <path class="cls-1" d="M146.58,357.21h.59a2.13,2.13,0,0,0,2-1.33c.37-1.67,2.16-3.3,3.21-4.57a37.88,37.88,0,0,1,5-5.3c3.13-2.55,6.84-3.87,10.16-6.08,1.5-1,.66-2.56-.88-1.54-4.22,2.81-8.78,4.47-12.51,8.06-2.58,2.49-6.9,6.28-7.71,9.94l2-1.33h-.58c-1.12,0-3,2.14-1.21,2.14Z"></path>
      <path class="cls-1" d="M149.33,348.71c5.35-3,8.95-9.74,15.7-10.4,2-.19,1-2-.56-1.8-3.39.33-5.92,1.9-8.69,3.75A41.69,41.69,0,0,0,151,344c-.67.6-1.46,1-2.14,1.56s-.83,1.24-1.5,1.61c-1.55.86.93,2.09,1.93,1.53Z"></path>
      <path class="cls-1" d="M145.07,342.09a2.35,2.35,0,0,0,1.64.87c.71,0,.82-.72.82-1.27v-.58l-.36,1.16c2-1.51,3.45-3.61,5.35-5.26,1.69-1.47,4.43-3.91,6.73-4,1.12,0,.55-3-.7-2.92-2.92.11-6.47,3.39-8.41,5.38-1.15,1.17-2.14,2.48-3.38,3.56-1,.86-1.08,1-1.08,2.28l.82-1.27-.7-.3c-1.28-1.22-1.55,1.57-.72,2.36Z"></path>
      <path class="cls-1" d="M146.88,331.25v.59c0,.36.19,1.2.7,1.2a4.4,4.4,0,0,0,2.52-.8c.6-.38,1.13-.86,1.74-1.23.94-.58,2-1,3-1.51s1-3.47-.09-2.93a27.05,27.05,0,0,0-4.36,2.4,4.06,4.06,0,0,1-2.42,1.09l.7,1.2v-.59c0-.55-.28-1.3-.94-1.18s-.85,1.24-.85,1.75Z"></path>
      <path class="cls-1" d="M238,302.14a8.26,8.26,0,0,0,4-1.92,68,68,0,0,0,8.14-7c5.07-5.13,10.15-10.46,13.86-16.7,1.93-3.25,2.88-6.87,4.56-10.24a51.18,51.18,0,0,0,4.27-11c.89-3.68,1.42-7.32,3.13-10.75,1.6-3.19,3.44-6.17,4.81-9.49.46-1.1-2.23-2.43-2.66-1.38-2.44,5.89-6,10.94-7.38,17.24-1.61,7.32-4.63,13.74-7.55,20.59s-8.08,12.42-13.1,17.63a60.55,60.55,0,0,1-6.91,6.3c-1.71,1.3-4.3,4.43-6.53,4.63-1.75.16.21,2.17,1.32,2.07Z"></path>
      <path class="cls-1" d="M188,338.84c3.18-.36,5.35-2.07,7.86-3.83,2.9-2,5.7-3.93,8.73-5.65a25.29,25.29,0,0,1,5.65-2.22c4.51-1.4,8.56-4,12.88-5.83,7.46-3.2,14.35-9.61,20.65-14.73a119.85,119.85,0,0,0,9.57-9c1.82-1.84,4.18-4.07,5.26-6.44.44-1-1-3.54-1.61-2.21-1.4,3.06-4.79,5.73-7.1,8.05a96.29,96.29,0,0,1-8.8,8.1c-3.63,2.85-7.37,5.56-11,8.38s-7.4,4.61-11.49,6.72c-4.94,2.55-10.36,3.82-15.18,6.31-5.29,2.74-10.16,8.84-16.28,9.53-1.12.13-.36,3,.89,2.86Z"></path>
      <path class="cls-1" d="M180.58,345.76h.58c.4,0,.5-.51.5-.8,0-1.79,3.32-5.08,4.53-6,2.65-2.07,6.49-2.54,9.6-3.71,1.28-.48-.18-3.06-1.22-2.66-3.83,1.44-8.13,1.87-11.08,4.86-1.59,1.62-4.05,4.06-4.05,6.47l.5-.8h-.58c-1.22,0,.06,2.66,1.22,2.66Z"></path>
      <path class="cls-1" d="M256.89,254.52h.59c.25,0,.81-.1.91-.41.54-1.64,2-2.7,3-4,1.46-1.82,2.66-3.87,4-5.79A50.47,50.47,0,0,0,272.76,230c3-9.88,5.6-20.27,5.62-30.61,0-1.48-3.64-3-3.64-1.4,0,10.6-2.77,21.67-6,31.75-1.69,5.31-4.6,9.36-7.69,13.91a63.76,63.76,0,0,1-3.81,5.28c-.57.68-2.33,2.8-2,2.8-2.32,0,.19,2.81,1.65,2.81Z"></path>
      <path class="cls-1" d="M254.33,249c.72-2.4,1.8-2,2.69-3.6.51-.9.84-1.95,1.29-2.89a44.26,44.26,0,0,1,3.57-6,42.72,42.72,0,0,0,5.9-10.94c.47-1.39-1.6-4.46-2.36-2.24-1.62,4.76-4.48,8.35-7.14,12.52-1.25,2-2.11,4.12-3.35,6.08-1.1,1.72-2.38,2.84-3,4.82-.42,1.4,1.69,4.48,2.37,2.24Z"></path>
      <path class="cls-1" d="M149.25,381.24h-1.17l1.66.85c0-4.25-.26-6.21-2.47-9.66a50.6,50.6,0,0,0-5.85-8.2,50.83,50.83,0,0,0-16.56-11.54c-14.4-6.23-27.21-16.24-41.27-23.25-8.28-4.13-16.54-7.92-24.5-12.68-7.61-4.56-16.45-10.45-21.28-18.09-2-3.13-2.58-6.85-4.68-10-2.49-3.67-4.73-6.81-6.44-11-3.74-9.19-2.86-18.8-2.8-28.51,0-1.48-3.92-.9-3.93.76-.06,9.72-.92,19.31,2.8,28.51a42.52,42.52,0,0,0,4.81,9.07c2.56,3.58,3.84,7.16,5.83,11,3.3,6.43,10.48,12,16.3,16A165.81,165.81,0,0,0,73.28,328c14.37,6.83,27.84,15.29,41.79,22.9,3.48,1.9,6.75,3.48,10.33,5.15s6.4,4.57,9.47,7.14a37.5,37.5,0,0,1,7.56,8.39c1,1.53,2.64,3.57,3.18,5.27s.2,4.11.2,6c0,.7,1.2.85,1.66.85h1.17c2.06,0,3.27-2.47.61-2.47Z"></path>
      <path class="cls-1" d="M147.68,365.68c-.07-5.15-1.82-11.77-6.26-14.87-2.95-2.05-6.28-3.56-9.29-5.53a69.42,69.42,0,0,0-9-5.22c-14.08-6.41-27.8-13.63-41.79-20.24C66,312.59,48.82,308.7,39.48,293.09a65.46,65.46,0,0,1-5.64-11.28c-1.24-3.47-1.83-7.13-3.31-10.51-1.6-3.67-3.65-7.28-5.61-10.78-2.19-3.92-5.38-7.24-5.44-11.91,0-1.46-3.34-3.54-3.31-1.54.08,7,5.44,12.75,8.63,18.78,3.92,7.42,5.59,15.53,9.46,23a54.77,54.77,0,0,0,12.65,16.53c5.35,4.7,11.3,7.3,17.76,10.07,14.46,6.21,28.46,13.2,42.69,20,7,3.35,14.57,6.42,21.2,10.48,2.77,1.69,5.4,3.56,8.23,5.14,2.42,1.36,4.31,2.2,5.65,4.75a19.08,19.08,0,0,1,1.92,8.35c0,1.48,3.35,3.54,3.32,1.53Z"></path>
      <path class="cls-1" d="M145.11,364.92h.59c1.61,0-.14-3.52-1.69-3.52-1,0-2.62-2.86-3.39-3.59-1.44-1.36-3.12-2.58-4.65-3.85-3.64-3-7.78-5.49-11.55-8.28-1.46-1.08-3.22-1.49-4.77-2.41-1.79-1.07-3.34-2.49-5.07-3.65a54.41,54.41,0,0,0-12.37-5.9c-8.35-2.89-16.41-7-24.58-10.54-4.58-2-7.56-5.46-11.53-8.26a12.4,12.4,0,0,0-3.12-1.6c-1.6-.56-6.25-.5-7.29-1.76-1.52-1.85-3.51-.55-1.94,1.36,2,2.48,4.06,2.56,7.07,3.2,5.55,1.18,8.59,5.52,13.24,8.42,4,2.48,8.68,4,13,5.73,4.54,1.85,8.67,4.62,13.31,6.18,5.49,1.84,10.75,3.76,15.46,7.24,3.31,2.44,6.84,4.16,10.14,6.54,4.27,3.09,8.65,5.7,12.63,9.2,2,1.76,4.15,5.5,7.14,5.5,1.61,0-.14-3.52-1.69-3.52h-.59c-1.61,0,.14,3.52,1.69,3.52Z"></path>
      <path class="cls-1" d="M25,204.54l.59.59L25.08,202c-1.35,3.77-.75,7.51-.84,11.46-.14,5.93-1,11.82-1.13,17.76-.08,4.43-.43,9,.6,13.32,1.23,5.15,3.73,10.41,4.06,15.68l1.34-2,.35.74c-.64-2.58-2.68-.74-2.19,1.24a2.61,2.61,0,0,0,1.52,1.91c1.06.61,1.37-1.56,1.34-2-.25-4-1.71-7.57-2.77-11.36a51.33,51.33,0,0,1-1.92-14.74c0-5,.52-10,.88-15.06.33-4.5-.72-10.39.79-14.6a2.83,2.83,0,0,0-.64-2.69l-.59-.58c-1.36-1.36-1.92,2.52-.9,3.54Z"></path>
      <path class="cls-1" d="M23.23,204.2c-1.39,4.16-1.75,8.4-3,12.63a106.51,106.51,0,0,0-3.44,15.37c-.76,5.59-1.21,11.22-1.58,16.86-.36,5.46-1.27,10.93-1.47,16.39-.08,2,3.38.23,3.43-1.26.18-4.85,1-9.67,1.35-14.52.36-5.63.76-11.26,1.45-16.86a105.55,105.55,0,0,1,3.49-16.49c1.21-4.19,1.61-8.54,3-12.64.74-2.22-2.76-.9-3.23.52Z"></path>
      <path class="cls-1" d="M16.27,216.61v.59l2.18-2.68c-2.87.36-4.17,3.85-5.36,6.09-2.82,5.31-3.64,11.06-4.1,17-1,13,.81,25.72.82,38.73,0,1.93,3.11-.45,3.12-1.92v-.59c0-1.93-3.12.45-3.12,1.92v.59l3.12-1.92c0-9.59-1.54-19.09-1.41-28.68a109.28,109.28,0,0,1,1.17-15.35,29.45,29.45,0,0,1,2.82-9.15c.2-.38,1.77-3.29,1.67-3.27a2.79,2.79,0,0,0,2.18-2.68v-.59c0-1.91-3.1.48-3.1,1.93Z"></path>
      <path class="cls-1" d="M188,138.37c.33,0,.08.57.4,1.06a7.2,7.2,0,0,0,1.91,1.73,10.19,10.19,0,0,0,5.54,2,26.51,26.51,0,0,0,14-3.53c2.29-1.23-1-2.12-2.42-1.38-4.28,2.29-10.88,4.42-14.81.32-1.22-1.28-1.22-2.56-3.13-2.56-1.56,0-4.1,2.34-1.5,2.34Z"></path>
      <path class="cls-1" d="M204.58,141.84h.59c.47,0,.85-.15.9-.69.32-3.89,2.12-7.71,2.34-11.71.25-4.5,1-9,1.17-13.46.05-1.37-2.92-3.93-3-2.06-.18,4.77-.86,9.58-1.17,14.34a35.93,35.93,0,0,1-1.17,6.44c-.28,1.09-1.28,3.7-.86,3.7-2,0-.2,3.43,1.21,3.43Z"></path>
      <path class="cls-1" d="M133.57,53.3c0,6.73-.12,13.47,0,20.19.06,2.83.35,5.66.2,8.49s-1,5-1.39,7.61c-.22,1.56,3.63.66,3.82-.77.32-2.31,1.17-4.45,1.35-6.81.24-3.09-.11-6.2-.17-9.29-.13-6.73,0-13.47,0-20.2,0-1.63-3.82-.6-3.82.78Z"></path>
      <path class="cls-1" d="M140.14,60.63h.58l-1.84-2.83a13.44,13.44,0,0,0-.72,3.18c.08,2.18,1,4.2,1.37,6.27a52.63,52.63,0,0,1,1,11.41c-.28,4.84-2,9.42-2.26,14.26,0,.94.67,2.83,1.85,2.83h.59c1.6,0,.31-3.74-1.11-3.74H139l1.85,2.83c.39-7.56,3.18-14.43,2-22.14A65.6,65.6,0,0,0,141.18,65c-.63-2.32.26-3.26.26-5.23,0-.92-.65-2.83-1.84-2.83H139c-1.58,0-.28,3.73,1.12,3.73Z"></path>
      <path class="cls-1" d="M47.36,123.13c3.28,1.35,7.92.61,11.46.58,5.27,0,10.53-.52,15.8-.59,1.4,0,3.14-3.48,1.14-3.45-4.62.06-9.22.46-13.83.56-3.8.08-9.25.88-12.76-.56-1.3-.53-3.44,2.79-1.81,3.46Z"></path>
      <path class="cls-1" d="M57.19,130.67a18.72,18.72,0,0,1,5.48.5c1.58.48,3.06,1.34,4.68,1.76a32.06,32.06,0,0,0,8,.67c2,0-.05-3.32-1.47-3.33a26.87,26.87,0,0,1-9.79-1.38,22.08,22.08,0,0,0-8.35-1.54c-2,0,.05,3.32,1.47,3.33Z"></path>
      <path class="cls-1" d="M85.88,120.09c3.07,1.26,6.36.86,9.62.62,5.31-.39,10.52-.91,15.86-1,9.13-.13,18-1.35,27.09-2.42,4.6-.54,9.19-1.13,13.78-1.69,4.33-.53,8.61-.27,12.93-.55,4.94-.32,9.82-.41,14.78-.58,1.08,0,6.82-1,7.2-.51l1-1.44h-.58c-2.61,0-.5,2.54,1.13,2.54h.58c.91,0,1.78-.47,1-1.44-2.75-3.63-9.53-1.73-13.29-1.68-8.9.11-18,0-26.83,1.12-10,1.24-20.09,2.8-30.17,3.63-5.78.48-11.56.17-17.33.5-4.5.26-11.64,2.63-16,.84-2.23-.92-3.11,1.13-.86,2.06Z"></path>
      <path class="cls-1" d="M92.44,127.26h1.17c.4,0,1.68,0,1.68-.72V126c0-1-1.3-1.64-2.22-1.64H91.31l1,2.35c16.38-.09,33-.23,49.23-2.68,8.36-1.26,16.66-2.76,25.09-3.55,7.27-.69,15.22-2.33,22.42-.89,2.35.47,2.9-1.67.51-2.15-6.65-1.33-12.46-.07-19.16.37-8.91.59-17.69,1.81-26.49,3.26-17.51,2.9-35.39,3.19-53.11,3.29-2.33,0-.52,2.35,1,2.35h1.76L91.39,125v.59l1.68-.72H91.9c-2.65,0-1.49,2.35.54,2.35Z"></path>
      <path class="cls-1" d="M86.15,133.74c10.26,0,20.56,1.14,30.82,1.49s21,1.4,31-.94c1.35-.32,2.72-4,.83-3.54-10.22,2.41-21.67,1.17-32.1.81-9.67-.33-19.37-1.43-29-1.43-1.47,0-3.08,3.61-1.49,3.61Z"></path>
      <path class="cls-1" d="M101.51,143.89c15.15,0,30.4.54,45.51-.74,7.65-.65,15.29-1.92,23-2.16,3.74-.11,12.21.6,14.27-3.53.62-1.24-.52-4.88-1.54-2.85s-7.1,2.26-9.16,2.34c-3.3.13-6.57.16-9.87.48-7.15.7-14.27,1.61-21.44,2.09-13.5.91-27.16.37-40.68.37-1.56,0-1.6,4,0,4Z"></path>
      <path class="cls-1" d="M155.32,132.71c5.24,1.21,12.21-.14,17.52-.7,7-.75,14.1-1,20.83-3.36,1.5-.53.83-4.43-.48-4-6.12,2.15-12.52,2.54-18.93,3.15-3.06.29-6.1.7-9.16.85-2.82.14-6.91.77-9.66.14-1.66-.38-1.53,3.58-.13,3.9Z"></path>
      <path class="cls-1" d="M206.58,114c2.63,1.53,5.48,1.09,8.45,1.09h15.11c2.24,0-.63-2.55-2-2.55H217.23c-2.09,0-7.1.93-8.83-.08s-4.14.18-1.82,1.54Z"></path>
      <path class="cls-1" d="M205,122.13v.58c0,1.22,2,1.75,2.93,1.69,7.57-.53,15.32-.76,22.62-3,1.76-.54-1.49-2.72-2.8-2.31-7,2.17-14.6,2.33-21.87,2.83l2.93,1.69V123c0-1.43-3.8-2.57-3.8-.88Z"></path>
      <path class="cls-1" d="M203.76,129H220c3.47,0,7.22,0,10.18-2.08,1.55-1.09-2.12-2.41-3.25-1.61-3.25,2.29-8.32,1.43-12.09,1.43H203c-2.68,0-1.24,2.26.74,2.26Z"></path>
      <path class="cls-1" d="M206.59,120.4c6.46.2,12.83.58,19.31.58,1.39,0,2.33-3.85.63-3.85-6.48,0-12.86-.39-19.32-.59-1.39,0-2.35,3.8-.62,3.85Z"></path>
      <path class="cls-1" d="M116.59,47.89v.59l.77-.94c-2-.38-2.13-7.88-2-9,.56-3.47,2.39-6.64,3.2-10.06.32-1.35-2.1-4.45-2.53-2.61-1.36,5.72-4.64,10.67-3.27,16.81.72,3.21,2.09,7.92,5.7,8.61.49.09.77-.58.77-.94v-.59c0-1.4-2.67-4.13-2.67-1.85Z"></path>
      <path class="cls-1" d="M115.1,58.11h.58c.46,0,.87-.22.87-.74,0-3.64-1.89-5.27-3.11-8.58-1.75-4.76-3-13.11-1.06-18,3.88-9.61,12.33-15.46,22.37-16.59,1.53-.17-.57-3.49-2-3.32C122.12,12,114.4,18,109.8,27.58c-2,4.11-1.36,9.7-.8,14.14a33.81,33.81,0,0,0,1.65,6.81A21.58,21.58,0,0,0,112.06,52c.57,1,3.57,2.7,1.66,2.7s-.05,3.37,1.37,3.37Z"></path>
      <path class="cls-1" d="M144.61,61.33c1.42,0,4-2.8,1.65-2.8-1.42,0-4,2.8-1.65,2.8Z"></path>
      <path class="cls-1" d="M143.7,60.48l.58.59a3,3,0,0,0,3.14.26c6.59-3.17,11.74-5.54,13.45-13.28,1.56-7,.59-14.82-4.34-20.28-.94-1-4.78-.37-3.47,1.1,4.28,4.75,5.09,11.45,4.1,17.6-1.25,7.77-6.07,10.12-12.55,13.24l3.14.26-.58-.59c-1-1-4.84-.28-3.47,1.1Z"></path>
      <path class="cls-1" d="M134.84,16.7A36.61,36.61,0,0,1,145.12,19c2.44,1,5.49,1.79,7.57,3.44a31.44,31.44,0,0,1,5.79,6c1.54,2.21,2,5.55,2.62,8.15,1.68,6.87,1.72,18-4.14,22.73-1.54,1.24-3.38,2.06-4.89,3.34-1.67,1.42-4.06,4.67-6.33,5.41-1.34.44-2.46,4.19-.61,3.59,2.3-.75,4.4-3,6.17-4.55,2.43-2.19,5.26-3.85,7.64-6.07,5.6-5.24,5.38-12.59,5.54-19.65.14-6.5-1.43-14-6-18.79C153,16.82,144.11,13.42,136.13,13c-1.45-.07-2.95,3.6-1.29,3.68Z"></path>
      <path class="cls-1" d="M147.42,78.54c1.17,0,1.44-.34,2.58-1.09,2.1-1.38,4.21-2.5,6.44-3.69,4.15-2.21,7-5.5,9.52-9.41,4.91-7.7,11-17.49,8.78-27.1-2.08-9.09-6.23-15.64-12.53-22.37-5.39-5.76-15.62-10-23.45-10.42-1.89-.1.26,3.16,1.65,3.24,8.78.49,17.42,5.62,23,12,5.32,6.16,10,15.39,7.94,23.82a56.94,56.94,0,0,1-10,20.59,23.19,23.19,0,0,1-9.17,7.37c-1.56.76-5,3.75-6.4,3.75-2,0,.18,3.26,1.62,3.26Z"></path>
      <path class="cls-1" d="M148.55,9.19c16.28,0,27.65,15.31,27.9,30.68,0,1.56,2.41,4.08,2.37,1.48-.15-9.14-2.25-16.43-7.88-23.68S157.66,5.31,148.17,5.31c-1.73,0-1,3.88.38,3.88Z"></path>
      <path class="cls-1" d="M134.33,5.45c1.52-1.86,6.72-1.52,8.7-1.23A34.56,34.56,0,0,1,154,7.43c1.42.73,1.81-3.2.5-3.87A33.85,33.85,0,0,0,141.53,0c-2.2-.17-6.82,0-8.4,2-.87,1.06,0,4.89,1.19,3.43Z"></path>
      <path class="cls-1" d="M111.33,57.87c-.29-3-1.85-5.8-2.77-8.61-.53-1.63-1.48-3-1.79-4.73a22.32,22.32,0,0,1,.4-8.58c.37-1.45-2.69-4-3.09-2.39-.87,3.37-1.27,7.79-.23,11.11.63,2,1.59,3.73,2.09,5.82.43,1.79,2,4,2.18,5.65.13,1.39,3.39,3.59,3.21,1.72Z"></path>
      <path class="cls-1" d="M112.24,96.53q0,.29,0,.59a.76.76,0,0,0,.85.77c7.22-.38,14.35-.59,21.6-.58a87.79,87.79,0,0,0,10.49-.46c2.51-.3,6.94-1.93,9.14-.74,1.25.68,3.71-2.41,2.14-3.27-2.61-1.42-5.43,0-8.16.45a72.27,72.27,0,0,1-11.24.68h-11.9c-1.78,0-3.55,0-5.33.09l-3.51.4q-1.1,1.56-.9.28c0-1.92-3.17.37-3.17,1.79Z"></path>
      <path class="cls-1" d="M122.64,92.69c2.49,2.14,8.2.85,11.17.85h19.26c1.55,0,1.51-4-.06-4H136.5c-2.45,0-4.91,0-7.36,0-1.35,0-4.25.65-5.39-.32-1.51-1.3-2.19,2.53-1.1,3.47Z"></path>
      <path class="cls-1" d="M104.14,317c1.22,1.23-.21-1.43-.21-.83s.47,2.13,1.3,2.23c6.44.78,14.22-1.62,18.58-6.63,2-2.26,2.62-4.66,3.07-7.57.68-4.29,1.68-8.63,1.87-13,.07-1.57-2.19-4.15-2.31-1.55a78.7,78.7,0,0,1-1.36,9.14c-.62,3.79-.63,7.43-3.59,10.28A21.35,21.35,0,0,1,105,314.46l1.3,2.23a3.67,3.67,0,0,0-1.21-2.83c-1.65-1.64-1.91,2.1-.91,3.1Z"></path>
      <path class="cls-1" d="M130.95,303.09a25.34,25.34,0,0,0,1.07-5.82c.06-2.06.44-4.06.51-6.12.08-2.31-2.82.08-2.86,1.5-.06,1.8-.46,3.53-.5,5.33a24,24,0,0,1-.92,5.74c-.66,2.53,2.31.92,2.71-.64Z"></path>
    </g>
  </g>
</svg>
