<?xml version="1.0" encoding="UTF-8"?>
<svg xmlns="http://www.w3.org/2000/svg" viewBox="0 0 284.16 328.93">
  <defs>
    <style>.cls-1{fill:none;}.cls-2{fill:#8faedb;}</style>
  </defs>
  <title>Asset 49</title>
  <g id="Layer_2" data-name="Layer 2">
    <g id="Map">
      <rect class="cls-1" width="284.16" height="328.93"></rect>
      <path class="cls-2" d="M51.13,153.89c5.24,0,10.73-.05,15.53,2.36,3.54,1.78,7.21,6.6,9.15,10.06,2,3.62,4.23,7.19,6.45,10.7,1.3,2.05,2.27,4.89,4.25,6.43,4.2,3.28,9.44,2.27,12.66-1.44,4.48-5.16,5.07-12.81,3.23-19.34-4-14.12-19.86-22-33-24.17-7.73-1.3-14.62-1.65-22.15,1.26-2.92,1.13-5,3.53-7.36,5.58s-3.72,4.06-3.24,7.24a3.75,3.75,0,0,0,3.09,3c2.84.45,5.49-.3,8.31-.57,2.13-.2,3.65-.16,5.43-1.39,1.41-1-2-4.6-3.58-3.49-2.19,1.5-9.94,1.82-12.3,1.45l3.09,3c-.89-5.85,8.59-10.65,13-12,6.6-2.06,12.61-1,19.21.13a34.84,34.84,0,0,1,20.34,10.62c2.72,2.91,5.24,6.33,5.64,10.41.3,3,.68,8-.51,10.85-1,2.32-3.94,6.28-6.56,6.81-3,.59-3.89-1-5.13-3.05-1.49-2.48-3.09-4.93-4.66-7.37s-2.65-5.17-4.28-7.47c-2.56-3.62-6.12-7.73-10-10C62,150.14,55.48,149.93,49,149.91c-2.35,0,.44,4,2.14,4Z"></path>
      <path class="cls-2" d="M74,132.8a80.35,80.35,0,0,1,10.83.72c3.12.42,6.55-.29,9.56.64,3.25,1,7.31,4.06,10,6.19a50.61,50.61,0,0,1,7.38,7.43c4.12,4.95,5.6,10.91,7.44,17a115.79,115.79,0,0,1,4.13,17.63c1,6.67.65,13.5.59,20.23,0,4.29-1.54,8.93,2.63,11.55,2.05,1.29,15,8.5,13.85,1.28-.31-1.92-5.29-1.46-5,.35q2.7.28,1.29-.3-.62-.3-1.21-.66a9.28,9.28,0,0,0-1.49-.9c-2.22-1.15-4.85-1.57-5.33-4.45-.41-2.49.23-5.49.23-8q0-4.77,0-9.55a94,94,0,0,0-1.53-17.25c-1-5.36-3.24-10.69-4.87-15.91a40.65,40.65,0,0,0-18.2-22.93c-4.43-2.68-8-4.93-13.29-4.84-5.72.1-11.45-.86-17.23-.87-3,0-2.8,2.7.19,2.7Z"></path>
      <path class="cls-2" d="M75.12,133.66c.54-1.32,5-2.64,6.28-3,2-.6,3.95-1,5.91-1.62a34.89,34.89,0,0,1,17-1.13c7,1.26,11.53,5.44,15,11.51,2.74,4.8,5.5,9.74,7.78,14.78s4.73,10.26,6,15.58c.87,3.76.4,7.82,1.06,11.69,1.85,10.75,4.08,22.43,2,33.3-.31,1.63,2.57,4,4,2.86l.48-.39c1.34-1.09-2.31-4.45-3.84-3.2l-.48.39,4,2.86c2.33-12.42-.95-24.89-2.63-37.13-.36-2.65.18-5.28-.28-7.92a47.81,47.81,0,0,0-2.91-8.94,162.46,162.46,0,0,0-9-18.91c-3-5.4-5.9-10.7-10.42-15-3.89-3.72-9.36-4.89-14.55-5.56a39.85,39.85,0,0,0-17.07,1.82c-3.51,1.1-10.91,1.75-12.46,5.55-.65,1.61,3.37,4.5,4.17,2.53Z"></path>
      <path class="cls-2" d="M138.16,214.17l-.54,0,1.44,4.71c4.41-.69,9.16-3.07,13.28-4.87a130.69,130.69,0,0,0,15.95-8.7c1.63-1,.11-3.86-1-4.59l-.39-.37c-1.94-2-1.66,2.79-.5,4a5.85,5.85,0,0,0,1.18.9l-1-4.59a136.19,136.19,0,0,1-15.95,8.7c-4.09,1.81-8.89,4.18-13.28,4.87-1.63.26-.1,4.77,1.44,4.71l.54,0c2.07-.08.65-4.82-1.08-4.75Z"></path>
      <path class="cls-2" d="M170.73,198.78a54.36,54.36,0,0,1,.19-9.18c.47-3.16,1.22-6.12.29-9.27a43.33,43.33,0,0,1-1.8-8.6c-.31-3.23-.32-6.32-1.26-9.45-1-3.33-2.54-6.46-3.47-9.82-1-3.52-1.79-7-3.47-10.3a61.76,61.76,0,0,0-10.87-14.48c-1.67-1.75-2.44-3.66-4.41-5.16-2.48-1.88-4.66-4.19-7.23-5.94-4.94-3.36-11.35-5.43-17.21-6.4s-12-.12-17.77,0c-3.06.06-6,1-9,1.33a31.7,31.7,0,0,0-8.41,1.63c-6.62,2.61-13.19,3.69-19.05,8.08-5.48,4.1-11.67,8.67-14.34,15.17-.25.61,0,1,.54,1.35a5.92,5.92,0,0,0,6.53.46c2.57-1.26-1.84-2.93-3.37-2.17l.52.11.54,1.35c2.77-6.76,9.87-12.21,15.87-16.1a31.15,31.15,0,0,1,10.45-3.93c4.13-.94,7.49-2.86,11.85-3.27,6.72-.63,13.3-1.46,20.08-1.67,8.58-.27,16.68,3.42,22.89,9,5,4.55,9.87,9,13.65,14.8a51.62,51.62,0,0,1,4.94,8.31c1.55,3.72,2.17,7.72,3.5,11.51,1.53,4.35,3,8,3.41,12.68.25,2.84.14,6,.81,8.77.92,3.78,1.82,5.81,1.16,9.93a59.27,59.27,0,0,0-.5,10.83c0,1.9,5,2.18,5,.4Z"></path>
      <path class="cls-2" d="M74,129.86c-4.93-.14-8,.88-12.7,2.32-3.55,1.09-7.84,2.45-10.72,4.85-2.17,1.81,2.58,2.13,3.88,1,2.16-1.81,6.38-2.88,9.06-3.69,3-.91,5.3-1.78,8.56-1.69,1.92.05,5.17-2.75,1.92-2.84Z"></path>
      <path class="cls-2" d="M147.87,129.3c4.06.09,10.36,5,12.59,8.08,3.16,4.35,4.88,10.49,5.93,15.72a96.93,96.93,0,0,1,1.2,12.23c.14,2,.16,4.06,2.08,5.14,1.63.92,2-4,.42-4.86a25,25,0,0,0,0-3.74c-.29-2.6-.4-5.25-.79-7.85a65.14,65.14,0,0,0-3.83-13.78c-1.55-4-3.63-7.88-7.09-10.48-2.9-2.18-7.12-5.37-10.85-5.46-1.78,0-1.6,4.95.3,5Z"></path>
      <path class="cls-2" d="M37.62,154.93l-.56,0,2.89,2.63c.45-.25-.2,0,.12-.07l.52-.17a11.64,11.64,0,0,0,1.23-.45,2.78,2.78,0,0,0,1.65-1.75c.31-1-1.37-1.77-2.12-1.92s-2.43-.29-2.75.78c-.09.29.08-.12-.09.2l-.12.14q.22-.17.08-.07c-.13.08-.26.15-.4.22.27-.14.14-.06-.07,0a10.84,10.84,0,0,0-1.93.73c-.73.41-.56,1.25,0,1.73a4,4,0,0,0,2.9.91l.56,0c.86-.07,1.91-.68,1.31-1.64a3.67,3.67,0,0,0-3.22-1.27Z"></path>
      <path class="cls-2" d="M39.13,154.85l-.66.17c-.65.17-.9,1.17-1,1.7-.35,1.29-1.54,2.49-2,3.86a22.17,22.17,0,0,0-.76,4.9,147.84,147.84,0,0,0,0,19,99.63,99.63,0,0,0,1.79,13.76c.49,2.39.68,6,3.23,7.17,1.92.86,2.61-4,1-4.78-2.33-1-2.19-9-2.35-10.77-.32-3.69-.85-7.26-.84-11,0-4.34-.58-8.92,0-13.22.36-2.79,1.85-4.81,2.56-7.43l-1,1.7.66-.17c1.7-.45,1.57-5.4-.52-4.85Z"></path>
      <path class="cls-2" d="M38.11,204.23c2.08,4.94,11.26,4.8,15.67,5.57a171.23,171.23,0,0,0,30,2.27c8.14,0,16.36-.34,24.49.19,5.67.37,11.68,1.34,17.34.52,1.75-.26,4.34-4.18,1.48-3.77-5.13.75-10.72-.2-15.85-.54-7.07-.48-14.18-.22-21.26-.22-8.62,0-17.2.12-25.77-1-4-.53-8-1.31-12-2-2.69-.49-8.55-.42-9.83-3.47-.84-2-4.89.84-4.2,2.49Z"></path>
      <path class="cls-2" d="M34.81,192.91c-4.55-.65-4.3,6.94-4.29,9.76,0,7.28,5.49,10.64,11.82,13,4.73,1.78,9.18,4.15,14,5.75s9.74,3,14.65,4.29c11,2.95,21.93,5.89,32.92,8.74a253.19,253.19,0,0,0,31.68,5.78c5,.63,10,.15,15.06.2,4.64.05,7.54-1.25,11.88-2.76a50.92,50.92,0,0,0,12.24-5.76c1.68-1.11,3.49-1.84,5.2-2.88,2-1.21,2.68-2.61,4.17-4.3,5.45-6.18,14-8.7,15.06-18,.48-4.23-1.53-6.84-3.29-10.44-1.89-3.87-3.87-4.65-7.57-6.64-2.11-1.13-3.85-2.86-6-4-1.63-.85-3.32-1.45-4.91-2.41-3.46-2.1-7.35-5.65-11.6-5.67-1.94,0-2.46,4.94-.67,5,3.09,0,5.86,2.2,8.38,3.8,2.37,1.5,4.82,2.66,7.27,4s4.59,3.24,7.13,4.51c3.4,1.69,4.52,3,6.31,6.31,5.61,10.47-5.57,13.09-11.08,19.3-4.71,5.31-12.33,9.65-19.17,11.87-3.49,1.14-6.8,3.06-10.52,3.23s-7.56.13-11.3.14c-7.82,0-15.73-2-23.42-3.23-16.54-2.71-32.67-7.83-48.84-12.12-8.7-2.3-16.65-5.75-25-8.92-3.49-1.32-6.67-2.37-9.42-5a6.16,6.16,0,0,1-2.17-5c0-.58-.32-3.73.82-3.57,1.86.26,2.55-4.69.67-5Z"></path>
      <path class="cls-2" d="M33,193.14l.81.1L35.26,195c.15-.48,1.06-.91,1.65-1.13a8.94,8.94,0,0,1,1.15-.32c.05,0,.6-.1.34-.07s.34,0,.4,0c.87,0,1.91-.66,1.35-1.62S38,190.5,37,190.5a10.49,10.49,0,0,0-3.87.91,4.23,4.23,0,0,0-2.67,2.32c-.24.79.85,1.53,1.44,1.76a7.33,7.33,0,0,0,4.08.44c1.06-.18,1.18-1.23.5-1.91a4,4,0,0,0-3.42-.89Z"></path>
      <path class="cls-2" d="M31.23,193.2l-.71.15c-.8.16-1.67.5-1.81,1.38-.37,2.28.06,4.44-.1,6.72s-1,4.17-.84,6.39c.25,3.8,2.57,7.25,5.31,9.77a26.4,26.4,0,0,0,8.65,5.08c4.4,1.65,8.78,3.52,13.25,4.91,4,1.23,7.87,1.89,11.78,3.3,4.78,1.71,10,1.74,14.94,2.92,9.84,2.35,19.71,4.75,29.46,7.44,8.24,2.27,17.7,2.33,26.21,2.33,7.79,0,17.1,1.88,24.05-2.38,6.76-4.14,14.66-6.64,21.15-11.11,3.24-2.23,5.89-5.18,8.9-7.69,3.31-2.75,6.95-5.12,9.77-8.41,2.19-2.55,4.37-6.86,3.19-10.33-1-2.88-4.74-5.27-6.82-7.38-6.84-6.95-15.72-10.73-24.92-13.15-1.89-.5-5.63,1.57-2.48,2.4,7.9,2.09,15.29,5.16,21.54,10.68a77.59,77.59,0,0,1,6.39,6.15c3.26,3.66.61,8.4-2.25,11.43-2.44,2.59-5.42,4.62-8.18,6.84s-5.31,5.13-8.31,7.24c-2.53,1.78-5.77,3.16-8.51,4.73-3.21,1.84-6.84,3-10.06,4.8-3.83,2.19-6.82,3.68-11.47,3.52-4-.14-8-.12-12-.12-8.21,0-17-.33-24.93-2.43-8.22-2.17-16.53-3.95-24.74-6.12C80.35,230.32,73,229.49,65.87,227c-4.34-1.49-8.72-1.79-13-3.65-3.59-1.55-7.51-2.4-11-4.2-4.26-2.2-8.74-6.32-9.08-11.44-.13-1.9.53-3.7.72-5.57.26-2.54-.19-5,.22-7.54L31.9,196l.71-.15c3.26-.67,1.08-3.19-1.37-2.68Z"></path>
    </g>
  </g>
</svg>
