<?xml version="1.0" encoding="UTF-8"?>
<svg xmlns="http://www.w3.org/2000/svg" viewBox="0 0 284.16 328.93">
  <defs>
    <style>.cls-1{fill:none;}.cls-2{fill:#8faedb;}</style>
  </defs>
  <title>Asset 50</title>
  <g id="Layer_2" data-name="Layer 2">
    <g id="Map">
      <rect class="cls-1" width="284.16" height="328.93"></rect>
      <path class="cls-2" d="M70.63,204.14c6,0,12.25-.19,17.89-2.4,6.07-2.37,12.46-3.92,18.57-6.38,11.86-4.77,24-8.71,35.52-14.4,5.09-2.52,9.74-5.63,14.6-8.46,5.39-3.14,8.36-7.82,12.66-12.27,8.71-9,9.37-21.34,9.31-33.18,0-1.61-4.27-3.21-4.26-1.4,0,6.4.29,12.74-1.65,18.93s-4.89,10.52-9.22,15.26c-1.84,2-3.32,4.35-5.22,6.33s-3.67,2.75-5.87,4c-4.88,2.85-9.49,6-14.64,8.47-11.14,5.36-22.81,9.15-34.22,13.79-2.62,1.07-5.36,1.84-8,2.78s-5.34,1.14-7.8,2.11c-3.29,1.3-6,2.65-9.5,3.17a72.62,72.62,0,0,1-10.27.59c-2.6,0,.57,3,2.13,3Z"></path>
      <path class="cls-2" d="M69.14,203.78c3-.88.75-6.72.14-8.52-2.11-6.28-4.77-12.28-6.1-18.8-3.74-18.35-.94-37.73,2.27-56,.27-1.54-2.3-5-2.77-2.44-2.84,15.82-4.79,31.93-3.81,48a70.2,70.2,0,0,0,4.23,19.51c.24.66,5.31,13.62,4.45,13.87-1.6.47-.1,4.81,1.6,4.31Z"></path>
      <path class="cls-2" d="M63.34,138.38a81.5,81.5,0,0,1,12.84-16.26c2.7-2.74,5.24-5.72,7.73-8.66,3.26-3.85,7.87-5.6,12.53-7.27,7-2.52,14.67-3.67,21.92-4.54,4-.48,7-1.18,11.05-.53a54.66,54.66,0,0,1,12.11,3.07c6.57,2.69,14.79,7.29,18.25,13.61,3.31,6,7.46,10.87,9.88,17.37,1,2.75,2.08,5.72,3.19,8.48.59,1.47,3.41-.55,3.82-1.26l0,0c1.3-2.28-2.91-1.21-3.69.16l0,0,3.82-1.26c-1.08-2.68-1.92-5.47-2.95-8.17A57.69,57.69,0,0,0,166.47,120c-1.76-2.5-2.85-5.46-4.82-7.8s-4.85-4.13-7.48-5.84a50,50,0,0,0-17.29-7.49c-5.8-1.2-10.69-1.69-16.47-.61-2.55.48-5,.07-7.59.77-3.48,1-6.91,1.87-10.43,2.67-5.89,1.35-12.81,3.53-17.71,7.15-4.67,3.45-7.92,9-12.1,13a76.93,76.93,0,0,0-12.93,16.62c-1.3,2.29,2.91,1.23,3.7-.16Z"></path>
      <path class="cls-2" d="M150.73,109.72l.17.82a.71.71,0,0,0,.48.46c7.63,1.77,14.57,5.71,22.22,7.56,3.48.84,6.61,1.79,8.91,4.69,1.91,2.41,5.23,5.91,6.08,8.81.75,2.59.5,5.41,1.2,8.07a61.82,61.82,0,0,1,1.68,9.6c.75,7.43,1.79,14.48,1.76,22,0,7.73,4.78,19-3,24.6-5.42,3.87-11.7,6.77-17.5,10a72.28,72.28,0,0,1-23.34,8.19c-8.46,1.52-16.82,4.27-25.46,4.47-1.63,0-4,3.85-1.77,3.8,7.33-.17,14.21-2.29,21.35-3.71,7-1.39,14-2.3,20.59-5.12,6.25-2.68,12-6.38,18-9.56,4-2.14,9.54-4.64,12.46-8.26,3.68-4.56,3.84-10.74,3.61-16.35-.12-3.16-1.23-6.07-1.32-9.23-.09-3.46.35-7,0-10.44-.63-5.79-1.19-11.87-2.18-17.62-.51-3-1.82-5.76-2.07-8.8-.21-2.49-.22-4.58-1.59-6.79-3.46-5.62-7.53-10.25-14-11.84a81.2,81.2,0,0,1-11.13-3.49c-1.53-.61-11.29-3.26-11.58-4.61-.35-1.67-3.88,1.13-3.53,2.76Z"></path>
      <path class="cls-2" d="M88.2,106.1a80.26,80.26,0,0,0-16.4,2.71c-3.91,1.07-7.79,2.4-11.68,3.58-3.1.94-6.69,1.54-9.5,3.21-5.29,3.14-7.76,10.11-9.08,15.73-2,8.43-3.69,16.88-5.88,25.26a60.57,60.57,0,0,0-1.9,12.51c-.19,3.31-1,7.42-.19,10.69.67,2.87,3.14,5.49,4.66,8a72.06,72.06,0,0,0,5.26,8.12c4.8,5.89,9.5,12,15.3,17,1.47,1.26,3.09-3,1.77-4.13-9.33-8-17.2-18.76-23.27-29.45-1.82-3.21-1-7.15-.77-10.73a53.77,53.77,0,0,1,1.68-11.3c1.81-6.92,3.55-13.86,4.95-20.88,1.66-8.34,3.52-15.52,12.32-18.2,10.44-3.18,21.28-7.07,32.3-7.59,1.63-.08,2.43-4.56.42-4.47Z"></path>
      <path class="cls-2" d="M59.83,212.93a131.43,131.43,0,0,0,19.44,7.51c3,.84,6.1.82,9.11,1.45,3.58.75,7,2,10.66,2.61,8.08,1.31,17.73-.43,25.73-1.79,2.29-.39-.39-3.95-2-3.67-7.7,1.31-17.05,3-24.84,1.89a79.15,79.15,0,0,1-9.26-2.23c-3-.81-6-.77-9-1.47-6.7-1.56-13.73-4.64-20-7.54-2.72-1.27-1.53,2.45.18,3.24Z"></path>
      <path class="cls-2" d="M38.67,150.72c2.48,3.68,3.48,8.71,5.22,12.8A105,105,0,0,0,50,175.78c1.62,2.74,2.19,6,4.21,8.53,3.58,4.57,8,8.45,11.63,13.08,3.12,4,6.2,8.56,10.24,11.73a46.8,46.8,0,0,0,10.4,5.79,110.55,110.55,0,0,0,34.13,8.34c1.86.13.44-4.18-1.28-4.3a112.74,112.74,0,0,1-31.9-7.61c-4.56-1.79-9.21-4.15-12.74-7.59s-6.38-7.74-9.51-11.62-8.44-7.77-10.34-12.48a63.25,63.25,0,0,0-4.12-8.11,91.28,91.28,0,0,1-6.13-13.18c-1.25-3.29-2.26-6.89-4.2-9.82-1.7-2.56-3,.27-1.72,2.17Z"></path>
      <path class="cls-2" d="M83,212.38a91.83,91.83,0,0,0,29.92-.26c11.2-1.95,23.4-4,33.6-9.24,5.28-2.73,10.91-4.92,16.3-7.43,5-2.35,9-5.89,13.48-9.11,6.8-4.85,13.84-9.1,20.48-14.26,1.52-1.18-2.17-3.85-3.48-2.84-6,4.67-12.45,8.41-18.49,12.92-2.14,1.6-4.4,3-6.57,4.59s-3.72,3.29-6.12,4.47c-5,2.46-10.11,4.79-15.24,7-6,2.52-11.51,5.08-17.83,6.76a144,144,0,0,1-15.82,3.54c-10.44,1.54-20.59,2.37-31.08.76-3-.46-1,2.84.84,3.13Z"></path>
      <path class="cls-2" d="M100.36,195.43l.3.32c0,.43-1.16.67-1.49.81-.54.23-1,.61-1.5.88-1.48.74-3,1.32-4.46,2.15a22.43,22.43,0,0,1-3.69,1.79c-1.58.57-2.93,1.59-4.45,2.25-1.06.46-2.07,1-3.14,1.44a14.62,14.62,0,0,1-1.55.6A25.26,25.26,0,0,0,77.83,207c-.85.35-1.68.73-2.56,1-.52.16-1,.45-1.49.6s-1.12.52-1.75.7c-.35.1-.7.09-1,.18-.88.23-1.75.77-2.49-.14a17.71,17.71,0,0,1-1.06-2.1,7.88,7.88,0,0,1-1.09-2.94c-.15-.85-.59-1.6-.73-2.45-.1-.6-.29-1.15-.42-1.75s-.15-.94-.25-1.41c-.2-.92-.34-1.87-.51-2.8-.07-.37-.11-.68-.2-1s0-.6-.06-.9a10.73,10.73,0,0,1-.39-1.7c0-.82-.2-1.57-.2-2.4a6.64,6.64,0,0,0-.29-2.12c-.26-.82-.5-1.65-.75-2.47A6.78,6.78,0,0,1,62,183l-.52-6.78,5.58,16.59s3.08,9.88,3.25,9.77,10.76-.75,10.76-.75Z"></path>
      <path class="cls-2" d="M83.16,164.5c-2.34,1.08-3.57,5.2-2.92,7.52.36,1.27,1.34,1.47,2.37,2.06,1.46.83,3.1.38,4.5-.37,2.53-1.34,5.18-4.56,4.42-7.65-.29-1.18-1.52-1.88-2.54-2.41-1.45-.77-3.59-.37-5.19-.37s-2.78,4.82-.69,4.82c1.5,0,3.23-.29,4.56.45a5.69,5.69,0,0,0,.72.47q1,.76.47-1.27a9,9,0,0,1-1.15,1.06,3.29,3.29,0,0,1-3.89.28,1.71,1.71,0,0,0-.61-.29q-.55-.29-.23.26c-.56.83.06,0,.24,0,1.5-.69,2.11-5.52-.06-4.52Z"></path>
      <path class="cls-2" d="M82.25,173.89a17.75,17.75,0,0,1-1.19,3.23A18.9,18.9,0,0,1,79.86,180a10,10,0,0,0-.79,2.35c-.08.32-.18.63-.27.94s-1.17,1.24.11,0l1.3-.53-.31,0c-1.76-.24-4,4.18-2,4.45,2.37.32,3.88-3.5,4.42-5.27,1-3.28,3-6.52,3.41-10,.13-1.1-.72-1.4-1.59-1a4,4,0,0,0-1.9,3Z"></path>
      <path class="cls-2" d="M72.19,177.45a15.18,15.18,0,0,0,2.86,7.2c1.61,1.94,4.26,2.53,6.69,2.74,1.5.13,13.6-1.7,10.95-4.91-1.14-1.38-5.83.19-4.56,1.73-.78-.95.76-.48-.53-.46a16.76,16.76,0,0,0-2.24.61,7.37,7.37,0,0,1-4.56-.51c-2.34-1.32-3.33-5-3.73-7.45-.28-1.8-5.18-.83-4.89,1.06Z"></path>
      <path class="cls-2" d="M86.1,183.29A16.23,16.23,0,0,0,93,184.43l-1.05-2.72h-.18c-.76,0-2.25.43-1.91,1.46s2.08,1.26,3,1.26H93c.76,0,2.25-.43,1.91-1.46s-2.08-1.25-3-1.26a7.23,7.23,0,0,1-3.09-.47,3.67,3.67,0,0,0-3.45.12c-.92.72,0,1.58.7,1.92Z"></path>
      <path class="cls-2" d="M92.08,186l-1,1.1.15-.09a3.77,3.77,0,0,0,.38-.22,9.79,9.79,0,0,0,1.08-.77c.6-.49,1.21-1,1.8-1.46.39-.34,1.45-1.43.91-2.06l-.18-.2c-.71-.82-2.05-.38-2.84.12-.51.32-2.16,1.63-1.45,2.44l.18.2L92,183c-.39.34-.79.65-1.2,1-.2.16-.41.32-.6.48-.6.52.45-.21-.06.05a5.21,5.21,0,0,0-2.49,2.53c-.46,1.07,1,1.31,1.72,1.13A3.92,3.92,0,0,0,92.08,186Z"></path>
      <path class="cls-2" d="M73.53,177.58a.65.65,0,0,1-.41-.14q-.18-.12,0,0l.27.24c.15.14.29.29.42.44s-.08-.2,0,.06a1.85,1.85,0,0,0,.32.58,3.77,3.77,0,0,0,.74.59,3.15,3.15,0,0,0,3.22-.09,2.69,2.69,0,0,0,1.22-1.07c.15-.33.26-.81-.09-1.07a6,6,0,0,0-.52-.37l-.12-.11q.06.17,0-.08a2.65,2.65,0,0,0-.53-.83,3.62,3.62,0,0,0-1.74-1.11,3.54,3.54,0,0,0-1.8.19,3.69,3.69,0,0,0-1.55.94,1.21,1.21,0,0,0-.39,1.14c.15.43.61.56,1,.67Z"></path>
      <path class="cls-2" d="M75.56,177.45c0-.28,0-.57,0-.85q0-.16,0,0t0,0q.05-.18,0,0a1.05,1.05,0,0,1-.18.33c-.09.12-.37.39-.11.14l.2-.2A4.76,4.76,0,0,0,76.55,175a1,1,0,0,0-1.38-1.33,4.09,4.09,0,0,0-2.45,2.55l-.05.16.51-1c.49-.67.16-.23,0-.08s-.36.42-.53.63a5.27,5.27,0,0,0-.74,1.34,6.36,6.36,0,0,0-.36,2.4c0,1.12,1.22,1.06,2,.64a3.73,3.73,0,0,0,2-2.8Z"></path>
      <path class="cls-2" d="M77.13,171.5c3.38,4.43,10.32,5.94,15.58,5.09.4-.06.62-.66.68-1l0-.22c.34-1.64-2.25-5.62-2.82-2.84l0,.22.68-1a18.22,18.22,0,0,1-8.49-1c-1.28-.44-3.33-1.28-4.2-2.42-2-2.59-2.62,1.53-1.44,3.08Z"></path>
    </g>
  </g>
</svg>
