<?xml version="1.0" encoding="UTF-8"?>
<svg xmlns="http://www.w3.org/2000/svg" viewBox="0 0 284.16 256.49">
  <defs>
    <style>.cls-1{fill:#fff;}.cls-2{fill:#8faedb;}</style>
  </defs>
  <title>Asset 57</title>
  <g id="Layer_2" data-name="Layer 2">
    <g id="Map">
      <rect class="cls-1" width="284.16" height="256.49"></rect>
      <path class="cls-2" d="M122.08,162.88c.5,11,.45,22.06.6,33.09.17,12.82.93,25.8-.2,38.58-.12,1.38,2.71,3.73,2.87,1.88,1.11-12.79.33-25.72.16-38.55-.15-11.26-.11-22.53-.67-33.78-.07-1.31-2.86-3.39-2.77-1.22Z"></path>
      <path class="cls-2" d="M120.63,123.58c.22,9.95.15,19.91.46,29.86,0,1.44,2.95,3.36,2.87,1.14-.34-9.67-.31-19.38-.54-29.06,0-1.25-2.83-3.63-2.79-1.94Z"></path>
      <path class="cls-2" d="M121.31,31.6c0,7.22.84,14.41.81,21.63s-.39,14.44-.89,21.68c-.49,7.08.5,14.11.11,21.2-.37,6.54-.53,13.25-.23,19.78.06,1.43,3,3.36,2.87,1.14a191,191,0,0,1,.48-21.76c.49-6.77-.8-13.47-.24-20.27,1.15-13.9,0-27.56-.11-41.45,0-1.25-2.8-3.65-2.79-1.94Z"></path>
      <path class="cls-2" d="M144.62,126c20.46-12.61,40.23-26.24,60.49-39.18,1.21-.77-.7-4-1.88-3.24-20.26,12.93-40,26.56-60.49,39.18-1.25.77.65,4,1.88,3.24Z"></path>
      <path class="cls-2" d="M110.11,149.32c8.86-6.69,18.74-11.74,28.23-17.48,1.22-.74-.67-4-1.88-3.24-9.49,5.75-19.36,10.79-28.23,17.48-1.2.9.76,4.09,1.88,3.24Z"></path>
      <path class="cls-2" d="M44.4,188.15c9.83-5.61,19.73-11.56,29.74-16.79,9.62-5,18.77-10.71,28-16.44,1.22-.75-.68-4-1.88-3.24-9.25,5.73-18.4,11.41-28,16.44-10,5.24-19.91,11.18-29.74,16.79-1.26.72.61,4,1.88,3.24Z"></path>
      <path class="cls-2" d="M48.61,137.55c-1.79,2.53-.92,5-1.5,8a24,24,0,0,0-.62,7.08c.56,7.33,3.44,14.8,7.11,21.13a83.19,83.19,0,0,0,32.05,30.51c13.63,7.21,30.34,10.63,45.51,8,8.31-1.44,16.83-3.25,24.39-7.31,7.29-3.92,12.21-9.15,18.11-14.82.71-.68.64-4.28-.68-3.46-4,2.49-8.11.75-12.43.36l.14,3.69a4.74,4.74,0,0,0,2-2c.68-1.14-.29-4.57-1.39-2.71l-1,1.12c-.89.61-1.44,3.55.14,3.69,4.86.43,8.53,2.32,13-.47l-.68-3.46c-5.53,5.31-9.92,10.27-16.8,14A74.81,74.81,0,0,1,135.32,208c-14.21,2.93-28.08.77-41.57-4.27C80.58,198.81,71,190.36,61.78,180a55.63,55.63,0,0,1-11.15-18.9c-1.36-3.93-2.62-8.42-2-12.6.2-1.27.83-7.5,1.33-8.21.77-1.09-.12-4.49-1.38-2.71Z"></path>
      <path class="cls-2" d="M170.35,197.31a4.82,4.82,0,0,0-2.18,1.21l1.77,1.2a8.33,8.33,0,0,0,1.46-5.31c0-2.26.93-3.66,1.72-5.68.31-.79-.3-1.2-1-1.1a2.87,2.87,0,0,0-2,1.79,24.74,24.74,0,0,0-1.73,4.09c-.33,1.65.4,3.92-.6,5.38-1.18,1.72.39,2.45,1.77,1.2l-.2.12a2.84,2.84,0,0,0,2-1.79c.16-.71-.18-1.34-1-1.1Z"></path>
      <path class="cls-2" d="M49.79,137.11a14.24,14.24,0,0,0,2,6.42c.85,1.7,1.78,4.07,4,4.16,1.38.06,2.71-3.42,1.13-3.48s-2.41-2.54-3-3.74a11,11,0,0,1-1.56-5c0-.83-.68-1-1.33-.67a2.84,2.84,0,0,0-1.2,2.37Z"></path>
      <path class="cls-2" d="M43.11,147.83c1.84-4.52,10.58-5.61,8.93-11.57-.66-2.36-2.36.29-1.95,1.77q.29-1-.1-.34a6.57,6.57,0,0,1-.6.57,11.8,11.8,0,0,1-1.07.8c-.81.55-1.69,1-2.5,1.57a12.48,12.48,0,0,0-4.4,5.19,2.63,2.63,0,0,0,.21,2.58c.62.58,1.22.1,1.49-.57Z"></path>
      <path class="cls-2" d="M197.52,138c1-1.36,1-2.06,1-3.75a43,43,0,0,1,.89-5.75,27.11,27.11,0,0,0-.75-9.21,55.12,55.12,0,0,0-10-21.12c-9.42-12.22-21-22.38-35.6-27.81-14.06-5.25-28.46-7.48-43.35-4.62a39.51,39.51,0,0,0-4.51,1.62c-2.47.8-5.13,1.08-7.62,1.82a50.54,50.54,0,0,0-10.21,4.64c-6.81,3.81-11.41,8.94-17,14.28-1.6,1.54,1.89,1.39,2.67.9,3-1.87,7.55-.15,10.91.15l-.55-1.74a5.15,5.15,0,0,0-2,2.15c-.91,1.54,2.73,1.18,3.41,0l1-1c1.07-.74.58-1.64-.55-1.74-5.6-.5-9.45-2.19-14.52,1l2.67.9C79,83.32,83.59,78.3,90.57,74.56s14.53-5.33,22.11-6.73c14.65-2.7,29.13.45,42.67,6.4,12,5.28,22.16,15.23,30.08,25.53a55.37,55.37,0,0,1,9,18.13,28,28,0,0,1,1.42,10.47c-.16,1.55-.85,3-1,4.51-.21,1.89.55,3.27-.71,5.06-1,1.4,2.66,1.09,3.41,0Z"></path>
      <path class="cls-2" d="M76.43,79.49a2.15,2.15,0,0,0,1.23-.72l-2.85-2.44c-1.12,1.63-1.1,3.17-1.1,5.09,0,2.11-1,3.51-1.78,5.4-.49,1.26,2.52,3.44,3.11,1.92S76.6,86,76.79,84.34c.24-1.94-.33-3.83.86-5.56.83-1.21-1.77-3.43-2.85-2.44l-.76.38c-1.4.4,1,3.16,2.38,2.78Z"></path>
      <path class="cls-2" d="M195.93,140.61c-.08-2.61-1-4.43-2.19-6.72s-2.34-3.93-5-4c-2.28-.09-2.29,2,0,2.11-.53,0,.11.33.37.67a8,8,0,0,1,.58,1c.35.65.65,1.32,1,2a10.6,10.6,0,0,1,1.48,5c0,1.47,3.79,1.48,3.75,0Z"></path>
      <path class="cls-2" d="M201.79,128.7c-1.11,2.73-3.76,4.15-6.06,5.69-1.84,1.23-3.47,2.81-2.8,5.21.17.62.65,1.94,1.5,1.9s.94-1,.76-1.68c-.31-1.11,3.59-3,4.35-3.49a11.79,11.79,0,0,0,4.39-5c.49-1.21-1.45-4.33-2.13-2.66Z"></path>
      <path class="cls-2" d="M61.31,117.34c5.38.31,10.71,3.57,15.7,5.48,5.24,2,10.26,4.33,15.28,6.83,9,4.51,19.47,6.14,28.62,10.47a24.2,24.2,0,0,0,5,2.21,71.28,71.28,0,0,1,8.08,2.6c5.33,2,10.34,4.6,15.51,7,9.68,4.43,19.62,8,29.46,12,1.33.54,3.11-2.74,1.91-3.23-9.84-4-19.78-7.58-29.46-12s-19.79-8.22-29.68-12.16c-9.56-3.81-19.93-6.25-29.09-10.87a175.66,175.66,0,0,0-16.25-7c-4.52-1.73-8.8-4.4-13.72-4.68-1.32-.08-2.86,3.3-1.38,3.38Z"></path>
      <path class="cls-2" d="M181.76,162.44a9,9,0,0,0-2-5.07c-.6-.87-3.1-3.62-2.42-4.79.45-.78-.58-1.11-1.15-1.11a2.74,2.74,0,0,0-2.26,1.27c-.75,1.3.12,2.86.89,4,1.39,2,3.23,3.92,3.33,6.51.06,1.61,3.62.58,3.58-.77Z"></path>
      <path class="cls-2" d="M181.11,161.73a27.63,27.63,0,0,0-6.45-.15c-.93.15-1.86.15-2.78.31-1.69.29-3,.82-4.75.57l.62,3.48a2.66,2.66,0,0,1,.69-.72c1-.88.26-4.46-1.16-3.21a2.65,2.65,0,0,0-.68.72c-.67.86-.83,3.27.62,3.48,2.19.32,4.9-.41,7.08-.74a29.51,29.51,0,0,1,6.9,0c1.4.1,1.41-3.65-.08-3.75Z"></path>
      <path class="cls-2" d="M63,116c.95-1.53,4.74-1.49,6.18-1.55,2.36-.1,4.65-.38,7-.34,1.42,0,2.67-3.48,1.05-3.51a36.68,36.68,0,0,0-4.89.2c-1.68.19-3.37,0-5,.31-2.13.39-4.61,1.14-5.81,3.07-1,1.59.15,4,1.47,1.82Z"></path>
      <path class="cls-2" d="M60.58,116.11c.6,1.48,1.74,2.61,2.39,4.1s1.8,3.08,2.19,4.79c.2.88.41,2.42,1.6,2.5,1,.07,1.38-1.05,1.82-1.74.76-1.18-.52-4.41-1.71-2.55-.39.6-.22.32-.06.49l.57,1.09a20.44,20.44,0,0,0-1.89-5c-.59-1.06-1-2.21-1.51-3.29-.43-.83-1.3-1.54-1.64-2.38-.92-2.27-2.34.57-1.75,2Z"></path>
    </g>
  </g>
</svg>
