<?xml version="1.0" encoding="UTF-8"?>
<svg xmlns="http://www.w3.org/2000/svg" viewBox="0 0 284.16 328.93">
  <defs>
    <style>.cls-1{fill:none;}.cls-2{fill:#8faedb;}</style>
  </defs>
  <title>Asset 48</title>
  <g id="Layer_2" data-name="Layer 2">
    <g id="Map">
      <rect class="cls-1" width="284.16" height="328.93"></rect>
      <path class="cls-2" d="M58.32,192.15c-8.19.33-20.75-7.87-15.6-17.06,1.64-2.93,4.32-5.16,6.36-7.78s3.94-5.45,6.59-7.56c3.42-2.73,7.9-4,12-5.4,3.49-1.22,6.35-3,9.58-4.79,6-3.23,12-6.07,17.78-9.65a71.94,71.94,0,0,0,8.58-6.65c2.73-2.32,5.89-4.08,8.59-6.43,2.5-2.18,4.47-4.93,7.05-7,3.13-2.53,7.15-4.07,10.79-5.72,3.81-1.74,7.56-2.12,11.61-2.94,2.84-.58,4.9-2.28,7.77-2.76a68.9,68.9,0,0,1,24.44.33c8.49,1.6,19,6.38,21.74,15.3,1.06,3.5,3,7.11,3.35,10.73a18.39,18.39,0,0,1-2.07,10.48c-.7,1.4,3.54,3.17,4.29,1.65a18.21,18.21,0,0,0,2.16-9.79c-.06-4.31-2.15-8-3.38-12.07-2.13-7.06-8.21-11.74-14.64-14.94-7.49-3.74-16.24-5.28-24.55-5.39a73.82,73.82,0,0,0-12.23.66,29.66,29.66,0,0,0-4.22.48c-2.4.72-4.09,2.29-6.75,2.81-8.12,1.58-17,4.15-23.29,9.9-6.74,6.16-13.39,12.67-21,17.8a113.19,113.19,0,0,1-12.49,7c-4.36,2.2-8.48,5.07-12.89,7.14s-9.13,2.91-13.36,5.27c-3.59,2-6.1,5-8.53,8.29-4.89,6.51-12.78,12.56-6.46,21,4.75,6.38,13.45,10.18,21.22,9.86,2.55-.1-.92-2.83-2.42-2.76Z"></path>
      <path class="cls-2" d="M172.92,146.18l-1.66.09q-.32,2.25,2.06.41c4.63,2-3.89,3.66-4.23,3.68-1.42.09-5.57,1-6.58-.33l-.66,3.92c.92-.61,3.8,2.49,4.77,2.92a14.31,14.31,0,0,0,8.42.57c3.26-.84,7.74-4.16,8.65-7.5.22-.79.48-2.36-.36-2.93l-1-.7c-1.5-1-2.69,3.37-1.37,4.27l1,.7-.36-2.93c-.33,1.2-2.68,2.59-3.72,3.27a11.16,11.16,0,0,1-9.1,1.13c-2.38-.69-4.88-4.64-7.46-2.93a3.37,3.37,0,0,0-.66,3.92c1.85,2.37,7.6,1.5,10.31,1a7.65,7.65,0,0,0,6.28-8.92c-.83-3.94-4.94-4.78-7.44-1.59a5.86,5.86,0,0,0-1.17,4.49c.47,2.07,1.65,2.12,3.54,2s2.26-4.62.76-4.54Z"></path>
      <path class="cls-2" d="M171.93,153.48c0,3.23,1.06,6.06,1.62,9.2.46,2.62.24,5.38,1.84,7.61l1.37-4A24.42,24.42,0,0,1,167,167c-1.41-.2-2.94-.5-3.79-1.69-.65-.91-.72-2.18-1.18-3.23l-1.7,4c1.19.32,1,.36,2.16-.08,1.51-.58,2.06-5,.53-4.45l-1.5.09c-1.67-.45-2.11,3-1.7,4,.55,1.27.45,2.7,1.37,3.82a6.57,6.57,0,0,0,3.73,1.88,25.06,25.06,0,0,0,11.27-.56c1.23-.32,2.12-2.94,1.37-4-1.32-1.83-1.15-4.58-1.56-6.79-.51-2.78-1.5-5.36-1.5-8.21s-2.61,0-2.61,1.7Z"></path>
      <path class="cls-2" d="M159.51,168.84a20.31,20.31,0,0,1,2.09-5.89l-2.28.71c1.4.09,2.67,1,4,1.46a9.77,9.77,0,0,0,4.2.57c.7-.06,2-.38,1.72-1.35s-2-1.14-2.75-1.07c-1.13.1-2.33-.76-3.35-1.17a11.59,11.59,0,0,0-3.6-.85c-.67,0-1.88,0-2.28.71a22.59,22.59,0,0,0-2.3,6.51c-.34,1.54,4.21,2.08,4.58.37Z"></path>
      <path class="cls-2" d="M162.2,172.58c5.9.77,12.3,3.44,18,0,4.61-2.77,8.56-8.4,10-13.48.12-.4.12-1.16-.45-1.24-3-.46-6.57,2.14-9,3.82-.46.32-2.38,2.86-.86,3.08,2.87.41,6-.93,8.36-2.54,1.86-1.27,1.68-4.23-.86-2.49a9.2,9.2,0,0,1-4.92,1.36l-.86,3.08c.6-.42,5.07-2.72,5.55-2.65l-.45-1.24c-1.61,5.48-5.85,9.78-11.6,10.17-3.68.25-6.87-1.1-10.38-1.56-1.62-.21-4.22,3.46-2.58,3.67Z"></path>
      <path class="cls-2" d="M189.65,166.19c.06-1.88.63-3.69.7-5.57,0-1.06-1.18-.85-1.78-.49a3.54,3.54,0,0,0-1.78,2.63c-.06,1.88-.64,3.69-.7,5.57,0,1.06,1.17.85,1.78.49a3.54,3.54,0,0,0,1.78-2.63Z"></path>
      <path class="cls-2" d="M173.12,171.65a28,28,0,0,0,4.45-1,7.41,7.41,0,0,0,3.47-1.47c1.21-1,2.3-2,3.57-2.92a5.68,5.68,0,0,0,2.17-2.71c.63-1.66-.91-5.23-2-2.43-.3.79-1.49,1.23-2.16,1.71-1,.72-1.77,1.71-2.78,2.41a8.83,8.83,0,0,1-3.38,1.05,18.22,18.22,0,0,1-3.11.72c-1.72.09-1.85,4.67-.24,4.59Z"></path>
      <path class="cls-2" d="M196.78,145.82c.06.56-.81,1.93-1,2.52a25.46,25.46,0,0,1-1.21,3.51c-.66,1.35,1.43,5.32,2.36,3.41.74-1.51,1-3.18,1.66-4.73a8.06,8.06,0,0,0,.75-4.25c-.09-.78-.71-2.37-1.66-2.44s-1,1.31-.91,2Z"></path>
      <path class="cls-2" d="M194,152.42c0,1.32-.1,2.66-.05,4,.06,1.72,1.08,2.72,2.27,3.81a1.44,1.44,0,0,0,2.34-.4,2.9,2.9,0,0,0-1.07-3c-1.09-1,.23.67.07.72a5,5,0,0,0,.06-1c0-.81,0-1.61,0-2.42a3,3,0,0,0-1.62-2.82,1.35,1.35,0,0,0-2,1.15Z"></path>
      <path class="cls-2" d="M59,194.81c.39,2.29,1.37,3,3,4.48,1.91,1.72,3.11,4,5.56,5.06,3.13,1.32,6.9.48,10.17.41,4.15-.09,8.3.21,12.46.1,8.64-.22,17.29-1.23,25.9-2a157.11,157.11,0,0,0,26.71-4.37c3.7-1,7.44-1,11.18-1.67s7.17-2.2,10.7-3.54a89.37,89.37,0,0,0,10.68-4.41c1.89-1,3.47-2.36,5.49-3.22a43.2,43.2,0,0,0,5.1-2.15c5.1-3,11.79-6.33,14.61-11.86,3-5.81-.8-11.19-4.6-15.51-2.16-2.45-2.56,1.72-1.26,3.2,3.14,3.56,5.16,7.16,1.12,11.22a35.33,35.33,0,0,1-7.59,5.79,58.25,58.25,0,0,1-7.56,4.1c-3.17,1.22-5.51,3.16-8.55,4.53a140,140,0,0,1-16.3,6.29c-5.83,1.77-12.13,1.9-18.08,3.42-14.28,3.64-28.85,3.47-43.34,5.08-6.78.75-13.62,0-20.42.34-4,.18-6,.53-9.06-2.64-.41-.43-3.09-3.31-2.94-2.41-.42-2.45-3.51-3.56-2.95-.27Z"></path>
      <path class="cls-2" d="M72.6,206.26c6.13,4.62,12.42,8.86,19.8,11.18,8.51,2.67,17.37,3.7,26,5.48,3,.62,6.15.62,9.25,1a112.7,112.7,0,0,0,12.77,1.21c8.39.08,17.24,1.34,25.57,2.33,8,.95,17.93,1.46,25.72-1.08,1.93-.63,3.68-1.68,5.61-2.31a41.61,41.61,0,0,0,4.14-1.06,43.78,43.78,0,0,0,8.73-4.71c10.93-8.35,20.44-20.3,18.78-34.85-.79-6.95-6.17-8.8-11.57-11.87-7-4-13.39-10.59-22-10.52-2,0-.08,4.57,1.73,4.56,8.74-.07,16,7.85,23.41,11.56,1.78.89,4.2,1.75,5,3.83.83,2.24-.11,5.72-.48,7.94-.27,1.62-.35,3.44-.75,5-.6,2.32-2.2,4-3.49,6a49.94,49.94,0,0,1-9.31,10.92,43.47,43.47,0,0,1-5,4.08c-1.52.94-3.15,1.16-4.68,2a54,54,0,0,1-23.9,6.4c-18,.37-36.51-2.26-54.32-4.35a212.21,212.21,0,0,1-26.36-4.45c-9.4-2.33-16.9-6.5-24.57-12.29-2.24-1.69-1.35,3,0,4Z"></path>
      <path class="cls-2" d="M78.52,209.5a76.14,76.14,0,0,1,8.92-.93c4.16,0,8.32,0,12.48,0,8.46,0,16.92,0,25.38.09s16.53-1,24.83-1a54.14,54.14,0,0,0,20.32-4c6.36-2.56,12.92-4.73,18-9.51,4.13-3.87,9.45-7.89,12.53-12.7a30.07,30.07,0,0,0,3-7.66c.82-2.68,2.26-5.8,2-8.69s-3.21-7.24-6.44-7.06c-1.81.1-1.22,5.06.71,4.95,5.86-.33-.51,13.36-2,15.47-2.8,3.87-7.12,6.85-10.48,10.25-8.28,8.36-21.87,12.16-33.15,13.65-6,.8-12.41.92-18.47,1.26-7.07.4-14.19,0-21.26,0H85c-2.56,0-4.73.66-7.21.93-1.87.2-1.21,5.16.71,4.95Z"></path>
      <path class="cls-2" d="M83.61,209.34c4.11,0,8,.6,12,1s8.31.13,12.51.59a228.27,228.27,0,0,0,24.14,1.31c3.76,0,7.26-.77,11-1,4.22-.25,8.39-.08,12.59-.73A256.6,256.6,0,0,0,181,205a40.84,40.84,0,0,0,17.32-9.1c5-4.56,10.39-8.45,12.91-15,.95-2.47,1.12-5.77,1.3-8.35a7,7,0,0,0-1.35-5.16c-.78-1-1.77-1.25-2.59-2.09a29.13,29.13,0,0,1-2.47-3.49c-2-2.66-5.3-3.45-7.12-6.18s-3.07.38-1.72,2.41c1.47,2.2,2.94,2.95,5,4.51s3.42,3.86,5,5.85c1.39,1.73,1.25,1.33,1.27,3.55a27.42,27.42,0,0,1,0,3.3c-.41,3.26-2.66,6.87-4.87,9.26-4,4.29-9.39,9.33-14.59,12-6.73,3.43-14.23,5.26-21.59,6.77a206.15,206.15,0,0,1-42.41,4.24c-14.41-.06-28.65-2.77-43.05-2.79-2,0-.26,4.61,1.59,4.61Z"></path>
    </g>
  </g>
</svg>
