<?xml version="1.0" encoding="UTF-8"?>
<svg xmlns="http://www.w3.org/2000/svg" viewBox="0 0 284.16 256.49">
  <defs>
    <style>.cls-1{fill:#fff;}.cls-2{fill:#8faedb;}</style>
  </defs>
  <title>Asset 62</title>
  <g id="Layer_2" data-name="Layer 2">
    <g id="Map">
      <rect class="cls-1" width="284.16" height="256.49"></rect>
      <path class="cls-2" d="M54.44,176.77c3.92,0,8.31-1.25,12.15-2.08,4.69-1,9.36-1.85,14.13-2.41a267.28,267.28,0,0,0,27-4.11c4.75-1.06,9.56-1.57,14.24-3,4-1.21,8-2.65,12.16-3.23a105.58,105.58,0,0,0,26.45-7.19c.37-.16-1.86-4.58-2.65-4.24a105.58,105.58,0,0,1-26.45,7.19c-4.2.59-8.12,2-12.16,3.23-4.68,1.4-9.48,1.91-14.24,3a267.32,267.32,0,0,1-27,4.11c-4.77.56-9.44,1.39-14.13,2.41-3.84.83-8.23,2.07-12.15,2.08.23,0,1.33,4.25,2.65,4.24Z"></path>
      <path class="cls-2" d="M68.27,194.78c7.23.09,14.36,1.27,21.61,1.21,6.56-.06,13,.62,19.59.56,7-.06,13.86,1.3,20.85.48,6.45-.75,13-1.58,19.36-2.84A108.1,108.1,0,0,0,181.86,182c1.87-1.06,2.95-2.6,4.6-4,2-1.71,4-3.35,5.85-5.18,5.3-5.17,7-11.5,10.11-18.08-.06.13-4,.44-4.56,1.57-2.32,5-3.74,11.09-7.37,15.31-3.22,3.75-7.29,6.9-11,10.12.21-.19,0,.26-.25.52a24.14,24.14,0,0,1-2.73,1.33,107.63,107.63,0,0,1-11.13,5.33c-7,2.7-14.32,3.73-21.69,4.86-12.45,1.91-24.48,1.06-37,.88-11.34-.17-22.71-1.64-34-1.79-1.42,0-3.85,1.95-4.42,1.94Z"></path>
      <path class="cls-2" d="M201.07,159.4c2.46-4.68,3.76-9.46,5.4-14.41,1.14-3.43,3.65-5.55,1.11-8.93-1.35-1.8-4.51-2.15-2.47.56.4.53-1.59,3.24-1.85,3.82a34.09,34.09,0,0,0-1.49,5.19,53.85,53.85,0,0,1-4.51,10.75c-.67,1.28,3,4.62,3.8,3Z"></path>
      <path class="cls-2" d="M199.76,118c-3.54-1.84-6.8-3-10-5.58a77,77,0,0,0-6.43-4.27A86.36,86.36,0,0,0,167,99.22c-6.25-2.46-13.36-5.67-20.09-6.25-6.34-.55-13.46,2.48-19,5.37-3,1.59-5.84,3.44-9,4.76-3.5,1.45-7.26,2.37-10.73,3.86-3.83,1.65-4.49,5.37-2.93,9.08s5,4.5,8.76,5c3.4.43,6.71,1.13,10.06,1.87,1.85.41,6.56.63,8.17,1.77l-1-3.8-1.42.15c-1.77.19.59,4.49,2.26,4.31l1.42-.15c1.78-.19-.4-3.38-1-3.8-2.86-2-7.53-2.19-10.85-2.91-2.92-.64-5.77-1.27-8.74-1.64-2.17-.27-6-.55-4.59-3.86.78-1.81,4-2.31,5.66-2.87,2.63-.9,5.25-1.85,7.82-2.92,5.65-2.34,10.7-5.4,16.46-7.56,2.85-1.07,5.31-2.35,8.44-2.4a27.71,27.71,0,0,1,9.46,1.86,130.44,130.44,0,0,1,17.44,6.84c4.53,2.3,8.51,5.26,12.83,7.83,2.51,1.49,4.61,3.52,7.09,5,2.18,1.34,4.61,1.92,6.87,3.09,2.46,1.28.76-3.17-.63-3.89Z"></path>
      <path class="cls-2" d="M73,148.56c-6.93,3.34-12.28,8.51-19.12,11.81-3.81,1.83-7.58,3.35-11.53,4.84-2,.75-4.36,1.49-5.85,3.11a16.16,16.16,0,0,0-2.87,5.89c-.57,1.8-1.56,5.5-1.35,7.41.42,3.71,7.69,6.4,10.86,5.66.47-.11,3.88-1.34,3.06-2.37l-.39-.49c-1-1.31-5.34,1.07-4.57,2l.39.49,3.06-2.37c-1,.24-4.83-1.47-5.66-2.08-2.28-1.69-1.82-4.78-1.39-7.32a15.83,15.83,0,0,1,1.78-5.2c1.63-2.75,4.81-3.08,7.69-4.09a93.65,93.65,0,0,0,13.56-6.25,20.94,20.94,0,0,0,4.17-3.2,33.6,33.6,0,0,1,9-5.92c2.64-1.27,1.84-3.24-.86-1.94Z"></path>
      <path class="cls-2" d="M31.94,173.72c-2,5.68,4.43,6.63,8.44,6.17,2.35-.27,4.67-.8,7-1.25,3.2-.61,7.75-.52,10.31-2.68,2-1.72-.93-5.69-3.14-3.82-1.22,1-5.36,1.09-7,1.43-1.44.3-2.9.55-4.35.83s-2.89.58-4.36.72a10.47,10.47,0,0,0-2,.1,5.68,5.68,0,0,1-1.08-.09q0,1.9.39.42c.92-2.57-3.17-4.83-4.23-1.85Z"></path>
      <path class="cls-2" d="M127.83,171.82c-3.6,1.5-7.44,1.75-11,3.5a101.32,101.32,0,0,1-10.61,4.45c-7.37,2.67-14.84,4-22.34,6-8.09,2.15-16.67,5.41-25,6-3.37.25-6.64.59-10,1-2.75.38-5.32,0-8.05,0-2.25.07-4.67,1.22-6.9.69l1.22,1.82c1.36-5,3.36-8.39,9.07-9.37,2.76-.47,3.08-4.24-.16-3.68-7.54,1.3-11.68,6.15-13.59,13.13a1.47,1.47,0,0,0,1.22,1.82c3.71.87,7.47-.54,11.26-.42,4.5.14,8.77-1,13.25-1.21,9-.47,17.68-3.48,26.33-5.75,7.61-2,15.28-3.43,22.76-6.06a95.67,95.67,0,0,0,12.33-5c3.72-1.93,7.81-2.26,11.64-3.86,2.86-1.19,1.43-4.46-1.43-3.27Z"></path>
      <path class="cls-2" d="M40.41,185.68c11.71-.19,23-4.57,34.72-4.79,1.35,0,3.6-2.89,3.86-2.9-11.67.21-23.06,4.6-34.72,4.79-1.35,0-3.61,2.89-3.86,2.9Z"></path>
      <path class="cls-2" d="M71,192a10,10,0,0,1-3.07-.62,18.38,18.38,0,0,0-3.51-.58c-1.1,0-.64,1.15-.25,1.69A4.41,4.41,0,0,0,67,194.41a14.75,14.75,0,0,1,3.36.59,9.43,9.43,0,0,0,3.23.61c2-.16-1.22-3.72-2.61-3.6Z"></path>
      <path class="cls-2" d="M116.86,104.6c-2.42-.5-4.77-1.31-7.23-1.6s-6.55.46-8.89-1.06c-1-.63-1.25-1.8-2.32-2.49s-4.18-.32-4.12-1.82L90.66,99.9a34.78,34.78,0,0,0,8-2.95,27.94,27.94,0,0,0,3.56-2.19,9,9,0,0,1,5.33-2.23c4.66-.71,9.75-2.1,14.45-.83,3.75,1,8.77,3.54,11.48,6.25.87.87,4.76-1.95,4.47-2.23C132,89.8,123.22,88,115.21,89.16c-3.09.43-6.6.72-9.54,1.75-4.55,1.59-7.33,5.49-12.21,6.68-.91.22-3.58,1.11-3.63,2.27l0,.78.15.1c1.36.7,2.79.31,4.14,1.22,1.14.77,1.42,1.95,2.59,2.55,1.5.78,4.18.78,5.79.87A66.36,66.36,0,0,1,112.68,107c1.32.27,4.36-2.39,4.18-2.43Z"></path>
      <path class="cls-2" d="M119.67,91.73c2.43.14,4.57-1.47,6.74-2.31a10.5,10.5,0,0,1,1-.35l-.71-2.56a3.84,3.84,0,0,0-1.4,0A9.19,9.19,0,0,0,122,87.64l4,2.75L126,90c.57-2.27-3.88-4.49-4.52-1.94l-.09.36c-.52,2.05,2.33,3.59,4,2.75,1.39-.72,3-.15,4.32-.92,2-1.16,1.17-3.57-.38-4.64-1.74-1.21-3.78-.87-5.63-.1-1.65.68-3.6,2.15-5.43,2a1.56,1.56,0,0,0-1.48,2.14,3.17,3.17,0,0,0,2.91,2Z"></path>
      <path class="cls-2" d="M91.72,97.19c-1.89.61-3.45,1.81-5.33,2.48a40.28,40.28,0,0,0-4,1.42c-2.53,1.21-4.87,3.59-3.64,6.62s5.4,2.92,7.87,1.71c3.27-1.6,6.89-3.76,10.55-4.43,3.19-.58,1.67-4.79-1.31-4.24-4.1.75-8.07,3.05-11.74,4.87-2.52,1.24.66-.6,1.13-.81.69-.3,1.42-.55,2.13-.8,1.95-.66,3.71-2,5.61-2.58a2.22,2.22,0,1,0-1.31-4.24Z"></path>
      <path class="cls-2" d="M160.79,141.17c-4,2.61-6.66,6.89-3.32,11.36,4.3,5.76,14,1.26,19.24-.5,3.32-1.11,6.25-2.91,9.59-4.08,4.1-1.44,8-3.13,12-4.8,3.09-1.29,7.29-2.43,9.91-4.57,2.28-1.86,2.47-4.88,3.26-7.5.59-2-2.77-5.54-3.54-3-.56,1.88-.62,4.39-2,5.9s-4.57,2.44-6.42,3.27q-7.38,3.34-15,6.07c-4.42,1.57-8.44,3.72-12.94,5.1-2.89.89-6.69,2.79-9.76,2-2.14-.54-2.55-.93-.79-3.19a7.52,7.52,0,0,1,2.1-1.69c1.89-1.24-.55-5.6-2.39-4.39Z"></path>
      <path class="cls-2" d="M161.41,144.59c9.21-2.89,19-3.89,28.2-7,6.79-2.26,15.13-6.16,18.24-13.09a1.9,1.9,0,0,0-.64-2.44l-1.11-.66c-2.27-1.36-6,1.14-3.2,2.81l1.11.66-.64-2.44c-3.29,7.32-12.89,10.75-20.09,12.49-7.81,1.89-15.94,3.34-23.59,5.73-3.1,1-.88,4.71,1.73,3.89Z"></path>
      <path class="cls-2" d="M197.77,121.48a24.71,24.71,0,0,1,3.69,2.09,10.16,10.16,0,0,0,3.6,1.27c.76.19,3.36,1.34,3.74,2.1a1.88,1.88,0,0,1,.09.92,6.31,6.31,0,0,1-.07.69q-.43,1.36,1.87-.52c-2.74-.34-4.77,4-1.63,4.39,4,.49,5.85-4.58,4.24-7.73-1-1.89-4.08-3.54-6-4.11a10.13,10.13,0,0,1-3.07-1,24.87,24.87,0,0,0-3.69-2.09c-2.52-1.06-5.55,2.81-2.73,4Z"></path>
      <path class="cls-2" d="M175.26,138l-.27,0-.15.09,0,.21c-.2,1,2.89,2.16,3.59,2.34,2.18.54,4.37,1,6.55,1.57,2,.49,3.89,1.46,5.91,1.61,1.06.08-.19-.92-.43-1.11a6.68,6.68,0,0,0-3.13-1.41c-1.77-.14-3.75-1.12-5.49-1.56-2.05-.51-4.12-1-6.17-1.47l3.59,2.34.16-.16c.71-.1-1.13-1.38-1.22-1.43a5.21,5.21,0,0,0-2.91-1.07Z"></path>
      <path class="cls-2" d="M197.46,131.43a10.59,10.59,0,0,1,2.16,1.24c.68.4,1.28.89,1.93,1.33a8.15,8.15,0,0,1,1.6,1.24,4.36,4.36,0,0,0,1.35,1.22c.71.35,2.33-.22,3.06-.39.26-.06,1.92-.54,1.65-.67-.69-.34-1-1-1.55-1.51s-1.26-.87-1.87-1.31a13.48,13.48,0,0,0-3.63-2.21,7.19,7.19,0,0,0-3.06.39c-.27.06-1.88.61-1.65.67Z"></path>
      <path class="cls-2" d="M77.79,180.4c5.64-.71,11.07-2.47,16.73-3.18S106,175.56,111.78,175c9-.83,18.2-3.61,27.28-3.54l-3.2-2.56c-2.82.62-5.71.86-8.57,1.23s-5.34,1.2-8.11,1.15c-2.53,0,1.52,2.57,2.76,2.59,5.69.11,12-1.22,17.56-2.44,1.94-.42-2.45-2.55-3.2-2.56-9.58-.07-19,2.78-28.52,3.58-5.32.45-10.64,1.41-15.95,2.09-6,.77-11.72,2.56-17.67,3.31-1.63.21,2.33,2.69,3.63,2.53Z"></path>
      <path class="cls-2" d="M129.43,123.85c3.75,1.71,7.79,2.66,11.63,4.14a55.38,55.38,0,0,0,11.31,3.45c7.08,1.18,14.53,1.53,21.43-.75,4.18-1.38,9.32-2.31,12.5-5.69,5.24-5.57-1.35-13.82-3.86-19-.19-.39-4.64,1.88-4.36,2.45,2.05,4.25,5.75,8.94,5.84,14,.07,4.13-2.45,4.31-5.55,5.36a31,31,0,0,1-10.41,2c-11.79,0-23.47-3.53-34.17-8.41-1.2-.55-3.95,2.64-4.36,2.45Z"></path>
      <path class="cls-2" d="M39.65,170.29c12.1-5.23,26.08-5.45,38.84-8.27,6.22-1.38,12.5-2.32,18.68-3.9,6.56-1.67,12.35-4.63,18.56-7.2a58.37,58.37,0,0,0,13.36-7.65c3.09-2.43,5-6.08,3.84-10.1-2.52-9.06-16.73-8-23.61-9.69-3.15-.79-2.84,3.77-.1,4.46,4.37,1.1,9,1.14,13.38,2.25,1.74.44,4.66,1.19,5.54,3,1.53,3-1.24,5.61-3.36,7.17a63.91,63.91,0,0,1-12.71,6.91c-4.93,2-9.45,4.54-14.61,6a304.63,304.63,0,0,1-31.76,6.53c-9.48,1.56-19.38,2.45-28.3,6.31-2.8,1.21-.24,5.34,2.25,4.27Z"></path>
      <path class="cls-2" d="M113,125c-1.1-.6-2.26-4.25-2.54-5.27-.62-2.25-.13-4.1.43-6.3l-2.21,1.41.3-.06c.8-.17,2.42-.68,2.24-1.79s-1.93-1.14-2.7-1l-.3.06c-.75.16-2,.53-2.21,1.41-.71,2.83-1.12,5-.24,7.85a27.23,27.23,0,0,0,1.53,3.49c.45,1,.67,1.73,1.67,2.28a3.71,3.71,0,0,0,3.46-.06c.64-.36,1.64-1.46.57-2Z"></path>
      <path class="cls-2" d="M77.94,148.74l-.12-.42a.44.44,0,0,0-.42-.16c-3.82.11-10.47-5.71-9.53-9.56,1.39-5.67,5.27-6.09,10.21-7.32,4.59-1.14,9-2.55,13.56-3.81,5.26-1.45,9.84-3.88,14.94-5.53,1.71-.55,4.16-2.61.85-1.53s-6,2.77-9.19,3.89S91.62,126,88.37,127c-6,1.87-12.67,2.72-18.43,5.2-3.31,1.43-7.29,5.22-7.11,9.18.12,2.59,3.15,4.74,4.92,6.22a17.23,17.23,0,0,0,2.82,2.2c.31.15,2.67.65,2.68.69.22.74,5-.82,4.69-1.74Z"></path>
      <path class="cls-2" d="M75.94,148l-.74.11c-.68.1-2,.64-2.16,1.45l-.11.6a1,1,0,0,0,.9,1.13c5.53,1.23,10.85,3.35,16.26,5,3.48,1.06,7,1.4,10.06-.94,2.22-1.72-2.53-2.13-3.85-1.11s-6.68-1.85-8.19-2.29c-3.71-1.08-7.43-2.4-11.21-3.23l.9,1.13.11-.6-2.16,1.45.74-.11c3-.44,2.41-3-.55-2.6Z"></path>
    </g>
  </g>
</svg>
