<?xml version="1.0" encoding="UTF-8"?>
<svg xmlns="http://www.w3.org/2000/svg" viewBox="0 0 284.16 328.93">
  <defs>
    <style>.cls-1{fill:none;}.cls-2{fill:#8faedb;}</style>
  </defs>
  <title>Asset 51</title>
  <g id="Layer_2" data-name="Layer 2">
    <g id="Map">
      <rect class="cls-1" width="284.16" height="328.93"></rect>
      <path class="cls-2" d="M197.55,182.84c-2.32-.8-4.43-1.51-6.31.45-2.22,2.32-3.06,6.08-6.91,5.79-2.38-.18,0,4.06,1.72,4.2,2.87.22,4.6-.84,6.24-3.14a16.71,16.71,0,0,1,2.53-3.4c1.15-.94,2.16-.34,3.47.09,2.77.91.94-3.41-.75-4Z"></path>
      <path class="cls-2" d="M63.19,163.85C58.66,156.6,52,151.5,47.11,144.61c-2.92-4.14-6.91-7.94-6.8-13.4.08-4,5.45-6.61,8.88-8.11,4.19-1.83,8.78-2.25,13.25-2.25,4,0,7.93-.87,11.93-1,5.18-.19,10.27-1.85,15.41-1.87a117.67,117.67,0,0,1,14.36,1.21c9.29,1.16,19.33,4.64,28,8,7.83,3.06,15.95,6.65,22.92,11.35,15.4,10.38,31.85,18.41,48.62,26.22,2.56,1.19.76-3.23-.79-4-15.42-7.17-30.85-14.46-45.05-23.94a138.6,138.6,0,0,0-39.74-17.95c-3.49-1-7-2-10.51-2.87-4.11-1.05-8.1-1.11-12.29-1.51-3.85-.37-7.46-1.08-11.33-.48a112.59,112.59,0,0,1-13.49,1.59c-7.12.25-14.54.53-21.4,2.51-3,.87-5.09,2.28-7.74,3.93-2,1.25-4.31,2-4.87,4.53-1.61,7.29,3.94,13.31,7.68,18.69,4.82,6.92,11.57,12,16.08,19.24,1.31,2.1,4.71,2.12,2.93-.72Z"></path>
      <path class="cls-2" d="M66.08,172.39h-.6c-1.85,0-1.11,4.79.81,4.93,4.52.34,8.71,3,13.11,4,5.16,1.24,10.26,2.6,15.38,3.94,9.86,2.58,20.22,3.67,30.27,5.28,9.54,1.53,19.13,2.09,28.7,3.58,5.07.78,10.18.7,15.26,1.33,4.91.61,9.57,1.55,14.51.72,1.72-.29,1-3.5.28-4.37a13,13,0,0,0-1.9-2c-1.72-1.54-2,3.33-.68,4.49l1.22,1.33.28-4.37c-5.56.94-10.92-.47-16.45-.94-5.1-.43-10.11-.72-15.17-1.46-9.84-1.44-19.63-2.28-29.45-3.67s-20-2.82-29.58-5.56c-5.1-1.47-10.35-2.34-15.44-3.83-3.82-1.12-7.11-3.13-11.15-3.43l.81,4.93h.6c1.79,0,1.19-4.93-.81-4.93Z"></path>
      <path class="cls-2" d="M59.65,176.54c-.2,3.07.75,5.71.82,7.63a21.94,21.94,0,0,0,4.08,11.19c4.91,7.38,14.29,13,22.87,14.73a172.26,172.26,0,0,0,33.67,3.48c11.58,0,22.64-1.77,34-3.45,5.78-.85,11.34-2.28,17-3.45,2.72-.56,5.31-1.65,8-2.18,1.34-.26,3,0,4.17-.79a3.78,3.78,0,0,0,1.08-4.93c-1.07-2-3.13-2-5.19-2.09-2.89-.15-5.78.11-8.67.18-5.63.14-11.36-.49-16.94.43-5.39.89-10.84,1.31-16.24,2.26-6.66,1.17-12.63,2.72-19.42,2.74-12.86,0-26.29,1.92-37.66-5.39-2.72-1.75-6.23-3.4-8.14-6-1.29-1.75-2.29-3.67-3.64-5.4-1.53-2-3.42-5.24-5.65-6.58,1.18.71-2.36-1.73-1.54-.22-.11-.2.36-2.06.33-2.49-.09-1-.38-2.43-1.49-2.86l-.52-.2c-1.83-.71-1.62,4.21.1,4.88l.52.2-1.49-2.86c.12,1.35-.72,2.51-.37,4,.6,2.52,2.84,3.15,4.6,4.85,4.06,3.92,6,10.23,10.57,13.45s10.08,6.67,15.62,8.22c6.29,1.75,12.93,1.68,19.41,1.53,6.86-.16,14,.52,20.71-1.1,7.61-1.84,15.28-2.72,23-3.71,6.42-.82,12.63-.64,19.1-.8,1.77,0,10.75-.89,11.09-.12l-.31-3c-.28,1-3.82.93-4.67,1.14-2.76.66-5.36,1.59-8.16,2.15-6.15,1.23-12.15,2.62-18.37,3.55-5.72.86-11.24,2-17,2.42-6.45.43-12.77.75-19.23.74a105.4,105.4,0,0,1-18.51-1.89c-6-1-12.14-1.27-17.62-4.13-5.22-2.73-10.84-6.25-14-11.41-1.87-3.09-1.87-6-2.48-9.37a19.88,19.88,0,0,1-.74-3.21c.12-1.94-2.58-5.31-2.79-2.07Z"></path>
      <path class="cls-2" d="M58.54,179.87C58.85,181.2,55,186,54.39,187c-1.66,2.87-4,5.28-5.42,8.3-2,4.31-3.37,11.68-1.58,16.27,2.17,5.57,4.46,11.35,8.64,15.85A44.64,44.64,0,0,0,71.86,237.9c13.47,5.46,28.89,6.76,43.31,6.38A44.34,44.34,0,0,0,133,239.7a165.28,165.28,0,0,0,20-10.86c6.86-4.47,13.9-9.2,19.91-14.77,3.18-2.94,6.16-6.12,9.25-9.16a32.18,32.18,0,0,1,5.33-4.63c1.76-1.09-1.09-.38,1.59-.71.52-.06,3.11-1.19,2-2.17-1.64-1.49-3.35-1.46-5.52-1.32-2.44.15-4.16,3.07-.8,2.86a3.47,3.47,0,0,1,1.72.1l2-2.17c-6.55.81-11.2,7.69-15.68,12.18-6.22,6.23-13.15,11.24-20.39,16.22a130.69,130.69,0,0,1-24.82,13.55c-9,3.61-19.8,3-29.32,1.8-9.07-1.19-18.21-2.5-26.44-6.78a38.11,38.11,0,0,1-16.82-16.47c-3.94-7.18-5-16.9-.16-24.08,2-3,3.94-6,5.9-9.1,1-1.5,3.09-3.3,2.63-5.26s-5.34-.9-4.91.95Z"></path>
      <path class="cls-2" d="M187.73,188.89l.75.15-1.39-1c.75,3.29.06,6.29-.94,9.44-.41,1.3-.91,2.58-1.23,3.9-.1.43-.16,2.4-.65,2.72l2.36-.69a12.54,12.54,0,0,0-4.72.56c-2.32.64-4.71.33-7.13.27s-4.3,2.73-.94,2.8c3.14.06,6.4.49,9.47-.39,1.75-.5,4.48-.19,5.73-1.89.53-.72.33-1.44.48-2.27a43.5,43.5,0,0,1,1.5-5c1.07-3.38,1.82-6.66,1-10.19-.15-.65-.82-.87-1.39-1l-.75-.15c-1.94-.4-5.37,2-2.17,2.68Z"></path>
      <path class="cls-2" d="M88.88,147.1c-2.11,1.78-1.62,5.68.37,7.33a5,5,0,0,0,2.28,1.08,7.29,7.29,0,0,0,1,.07c-.66,0-.17,0,.26.09a5.51,5.51,0,0,0,5.06-.84c2.34-1.76,5-5.75,2.41-8.37a9.55,9.55,0,0,0-5.08-2.13c-2-.3-4.14.75-6,1.32-2.26.68,1.44,3.82,3,3.34,1.23-.37,2.47-.84,3.72-1.14a4,4,0,0,1,2.59.39L97,147.15a10.07,10.07,0,0,1-.74,2.21,8.25,8.25,0,0,1-1.91,2.25c-1.49,1.23-2.85.78-4.61.54l1.72.56c1,.65.56,0,.67-.88a2.78,2.78,0,0,1,.58-1.68c1.56-1.32-2.49-4.16-3.8-3.05Z"></path>
      <path class="cls-2" d="M91.33,155.77a28.13,28.13,0,0,1-.34,8c-.39,2.3-.13,4.58-.84,6.82l1.54-1.25-.44.15c-3.18,1.06-.53,3.09,1.79,2.32,3.2-1.07,2.35-4.24,2.56-6.92.26-3.24,1.22-6.82.64-10.06-.32-1.81-5.24-.9-4.91.93Z"></path>
      <path class="cls-2" d="M82.61,162.6c1.9,3.95,5.31,9.16,10.16,10a13.32,13.32,0,0,0,8.37-1.31c1.72-.89,5.4-2.62,5.92-4.77a2.74,2.74,0,0,0-1.15-2.34l-.39-.3c-2.36-1.81-4.23.17-1.8,2l.39.3L103,163.9c-.36,1.48-3.33,2.78-4.5,3.43A12.2,12.2,0,0,1,92.87,169c-2.21,0-3.45-1.19-4.66-2.9-.44-.62-.74-1.34-1.16-2-.29-.42-1.37-2.37-.53-.62-.46-.95-1.48-2.28-2.65-2.34-.87,0-1.8.33-1.27,1.44Z"></path>
      <path class="cls-2" d="M100,167a14.41,14.41,0,0,0,6.29-.75l1.07-4.75-.2.06a3.23,3.23,0,0,0-2,2.53c-.11.51-.19,2.56.91,2.23l.2-.06a3.23,3.23,0,0,0,2-2.53c.11-.51.19-2.55-.91-2.23a13.41,13.41,0,0,1-5.56.84c-1.93-.27-3.46,4.43-1.8,4.66Z"></path>
      <path class="cls-2" d="M107.54,168.72c.07-.53.66-.92,1-1.38.59-.82,1.16-1.67,1.7-2.52a.88.88,0,0,0-.21-1.35l-.27-.17a3.74,3.74,0,0,0-3.45.05c-.71.36-1.59,1.34-.6,2l.27.17-.21-1.35c-.57.9-1.16,1.84-1.82,2.68-.48.61-1.17,1.11-1.27,1.93-.14,1.09,1.11,1.38,2,1.37s2.76-.36,2.89-1.41Z"></path>
      <path class="cls-2" d="M85.29,164.38c.24,0-.29-.16,0,0l.41.18s.42.24.19.1-.11-.06,0,0,.14.06-.14-.2c-.58-.66.14.24.25.36a3.71,3.71,0,0,0,.69.59A5.44,5.44,0,0,0,88,166c1.05.37,1.43-.74,1.3-1.6-.16-1-.8-2.51-1.89-2.89a3.75,3.75,0,0,0-.54-.18q-.67-.29.46.58l-.1-.14A3.91,3.91,0,0,0,86,160.56a4.49,4.49,0,0,0-2.12-.85c-2,0-.39,4.68,1.39,4.67Z"></path>
      <path class="cls-2" d="M86.06,164.1a3.72,3.72,0,0,1-.31-2c-.07.27.16-.29.21-.41a3.05,3.05,0,0,0,.3-1.33c0-.41-.5-.65-.82-.7a2.82,2.82,0,0,0-1.57.38,3.23,3.23,0,0,0-1.93,2.57v.19l.17-.86a9.29,9.29,0,0,0-.7,1.89,5.69,5.69,0,0,0,.33,2.48c.32,1,1.66.73,2.4.32s2.25-1.54,1.93-2.58Z"></path>
      <path class="cls-2" d="M84.86,156.32c1.55,1.38,4.61,2,6.58,2.14a23.8,23.8,0,0,0,11.91-2.16c1-.47,1.43-2.24,1.34-3.18l0-.27c-.29-3.25-3-.1-2.86,1.85l0,.27,1.34-3.18a22.1,22.1,0,0,1-10.54,1.79c-1.62-.09-4.57-.59-5.85-1.73-1.45-1.29-3.23,3.31-1.92,4.48Z"></path>
      <path class="cls-2" d="M196.54,186.16c3.47.48,7,1.37,10.11-.56,3.32-2.09,5.35-6,6-9.84.72-4.13.81-7-1.82-10.39s-6.1-6.37-10.38-7.12c-1.75-.3-4,4.12-1.93,4.48,3.4.59,6.22,2.94,8.51,5.44s2.7,5.48,2.08,8.93c-.32,1.76-1.3,4.36-3.26,5.08s-5.31-.23-7.39-.51c-1.79-.25-4,4.2-1.92,4.48Z"></path>
      <path class="cls-2" d="M67.73,173.18a5.82,5.82,0,0,1-5-4.94c-.14-2.53.14-4.23-1-6.61-.74-1.53-5.55-2.46-4.52-.35,1.11,2.29.55,4.11.81,6.5a6.6,6.6,0,0,0,2.14,3.84,13.42,13.42,0,0,0,9.05,4.69c3.26.23.53-3-1.45-3.14Z"></path>
    </g>
  </g>
</svg>
